<svg width="53" height="52" viewBox="0 0 53 52" fill="none" xmlns="http://www.w3.org/2000/svg">
<path d="M26.5 0C11.8676 0 0 11.6415 0 26C0 37.4877 7.59225 47.2333 18.1238 50.6718C19.4466 50.9123 19.875 50.1063 19.875 49.4217V44.5813C12.5036 46.1543 10.9688 41.5133 10.9688 41.5133C9.76304 38.5082 8.02508 37.7087 8.02508 37.7087C5.62021 36.0945 8.20837 36.1292 8.20837 36.1292C10.8694 36.3112 12.2695 38.8093 12.2695 38.8093C14.6324 42.783 18.4683 41.6347 19.981 40.9695C20.2173 39.2903 20.9041 38.142 21.6638 37.4942C15.7785 36.8333 9.59079 34.6038 9.59079 24.6437C9.59079 21.8032 10.6265 19.4848 12.3203 17.6648C12.0465 17.0083 11.1388 14.3628 12.5787 10.7835C12.5787 10.7835 14.8047 10.0858 19.8684 13.4485C21.9817 12.8722 24.2475 12.584 26.5 12.5732C28.7525 12.584 31.0205 12.8722 33.1382 13.4485C38.1975 10.0858 40.4191 10.7835 40.4191 10.7835C41.8612 14.365 40.9535 17.0105 40.6797 17.6648C42.3801 19.4848 43.407 21.8053 43.407 24.6437C43.407 34.6298 37.2082 36.829 31.3075 37.4725C32.2571 38.2785 33.125 39.8602 33.125 42.2868V49.4217C33.125 50.1128 33.549 50.9253 34.8939 50.6697C45.4166 47.2268 53 37.4833 53 26C53 11.6415 41.1346 0 26.5 0Z" fill="#f13d3d"/>
</svg>
