<svg width="52" height="52" viewBox="0 0 52 52" fill="none" xmlns="http://www.w3.org/2000/svg">
<path d="M26 0C11.6415 0 0 11.6415 0 26C0 40.3585 11.6415 52 26 52C40.3585 52 52 40.3585 52 26C52 11.6415 40.3585 0 26 0ZM21.6667 34.6667H17.3333V21.6667H21.6667V34.6667ZM19.5 19.7362C18.1848 19.7362 17.1167 18.6615 17.1167 17.3333C17.1167 16.0073 18.1827 14.9305 19.5 14.9305C20.8173 14.9305 21.8833 16.0073 21.8833 17.3333C21.8833 18.6615 20.8152 19.7362 19.5 19.7362ZM36.8333 34.6667H32.5043V28.4678C32.5043 24.3923 28.1667 24.7368 28.1667 28.4678V34.6667H23.8333V21.6667H28.1667V24.0348C30.056 20.5335 36.8333 20.2735 36.8333 27.3888V34.6667Z" fill="#f13d3d"/>
</svg>
