<svg xmlns="http://www.w3.org/2000/svg" xmlns:xlink="http://www.w3.org/1999/xlink" width="375" height="812" viewBox="0 0 375 812">
  <defs>
    <clipPath id="clip-path">
      <path id="Shape" d="M338.667-26.667h16.667A2.667,2.667,0,0,1,358-24v6h0a2.667,2.667,0,0,1-2.667,2.667H338.667A2.667,2.667,0,0,1,336-18v-6h0A2.667,2.667,0,0,1,338.667-26.667Z" transform="translate(0 44)" fill="none" clip-rule="evenodd"/>
    </clipPath>
    <clipPath id="clip-path-2">
      <path id="Shape-2" data-name="Shape" d="M359-23v4a2.17,2.17,0,0,0,1.328-2A2.17,2.17,0,0,0,359-23" transform="translate(0 44)" fill="#1583d8"/>
    </clipPath>
    <clipPath id="clip-path-3">
      <path id="Shape-3" data-name="Shape" d="M339.333-24.667h15.333A1.333,1.333,0,0,1,356-23.333v4.667h0a1.333,1.333,0,0,1-1.333,1.333H339.333A1.333,1.333,0,0,1,338-18.667v-4.667h0A1.333,1.333,0,0,1,339.333-24.667Z" transform="translate(0 44)" fill="#1583d8"/>
    </clipPath>
    <clipPath id="clip-path-4">
      <path id="Shape-4" data-name="Shape" d="M323.33-24.392a8.64,8.64,0,0,1,5.953,2.378.308.308,0,0,0,.433,0l1.156-1.167a.322.322,0,0,0,.093-.229.322.322,0,0,0-.1-.227,10.9,10.9,0,0,0-15.08,0,.322.322,0,0,0-.1.227.322.322,0,0,0,.093.229l1.156,1.167a.308.308,0,0,0,.433,0,8.641,8.641,0,0,1,5.954-2.378Zm0,3.8a4.907,4.907,0,0,1,3.294,1.27.31.31,0,0,0,.433-.006l1.155-1.167a.322.322,0,0,0,.094-.23.322.322,0,0,0-.1-.229,7.159,7.159,0,0,0-9.752,0,.322.322,0,0,0-.1.229.322.322,0,0,0,.094.23l1.154,1.167a.31.31,0,0,0,.433.006,4.907,4.907,0,0,1,3.292-1.27Zm2.219,2.784a.314.314,0,0,0,.094-.231.314.314,0,0,0-.1-.226,3.422,3.422,0,0,0-4.419,0,.314.314,0,0,0-.1.226.314.314,0,0,0,.094.231l2,2.016a.311.311,0,0,0,.222.093.312.312,0,0,0,.222-.093Z" transform="translate(0 44)" fill="#1583d8"/>
    </clipPath>
    <clipPath id="clip-path-5">
      <path id="Shape-5" data-name="Shape" d="M294.667-19.667h1a1,1,0,0,1,1,1v2a1,1,0,0,1-1,1h-1a1,1,0,0,1-1-1v-2a1,1,0,0,1,1-1Zm4.667-2h1a1,1,0,0,1,1,1v4a1,1,0,0,1-1,1h-1a1,1,0,0,1-1-1v-4A1,1,0,0,1,299.333-21.667ZM304-24h1a1,1,0,0,1,1,1v6.333a1,1,0,0,1-1,1h-1a1,1,0,0,1-1-1V-23A1,1,0,0,1,304-24Zm4.667-2.333h1a1,1,0,0,1,1,1v8.667a1,1,0,0,1-1,1h-1a1,1,0,0,1-1-1v-8.667a1,1,0,0,1,1-1Z" transform="translate(0 44)" fill="#1583d8"/>
    </clipPath>
    <clipPath id="clip-iPhone_X_XS_11_Pro_2">
      <rect width="375" height="812"/>
    </clipPath>
  </defs>
  <g id="iPhone_X_XS_11_Pro_2" data-name="iPhone X, XS, 11 Pro – 2" clip-path="url(#clip-iPhone_X_XS_11_Pro_2)">
    <rect width="375" height="812" fill="#fff"/>
    <g id="Mobile_wireframe" data-name="Mobile wireframe" transform="translate(-511.74 -0.189)">
      <g id="Phone_border_screen" data-name="Phone border screen" transform="translate(527 57)" fill="none">
        <path d="M50,0S152.478.229,172.073,0,294,0,294,0a50,50,0,0,1,50,50s.316,175.806,0,221.033,1.418,168.9,0,191.491S344,648,344,648a50,50,0,0,1-50,50s-92.248-1.079-117.546,0S50,698,50,698A50,50,0,0,1,0,648S-.085,538.786-.085,423.6c0-.615.085-243.281.085-243.281V50A50,50,0,0,1,50,0Z" stroke="none"/>
        <path d="M 212.3923797607422 1.89825439453125 C 191.4261932373047 1.89825439453125 177.86865234375 1.93243408203125 172.0962982177734 1.9998779296875 C 166.3073883056641 2.0673828125 152.7213745117188 2.1016845703125 131.7156524658203 2.1016845703125 C 95.95838928222656 2.1016845703125 50.45101928710938 2.0009765625 50.00003051757813 1.99993896484375 C 43.51919555664063 1.99993896484375 37.2332763671875 3.268798828125 31.31683349609375 5.771240234375 C 25.60128784179688 8.18865966796875 20.46774291992188 11.64996337890625 16.058837890625 16.058837890625 C 11.6500244140625 20.4677734375 8.188751220703125 25.60125732421875 5.77130126953125 31.31689453125 C 3.268829345703125 37.23321533203125 2.000030517578125 43.5191650390625 2.000030517578125 49.99993896484375 L 2.000030517578125 180.321533203125 C 1.99920654296875 182.7481689453125 1.91455078125 422.994140625 1.91455078125 423.601318359375 C 1.91455078125 537.4681396484375 1.99920654296875 646.90625 2.000030517578125 647.9999389648438 C 2.000030517578125 654.4807739257813 3.268829345703125 660.7667846679688 5.77130126953125 666.6831665039063 C 8.188751220703125 672.398681640625 11.6500244140625 677.5322265625 16.058837890625 681.941162109375 C 20.46774291992188 686.3499755859375 25.60128784179688 689.8112182617188 31.31683349609375 692.2286987304688 C 37.23318481445313 694.7311401367188 43.51919555664063 695.9999389648438 50.00003051757813 695.9999389648438 L 50.01065063476563 695.9999389648438 L 50.02139282226563 696.0000610351563 C 50.4708251953125 696.0048828125 95.39692687988281 696.4794311523438 132.4258422851563 696.4794311523438 C 154.1511077880859 696.4794311523438 168.9356536865234 696.3186645507813 176.36865234375 696.0017700195313 C 183.8576507568359 695.6824340820313 197.9224700927734 695.5205078125 218.1724700927734 695.5205078125 C 252.3585815429688 695.5205078125 293.0079956054688 695.9883422851563 294.0076293945313 695.9999389648438 C 300.4859313964844 695.9990234375 306.7689208984375 694.730224609375 312.68310546875 692.2286987304688 C 318.3987426757813 689.8112182617188 323.5321960449219 686.3499755859375 327.9411010742188 681.941162109375 C 332.3500061035156 677.5322265625 335.811279296875 672.398681640625 338.228759765625 666.6831665039063 C 340.7302856445313 660.7688598632813 341.9990844726563 654.4850463867188 342.0000305175781 648.0067138671875 C 341.9407348632813 641.1922607421875 340.59814453125 484.7958984375 342.0039367675781 462.3987731933594 C 342.8754577636719 448.5121459960938 342.541015625 394.740966796875 342.2459411621094 347.2995910644531 C 342.0572814941406 316.9717712402344 341.8791198730469 288.3258666992188 342.0001220703125 271.0186767578125 C 342.3125610351563 226.3183288574219 342.0032043457031 51.761474609375 342.0000305175781 49.99993896484375 C 342.0000305175781 43.5191650390625 340.731201171875 37.23321533203125 338.228759765625 31.31689453125 C 335.811279296875 25.60125732421875 332.3500061035156 20.4677734375 327.9411010742188 16.058837890625 C 323.5321960449219 11.64996337890625 318.3987426757813 8.18865966796875 312.68310546875 5.771240234375 C 306.7667541503906 3.268798828125 300.4808349609375 1.99993896484375 293.9955749511719 1.99993896484375 C 293.5407409667969 1.99896240234375 248.1041107177734 1.89825439453125 212.3923797607422 1.89825439453125 M 212.3923797607422 -0.10174560546875 C 248.5194549560547 -0.10174560546875 294.0000305175781 -6.103515625e-05 294.0000305175781 -6.103515625e-05 C 321.6141967773438 -6.103515625e-05 344.0000305175781 22.38580322265625 344.0000305175781 49.99993896484375 C 344.0000305175781 49.99993896484375 344.3161926269531 225.8064270019531 344.0000305175781 271.0326843261719 C 343.683837890625 316.259033203125 345.418212890625 439.92822265625 344.0000305175781 462.5240478515625 C 342.5817565917969 485.119873046875 344.0000305175781 647.9999389648438 344.0000305175781 647.9999389648438 C 344.0000305175781 675.6142578125 321.6141967773438 697.9999389648438 294.0000305175781 697.9999389648438 C 294.0000305175781 697.9999389648438 252.9996185302734 697.5205078125 218.1724853515625 697.5205078125 C 200.7557373046875 697.5205078125 184.8876495361328 697.6403198242188 176.4538421630859 697.9999389648438 C 168.0215606689453 698.3594970703125 151.1583251953125 698.4793701171875 132.4257965087891 698.4793701171875 C 94.95730590820313 698.4793701171875 50.00003051757813 697.9999389648438 50.00003051757813 697.9999389648438 C 22.3857421875 697.9999389648438 3.0517578125e-05 675.6142578125 3.0517578125e-05 647.9999389648438 C 3.0517578125e-05 647.9999389648438 -0.08544921875 538.7861328125 -0.08544921875 423.601318359375 C -0.08544921875 422.9867858886719 3.0517578125e-05 180.32080078125 3.0517578125e-05 180.32080078125 L 3.0517578125e-05 49.99993896484375 C 3.0517578125e-05 22.38580322265625 22.3857421875 -6.103515625e-05 50.00003051757813 -6.103515625e-05 C 50.00003051757813 -6.103515625e-05 95.54698181152344 0.10162353515625 131.7156677246094 0.10162353515625 C 149.8033294677734 0.10162353515625 165.5405883789063 0.07623291015625 172.0729217529297 -6.103515625e-05 C 178.6040802001953 -0.0762939453125 194.3304901123047 -0.10174560546875 212.3923797607422 -0.10174560546875 Z" stroke="none" fill="#1583d8"/>
      </g>
      <g id="Phone_screen" data-name="Phone screen" transform="translate(2662 617)" fill="#fff" opacity="0.6">
        <path d="M -1843.000244140625 116.9998779296875 L -2082.999755859375 116.9998779296875 C -2087.18505859375 116.9998779296875 -2091.244873046875 116.1803741455078 -2095.06640625 114.5641250610352 C -2098.757568359375 113.0027923583984 -2102.072998046875 110.7673797607422 -2104.919921875 107.9201278686523 C -2107.76708984375 105.0732955932617 -2110.002685546875 101.7580413818359 -2111.564453125 98.06629180908203 C -2113.180419921875 94.24471282958984 -2114 90.18512725830078 -2114 86.00038146972656 L -2114 -58.67995452880859 L -2114 -393.1208801269531 L -2114 -506.9996948242188 C -2114 -511.1846923828125 -2113.180419921875 -515.2444458007813 -2111.564453125 -519.0662231445313 C -2110.002685546875 -522.7578735351563 -2107.76708984375 -526.0733032226563 -2104.920166015625 -528.9202270507813 C -2102.07275390625 -531.7676391601563 -2098.75732421875 -534.0030517578125 -2095.066162109375 -535.5643920898438 C -2091.244873046875 -537.1806030273438 -2087.18505859375 -538.0001220703125 -2082.999755859375 -538.0001220703125 L -2047.961547851563 -538.0001220703125 C -2047.986938476563 -537.6674194335938 -2047.999633789063 -537.33349609375 -2047.999633789063 -537.0003051757813 L -2047.999633789063 -525.9996337890625 C -2047.999633789063 -522.5275268554688 -2046.647583007813 -519.2631225585938 -2044.192504882813 -516.8076782226563 C -2041.737060546875 -514.3522338867188 -2038.472412109375 -512.9999389648438 -2035 -512.9999389648438 L -1890 -512.9999389648438 C -1886.527587890625 -512.9999389648438 -1883.262939453125 -514.3522338867188 -1880.8076171875 -516.8076782226563 C -1878.352416992188 -519.2631225585938 -1877.000366210938 -522.5275268554688 -1877.000366210938 -525.9996337890625 L -1877.000366210938 -537.0003051757813 C -1877.000366210938 -537.3336791992188 -1877.013061523438 -537.6676025390625 -1877.038452148438 -538.0001220703125 L -1843.000244140625 -538.0001220703125 C -1838.814697265625 -538.0001220703125 -1834.7548828125 -537.1806030273438 -1830.933715820313 -535.5643920898438 C -1827.242431640625 -534.0030517578125 -1823.927001953125 -531.7677001953125 -1821.079711914063 -528.9202880859375 C -1818.232299804688 -526.0729370117188 -1815.996948242188 -522.757568359375 -1814.435546875 -519.0661010742188 C -1812.8193359375 -515.2448120117188 -1811.999877929688 -511.1850280761719 -1811.999877929688 -506.9996948242188 L -1811.999877929688 86.00038146972656 C -1811.999877929688 90.18546295166016 -1812.8193359375 94.24504089355469 -1814.435546875 98.06637573242188 C -1815.996948242188 101.7576293945313 -1818.232299804688 105.0728759765625 -1821.079711914063 107.9200439453125 C -1823.926635742188 110.7672958374023 -1827.242065429688 113.0026245117188 -1830.933715820313 114.5641250610352 C -1834.7548828125 116.1803741455078 -1838.814697265625 116.9998779296875 -1843.000244140625 116.9998779296875 Z" stroke="none"/>
        <path d="M -1843.000244140625 115.9998779296875 C -1838.94921875 115.9998779296875 -1835.020629882813 115.2069625854492 -1831.3232421875 113.6431274414063 C -1827.750854492188 112.1320419311523 -1824.542358398438 109.9687118530273 -1821.786743164063 107.2129592895508 C -1819.030883789063 104.4572982788086 -1816.867553710938 101.2488784790039 -1815.3564453125 97.67679595947266 C -1813.792724609375 93.97946166992188 -1812.999877929688 90.05088043212891 -1812.999877929688 86.00038146972656 L -1812.999877929688 -506.9996948242188 C -1812.999877929688 -511.0504455566406 -1813.792724609375 -514.9791870117188 -1815.3564453125 -518.676513671875 C -1816.867553710938 -522.248779296875 -1819.030883789063 -525.4573974609375 -1821.786865234375 -528.2131958007813 C -1824.542602539063 -530.9690551757813 -1827.751220703125 -533.1324462890625 -1831.3232421875 -534.6433715820313 C -1835.020629882813 -536.2072143554688 -1838.94921875 -537.0001220703125 -1843.000244140625 -537.0001220703125 L -1876.000366210938 -537.0003051757813 L -1876.000366210938 -525.9996337890625 C -1876.000366210938 -522.2604370117188 -1877.456420898438 -518.744873046875 -1880.100463867188 -516.1005249023438 C -1882.744750976563 -513.456298828125 -1886.260498046875 -511.9999694824219 -1890 -511.9999694824219 L -2035 -511.9999694824219 C -2038.739501953125 -511.9999694824219 -2042.255249023438 -513.456298828125 -2044.899536132813 -516.1006469726563 C -2047.543579101563 -518.744873046875 -2048.999755859375 -522.2604370117188 -2048.999755859375 -525.9996337890625 L -2048.999755859375 -537.0001220703125 L -2082.999755859375 -537.0001220703125 C -2087.050537109375 -537.0001220703125 -2090.979248046875 -536.2072143554688 -2094.6767578125 -534.6433715820313 C -2098.248779296875 -533.1324462890625 -2101.457275390625 -530.9689331054688 -2104.212890625 -528.213134765625 C -2106.968505859375 -525.4577026367188 -2109.132080078125 -522.2491455078125 -2110.643310546875 -518.6766967773438 C -2112.20703125 -514.9788818359375 -2113 -511.0501098632813 -2113 -506.9996948242188 L -2113 -393.1208801269531 L -2113 -58.67995452880859 L -2113 86.00038146972656 C -2113 90.05054473876953 -2112.20703125 93.9791259765625 -2110.643310546875 97.67662811279297 C -2109.132080078125 101.2492141723633 -2106.968505859375 104.4577102661133 -2104.212890625 107.2130432128906 C -2101.457275390625 109.9687957763672 -2098.248779296875 112.132209777832 -2094.6767578125 113.6431274414063 C -2090.979248046875 115.2069625854492 -2087.050537109375 115.9998779296875 -2082.999755859375 115.9998779296875 L -1843.000244140625 115.9998779296875 M -1843.000244140625 117.9998779296875 L -2082.999755859375 117.9998779296875 C -2087.319580078125 117.9998779296875 -2091.510498046875 117.1537933349609 -2095.455810546875 115.4851303100586 C -2099.266357421875 113.8733749389648 -2102.6884765625 111.566047668457 -2105.627197265625 108.6272125244141 C -2108.56591796875 105.6887969970703 -2110.873291015625 102.2666244506836 -2112.4853515625 98.45587921142578 C -2114.15380859375 94.51054382324219 -2115 90.31996154785156 -2115 86.00038146972656 L -2115 -58.67995452880859 L -2115 -393.1208801269531 L -2115 -506.9996948242188 C -2115 -511.3195495605469 -2114.15380859375 -515.5103149414063 -2112.4853515625 -519.4556884765625 C -2110.873291015625 -523.2665405273438 -2108.56591796875 -526.6887817382813 -2105.627197265625 -529.6273803710938 C -2102.688232421875 -532.5662841796875 -2099.26611328125 -534.8735961914063 -2095.455810546875 -536.4853515625 C -2091.510498046875 -538.154052734375 -2087.319580078125 -539.0001220703125 -2082.999755859375 -539.0001220703125 L -2046.833740234375 -539.0001220703125 C -2046.943359375 -538.3458862304688 -2046.999633789063 -537.6732788085938 -2046.999633789063 -537.0003051757813 L -2046.999633789063 -525.9996337890625 C -2046.999633789063 -522.7945556640625 -2045.75146484375 -519.7811889648438 -2043.4853515625 -517.5147705078125 C -2041.21875 -515.2482299804688 -2038.205322265625 -513.9999389648438 -2035 -513.9999389648438 L -1890 -513.9999389648438 C -1886.794677734375 -513.9999389648438 -1883.78125 -515.2482299804688 -1881.5146484375 -517.5147705078125 C -1879.24853515625 -519.7811889648438 -1878.000366210938 -522.7945556640625 -1878.000366210938 -525.9996337890625 L -1878.000366210938 -537.0003051757813 C -1878.000366210938 -537.6710205078125 -1878.05615234375 -538.3438720703125 -1878.166259765625 -539.0001220703125 L -1843.000244140625 -539.0001220703125 C -1838.68017578125 -539.0001220703125 -1834.489379882813 -538.154052734375 -1830.544189453125 -536.4853515625 C -1826.733764648438 -534.8737182617188 -1823.3115234375 -532.5663452148438 -1820.37255859375 -529.6273803710938 C -1817.433715820313 -526.6885986328125 -1815.126342773438 -523.266357421875 -1813.514526367188 -519.4556884765625 C -1811.845947265625 -515.5104370117188 -1810.999877929688 -511.3197021484375 -1810.999877929688 -506.9996948242188 L -1810.999877929688 86.00038146972656 C -1810.999877929688 90.32012939453125 -1811.845947265625 94.51071166992188 -1813.514526367188 98.45587921142578 C -1815.126342773438 102.2663803100586 -1817.433715820313 105.6885452270508 -1820.37255859375 108.6272125244141 C -1823.311279296875 111.566047668457 -1826.733642578125 113.8733749389648 -1830.544189453125 115.4851303100586 C -1834.489379882813 117.1537933349609 -1838.68017578125 117.9998779296875 -1843.000244140625 117.9998779296875 Z" stroke="none" fill="#1583d8"/>
      </g>
      <g id="Header_icon" data-name="Header icon" transform="translate(-4896 -2128)">
        <path id="Line" d="M1.47,75.29c.415.23,16.24.3,24.779.058,7.515-.212,15.03-.818,22.563-.882.454,0,3.09,0,3.561,0,.525.132,1.292-.592,1.293-1.211s-1.024-1.127-1.935-1.083c-7.412-.046-14.717.324-22.176.376-7.977.327-25.064.07-25.064.07l-3.1-.184S.132,72.578.1,73.743,1.055,75.06,1.47,75.29Z" transform="translate(5568.247 2141.488)" fill="#1583d8"/>
        <circle id="Ellipse_335" data-name="Ellipse 335" cx="3.5" cy="3.5" r="3.5" transform="translate(5626 2211)" fill="#1583d8"/>
      </g>
      <path id="Line-2" data-name="Line" d="M2.6,75.378c1.069.236,41.843.308,63.843.06,19.363-.218,38.725-.841,58.134-.907,1.169,0,7.961,0,9.175,0,1.352.136,1.133-.818,1.135-1.454s-.443-.95-2.788-.9c-19.1-.047-37.919.333-57.138.387-20.552.336-64.578.072-64.578.072l-7.987-.189S.833,72.6.758,73.8,1.53,75.141,2.6,75.378Z" transform="translate(630.747 641.488)" fill="#1583d8" stroke="#1583d8" stroke-width="1"/>
      <g id="status_bar_light" data-name="status bar/light" transform="translate(470 5)">
        <g id="Battery" transform="translate(13 80)">
          <g id="Border" clip-path="url(#clip-path)">
            <path id="Fill" d="M2.667,0H19.333A2.667,2.667,0,0,1,22,2.667v6h0a2.667,2.667,0,0,1-2.667,2.667H2.667A2.667,2.667,0,0,1,0,8.667v-6H0A2.667,2.667,0,0,1,2.667,0Z" transform="translate(336 17.333)" fill="none" stroke="rgba(21,131,216,0.5)" stroke-width="2"/>
          </g>
          <g id="Cap" clip-path="url(#clip-path-2)">
            <path id="Fill-2" data-name="Fill" d="M354-28h11.328v14H354Z" transform="translate(0 44)" fill="#1583d8"/>
          </g>
          <g id="Capacity" clip-path="url(#clip-path-3)">
            <path id="Fill-3" data-name="Fill" d="M333-29.667h28v17.333H333Z" transform="translate(0 44)" fill="#1583d8"/>
          </g>
        </g>
        <g id="Wifi" transform="translate(13 80)">
          <g id="Wifi-2" data-name="Wifi" clip-path="url(#clip-path-4)">
            <path id="Fill-4" data-name="Fill" d="M310.694-31.669h25.272V-10.7H310.694Z" transform="translate(0 44)" fill="#1583d8"/>
          </g>
        </g>
        <g id="Cellular_Connection" data-name="Cellular Connection" transform="translate(13 80)">
          <g id="Cellular_Connection-2" data-name="Cellular Connection" clip-path="url(#clip-path-5)">
            <path id="Fill-5" data-name="Fill" d="M288.667-31.333h27v20.667h-27Z" transform="translate(0 44)" fill="#1583d8"/>
          </g>
        </g>
        <g id="Bars___Time_Black" data-name="Bars/_/Time Black" transform="translate(62 80)">
          <path id="Background" d="M21-19H75V-35H21Z" transform="translate(8 50)" fill="none"/>
          <text id="_10:20" data-name="10:20" transform="translate(33 29)" fill="#1583d8" font-size="14" font-family="TektonPro-Bold, Tekton Pro" font-weight="700"><tspan x="0" y="0">10:20</tspan></text>
        </g>
      </g>
    </g>
    <text id="How_to_play_" data-name="How to play?" transform="translate(105 204)" fill="#1583d8" font-size="32" font-family="TektonPro-Bold, Tekton Pro" font-weight="700"><tspan x="0" y="0">How to play?</tspan></text>
    <g id="Buttons_Square_Button_Default_Confirm" data-name="Buttons / Square Button / Default / Confirm" transform="translate(23.566 -276.412)">
      <path id="Square_Button" data-name="Square Button" d="M2.257,35.791c-.011-5.34.17-10.674.141-16.011C2.37,13.6,2.028,7.433,2.151,1.26L1.091,2.31q18.486.252,36.972.3c11.423.028,22.832-.28,34.254-.35,9.5-.059,19,.042,28.5-.168l-1.06-1.05c-.261,11.584-.721,23.164-.7,34.748l1.06-1.05c-14.433.476-28.895.22-43.331.444-11.8.182-23.62.07-35.427-.021q-10.133-.079-20.266-.213L2,36.53c.035-.07.071-.143.11-.213.615-1.2-1.215-2.268-1.83-1.06-.035.07-.071.143-.11.213a1.061,1.061,0,0,0,.915,1.578q18.851.257,37.706.3c11.511.024,23.015-.322,34.523-.315,8.935,0,17.864.094,26.8-.2a1.072,1.072,0,0,0,1.06-1.05c-.021-11.584.438-23.164.7-34.748a1.063,1.063,0,0,0-1.06-1.05C85.881.318,70.936.245,56,.448,44.373.605,32.735.5,21.1.413Q11.094.345,1.091.21A1.07,1.07,0,0,0,.031,1.26C-.092,7.437.254,13.607.282,19.78.307,25.117.13,30.451.141,35.791A1.059,1.059,0,0,0,2.257,35.791Z" transform="translate(112.995 902.011)" fill="#1583d8"/>
      <text id="skip" transform="translate(164 927)" fill="#1583d8" font-size="18" font-family="TektonPro-Bold, Tekton Pro" font-weight="700"><tspan x="-14.895" y="0">skip</tspan></text>
    </g>
    <g id="Media_Cross" data-name="Media / Cross" transform="translate(88.001 249.998)">
      <line id="Line_1" data-name="Line 1" x2="193.9" y2="194.499" transform="translate(4.034 3.106)" fill="none" stroke="#1583d8" stroke-miterlimit="10" stroke-width="2"/>
      <line id="Line_2" data-name="Line 2" x1="193.589" y2="193.592" transform="translate(3.01 3.025)" fill="none" stroke="#1583d8" stroke-miterlimit="10" stroke-width="2"/>
      <path id="Path_972" data-name="Path 972" d="M103.991.063Q78.629.656,53.266,1.258l-19.755.458q-6.539.148-13.086.305c-2.909.072-5.827.135-8.736.207-2.372.063-6.319.916-8.548.027-.859-.341-1.665.512-1.7,1.3C-1.441,67.894,1.038,132.3.17,196.675a1.367,1.367,0,0,0,1.343,1.348c21.625.925,43.277,1.6,64.921,1.9,34.989.476,69.978-1.231,104.976-1.213,9.085,0,18.161.036,27.246.189A1.361,1.361,0,0,0,200,197.546c-1.548-64.974.349-129.966-1.19-194.932a1.373,1.373,0,0,0-1.343-1.348C172.044.791,146.624.333,121.195.09c-5.737-.054-11.475-.153-17.2-.027a1.349,1.349,0,0,0,0,2.7c27.7-.6,55.522.512,83.225,1.006l10.249.189-1.343-1.348c1.548,64.974-.349,129.966,1.19,194.932l1.343-1.348c-25.429-.449-50.886-.225-76.306.27-31.7.62-63.211.836-94.915-.2q-12.97-.418-25.922-.952l1.343,1.348c.868-64.363-1.611-128.762,1.271-193.1-.564.431-1.128.862-1.7,1.294,1.772.71,4.162.2,6.042.153l9.184-.216,13.722-.323q10.553-.243,21.106-.494l51.512-1.213C105.71,2.713,105.719.018,103.991.063Z" transform="translate(0 0)" fill="#1583d8"/>
    </g>
    <text id="Lorem_ipsum_dolor_sit_amet_consetetur_sadipscing_elitr_sed_diam_nonumy_eirmod_tempor_invidunt_ut_labore_et_dolore_magna_aliquyam_erat_" data-name="Lorem ipsum dolor sit amet, consetetur 
sadipscing elitr, sed diam nonumy 
eirmod tempor invidunt ut labore et 
dolore magna aliquyam erat," transform="translate(187.5 496)" fill="#1583d8" font-size="15" font-family="TektonPro-Bold, Tekton Pro" font-weight="700"><tspan x="-122.497" y="0">Lorem ipsum dolor sit amet, consetetur </tspan><tspan x="-103.065" y="21">sadipscing elitr, sed diam nonumy </tspan><tspan x="-109.305" y="42">eirmod tempor invidunt ut labore et </tspan><tspan x="-85.073" y="63">dolore magna aliquyam erat,</tspan></text>
    <g id="Radios_Default" data-name="Radios / Default" transform="translate(198.593 579)">
      <path id="Oval" d="M1.133,5.052a4.871,4.871,0,0,1,5.79-3.84c2.234.407,2.968,2.837,2.955,4.841-.022,3.169-4.045,4-6.445,2.983A3.772,3.772,0,0,1,1.152,4.9C1.23,4.187.11,4.193.031,4.9c-.478,4.363,4.156,6.671,7.9,5.267a4.442,4.442,0,0,0,3.057-3.96c.1-2.385-.87-5.235-3.362-5.982C4.383-.741.578,1.36.052,4.755-.058,5.459,1.021,5.764,1.133,5.052Z" transform="translate(0.003 0.009)" fill="#1583d8"/>
    </g>
    <g id="Radios_Default-2" data-name="Radios / Default" transform="translate(182.008 579)">
      <path id="Oval-2" data-name="Oval" d="M1.133,5.052a4.871,4.871,0,0,1,5.79-3.84c2.234.407,2.968,2.837,2.955,4.841-.022,3.169-4.045,4-6.445,2.983A3.772,3.772,0,0,1,1.152,4.9C1.23,4.187.11,4.193.031,4.9c-.478,4.363,4.156,6.671,7.9,5.267a4.442,4.442,0,0,0,3.057-3.96c.1-2.385-.87-5.235-3.362-5.982C4.383-.741.578,1.36.052,4.755-.058,5.459,1.021,5.764,1.133,5.052Z" transform="translate(0.003 0.009)" fill="#1583d8"/>
    </g>
    <g id="Radios_Checked_2" data-name="Radios / Checked 2" transform="translate(165.404 579)">
      <g id="Oval-3" data-name="Oval" transform="translate(0 0)">
        <path id="Oval-4" data-name="Oval" d="M.034,4.92a.639.639,0,0,1,.014-.079.645.645,0,0,1,.007-.069C.583,1.371,4.393-.734,7.647.237c2.5.748,3.466,3.6,3.367,5.992A4.45,4.45,0,0,1,7.952,10.2a6.52,6.52,0,0,1-2.287.411C2.561,10.606-.35,8.425.034,4.92Z" fill="#1583d8"/>
      </g>
    </g>
  </g>
</svg>
