<svg xmlns="http://www.w3.org/2000/svg" xmlns:xlink="http://www.w3.org/1999/xlink" width="1920" height="1080" viewBox="0 0 1920 1080">
  <defs>
    <clipPath id="clip-path">
      <path id="Shape" d="M338.667-26.667h16.667A2.667,2.667,0,0,1,358-24v6h0a2.667,2.667,0,0,1-2.667,2.667H338.667A2.667,2.667,0,0,1,336-18v-6h0A2.667,2.667,0,0,1,338.667-26.667Z" transform="translate(-336 26.667)" fill="none" clip-rule="evenodd"/>
    </clipPath>
    <clipPath id="clip-path-2">
      <path id="Shape-2" data-name="Shape" d="M359-23v4a2.17,2.17,0,0,0,1.328-2A2.17,2.17,0,0,0,359-23" transform="translate(-359 23)" fill="#1583d8"/>
    </clipPath>
    <clipPath id="clip-path-3">
      <path id="Shape-3" data-name="Shape" d="M339.333-24.667h15.333A1.333,1.333,0,0,1,356-23.333v4.667h0a1.333,1.333,0,0,1-1.333,1.333H339.333A1.333,1.333,0,0,1,338-18.667v-4.667h0A1.333,1.333,0,0,1,339.333-24.667Z" transform="translate(-338 24.667)" fill="#1583d8"/>
    </clipPath>
    <clipPath id="clip-path-4">
      <path id="Shape-4" data-name="Shape" d="M323.33-24.392a8.64,8.64,0,0,1,5.953,2.378.308.308,0,0,0,.433,0l1.156-1.167a.321.321,0,0,0,.093-.229.321.321,0,0,0-.1-.227,10.9,10.9,0,0,0-15.08,0,.322.322,0,0,0-.1.227.322.322,0,0,0,.093.229l1.156,1.167a.308.308,0,0,0,.433,0,8.64,8.64,0,0,1,5.954-2.378Zm0,3.8a4.907,4.907,0,0,1,3.294,1.27.31.31,0,0,0,.433-.006l1.155-1.167a.322.322,0,0,0,.094-.23.322.322,0,0,0-.1-.229,7.159,7.159,0,0,0-9.752,0,.322.322,0,0,0-.1.229.322.322,0,0,0,.094.23l1.154,1.167a.31.31,0,0,0,.433.006,4.907,4.907,0,0,1,3.292-1.27Zm2.219,2.784a.314.314,0,0,0,.094-.231.314.314,0,0,0-.1-.226,3.422,3.422,0,0,0-4.419,0,.314.314,0,0,0-.1.226.314.314,0,0,0,.094.231l2,2.016a.311.311,0,0,0,.222.093.312.312,0,0,0,.222-.093Z" transform="translate(-315.694 26.669)" fill="#1583d8"/>
    </clipPath>
    <clipPath id="clip-path-5">
      <path id="Shape-5" data-name="Shape" d="M294.667-19.667h1a1,1,0,0,1,1,1v2a1,1,0,0,1-1,1h-1a1,1,0,0,1-1-1v-2a1,1,0,0,1,1-1Zm4.667-2h1a1,1,0,0,1,1,1v4a1,1,0,0,1-1,1h-1a1,1,0,0,1-1-1v-4A1,1,0,0,1,299.333-21.667ZM304-24h1a1,1,0,0,1,1,1v6.333a1,1,0,0,1-1,1h-1a1,1,0,0,1-1-1V-23A1,1,0,0,1,304-24Zm4.667-2.333h1a1,1,0,0,1,1,1v8.667a1,1,0,0,1-1,1h-1a1,1,0,0,1-1-1v-8.667a1,1,0,0,1,1-1Z" transform="translate(-293.667 26.333)" fill="#1583d8"/>
    </clipPath>
    <clipPath id="clip-Research_5_persona_5">
      <rect width="1920" height="1080"/>
    </clipPath>
  </defs>
  <g id="Research_5_persona_5" data-name="Research 5_persona – 5" clip-path="url(#clip-Research_5_persona_5)">
    <rect width="1920" height="1080" fill="rgba(70,98,158,0.1)"/>
    <g id="Mobile_wireframe" data-name="Mobile wireframe" transform="translate(577.174 190.709)">
      <g id="Phone_border_screen" data-name="Phone border screen" transform="translate(0.085 0.102)" fill="none">
        <path d="M50,0S152.478.229,172.073,0,294,0,294,0a50,50,0,0,1,50,50s.316,175.806,0,221.033,1.418,168.9,0,191.491S344,648,344,648a50,50,0,0,1-50,50s-92.248-1.079-117.546,0S50,698,50,698A50,50,0,0,1,0,648S-.085,538.786-.085,423.6c0-.615.085-243.28.085-243.28V50A50,50,0,0,1,50,0Z" stroke="none"/>
        <path d="M 212.3923645019531 1.89825439453125 C 191.4261779785156 1.89825439453125 177.8686370849609 1.93243408203125 172.0962829589844 1.9998779296875 C 166.307373046875 2.0673828125 152.7213592529297 2.1016845703125 131.7156372070313 2.1016845703125 C 95.9583740234375 2.1016845703125 50.45098876953125 2.0009765625 50 1.99993896484375 C 43.51919555664063 1.99993896484375 37.2332763671875 3.268798828125 31.31683349609375 5.771240234375 C 25.60128784179688 8.18865966796875 20.46774291992188 11.64996337890625 16.05880737304688 16.058837890625 C 11.64999389648438 20.4677734375 8.188720703125 25.60125732421875 5.771270751953125 31.31689453125 C 3.268829345703125 37.23321533203125 2 43.5191650390625 2 49.99993896484375 L 2 180.321533203125 C 1.999176025390625 182.7481689453125 1.91455078125 422.9940490722656 1.91455078125 423.6012268066406 C 1.91455078125 537.468017578125 1.999176025390625 646.90625 2 647.9999389648438 C 2 654.4807739257813 3.268829345703125 660.7667846679688 5.771270751953125 666.6831665039063 C 8.188720703125 672.398681640625 11.64999389648438 677.5322265625 16.05880737304688 681.941162109375 C 20.46774291992188 686.3499755859375 25.60128784179688 689.8112182617188 31.31683349609375 692.2286987304688 C 37.23318481445313 694.7311401367188 43.51919555664063 695.9999389648438 50 695.9999389648438 L 50.01065063476563 695.9999389648438 L 50.0213623046875 696.0000610351563 C 50.4708251953125 696.0048828125 95.3963623046875 696.4794311523438 132.4258270263672 696.4794311523438 C 154.1511840820313 696.4794311523438 168.9357299804688 696.3186645507813 176.3687286376953 696.0017700195313 C 183.8577270507813 695.6824340820313 197.9225463867188 695.5205078125 218.1724548339844 695.5205078125 C 252.3585510253906 695.5205078125 293.0079956054688 695.9883422851563 294.0075988769531 695.9999389648438 C 300.4859008789063 695.9990234375 306.7689819335938 694.730224609375 312.6831970214844 692.2286987304688 C 318.3987426757813 689.8112182617188 323.5322875976563 686.3499755859375 327.9411926269531 681.941162109375 C 332.3500061035156 677.5322265625 335.811279296875 672.398681640625 338.2287292480469 666.6831665039063 C 340.7302551269531 660.7689208984375 341.9990844726563 654.4850463867188 342 648.0067138671875 C 341.9407043457031 641.1922607421875 340.59814453125 484.7958374023438 342.00390625 462.398681640625 C 342.8754577636719 448.5120544433594 342.541015625 394.7408752441406 342.2459106445313 347.2994995117188 C 342.0572814941406 316.9716796875 341.8790893554688 288.3258666992188 342.0000915527344 271.0186767578125 C 342.3125610351563 226.3182373046875 342.003173828125 51.761474609375 342 49.99993896484375 C 342 43.5191650390625 340.7311706542969 37.23321533203125 338.2287292480469 31.31689453125 C 335.811279296875 25.60125732421875 332.3500061035156 20.4677734375 327.9411926269531 16.058837890625 C 323.5322875976563 11.64996337890625 318.3987426757813 8.18865966796875 312.6831970214844 5.771240234375 C 306.7667236328125 3.268798828125 300.4808349609375 1.99993896484375 293.9955444335938 1.99993896484375 C 293.5407409667969 1.99896240234375 248.1040954589844 1.89825439453125 212.3923645019531 1.89825439453125 M 212.3924102783203 -0.10174560546875 C 248.5194854736328 -0.10174560546875 294 -6.103515625e-05 294 -6.103515625e-05 C 321.6142883300781 -6.103515625e-05 344 22.38580322265625 344 49.99993896484375 C 344 49.99993896484375 344.3161926269531 225.8063354492188 344 271.0326843261719 C 343.6838073730469 316.2589721679688 345.4181823730469 439.9281311035156 344 462.5239562988281 C 342.5817260742188 485.1197814941406 344 647.9999389648438 344 647.9999389648438 C 344 675.6142578125 321.6142883300781 697.9999389648438 294 697.9999389648438 C 294 697.9999389648438 252.9996032714844 697.5205078125 218.1725006103516 697.5205078125 C 200.7557678222656 697.5205078125 184.8876953125 697.6403198242188 176.4539184570313 697.9999389648438 C 168.0216369628906 698.3594970703125 151.1583862304688 698.4793701171875 132.4258422851563 698.4793701171875 C 94.95733642578125 698.4793701171875 50 697.9999389648438 50 697.9999389648438 C 22.3857421875 697.9999389648438 0 675.6142578125 0 647.9999389648438 C 0 647.9999389648438 -0.08544921875 538.7860107421875 -0.08544921875 423.6012268066406 C -0.08544921875 422.9866943359375 0 180.32080078125 0 180.32080078125 L 0 49.99993896484375 C 0 22.38580322265625 22.3857421875 -6.103515625e-05 50 -6.103515625e-05 C 50 -6.103515625e-05 95.54696655273438 0.10162353515625 131.7156524658203 0.10162353515625 C 149.8033142089844 0.10162353515625 165.5405731201172 0.07623291015625 172.0729064941406 -6.103515625e-05 C 178.6040954589844 -0.0762939453125 194.3305206298828 -0.10174560546875 212.3924102783203 -0.10174560546875 Z" stroke="none" fill="#1583d8"/>
      </g>
      <g id="Phone_screen" data-name="Phone screen" transform="translate(20.325 20.791)" fill="#fff" opacity="0.6">
        <path d="M 271.9998474121094 656 L 32.00043869018555 656 C 27.81502342224121 656 23.75527381896973 655.1804809570313 19.93402290344238 653.5642700195313 C 16.24260711669922 652.0029907226563 12.92718982696533 649.767578125 10.07985687255859 646.920166015625 C 7.232439994812012 644.07275390625 4.997023582458496 640.7574462890625 3.435773372650146 637.0661010742188 C 1.819523453712463 633.2447509765625 1.000023484230042 629.1849975585938 1.000023484230042 624.9996948242188 L 1.000023484230042 480.320068359375 L 1.000023484230042 145.8791656494141 L 1.000023484230042 32.00041580200195 C 1.000023484230042 27.81500053405762 1.819523453712463 23.75525093078613 3.435773372650146 19.93400001525879 C 4.997023582458496 16.24258422851563 7.232439994812012 12.92716693878174 10.07985687255859 10.07983303070068 C 12.92718982696533 7.23241662979126 16.24260711669922 4.997000217437744 19.93402290344238 3.435750007629395 C 23.75527381896973 1.819499969482422 27.81502342224121 1 32.00043869018555 1 L 67.03852081298828 1 C 67.01319122314453 1.332530736923218 67.00044250488281 1.666465640068054 67.00044250488281 1.999833345413208 L 67.00044250488281 12.99958324432373 C 67.00044250488281 20.16816711425781 72.83210754394531 26.0002498626709 80.00010681152344 26.0002498626709 L 225.0000305175781 26.0002498626709 C 232.1680297851563 26.0002498626709 237.9996948242188 20.16816711425781 237.9996948242188 12.99958324432373 L 237.9996948242188 1.999833345413208 C 237.9996948242188 1.666465640068054 237.9869384765625 1.332530736923218 237.9616088867188 1 L 271.9998474121094 1 C 276.1851806640625 1 280.2449340820313 1.819499969482422 284.0663452148438 3.435750007629395 C 287.7575988769531 4.997000217437744 291.0729370117188 7.23241662979126 293.9203491210938 10.07983303070068 C 296.7677612304688 12.92716693878174 299.0032043457031 16.24258422851563 300.564453125 19.93400001525879 C 302.1806945800781 23.75525093078613 303.0001831054688 27.81500053405762 303.0001831054688 32.00041580200195 L 303.0001831054688 624.9996948242188 C 303.0001831054688 629.1849975585938 302.1806945800781 633.2447509765625 300.564453125 637.066162109375 C 299.0032043457031 640.7574462890625 296.7677612304688 644.07275390625 293.9203491210938 646.920166015625 C 291.0729370117188 649.767578125 287.7575988769531 652.0029907226563 284.0662841796875 653.5642700195313 C 280.2449340820313 655.1804809570313 276.1851806640625 656 271.9998474121094 656 Z" stroke="none"/>
        <path d="M 271.9998474121094 655 C 276.0505981445313 655 279.9792785644531 654.2070922851563 283.6767883300781 652.6432495117188 C 287.2488708496094 651.1324462890625 290.4573669433594 648.968994140625 293.2132873535156 646.2130126953125 C 295.9691772460938 643.4571533203125 298.1325988769531 640.2486572265625 299.6434326171875 636.6765747070313 C 301.207275390625 632.9790649414063 302.0001831054688 629.0504150390625 302.0001831054688 624.9996948242188 L 302.0001831054688 32.00041580200195 C 302.0001831054688 27.94958305358887 301.207275390625 24.02091598510742 299.6434326171875 20.32349967956543 C 298.1325988769531 16.75133323669434 295.9691162109375 13.54283332824707 293.2131958007813 10.78691673278809 C 290.4573669433594 8.031000137329102 287.2488708496094 5.867583274841309 283.6767883300781 4.356750011444092 C 279.9792785644531 2.792916774749756 276.0505981445313 2 271.9998474121094 2 L 238.9996948242188 1.999833345413208 L 238.9996948242188 12.99958324432373 C 238.9996948242188 20.71958351135254 232.7194366455078 27.0002498626709 225.0000305175781 27.0002498626709 L 80.00010681152344 27.0002498626709 C 72.28069305419922 27.0002498626709 66.00044250488281 20.71958351135254 66.00044250488281 12.99958324432373 L 66.00044250488281 2 L 32.00043869018555 2 C 27.94960594177246 2 24.02094078063965 2.792916774749756 20.32352256774902 4.356750011444092 C 16.75135612487793 5.867583274841309 13.54285717010498 8.031083106994629 10.786940574646 10.78699970245361 C 8.031106948852539 13.54283332824707 5.867606639862061 16.75133323669434 4.356773376464844 20.32349967956543 C 2.792940139770508 24.02091598510742 2.000023365020752 27.94958305358887 2.000023365020752 32.00041580200195 L 2.000023365020752 145.8791656494141 L 2.000023365020752 480.320068359375 L 2.000023365020752 624.9996948242188 C 2.000023365020752 629.0504150390625 2.792940139770508 632.9790649414063 4.356773376464844 636.6765747070313 C 5.867606639862061 640.2486572265625 8.031023025512695 643.4571533203125 10.78702354431152 646.2130737304688 C 13.54285717010498 648.9689331054688 16.75135612487793 651.1324462890625 20.32352256774902 652.6432495117188 C 24.02094078063965 654.2070922851563 27.94960594177246 655 32.00043869018555 655 L 271.9998474121094 655 M 271.9998474121094 657 L 32.00043869018555 657 C 27.68044090270996 657 23.48969078063965 656.1539306640625 19.5444393157959 654.4852294921875 C 15.73394012451172 652.8735961914063 12.31169033050537 650.5662231445313 9.372773170471191 647.6272583007813 C 6.433856964111328 644.6884155273438 4.126440048217773 641.2661743164063 2.514773368835449 637.4556884765625 C 0.8461068272590637 633.5103149414063 2.347819099668413e-05 629.319580078125 2.347819099668413e-05 624.9996948242188 L 2.347819099668413e-05 480.320068359375 L 2.347819099668413e-05 145.8791656494141 L 2.347819099668413e-05 32.00041580200195 C 2.347819099668413e-05 27.68041610717773 0.8461068272590637 23.48966598510742 2.514773368835449 19.5444164276123 C 4.126440048217773 15.73391628265381 6.433773517608643 12.31166648864746 9.372773170471191 9.372750282287598 C 12.31169033050537 6.433750152587891 15.73394012451172 4.126416683197021 19.5444393157959 2.514750003814697 C 23.48969078063965 0.8460833430290222 27.68044090270996 5.684341886080801e-14 32.00043869018555 5.684341886080801e-14 L 68.16635894775391 5.684341886080801e-14 C 68.05661010742188 0.6543333530426025 68.00044250488281 1.326833367347717 68.00044250488281 1.999833345413208 L 68.00044250488281 12.99958324432373 C 68.00044250488281 19.61675071716309 73.38343811035156 25.0002498626709 80.00010681152344 25.0002498626709 L 225.0000305175781 25.0002498626709 C 231.6166839599609 25.0002498626709 236.9996948242188 19.61675071716309 236.9996948242188 12.99958324432373 L 236.9996948242188 1.999833345413208 C 236.9996948242188 1.329166650772095 236.9438629150391 0.656333327293396 236.8337707519531 5.684341886080801e-14 L 271.9998474121094 5.684341886080801e-14 C 276.3197631835938 5.684341886080801e-14 280.5105285644531 0.8460833430290222 284.4558715820313 2.514750003814697 C 288.266357421875 4.126416683197021 291.6885986328125 6.433833122253418 294.62744140625 9.372750282287598 C 297.5664367675781 12.31166648864746 299.873779296875 15.73391628265381 301.4854431152344 19.5444164276123 C 303.1541137695313 23.48966598510742 304.0001831054688 27.68041610717773 304.0001831054688 32.00041580200195 L 304.0001831054688 624.9996948242188 C 304.0001831054688 629.319580078125 303.1541137695313 633.5103149414063 301.4854431152344 637.4556884765625 C 299.873779296875 641.2661743164063 297.5663452148438 644.6884155273438 294.62744140625 647.6272583007813 C 291.6885986328125 650.566162109375 288.266357421875 652.8735961914063 284.4558715820313 654.4852294921875 C 280.5105285644531 656.1539306640625 276.3197631835938 657 271.9998474121094 657 Z" stroke="none" fill="#1583d8"/>
      </g>
      <g id="Header_icon" data-name="Header icon" transform="translate(145.434 26.102)">
        <path id="Line" d="M1.47,75.29c.415.23,16.24.3,24.779.058,7.515-.212,15.03-.818,22.563-.882.454,0,3.09,0,3.561,0,.525.132,1.292-.592,1.293-1.211s-1.024-1.127-1.934-1.083c-7.412-.046-14.717.324-22.176.376-7.977.327-25.064.07-25.064.07l-3.1-.184S.132,72.578.1,73.743,1.055,75.06,1.47,75.29Z" transform="translate(-0.102 -69.512)" fill="#1583d8"/>
        <ellipse id="Ellipse_335" data-name="Ellipse 335" cx="3.5" cy="3.5" rx="3.5" ry="3.5" transform="translate(57.652)" fill="#1583d8"/>
      </g>
      <path id="Line-2" data-name="Line" d="M2.6,75.378c1.069.236,41.843.308,63.843.06,19.363-.218,38.725-.841,58.134-.907,1.169,0,7.961,0,9.175,0,1.352.136,1.133-.818,1.135-1.454s-.443-.95-2.788-.9c-19.1-.047-37.919.333-57.138.387-20.552.336-64.578.072-64.578.072l-7.987-.189S.833,72.6.758,73.8,1.53,75.141,2.6,75.378Z" transform="translate(103.832 584.59)" fill="#1583d8" stroke="#1583d8" stroke-width="1"/>
      <g id="status_bar_light" data-name="status bar/light" transform="translate(34.085 43.102)">
        <g id="Battery" transform="translate(258 2.333)">
          <g id="Border" transform="translate(0 0)" clip-path="url(#clip-path)">
            <path id="Fill" d="M2.667,0H19.333A2.667,2.667,0,0,1,22,2.667v6h0a2.667,2.667,0,0,1-2.667,2.667H2.667A2.667,2.667,0,0,1,0,8.667v-6H0A2.667,2.667,0,0,1,2.667,0Z" fill="none" stroke="rgba(21,131,216,0.5)" stroke-width="2"/>
          </g>
          <g id="Cap" transform="translate(23 3.667)" clip-path="url(#clip-path-2)">
            <path id="Fill-2" data-name="Fill" d="M354-28h11.328v14H354Z" transform="translate(-359 23)" fill="#1583d8"/>
          </g>
          <g id="Capacity" transform="translate(2 2)" clip-path="url(#clip-path-3)">
            <path id="Fill-3" data-name="Fill" d="M333-29.667h28v17.333H333Z" transform="translate(-338 24.667)" fill="#1583d8"/>
          </g>
        </g>
        <g id="Wifi" transform="translate(237.694 2.331)">
          <g id="Wifi-2" data-name="Wifi" transform="translate(0 0)" clip-path="url(#clip-path-4)">
            <path id="Fill-4" data-name="Fill" d="M310.694-31.669h25.272V-10.7H310.694Z" transform="translate(-315.694 26.669)" fill="#1583d8"/>
          </g>
        </g>
        <g id="Cellular_Connection" data-name="Cellular Connection" transform="translate(215.667 2.667)">
          <g id="Cellular_Connection-2" data-name="Cellular Connection" clip-path="url(#clip-path-5)">
            <path id="Fill-5" data-name="Fill" d="M288.667-31.333h27v20.667h-27Z" transform="translate(-293.667 26.333)" fill="#1583d8"/>
          </g>
        </g>
        <g id="Bars___Time_Black" data-name="Bars/_/Time Black" transform="translate(0 0)">
          <path id="Background" d="M21-19H75V-35H21Z" transform="translate(-21 35)" fill="none"/>
          <text id="_10:20" data-name="10:20" transform="translate(4 10)" fill="#1583d8" font-size="9" font-family="TektonPro-Bold, Tekton Pro" font-weight="700"><tspan x="0" y="0">10:20</tspan></text>
        </g>
      </g>
    </g>
    <text id="How_to_play_" data-name="How to play?" transform="translate(680 341)" fill="#1583d8" font-size="26" font-family="TektonPro-Bold, Tekton Pro" font-weight="700"><tspan x="0" y="0">How to play?</tspan></text>
    <g id="Buttons_Square_Button_Default_Confirm" data-name="Buttons / Square Button / Default / Confirm" transform="translate(701.366 769.484)">
      <path id="Square_Button" data-name="Square Button" d="M2.085,33.06c-.01-4.933.157-9.86.131-14.789-.026-5.706-.343-11.4-.228-17.107l-.979.97q17.075.233,34.151.278c10.551.026,21.09-.259,31.641-.323,8.776-.055,17.549.039,26.321-.155l-.979-.97c-.242,10.7-.666,21.4-.646,32.1l.979-.97c-13.332.44-26.69.2-40.025.411-10.9.168-21.817.065-32.725-.019q-9.36-.073-18.72-.2l.845,1.458c.033-.065.065-.133.1-.2.568-1.112-1.123-2.095-1.691-.98-.033.065-.065.133-.1.2a.98.98,0,0,0,.845,1.458q17.413.238,34.83.281c10.633.023,21.259-.3,31.889-.291,8.254,0,16.5.087,24.752-.184a.99.99,0,0,0,.979-.97c-.02-10.7.4-21.4.646-32.1a.982.982,0,0,0-.979-.97c-13.792.3-27.6.236-41.39.423C40.988.558,30.238.465,19.49.381Q10.248.318,1.008.193a.988.988,0,0,0-.979.97c-.114,5.706.206,11.4.232,17.107C.284,23.2.121,28.127.13,33.06A.978.978,0,0,0,2.085,33.06Z" transform="translate(-0.005 0.011)" fill="#1583d8"/>
      <text id="skip" transform="translate(46.634 20.516)" fill="#1583d8" font-size="16" font-family="TektonPro-Bold, Tekton Pro" font-weight="700"><tspan x="-13.24" y="0">skip</tspan></text>
      <g id="Buttons_Square_Button_Default_Confirm-2" data-name="Buttons / Square Button / Default / Confirm">
        <path id="Square_Button-2" data-name="Square Button" d="M2.085,33.06c-.01-4.933.157-9.86.131-14.789-.026-5.706-.343-11.4-.228-17.107l-.979.97q17.075.233,34.151.278c10.551.026,21.09-.259,31.641-.323,8.776-.055,17.549.039,26.321-.155l-.979-.97c-.242,10.7-.666,21.4-.646,32.1l.979-.97c-13.332.44-26.69.2-40.025.411-10.9.168-21.817.065-32.725-.019q-9.36-.073-18.72-.2l.845,1.458c.033-.065.065-.133.1-.2.568-1.112-1.123-2.095-1.691-.98-.033.065-.065.133-.1.2a.98.98,0,0,0,.845,1.458q17.413.238,34.83.281c10.633.023,21.259-.3,31.889-.291,8.254,0,16.5.087,24.752-.184a.99.99,0,0,0,.979-.97c-.02-10.7.4-21.4.646-32.1a.982.982,0,0,0-.979-.97c-13.792.3-27.6.236-41.39.423C40.988.558,30.238.465,19.49.381Q10.248.318,1.008.193a.988.988,0,0,0-.979.97c-.114,5.706.206,11.4.232,17.107C.284,23.2.121,28.127.13,33.06A.978.978,0,0,0,2.085,33.06Z" transform="translate(-0.005 0.011)" fill="#1583d8"/>
      </g>
    </g>
    <g id="Media_Cross" data-name="Media / Cross" transform="translate(655.353 389.916)">
      <line id="Line_1" data-name="Line 1" x2="179.107" y2="179.661" transform="translate(3.728 2.867)" fill="none" stroke="#1583d8" stroke-miterlimit="10" stroke-width="2"/>
      <line id="Line_2" data-name="Line 2" x1="178.819" y2="178.823" transform="translate(2.782 2.793)" fill="none" stroke="#1583d8" stroke-miterlimit="10" stroke-width="2"/>
      <path id="Path_972" data-name="Path 972" d="M96.057.058Q72.63.606,49.2,1.162l-18.247.423q-6.04.137-12.088.282c-2.687.066-5.382.124-8.07.191-2.191.058-5.837.846-7.9.025-.794-.315-1.538.473-1.571,1.2C-1.331,62.715.959,122.209.157,181.67a1.263,1.263,0,0,0,1.24,1.245c19.975.855,39.976,1.477,59.968,1.751,32.32.44,64.639-1.137,96.967-1.12,8.392,0,16.776.033,25.168.174a1.257,1.257,0,0,0,1.24-1.245c-1.43-60.017.322-120.051-1.1-180.06A1.268,1.268,0,0,0,182.4,1.17C158.918.731,135.437.307,111.948.083c-5.3-.05-10.6-.141-15.891-.025a1.246,1.246,0,0,0,0,2.49c25.589-.556,51.286.473,76.876.929l9.467.174-1.24-1.245c1.43,60.017-.322,120.051,1.1,180.06l1.24-1.245c-23.489-.415-47-.207-70.484.249-29.277.573-58.388.772-87.674-.183q-11.98-.386-23.944-.88l1.24,1.245C3.439,122.2,1.149,62.715,3.811,3.287c-.521.4-1.042.8-1.571,1.2,1.637.656,3.845.183,5.581.141l8.483-.2,12.675-.3q9.748-.224,19.5-.456l47.582-1.12C97.645,2.507,97.653.017,96.057.058Z" transform="translate(0.002 -0.002)" fill="#1583d8"/>
    </g>
    <text id="Lorem_ipsum_dolor_sit_amet_consetetur_sadipscing_elitr_sed_diam_nonumy_eirmod_tempor_invidunt_ut_labore_et_dolore_magna_aliquyam_erat_" data-name="Lorem ipsum dolor sit amet, consetetur 
sadipscing elitr, sed diam nonumy 
eirmod tempor invidunt ut labore et 
dolore magna aliquyam erat," transform="translate(750 632)" fill="#1583d8" font-size="13" font-family="TektonPro-Bold, Tekton Pro" font-weight="700"><tspan x="-106.164" y="0">Lorem ipsum dolor sit amet, consetetur </tspan><tspan x="-89.323" y="19">sadipscing elitr, sed diam nonumy </tspan><tspan x="-94.731" y="38">eirmod tempor invidunt ut labore et </tspan><tspan x="-73.729" y="57">dolore magna aliquyam erat,</tspan></text>
    <g id="Radios_Default" data-name="Radios / Default" transform="translate(760.911 713.613)">
      <path id="Oval" d="M1.046,4.666A4.5,4.5,0,0,1,6.394,1.119C8.458,1.5,9.136,3.74,9.124,5.591,9.1,8.518,5.387,9.288,3.17,8.346A3.484,3.484,0,0,1,1.064,4.528c.072-.661-.963-.656-1.035,0-.442,4.03,3.839,6.162,7.3,4.865a4.1,4.1,0,0,0,2.824-3.657C10.245,3.533,9.35.9,7.048.21a5.557,5.557,0,0,0-7,4.182C-.054,5.042.943,5.323,1.046,4.666Z" transform="translate(0.003 0.009)" fill="#1583d8"/>
    </g>
    <g id="Radios_Default-2" data-name="Radios / Default" transform="translate(744.317 713.613)">
      <path id="Oval-2" data-name="Oval" d="M1.046,4.666A4.5,4.5,0,0,1,6.394,1.119C8.458,1.5,9.136,3.74,9.124,5.591,9.1,8.518,5.387,9.288,3.17,8.346A3.484,3.484,0,0,1,1.064,4.528c.072-.661-.963-.656-1.035,0-.442,4.03,3.839,6.162,7.3,4.865a4.1,4.1,0,0,0,2.824-3.657C10.245,3.533,9.35.9,7.048.21a5.557,5.557,0,0,0-7,4.182C-.054,5.042.943,5.323,1.046,4.666Z" transform="translate(0.003 0.009)" fill="#1583d8"/>
    </g>
    <g id="Radios_Checked_2" data-name="Radios / Checked 2" transform="translate(727.705 713.613)">
      <g id="Oval-3" data-name="Oval" transform="translate(0 0)">
        <path id="Oval-4" data-name="Oval" d="M.032,4.545a.591.591,0,0,1,.013-.073.6.6,0,0,1,.007-.064A5.567,5.567,0,0,1,7.063.219c2.305.691,3.2,3.328,3.11,5.535A4.11,4.11,0,0,1,7.345,9.418a6.022,6.022,0,0,1-2.112.38C2.365,9.8-.323,7.782.032,4.545Z" transform="translate(0 0)" fill="#1583d8"/>
      </g>
    </g>
    <g id="Mobile_wireframe-2" data-name="Mobile wireframe" transform="translate(156.174 190.709)">
      <g id="Phone_border_screen-2" data-name="Phone border screen" transform="translate(0.085 0.102)" fill="none">
        <path d="M50,0S152.478.229,172.073,0,294,0,294,0a50,50,0,0,1,50,50s.316,175.806,0,221.033,1.418,168.9,0,191.491S344,648,344,648a50,50,0,0,1-50,50s-92.248-1.079-117.546,0S50,698,50,698A50,50,0,0,1,0,648S-.085,538.786-.085,423.6c0-.615.085-243.28.085-243.28V50A50,50,0,0,1,50,0Z" stroke="none"/>
        <path d="M 212.3923645019531 1.89825439453125 C 191.4261779785156 1.89825439453125 177.8686370849609 1.93243408203125 172.0962829589844 1.9998779296875 C 166.307373046875 2.0673828125 152.7213592529297 2.1016845703125 131.7156372070313 2.1016845703125 C 95.9583740234375 2.1016845703125 50.45098876953125 2.0009765625 50 1.99993896484375 C 43.51919555664063 1.99993896484375 37.2332763671875 3.268798828125 31.31683349609375 5.771240234375 C 25.60128784179688 8.18865966796875 20.46774291992188 11.64996337890625 16.05880737304688 16.058837890625 C 11.64999389648438 20.4677734375 8.188720703125 25.60125732421875 5.771270751953125 31.31689453125 C 3.268829345703125 37.23321533203125 2 43.5191650390625 2 49.99993896484375 L 2 180.321533203125 C 1.999176025390625 182.7481689453125 1.91455078125 422.9940490722656 1.91455078125 423.6012268066406 C 1.91455078125 537.468017578125 1.999176025390625 646.90625 2 647.9999389648438 C 2 654.4807739257813 3.268829345703125 660.7667846679688 5.771270751953125 666.6831665039063 C 8.188720703125 672.398681640625 11.64999389648438 677.5322265625 16.05880737304688 681.941162109375 C 20.46774291992188 686.3499755859375 25.60128784179688 689.8112182617188 31.31683349609375 692.2286987304688 C 37.23318481445313 694.7311401367188 43.51919555664063 695.9999389648438 50 695.9999389648438 L 50.01065063476563 695.9999389648438 L 50.0213623046875 696.0000610351563 C 50.4708251953125 696.0048828125 95.3963623046875 696.4794311523438 132.4258270263672 696.4794311523438 C 154.1511840820313 696.4794311523438 168.9357299804688 696.3186645507813 176.3687286376953 696.0017700195313 C 183.8577270507813 695.6824340820313 197.9225463867188 695.5205078125 218.1724548339844 695.5205078125 C 252.3585510253906 695.5205078125 293.0079956054688 695.9883422851563 294.0075988769531 695.9999389648438 C 300.4859008789063 695.9990234375 306.7689819335938 694.730224609375 312.6831970214844 692.2286987304688 C 318.3987426757813 689.8112182617188 323.5322875976563 686.3499755859375 327.9411926269531 681.941162109375 C 332.3500061035156 677.5322265625 335.811279296875 672.398681640625 338.2287292480469 666.6831665039063 C 340.7302551269531 660.7689208984375 341.9990844726563 654.4850463867188 342 648.0067138671875 C 341.9407043457031 641.1922607421875 340.59814453125 484.7958374023438 342.00390625 462.398681640625 C 342.8754577636719 448.5120544433594 342.541015625 394.7408752441406 342.2459106445313 347.2994995117188 C 342.0572814941406 316.9716796875 341.8790893554688 288.3258666992188 342.0000915527344 271.0186767578125 C 342.3125610351563 226.3182373046875 342.003173828125 51.761474609375 342 49.99993896484375 C 342 43.5191650390625 340.7311706542969 37.23321533203125 338.2287292480469 31.31689453125 C 335.811279296875 25.60125732421875 332.3500061035156 20.4677734375 327.9411926269531 16.058837890625 C 323.5322875976563 11.64996337890625 318.3987426757813 8.18865966796875 312.6831970214844 5.771240234375 C 306.7667236328125 3.268798828125 300.4808349609375 1.99993896484375 293.9955444335938 1.99993896484375 C 293.5407409667969 1.99896240234375 248.1040954589844 1.89825439453125 212.3923645019531 1.89825439453125 M 212.3924102783203 -0.10174560546875 C 248.5194854736328 -0.10174560546875 294 -6.103515625e-05 294 -6.103515625e-05 C 321.6142883300781 -6.103515625e-05 344 22.38580322265625 344 49.99993896484375 C 344 49.99993896484375 344.3161926269531 225.8063354492188 344 271.0326843261719 C 343.6838073730469 316.2589721679688 345.4181823730469 439.9281311035156 344 462.5239562988281 C 342.5817260742188 485.1197814941406 344 647.9999389648438 344 647.9999389648438 C 344 675.6142578125 321.6142883300781 697.9999389648438 294 697.9999389648438 C 294 697.9999389648438 252.9996032714844 697.5205078125 218.1725006103516 697.5205078125 C 200.7557678222656 697.5205078125 184.8876953125 697.6403198242188 176.4539184570313 697.9999389648438 C 168.0216369628906 698.3594970703125 151.1583862304688 698.4793701171875 132.4258422851563 698.4793701171875 C 94.95733642578125 698.4793701171875 50 697.9999389648438 50 697.9999389648438 C 22.3857421875 697.9999389648438 0 675.6142578125 0 647.9999389648438 C 0 647.9999389648438 -0.08544921875 538.7860107421875 -0.08544921875 423.6012268066406 C -0.08544921875 422.9866943359375 0 180.32080078125 0 180.32080078125 L 0 49.99993896484375 C 0 22.38580322265625 22.3857421875 -6.103515625e-05 50 -6.103515625e-05 C 50 -6.103515625e-05 95.54696655273438 0.10162353515625 131.7156524658203 0.10162353515625 C 149.8033142089844 0.10162353515625 165.5405731201172 0.07623291015625 172.0729064941406 -6.103515625e-05 C 178.6040954589844 -0.0762939453125 194.3305206298828 -0.10174560546875 212.3924102783203 -0.10174560546875 Z" stroke="none" fill="#1583d8"/>
      </g>
      <g id="Phone_screen-2" data-name="Phone screen" transform="translate(20.085 21.102)" fill="#fff" opacity="0.6">
        <path d="M 271.9998474121094 656 L 32.00043869018555 656 C 27.81502342224121 656 23.75527381896973 655.1804809570313 19.93402290344238 653.5642700195313 C 16.24260711669922 652.0029907226563 12.92718982696533 649.767578125 10.07985687255859 646.920166015625 C 7.232439994812012 644.07275390625 4.997023582458496 640.7574462890625 3.435773372650146 637.0661010742188 C 1.819523453712463 633.2447509765625 1.000023484230042 629.1849975585938 1.000023484230042 624.9996948242188 L 1.000023484230042 480.320068359375 L 1.000023484230042 145.8791656494141 L 1.000023484230042 32.00041580200195 C 1.000023484230042 27.81500053405762 1.819523453712463 23.75525093078613 3.435773372650146 19.93400001525879 C 4.997023582458496 16.24258422851563 7.232439994812012 12.92716693878174 10.07985687255859 10.07983303070068 C 12.92718982696533 7.23241662979126 16.24260711669922 4.997000217437744 19.93402290344238 3.435750007629395 C 23.75527381896973 1.819499969482422 27.81502342224121 1 32.00043869018555 1 L 67.03852081298828 1 C 67.01319122314453 1.332530736923218 67.00044250488281 1.666465640068054 67.00044250488281 1.999833345413208 L 67.00044250488281 12.99958324432373 C 67.00044250488281 20.16816711425781 72.83210754394531 26.0002498626709 80.00010681152344 26.0002498626709 L 225.0000305175781 26.0002498626709 C 232.1680297851563 26.0002498626709 237.9996948242188 20.16816711425781 237.9996948242188 12.99958324432373 L 237.9996948242188 1.999833345413208 C 237.9996948242188 1.666465640068054 237.9869384765625 1.332530736923218 237.9616088867188 1 L 271.9998474121094 1 C 276.1851806640625 1 280.2449340820313 1.819499969482422 284.0663452148438 3.435750007629395 C 287.7575988769531 4.997000217437744 291.0729370117188 7.23241662979126 293.9203491210938 10.07983303070068 C 296.7677612304688 12.92716693878174 299.0032043457031 16.24258422851563 300.564453125 19.93400001525879 C 302.1806945800781 23.75525093078613 303.0001831054688 27.81500053405762 303.0001831054688 32.00041580200195 L 303.0001831054688 624.9996948242188 C 303.0001831054688 629.1849975585938 302.1806945800781 633.2447509765625 300.564453125 637.066162109375 C 299.0032043457031 640.7574462890625 296.7677612304688 644.07275390625 293.9203491210938 646.920166015625 C 291.0729370117188 649.767578125 287.7575988769531 652.0029907226563 284.0662841796875 653.5642700195313 C 280.2449340820313 655.1804809570313 276.1851806640625 656 271.9998474121094 656 Z" stroke="none"/>
        <path d="M 271.9998474121094 655 C 276.0505981445313 655 279.9792785644531 654.2070922851563 283.6767883300781 652.6432495117188 C 287.2488708496094 651.1324462890625 290.4573669433594 648.968994140625 293.2132873535156 646.2130126953125 C 295.9691772460938 643.4571533203125 298.1325988769531 640.2486572265625 299.6434326171875 636.6765747070313 C 301.207275390625 632.9790649414063 302.0001831054688 629.0504150390625 302.0001831054688 624.9996948242188 L 302.0001831054688 32.00041580200195 C 302.0001831054688 27.94958305358887 301.207275390625 24.02091598510742 299.6434326171875 20.32349967956543 C 298.1325988769531 16.75133323669434 295.9691162109375 13.54283332824707 293.2131958007813 10.78691673278809 C 290.4573669433594 8.031000137329102 287.2488708496094 5.867583274841309 283.6767883300781 4.356750011444092 C 279.9792785644531 2.792916774749756 276.0505981445313 2 271.9998474121094 2 L 238.9996948242188 1.999833345413208 L 238.9996948242188 12.99958324432373 C 238.9996948242188 20.71958351135254 232.7194366455078 27.0002498626709 225.0000305175781 27.0002498626709 L 80.00010681152344 27.0002498626709 C 72.28069305419922 27.0002498626709 66.00044250488281 20.71958351135254 66.00044250488281 12.99958324432373 L 66.00044250488281 2 L 32.00043869018555 2 C 27.94960594177246 2 24.02094078063965 2.792916774749756 20.32352256774902 4.356750011444092 C 16.75135612487793 5.867583274841309 13.54285717010498 8.031083106994629 10.786940574646 10.78699970245361 C 8.031106948852539 13.54283332824707 5.867606639862061 16.75133323669434 4.356773376464844 20.32349967956543 C 2.792940139770508 24.02091598510742 2.000023365020752 27.94958305358887 2.000023365020752 32.00041580200195 L 2.000023365020752 145.8791656494141 L 2.000023365020752 480.320068359375 L 2.000023365020752 624.9996948242188 C 2.000023365020752 629.0504150390625 2.792940139770508 632.9790649414063 4.356773376464844 636.6765747070313 C 5.867606639862061 640.2486572265625 8.031023025512695 643.4571533203125 10.78702354431152 646.2130737304688 C 13.54285717010498 648.9689331054688 16.75135612487793 651.1324462890625 20.32352256774902 652.6432495117188 C 24.02094078063965 654.2070922851563 27.94960594177246 655 32.00043869018555 655 L 271.9998474121094 655 M 271.9998474121094 657 L 32.00043869018555 657 C 27.68044090270996 657 23.48969078063965 656.1539306640625 19.5444393157959 654.4852294921875 C 15.73394012451172 652.8735961914063 12.31169033050537 650.5662231445313 9.372773170471191 647.6272583007813 C 6.433856964111328 644.6884155273438 4.126440048217773 641.2661743164063 2.514773368835449 637.4556884765625 C 0.8461068272590637 633.5103149414063 2.347819099668413e-05 629.319580078125 2.347819099668413e-05 624.9996948242188 L 2.347819099668413e-05 480.320068359375 L 2.347819099668413e-05 145.8791656494141 L 2.347819099668413e-05 32.00041580200195 C 2.347819099668413e-05 27.68041610717773 0.8461068272590637 23.48966598510742 2.514773368835449 19.5444164276123 C 4.126440048217773 15.73391628265381 6.433773517608643 12.31166648864746 9.372773170471191 9.372750282287598 C 12.31169033050537 6.433750152587891 15.73394012451172 4.126416683197021 19.5444393157959 2.514750003814697 C 23.48969078063965 0.8460833430290222 27.68044090270996 5.684341886080801e-14 32.00043869018555 5.684341886080801e-14 L 68.16635894775391 5.684341886080801e-14 C 68.05661010742188 0.6543333530426025 68.00044250488281 1.326833367347717 68.00044250488281 1.999833345413208 L 68.00044250488281 12.99958324432373 C 68.00044250488281 19.61675071716309 73.38343811035156 25.0002498626709 80.00010681152344 25.0002498626709 L 225.0000305175781 25.0002498626709 C 231.6166839599609 25.0002498626709 236.9996948242188 19.61675071716309 236.9996948242188 12.99958324432373 L 236.9996948242188 1.999833345413208 C 236.9996948242188 1.329166650772095 236.9438629150391 0.656333327293396 236.8337707519531 5.684341886080801e-14 L 271.9998474121094 5.684341886080801e-14 C 276.3197631835938 5.684341886080801e-14 280.5105285644531 0.8460833430290222 284.4558715820313 2.514750003814697 C 288.266357421875 4.126416683197021 291.6885986328125 6.433833122253418 294.62744140625 9.372750282287598 C 297.5664367675781 12.31166648864746 299.873779296875 15.73391628265381 301.4854431152344 19.5444164276123 C 303.1541137695313 23.48966598510742 304.0001831054688 27.68041610717773 304.0001831054688 32.00041580200195 L 304.0001831054688 624.9996948242188 C 304.0001831054688 629.319580078125 303.1541137695313 633.5103149414063 301.4854431152344 637.4556884765625 C 299.873779296875 641.2661743164063 297.5663452148438 644.6884155273438 294.62744140625 647.6272583007813 C 291.6885986328125 650.566162109375 288.266357421875 652.8735961914063 284.4558715820313 654.4852294921875 C 280.5105285644531 656.1539306640625 276.3197631835938 657 271.9998474121094 657 Z" stroke="none" fill="#1583d8"/>
      </g>
      <g id="Header_icon-2" data-name="Header icon" transform="translate(145.434 26.102)">
        <path id="Line-3" data-name="Line" d="M1.47,75.29c.415.23,16.24.3,24.779.058,7.515-.212,15.03-.818,22.563-.882.454,0,3.09,0,3.561,0,.525.132,1.292-.592,1.293-1.211s-1.024-1.127-1.934-1.083c-7.412-.046-14.717.324-22.176.376-7.977.327-25.064.07-25.064.07l-3.1-.184S.132,72.578.1,73.743,1.055,75.06,1.47,75.29Z" transform="translate(-0.102 -69.512)" fill="#1583d8"/>
        <ellipse id="Ellipse_335-2" data-name="Ellipse 335" cx="3.5" cy="3.5" rx="3.5" ry="3.5" transform="translate(57.652)" fill="#1583d8"/>
      </g>
      <path id="Line-4" data-name="Line" d="M2.6,75.378c1.069.236,41.843.308,63.843.06,19.363-.218,38.725-.841,58.134-.907,1.169,0,7.961,0,9.175,0,1.352.136,1.133-.818,1.135-1.454s-.443-.95-2.788-.9c-19.1-.047-37.919.333-57.138.387-20.552.336-64.578.072-64.578.072l-7.987-.189S.833,72.6.758,73.8,1.53,75.141,2.6,75.378Z" transform="translate(103.832 584.59)" fill="#1583d8" stroke="#1583d8" stroke-width="1"/>
      <g id="status_bar_light-2" data-name="status bar/light" transform="translate(34.085 43.102)">
        <g id="Battery-2" data-name="Battery" transform="translate(258 2.333)">
          <g id="Border-2" data-name="Border" transform="translate(0 0)" clip-path="url(#clip-path)">
            <path id="Fill-6" data-name="Fill" d="M2.667,0H19.333A2.667,2.667,0,0,1,22,2.667v6h0a2.667,2.667,0,0,1-2.667,2.667H2.667A2.667,2.667,0,0,1,0,8.667v-6H0A2.667,2.667,0,0,1,2.667,0Z" fill="none" stroke="rgba(21,131,216,0.5)" stroke-width="2"/>
          </g>
          <g id="Cap-2" data-name="Cap" transform="translate(23 3.667)" clip-path="url(#clip-path-2)">
            <path id="Fill-7" data-name="Fill" d="M354-28h11.328v14H354Z" transform="translate(-359 23)" fill="#1583d8"/>
          </g>
          <g id="Capacity-2" data-name="Capacity" transform="translate(2 2)" clip-path="url(#clip-path-3)">
            <path id="Fill-8" data-name="Fill" d="M333-29.667h28v17.333H333Z" transform="translate(-338 24.667)" fill="#1583d8"/>
          </g>
        </g>
        <g id="Wifi-3" data-name="Wifi" transform="translate(237.694 2.331)">
          <g id="Wifi-4" data-name="Wifi" transform="translate(0 0)" clip-path="url(#clip-path-4)">
            <path id="Fill-9" data-name="Fill" d="M310.694-31.669h25.272V-10.7H310.694Z" transform="translate(-315.694 26.669)" fill="#1583d8"/>
          </g>
        </g>
        <g id="Cellular_Connection-3" data-name="Cellular Connection" transform="translate(215.667 2.667)">
          <g id="Cellular_Connection-4" data-name="Cellular Connection" clip-path="url(#clip-path-5)">
            <path id="Fill-10" data-name="Fill" d="M288.667-31.333h27v20.667h-27Z" transform="translate(-293.667 26.333)" fill="#1583d8"/>
          </g>
        </g>
        <g id="Bars___Time_Black-2" data-name="Bars/_/Time Black" transform="translate(0 0)">
          <path id="Background-2" data-name="Background" d="M21-19H75V-35H21Z" transform="translate(-21 35)" fill="none"/>
          <text id="_10:20-2" data-name="10:20" transform="translate(4 10)" fill="#1583d8" font-size="9" font-family="TektonPro-Bold, Tekton Pro" font-weight="700"><tspan x="0" y="0">10:20</tspan></text>
        </g>
      </g>
    </g>
    <g id="Media_Small" data-name="Media / Small" transform="translate(273.078 484.578)">
      <path id="Path_973" data-name="Path 973" d="M57.712,1.108c-29.4.685-26.21.612-55.62,1.307l-.3-.128C.169,37.8,1.582,73.345,1.09,108.9c0,0,35.57,1.526,52.485,1,30.84-.969,56.449-.512,56.449-.512-.875-36.2.219-71.415-.656-107.616C109.367,1.766,65.121.925,57.712,1.108Z" transform="translate(-0.09 -0.094)" fill="#fafafa"/>
      <path id="Path_974" data-name="Path 974" d="M57.625.1,29.419.759Q24.06.882,18.71,1.015q-3.623.082-7.236.174c-2.406.055-7.291,1.024-9.514.128a.921.921,0,0,0-1.167.877C-.774,37.718.556,73.27.091,108.8a.921.921,0,0,0,.911.914c16.249.695,32.544,1.307,48.8,1.078,20.05-.283,40.072-.941,60.131-.594a.927.927,0,0,0,.911-.914c-.838-35.872.182-71.753-.656-107.616a.927.927,0,0,0-.911-.914C92.083.43,74.822-.256,57.625.1a.915.915,0,0,0,0,1.828c17.2-.347,34.458.338,51.655.658l-.911-.914c.838,35.872-.182,71.753.656,107.616l.911-.914c-20.05-.347-40.081.311-60.131.594-16.258.228-32.562-.384-48.8-1.078l.911.914c.465-35.534-.866-71.086.7-106.611-.383.292-.775.585-1.157.887,1.941.777,5.094.046,7.136,0q3.951-.1,7.9-.183,6.056-.137,12.121-.283l29.017-.685A.915.915,0,0,0,57.625.1Z" transform="translate(-0.003 -0.001)" fill="#1583d8"/>
      <text id="logo" transform="translate(41.07 59.422)" fill="#1583d8" font-size="17" font-family="TektonPro-Bold, Tekton Pro" font-weight="700"><tspan x="0" y="0">logo</tspan></text>
    </g>
    <g id="Mobile_wireframe-3" data-name="Mobile wireframe" transform="translate(1419.174 190.709)">
      <g id="Phone_border_screen-3" data-name="Phone border screen" transform="translate(0.085 0.102)" fill="none">
        <path d="M50,0S152.478.229,172.073,0,294,0,294,0a50,50,0,0,1,50,50s.316,175.806,0,221.033,1.418,168.9,0,191.491S344,648,344,648a50,50,0,0,1-50,50s-92.248-1.079-117.546,0S50,698,50,698A50,50,0,0,1,0,648S-.085,538.786-.085,423.6c0-.615.085-243.28.085-243.28V50A50,50,0,0,1,50,0Z" stroke="none"/>
        <path d="M 212.3923645019531 1.89825439453125 C 191.4261779785156 1.89825439453125 177.8686370849609 1.93243408203125 172.0962829589844 1.9998779296875 C 166.307373046875 2.0673828125 152.7213592529297 2.1016845703125 131.7156372070313 2.1016845703125 C 95.9583740234375 2.1016845703125 50.45098876953125 2.0009765625 50 1.99993896484375 C 43.51919555664063 1.99993896484375 37.2332763671875 3.268798828125 31.31683349609375 5.771240234375 C 25.60128784179688 8.18865966796875 20.46774291992188 11.64996337890625 16.05880737304688 16.058837890625 C 11.64999389648438 20.4677734375 8.188720703125 25.60125732421875 5.771270751953125 31.31689453125 C 3.268829345703125 37.23321533203125 2 43.5191650390625 2 49.99993896484375 L 2 180.321533203125 C 1.999176025390625 182.7481689453125 1.91455078125 422.9940490722656 1.91455078125 423.6012268066406 C 1.91455078125 537.468017578125 1.999176025390625 646.90625 2 647.9999389648438 C 2 654.4807739257813 3.268829345703125 660.7667846679688 5.771270751953125 666.6831665039063 C 8.188720703125 672.398681640625 11.64999389648438 677.5322265625 16.05880737304688 681.941162109375 C 20.46774291992188 686.3499755859375 25.60128784179688 689.8112182617188 31.31683349609375 692.2286987304688 C 37.23318481445313 694.7311401367188 43.51919555664063 695.9999389648438 50 695.9999389648438 L 50.01065063476563 695.9999389648438 L 50.0213623046875 696.0000610351563 C 50.4708251953125 696.0048828125 95.3963623046875 696.4794311523438 132.4258270263672 696.4794311523438 C 154.1511840820313 696.4794311523438 168.9357299804688 696.3186645507813 176.3687286376953 696.0017700195313 C 183.8577270507813 695.6824340820313 197.9225463867188 695.5205078125 218.1724548339844 695.5205078125 C 252.3585510253906 695.5205078125 293.0079956054688 695.9883422851563 294.0075988769531 695.9999389648438 C 300.4859008789063 695.9990234375 306.7689819335938 694.730224609375 312.6831970214844 692.2286987304688 C 318.3987426757813 689.8112182617188 323.5322875976563 686.3499755859375 327.9411926269531 681.941162109375 C 332.3500061035156 677.5322265625 335.811279296875 672.398681640625 338.2287292480469 666.6831665039063 C 340.7302551269531 660.7689208984375 341.9990844726563 654.4850463867188 342 648.0067138671875 C 341.9407043457031 641.1922607421875 340.59814453125 484.7958374023438 342.00390625 462.398681640625 C 342.8754577636719 448.5120544433594 342.541015625 394.7408752441406 342.2459106445313 347.2994995117188 C 342.0572814941406 316.9716796875 341.8790893554688 288.3258666992188 342.0000915527344 271.0186767578125 C 342.3125610351563 226.3182373046875 342.003173828125 51.761474609375 342 49.99993896484375 C 342 43.5191650390625 340.7311706542969 37.23321533203125 338.2287292480469 31.31689453125 C 335.811279296875 25.60125732421875 332.3500061035156 20.4677734375 327.9411926269531 16.058837890625 C 323.5322875976563 11.64996337890625 318.3987426757813 8.18865966796875 312.6831970214844 5.771240234375 C 306.7667236328125 3.268798828125 300.4808349609375 1.99993896484375 293.9955444335938 1.99993896484375 C 293.5407409667969 1.99896240234375 248.1040954589844 1.89825439453125 212.3923645019531 1.89825439453125 M 212.3924102783203 -0.10174560546875 C 248.5194854736328 -0.10174560546875 294 -6.103515625e-05 294 -6.103515625e-05 C 321.6142883300781 -6.103515625e-05 344 22.38580322265625 344 49.99993896484375 C 344 49.99993896484375 344.3161926269531 225.8063354492188 344 271.0326843261719 C 343.6838073730469 316.2589721679688 345.4181823730469 439.9281311035156 344 462.5239562988281 C 342.5817260742188 485.1197814941406 344 647.9999389648438 344 647.9999389648438 C 344 675.6142578125 321.6142883300781 697.9999389648438 294 697.9999389648438 C 294 697.9999389648438 252.9996032714844 697.5205078125 218.1725006103516 697.5205078125 C 200.7557678222656 697.5205078125 184.8876953125 697.6403198242188 176.4539184570313 697.9999389648438 C 168.0216369628906 698.3594970703125 151.1583862304688 698.4793701171875 132.4258422851563 698.4793701171875 C 94.95733642578125 698.4793701171875 50 697.9999389648438 50 697.9999389648438 C 22.3857421875 697.9999389648438 0 675.6142578125 0 647.9999389648438 C 0 647.9999389648438 -0.08544921875 538.7860107421875 -0.08544921875 423.6012268066406 C -0.08544921875 422.9866943359375 0 180.32080078125 0 180.32080078125 L 0 49.99993896484375 C 0 22.38580322265625 22.3857421875 -6.103515625e-05 50 -6.103515625e-05 C 50 -6.103515625e-05 95.54696655273438 0.10162353515625 131.7156524658203 0.10162353515625 C 149.8033142089844 0.10162353515625 165.5405731201172 0.07623291015625 172.0729064941406 -6.103515625e-05 C 178.6040954589844 -0.0762939453125 194.3305206298828 -0.10174560546875 212.3924102783203 -0.10174560546875 Z" stroke="none" fill="#1583d8"/>
      </g>
      <g id="Phone_screen-3" data-name="Phone screen" transform="translate(20.085 21.102)" fill="#fff" opacity="0.6">
        <path d="M 271.9998474121094 656 L 32.00043869018555 656 C 27.81502342224121 656 23.75527381896973 655.1804809570313 19.93402290344238 653.5642700195313 C 16.24260711669922 652.0029907226563 12.92718982696533 649.767578125 10.07985687255859 646.920166015625 C 7.232439994812012 644.07275390625 4.997023582458496 640.7574462890625 3.435773372650146 637.0661010742188 C 1.819523453712463 633.2447509765625 1.000023484230042 629.1849975585938 1.000023484230042 624.9996948242188 L 1.000023484230042 480.320068359375 L 1.000023484230042 145.8791656494141 L 1.000023484230042 32.00041580200195 C 1.000023484230042 27.81500053405762 1.819523453712463 23.75525093078613 3.435773372650146 19.93400001525879 C 4.997023582458496 16.24258422851563 7.232439994812012 12.92716693878174 10.07985687255859 10.07983303070068 C 12.92718982696533 7.23241662979126 16.24260711669922 4.997000217437744 19.93402290344238 3.435750007629395 C 23.75527381896973 1.819499969482422 27.81502342224121 1 32.00043869018555 1 L 67.03852081298828 1 C 67.01319122314453 1.332530736923218 67.00044250488281 1.666465640068054 67.00044250488281 1.999833345413208 L 67.00044250488281 12.99958324432373 C 67.00044250488281 20.16816711425781 72.83210754394531 26.0002498626709 80.00010681152344 26.0002498626709 L 225.0000305175781 26.0002498626709 C 232.1680297851563 26.0002498626709 237.9996948242188 20.16816711425781 237.9996948242188 12.99958324432373 L 237.9996948242188 1.999833345413208 C 237.9996948242188 1.666465640068054 237.9869384765625 1.332530736923218 237.9616088867188 1 L 271.9998474121094 1 C 276.1851806640625 1 280.2449340820313 1.819499969482422 284.0663452148438 3.435750007629395 C 287.7575988769531 4.997000217437744 291.0729370117188 7.23241662979126 293.9203491210938 10.07983303070068 C 296.7677612304688 12.92716693878174 299.0032043457031 16.24258422851563 300.564453125 19.93400001525879 C 302.1806945800781 23.75525093078613 303.0001831054688 27.81500053405762 303.0001831054688 32.00041580200195 L 303.0001831054688 624.9996948242188 C 303.0001831054688 629.1849975585938 302.1806945800781 633.2447509765625 300.564453125 637.066162109375 C 299.0032043457031 640.7574462890625 296.7677612304688 644.07275390625 293.9203491210938 646.920166015625 C 291.0729370117188 649.767578125 287.7575988769531 652.0029907226563 284.0662841796875 653.5642700195313 C 280.2449340820313 655.1804809570313 276.1851806640625 656 271.9998474121094 656 Z" stroke="none"/>
        <path d="M 271.9998474121094 655 C 276.0505981445313 655 279.9792785644531 654.2070922851563 283.6767883300781 652.6432495117188 C 287.2488708496094 651.1324462890625 290.4573669433594 648.968994140625 293.2132873535156 646.2130126953125 C 295.9691772460938 643.4571533203125 298.1325988769531 640.2486572265625 299.6434326171875 636.6765747070313 C 301.207275390625 632.9790649414063 302.0001831054688 629.0504150390625 302.0001831054688 624.9996948242188 L 302.0001831054688 32.00041580200195 C 302.0001831054688 27.94958305358887 301.207275390625 24.02091598510742 299.6434326171875 20.32349967956543 C 298.1325988769531 16.75133323669434 295.9691162109375 13.54283332824707 293.2131958007813 10.78691673278809 C 290.4573669433594 8.031000137329102 287.2488708496094 5.867583274841309 283.6767883300781 4.356750011444092 C 279.9792785644531 2.792916774749756 276.0505981445313 2 271.9998474121094 2 L 238.9996948242188 1.999833345413208 L 238.9996948242188 12.99958324432373 C 238.9996948242188 20.71958351135254 232.7194366455078 27.0002498626709 225.0000305175781 27.0002498626709 L 80.00010681152344 27.0002498626709 C 72.28069305419922 27.0002498626709 66.00044250488281 20.71958351135254 66.00044250488281 12.99958324432373 L 66.00044250488281 2 L 32.00043869018555 2 C 27.94960594177246 2 24.02094078063965 2.792916774749756 20.32352256774902 4.356750011444092 C 16.75135612487793 5.867583274841309 13.54285717010498 8.031083106994629 10.786940574646 10.78699970245361 C 8.031106948852539 13.54283332824707 5.867606639862061 16.75133323669434 4.356773376464844 20.32349967956543 C 2.792940139770508 24.02091598510742 2.000023365020752 27.94958305358887 2.000023365020752 32.00041580200195 L 2.000023365020752 145.8791656494141 L 2.000023365020752 480.320068359375 L 2.000023365020752 624.9996948242188 C 2.000023365020752 629.0504150390625 2.792940139770508 632.9790649414063 4.356773376464844 636.6765747070313 C 5.867606639862061 640.2486572265625 8.031023025512695 643.4571533203125 10.78702354431152 646.2130737304688 C 13.54285717010498 648.9689331054688 16.75135612487793 651.1324462890625 20.32352256774902 652.6432495117188 C 24.02094078063965 654.2070922851563 27.94960594177246 655 32.00043869018555 655 L 271.9998474121094 655 M 271.9998474121094 657 L 32.00043869018555 657 C 27.68044090270996 657 23.48969078063965 656.1539306640625 19.5444393157959 654.4852294921875 C 15.73394012451172 652.8735961914063 12.31169033050537 650.5662231445313 9.372773170471191 647.6272583007813 C 6.433856964111328 644.6884155273438 4.126440048217773 641.2661743164063 2.514773368835449 637.4556884765625 C 0.8461068272590637 633.5103149414063 2.347819099668413e-05 629.319580078125 2.347819099668413e-05 624.9996948242188 L 2.347819099668413e-05 480.320068359375 L 2.347819099668413e-05 145.8791656494141 L 2.347819099668413e-05 32.00041580200195 C 2.347819099668413e-05 27.68041610717773 0.8461068272590637 23.48966598510742 2.514773368835449 19.5444164276123 C 4.126440048217773 15.73391628265381 6.433773517608643 12.31166648864746 9.372773170471191 9.372750282287598 C 12.31169033050537 6.433750152587891 15.73394012451172 4.126416683197021 19.5444393157959 2.514750003814697 C 23.48969078063965 0.8460833430290222 27.68044090270996 5.684341886080801e-14 32.00043869018555 5.684341886080801e-14 L 68.16635894775391 5.684341886080801e-14 C 68.05661010742188 0.6543333530426025 68.00044250488281 1.326833367347717 68.00044250488281 1.999833345413208 L 68.00044250488281 12.99958324432373 C 68.00044250488281 19.61675071716309 73.38343811035156 25.0002498626709 80.00010681152344 25.0002498626709 L 225.0000305175781 25.0002498626709 C 231.6166839599609 25.0002498626709 236.9996948242188 19.61675071716309 236.9996948242188 12.99958324432373 L 236.9996948242188 1.999833345413208 C 236.9996948242188 1.329166650772095 236.9438629150391 0.656333327293396 236.8337707519531 5.684341886080801e-14 L 271.9998474121094 5.684341886080801e-14 C 276.3197631835938 5.684341886080801e-14 280.5105285644531 0.8460833430290222 284.4558715820313 2.514750003814697 C 288.266357421875 4.126416683197021 291.6885986328125 6.433833122253418 294.62744140625 9.372750282287598 C 297.5664367675781 12.31166648864746 299.873779296875 15.73391628265381 301.4854431152344 19.5444164276123 C 303.1541137695313 23.48966598510742 304.0001831054688 27.68041610717773 304.0001831054688 32.00041580200195 L 304.0001831054688 624.9996948242188 C 304.0001831054688 629.319580078125 303.1541137695313 633.5103149414063 301.4854431152344 637.4556884765625 C 299.873779296875 641.2661743164063 297.5663452148438 644.6884155273438 294.62744140625 647.6272583007813 C 291.6885986328125 650.566162109375 288.266357421875 652.8735961914063 284.4558715820313 654.4852294921875 C 280.5105285644531 656.1539306640625 276.3197631835938 657 271.9998474121094 657 Z" stroke="none" fill="#1583d8"/>
      </g>
      <g id="Header_icon-3" data-name="Header icon" transform="translate(145.434 26.102)">
        <path id="Line-5" data-name="Line" d="M1.47,75.29c.415.23,16.24.3,24.779.058,7.515-.212,15.03-.818,22.563-.882.454,0,3.09,0,3.561,0,.525.132,1.292-.592,1.293-1.211s-1.024-1.127-1.934-1.083c-7.412-.046-14.717.324-22.176.376-7.977.327-25.064.07-25.064.07l-3.1-.184S.132,72.578.1,73.743,1.055,75.06,1.47,75.29Z" transform="translate(-0.102 -69.512)" fill="#1583d8"/>
        <ellipse id="Ellipse_335-3" data-name="Ellipse 335" cx="3.5" cy="3.5" rx="3.5" ry="3.5" transform="translate(57.652)" fill="#1583d8"/>
      </g>
      <path id="Line-6" data-name="Line" d="M2.6,75.378c1.069.236,41.843.308,63.843.06,19.363-.218,38.725-.841,58.134-.907,1.169,0,7.961,0,9.175,0,1.352.136,1.133-.818,1.135-1.454s-.443-.95-2.788-.9c-19.1-.047-37.919.333-57.138.387-20.552.336-64.578.072-64.578.072l-7.987-.189S.833,72.6.758,73.8,1.53,75.141,2.6,75.378Z" transform="translate(103.832 584.59)" fill="#1583d8" stroke="#1583d8" stroke-width="1"/>
      <g id="status_bar_light-3" data-name="status bar/light" transform="translate(34.085 43.102)">
        <g id="Battery-3" data-name="Battery" transform="translate(258 2.333)">
          <g id="Border-3" data-name="Border" transform="translate(0 0)" clip-path="url(#clip-path)">
            <path id="Fill-11" data-name="Fill" d="M2.667,0H19.333A2.667,2.667,0,0,1,22,2.667v6h0a2.667,2.667,0,0,1-2.667,2.667H2.667A2.667,2.667,0,0,1,0,8.667v-6H0A2.667,2.667,0,0,1,2.667,0Z" fill="none" stroke="rgba(21,131,216,0.5)" stroke-width="2"/>
          </g>
          <g id="Cap-3" data-name="Cap" transform="translate(23 3.667)" clip-path="url(#clip-path-2)">
            <path id="Fill-12" data-name="Fill" d="M354-28h11.328v14H354Z" transform="translate(-359 23)" fill="#1583d8"/>
          </g>
          <g id="Capacity-3" data-name="Capacity" transform="translate(2 2)" clip-path="url(#clip-path-3)">
            <path id="Fill-13" data-name="Fill" d="M333-29.667h28v17.333H333Z" transform="translate(-338 24.667)" fill="#1583d8"/>
          </g>
        </g>
        <g id="Wifi-5" data-name="Wifi" transform="translate(237.694 2.331)">
          <g id="Wifi-6" data-name="Wifi" transform="translate(0 0)" clip-path="url(#clip-path-4)">
            <path id="Fill-14" data-name="Fill" d="M310.694-31.669h25.272V-10.7H310.694Z" transform="translate(-315.694 26.669)" fill="#1583d8"/>
          </g>
        </g>
        <g id="Cellular_Connection-5" data-name="Cellular Connection" transform="translate(215.667 2.667)">
          <g id="Cellular_Connection-6" data-name="Cellular Connection" clip-path="url(#clip-path-5)">
            <path id="Fill-15" data-name="Fill" d="M288.667-31.333h27v20.667h-27Z" transform="translate(-293.667 26.333)" fill="#1583d8"/>
          </g>
        </g>
        <g id="Bars___Time_Black-3" data-name="Bars/_/Time Black" transform="translate(0 0)">
          <path id="Background-3" data-name="Background" d="M21-19H75V-35H21Z" transform="translate(-21 35)" fill="none"/>
          <text id="_10:20-3" data-name="10:20" transform="translate(4 10)" fill="#1583d8" font-size="9" font-family="TektonPro-Bold, Tekton Pro" font-weight="700"><tspan x="0" y="0">10:20</tspan></text>
        </g>
      </g>
    </g>
    <g id="Media_Cross-2" data-name="Media / Cross" transform="translate(1499.239 389.916)">
      <line id="Line_1-2" data-name="Line 1" x2="179.107" y2="179.661" transform="translate(3.728 2.867)" fill="none" stroke="#1583d8" stroke-miterlimit="10" stroke-width="2"/>
      <line id="Line_2-2" data-name="Line 2" x1="178.819" y2="178.823" transform="translate(2.782 2.793)" fill="none" stroke="#1583d8" stroke-miterlimit="10" stroke-width="2"/>
      <path id="Path_972-2" data-name="Path 972" d="M96.057.058Q72.63.606,49.2,1.162l-18.247.423q-6.04.137-12.088.282c-2.687.066-5.382.124-8.07.191-2.191.058-5.837.846-7.9.025-.794-.315-1.538.473-1.571,1.2C-1.331,62.715.959,122.209.157,181.67a1.263,1.263,0,0,0,1.24,1.245c19.975.855,39.976,1.477,59.968,1.751,32.32.44,64.639-1.137,96.967-1.12,8.392,0,16.776.033,25.168.174a1.257,1.257,0,0,0,1.24-1.245c-1.43-60.017.322-120.051-1.1-180.06A1.268,1.268,0,0,0,182.4,1.17C158.918.731,135.437.307,111.948.083c-5.3-.05-10.6-.141-15.891-.025a1.246,1.246,0,0,0,0,2.49c25.589-.556,51.286.473,76.876.929l9.467.174-1.24-1.245c1.43,60.017-.322,120.051,1.1,180.06l1.24-1.245c-23.489-.415-47-.207-70.484.249-29.277.573-58.388.772-87.674-.183q-11.98-.386-23.944-.88l1.24,1.245C3.439,122.2,1.149,62.715,3.811,3.287c-.521.4-1.042.8-1.571,1.2,1.637.656,3.845.183,5.581.141l8.483-.2,12.675-.3q9.748-.224,19.5-.456l47.582-1.12C97.645,2.507,97.653.017,96.057.058Z" transform="translate(0.002 -0.002)" fill="#1583d8"/>
    </g>
    <g id="Radios_Default-3" data-name="Radios / Default" transform="translate(1570.755 713.613)">
      <path id="Oval-5" data-name="Oval" d="M1.046,4.666A4.5,4.5,0,0,1,6.394,1.119C8.458,1.5,9.136,3.74,9.124,5.591,9.1,8.518,5.387,9.288,3.17,8.346A3.484,3.484,0,0,1,1.064,4.528c.072-.661-.963-.656-1.035,0-.442,4.03,3.839,6.162,7.3,4.865a4.1,4.1,0,0,0,2.824-3.657C10.245,3.533,9.35.9,7.048.21a5.557,5.557,0,0,0-7,4.182C-.054,5.042.943,5.323,1.046,4.666Z" transform="translate(0.003 0.009)" fill="#1583d8"/>
    </g>
    <g id="Radios_Default-4" data-name="Radios / Default" transform="translate(1586.075 713.613)">
      <path id="Oval-6" data-name="Oval" d="M1.046,4.666A4.5,4.5,0,0,1,6.394,1.119C8.458,1.5,9.136,3.74,9.124,5.591,9.1,8.518,5.387,9.288,3.17,8.346A3.484,3.484,0,0,1,1.064,4.528c.072-.661-.963-.656-1.035,0-.442,4.03,3.839,6.162,7.3,4.865a4.1,4.1,0,0,0,2.824-3.657C10.245,3.533,9.35.9,7.048.21a5.557,5.557,0,0,0-7,4.182C-.054,5.042.943,5.323,1.046,4.666Z" transform="translate(0.003 0.009)" fill="#1583d8"/>
    </g>
    <g id="Radios_Checked_2-2" data-name="Radios / Checked 2" transform="translate(1601.394 713.596)">
      <g id="Oval-7" data-name="Oval" transform="translate(0)">
        <path id="Oval-8" data-name="Oval" d="M.032,4.545a.591.591,0,0,1,.013-.073.6.6,0,0,1,.007-.064A5.567,5.567,0,0,1,7.063.219c2.305.691,3.2,3.328,3.11,5.535A4.11,4.11,0,0,1,7.345,9.418a6.022,6.022,0,0,1-2.112.38C2.365,9.8-.323,7.782.032,4.545Z" transform="translate(0 0)" fill="#1583d8"/>
      </g>
    </g>
    <g id="Mobile_wireframe-4" data-name="Mobile wireframe" transform="translate(998.174 190.709)">
      <g id="Phone_border_screen-4" data-name="Phone border screen" transform="translate(0.085 0.102)" fill="none">
        <path d="M50,0S152.478.229,172.073,0,294,0,294,0a50,50,0,0,1,50,50s.316,175.806,0,221.033,1.418,168.9,0,191.491S344,648,344,648a50,50,0,0,1-50,50s-92.248-1.079-117.546,0S50,698,50,698A50,50,0,0,1,0,648S-.085,538.786-.085,423.6c0-.615.085-243.28.085-243.28V50A50,50,0,0,1,50,0Z" stroke="none"/>
        <path d="M 212.3923645019531 1.89825439453125 C 191.4261779785156 1.89825439453125 177.8686370849609 1.93243408203125 172.0962829589844 1.9998779296875 C 166.307373046875 2.0673828125 152.7213592529297 2.1016845703125 131.7156372070313 2.1016845703125 C 95.9583740234375 2.1016845703125 50.45098876953125 2.0009765625 50 1.99993896484375 C 43.51919555664063 1.99993896484375 37.2332763671875 3.268798828125 31.31683349609375 5.771240234375 C 25.60128784179688 8.18865966796875 20.46774291992188 11.64996337890625 16.05880737304688 16.058837890625 C 11.64999389648438 20.4677734375 8.188720703125 25.60125732421875 5.771270751953125 31.31689453125 C 3.268829345703125 37.23321533203125 2 43.5191650390625 2 49.99993896484375 L 2 180.321533203125 C 1.999176025390625 182.7481689453125 1.91455078125 422.9940490722656 1.91455078125 423.6012268066406 C 1.91455078125 537.468017578125 1.999176025390625 646.90625 2 647.9999389648438 C 2 654.4807739257813 3.268829345703125 660.7667846679688 5.771270751953125 666.6831665039063 C 8.188720703125 672.398681640625 11.64999389648438 677.5322265625 16.05880737304688 681.941162109375 C 20.46774291992188 686.3499755859375 25.60128784179688 689.8112182617188 31.31683349609375 692.2286987304688 C 37.23318481445313 694.7311401367188 43.51919555664063 695.9999389648438 50 695.9999389648438 L 50.01065063476563 695.9999389648438 L 50.0213623046875 696.0000610351563 C 50.4708251953125 696.0048828125 95.3963623046875 696.4794311523438 132.4258270263672 696.4794311523438 C 154.1511840820313 696.4794311523438 168.9357299804688 696.3186645507813 176.3687286376953 696.0017700195313 C 183.8577270507813 695.6824340820313 197.9225463867188 695.5205078125 218.1724548339844 695.5205078125 C 252.3585510253906 695.5205078125 293.0079956054688 695.9883422851563 294.0075988769531 695.9999389648438 C 300.4859008789063 695.9990234375 306.7689819335938 694.730224609375 312.6831970214844 692.2286987304688 C 318.3987426757813 689.8112182617188 323.5322875976563 686.3499755859375 327.9411926269531 681.941162109375 C 332.3500061035156 677.5322265625 335.811279296875 672.398681640625 338.2287292480469 666.6831665039063 C 340.7302551269531 660.7689208984375 341.9990844726563 654.4850463867188 342 648.0067138671875 C 341.9407043457031 641.1922607421875 340.59814453125 484.7958374023438 342.00390625 462.398681640625 C 342.8754577636719 448.5120544433594 342.541015625 394.7408752441406 342.2459106445313 347.2994995117188 C 342.0572814941406 316.9716796875 341.8790893554688 288.3258666992188 342.0000915527344 271.0186767578125 C 342.3125610351563 226.3182373046875 342.003173828125 51.761474609375 342 49.99993896484375 C 342 43.5191650390625 340.7311706542969 37.23321533203125 338.2287292480469 31.31689453125 C 335.811279296875 25.60125732421875 332.3500061035156 20.4677734375 327.9411926269531 16.058837890625 C 323.5322875976563 11.64996337890625 318.3987426757813 8.18865966796875 312.6831970214844 5.771240234375 C 306.7667236328125 3.268798828125 300.4808349609375 1.99993896484375 293.9955444335938 1.99993896484375 C 293.5407409667969 1.99896240234375 248.1040954589844 1.89825439453125 212.3923645019531 1.89825439453125 M 212.3924102783203 -0.10174560546875 C 248.5194854736328 -0.10174560546875 294 -6.103515625e-05 294 -6.103515625e-05 C 321.6142883300781 -6.103515625e-05 344 22.38580322265625 344 49.99993896484375 C 344 49.99993896484375 344.3161926269531 225.8063354492188 344 271.0326843261719 C 343.6838073730469 316.2589721679688 345.4181823730469 439.9281311035156 344 462.5239562988281 C 342.5817260742188 485.1197814941406 344 647.9999389648438 344 647.9999389648438 C 344 675.6142578125 321.6142883300781 697.9999389648438 294 697.9999389648438 C 294 697.9999389648438 252.9996032714844 697.5205078125 218.1725006103516 697.5205078125 C 200.7557678222656 697.5205078125 184.8876953125 697.6403198242188 176.4539184570313 697.9999389648438 C 168.0216369628906 698.3594970703125 151.1583862304688 698.4793701171875 132.4258422851563 698.4793701171875 C 94.95733642578125 698.4793701171875 50 697.9999389648438 50 697.9999389648438 C 22.3857421875 697.9999389648438 0 675.6142578125 0 647.9999389648438 C 0 647.9999389648438 -0.08544921875 538.7860107421875 -0.08544921875 423.6012268066406 C -0.08544921875 422.9866943359375 0 180.32080078125 0 180.32080078125 L 0 49.99993896484375 C 0 22.38580322265625 22.3857421875 -6.103515625e-05 50 -6.103515625e-05 C 50 -6.103515625e-05 95.54696655273438 0.10162353515625 131.7156524658203 0.10162353515625 C 149.8033142089844 0.10162353515625 165.5405731201172 0.07623291015625 172.0729064941406 -6.103515625e-05 C 178.6040954589844 -0.0762939453125 194.3305206298828 -0.10174560546875 212.3924102783203 -0.10174560546875 Z" stroke="none" fill="#1583d8"/>
      </g>
      <g id="Phone_screen-4" data-name="Phone screen" transform="translate(20.085 21.102)" fill="#fff" opacity="0.6">
        <path d="M 271.9998474121094 656 L 32.00043869018555 656 C 27.81502342224121 656 23.75527381896973 655.1804809570313 19.93402290344238 653.5642700195313 C 16.24260711669922 652.0029907226563 12.92718982696533 649.767578125 10.07985687255859 646.920166015625 C 7.232439994812012 644.07275390625 4.997023582458496 640.7574462890625 3.435773372650146 637.0661010742188 C 1.819523453712463 633.2447509765625 1.000023484230042 629.1849975585938 1.000023484230042 624.9996948242188 L 1.000023484230042 480.320068359375 L 1.000023484230042 145.8791656494141 L 1.000023484230042 32.00041580200195 C 1.000023484230042 27.81500053405762 1.819523453712463 23.75525093078613 3.435773372650146 19.93400001525879 C 4.997023582458496 16.24258422851563 7.232439994812012 12.92716693878174 10.07985687255859 10.07983303070068 C 12.92718982696533 7.23241662979126 16.24260711669922 4.997000217437744 19.93402290344238 3.435750007629395 C 23.75527381896973 1.819499969482422 27.81502342224121 1 32.00043869018555 1 L 67.03852081298828 1 C 67.01319122314453 1.332530736923218 67.00044250488281 1.666465640068054 67.00044250488281 1.999833345413208 L 67.00044250488281 12.99958324432373 C 67.00044250488281 20.16816711425781 72.83210754394531 26.0002498626709 80.00010681152344 26.0002498626709 L 225.0000305175781 26.0002498626709 C 232.1680297851563 26.0002498626709 237.9996948242188 20.16816711425781 237.9996948242188 12.99958324432373 L 237.9996948242188 1.999833345413208 C 237.9996948242188 1.666465640068054 237.9869384765625 1.332530736923218 237.9616088867188 1 L 271.9998474121094 1 C 276.1851806640625 1 280.2449340820313 1.819499969482422 284.0663452148438 3.435750007629395 C 287.7575988769531 4.997000217437744 291.0729370117188 7.23241662979126 293.9203491210938 10.07983303070068 C 296.7677612304688 12.92716693878174 299.0032043457031 16.24258422851563 300.564453125 19.93400001525879 C 302.1806945800781 23.75525093078613 303.0001831054688 27.81500053405762 303.0001831054688 32.00041580200195 L 303.0001831054688 624.9996948242188 C 303.0001831054688 629.1849975585938 302.1806945800781 633.2447509765625 300.564453125 637.066162109375 C 299.0032043457031 640.7574462890625 296.7677612304688 644.07275390625 293.9203491210938 646.920166015625 C 291.0729370117188 649.767578125 287.7575988769531 652.0029907226563 284.0662841796875 653.5642700195313 C 280.2449340820313 655.1804809570313 276.1851806640625 656 271.9998474121094 656 Z" stroke="none"/>
        <path d="M 271.9998474121094 655 C 276.0505981445313 655 279.9792785644531 654.2070922851563 283.6767883300781 652.6432495117188 C 287.2488708496094 651.1324462890625 290.4573669433594 648.968994140625 293.2132873535156 646.2130126953125 C 295.9691772460938 643.4571533203125 298.1325988769531 640.2486572265625 299.6434326171875 636.6765747070313 C 301.207275390625 632.9790649414063 302.0001831054688 629.0504150390625 302.0001831054688 624.9996948242188 L 302.0001831054688 32.00041580200195 C 302.0001831054688 27.94958305358887 301.207275390625 24.02091598510742 299.6434326171875 20.32349967956543 C 298.1325988769531 16.75133323669434 295.9691162109375 13.54283332824707 293.2131958007813 10.78691673278809 C 290.4573669433594 8.031000137329102 287.2488708496094 5.867583274841309 283.6767883300781 4.356750011444092 C 279.9792785644531 2.792916774749756 276.0505981445313 2 271.9998474121094 2 L 238.9996948242188 1.999833345413208 L 238.9996948242188 12.99958324432373 C 238.9996948242188 20.71958351135254 232.7194366455078 27.0002498626709 225.0000305175781 27.0002498626709 L 80.00010681152344 27.0002498626709 C 72.28069305419922 27.0002498626709 66.00044250488281 20.71958351135254 66.00044250488281 12.99958324432373 L 66.00044250488281 2 L 32.00043869018555 2 C 27.94960594177246 2 24.02094078063965 2.792916774749756 20.32352256774902 4.356750011444092 C 16.75135612487793 5.867583274841309 13.54285717010498 8.031083106994629 10.786940574646 10.78699970245361 C 8.031106948852539 13.54283332824707 5.867606639862061 16.75133323669434 4.356773376464844 20.32349967956543 C 2.792940139770508 24.02091598510742 2.000023365020752 27.94958305358887 2.000023365020752 32.00041580200195 L 2.000023365020752 145.8791656494141 L 2.000023365020752 480.320068359375 L 2.000023365020752 624.9996948242188 C 2.000023365020752 629.0504150390625 2.792940139770508 632.9790649414063 4.356773376464844 636.6765747070313 C 5.867606639862061 640.2486572265625 8.031023025512695 643.4571533203125 10.78702354431152 646.2130737304688 C 13.54285717010498 648.9689331054688 16.75135612487793 651.1324462890625 20.32352256774902 652.6432495117188 C 24.02094078063965 654.2070922851563 27.94960594177246 655 32.00043869018555 655 L 271.9998474121094 655 M 271.9998474121094 657 L 32.00043869018555 657 C 27.68044090270996 657 23.48969078063965 656.1539306640625 19.5444393157959 654.4852294921875 C 15.73394012451172 652.8735961914063 12.31169033050537 650.5662231445313 9.372773170471191 647.6272583007813 C 6.433856964111328 644.6884155273438 4.126440048217773 641.2661743164063 2.514773368835449 637.4556884765625 C 0.8461068272590637 633.5103149414063 2.347819099668413e-05 629.319580078125 2.347819099668413e-05 624.9996948242188 L 2.347819099668413e-05 480.320068359375 L 2.347819099668413e-05 145.8791656494141 L 2.347819099668413e-05 32.00041580200195 C 2.347819099668413e-05 27.68041610717773 0.8461068272590637 23.48966598510742 2.514773368835449 19.5444164276123 C 4.126440048217773 15.73391628265381 6.433773517608643 12.31166648864746 9.372773170471191 9.372750282287598 C 12.31169033050537 6.433750152587891 15.73394012451172 4.126416683197021 19.5444393157959 2.514750003814697 C 23.48969078063965 0.8460833430290222 27.68044090270996 5.684341886080801e-14 32.00043869018555 5.684341886080801e-14 L 68.16635894775391 5.684341886080801e-14 C 68.05661010742188 0.6543333530426025 68.00044250488281 1.326833367347717 68.00044250488281 1.999833345413208 L 68.00044250488281 12.99958324432373 C 68.00044250488281 19.61675071716309 73.38343811035156 25.0002498626709 80.00010681152344 25.0002498626709 L 225.0000305175781 25.0002498626709 C 231.6166839599609 25.0002498626709 236.9996948242188 19.61675071716309 236.9996948242188 12.99958324432373 L 236.9996948242188 1.999833345413208 C 236.9996948242188 1.329166650772095 236.9438629150391 0.656333327293396 236.8337707519531 5.684341886080801e-14 L 271.9998474121094 5.684341886080801e-14 C 276.3197631835938 5.684341886080801e-14 280.5105285644531 0.8460833430290222 284.4558715820313 2.514750003814697 C 288.266357421875 4.126416683197021 291.6885986328125 6.433833122253418 294.62744140625 9.372750282287598 C 297.5664367675781 12.31166648864746 299.873779296875 15.73391628265381 301.4854431152344 19.5444164276123 C 303.1541137695313 23.48966598510742 304.0001831054688 27.68041610717773 304.0001831054688 32.00041580200195 L 304.0001831054688 624.9996948242188 C 304.0001831054688 629.319580078125 303.1541137695313 633.5103149414063 301.4854431152344 637.4556884765625 C 299.873779296875 641.2661743164063 297.5663452148438 644.6884155273438 294.62744140625 647.6272583007813 C 291.6885986328125 650.566162109375 288.266357421875 652.8735961914063 284.4558715820313 654.4852294921875 C 280.5105285644531 656.1539306640625 276.3197631835938 657 271.9998474121094 657 Z" stroke="none" fill="#1583d8"/>
      </g>
      <g id="Header_icon-4" data-name="Header icon" transform="translate(145.434 26.102)">
        <path id="Line-7" data-name="Line" d="M1.47,75.29c.415.23,16.24.3,24.779.058,7.515-.212,15.03-.818,22.563-.882.454,0,3.09,0,3.561,0,.525.132,1.292-.592,1.293-1.211s-1.024-1.127-1.934-1.083c-7.412-.046-14.717.324-22.176.376-7.977.327-25.064.07-25.064.07l-3.1-.184S.132,72.578.1,73.743,1.055,75.06,1.47,75.29Z" transform="translate(-0.102 -69.512)" fill="#1583d8"/>
        <ellipse id="Ellipse_335-4" data-name="Ellipse 335" cx="3.5" cy="3.5" rx="3.5" ry="3.5" transform="translate(57.652)" fill="#1583d8"/>
      </g>
      <path id="Line-8" data-name="Line" d="M2.6,75.378c1.069.236,41.843.308,63.843.06,19.363-.218,38.725-.841,58.134-.907,1.169,0,7.961,0,9.175,0,1.352.136,1.133-.818,1.135-1.454s-.443-.95-2.788-.9c-19.1-.047-37.919.333-57.138.387-20.552.336-64.578.072-64.578.072l-7.987-.189S.833,72.6.758,73.8,1.53,75.141,2.6,75.378Z" transform="translate(103.832 584.59)" fill="#1583d8" stroke="#1583d8" stroke-width="1"/>
      <g id="status_bar_light-4" data-name="status bar/light" transform="translate(34.085 43.102)">
        <g id="Battery-4" data-name="Battery" transform="translate(258 2.333)">
          <g id="Border-4" data-name="Border" transform="translate(0 0)" clip-path="url(#clip-path)">
            <path id="Fill-16" data-name="Fill" d="M2.667,0H19.333A2.667,2.667,0,0,1,22,2.667v6h0a2.667,2.667,0,0,1-2.667,2.667H2.667A2.667,2.667,0,0,1,0,8.667v-6H0A2.667,2.667,0,0,1,2.667,0Z" fill="none" stroke="rgba(21,131,216,0.5)" stroke-width="2"/>
          </g>
          <g id="Cap-4" data-name="Cap" transform="translate(23 3.667)" clip-path="url(#clip-path-2)">
            <path id="Fill-17" data-name="Fill" d="M354-28h11.328v14H354Z" transform="translate(-359 23)" fill="#1583d8"/>
          </g>
          <g id="Capacity-4" data-name="Capacity" transform="translate(2 2)" clip-path="url(#clip-path-3)">
            <path id="Fill-18" data-name="Fill" d="M333-29.667h28v17.333H333Z" transform="translate(-338 24.667)" fill="#1583d8"/>
          </g>
        </g>
        <g id="Wifi-7" data-name="Wifi" transform="translate(237.694 2.331)">
          <g id="Wifi-8" data-name="Wifi" transform="translate(0 0)" clip-path="url(#clip-path-4)">
            <path id="Fill-19" data-name="Fill" d="M310.694-31.669h25.272V-10.7H310.694Z" transform="translate(-315.694 26.669)" fill="#1583d8"/>
          </g>
        </g>
        <g id="Cellular_Connection-7" data-name="Cellular Connection" transform="translate(215.667 2.667)">
          <g id="Cellular_Connection-8" data-name="Cellular Connection" clip-path="url(#clip-path-5)">
            <path id="Fill-20" data-name="Fill" d="M288.667-31.333h27v20.667h-27Z" transform="translate(-293.667 26.333)" fill="#1583d8"/>
          </g>
        </g>
        <g id="Bars___Time_Black-4" data-name="Bars/_/Time Black" transform="translate(0 0)">
          <path id="Background-4" data-name="Background" d="M21-19H75V-35H21Z" transform="translate(-21 35)" fill="none"/>
          <text id="_10:20-4" data-name="10:20" transform="translate(4 10)" fill="#1583d8" font-size="9" font-family="TektonPro-Bold, Tekton Pro" font-weight="700"><tspan x="0" y="0">10:20</tspan></text>
        </g>
      </g>
    </g>
    <g id="Media_Cross-3" data-name="Media / Cross" transform="translate(1080.917 389.916)">
      <line id="Line_1-3" data-name="Line 1" x2="179.107" y2="179.661" transform="translate(3.728 2.867)" fill="none" stroke="#1583d8" stroke-miterlimit="10" stroke-width="2"/>
      <line id="Line_2-3" data-name="Line 2" x1="178.819" y2="178.823" transform="translate(2.782 2.793)" fill="none" stroke="#1583d8" stroke-miterlimit="10" stroke-width="2"/>
      <path id="Path_972-3" data-name="Path 972" d="M96.057.058Q72.63.606,49.2,1.162l-18.247.423q-6.04.137-12.088.282c-2.687.066-5.382.124-8.07.191-2.191.058-5.837.846-7.9.025-.794-.315-1.538.473-1.571,1.2C-1.331,62.715.959,122.209.157,181.67a1.263,1.263,0,0,0,1.24,1.245c19.975.855,39.976,1.477,59.968,1.751,32.32.44,64.639-1.137,96.967-1.12,8.392,0,16.776.033,25.168.174a1.257,1.257,0,0,0,1.24-1.245c-1.43-60.017.322-120.051-1.1-180.06A1.268,1.268,0,0,0,182.4,1.17C158.918.731,135.437.307,111.948.083c-5.3-.05-10.6-.141-15.891-.025a1.246,1.246,0,0,0,0,2.49c25.589-.556,51.286.473,76.876.929l9.467.174-1.24-1.245c1.43,60.017-.322,120.051,1.1,180.06l1.24-1.245c-23.489-.415-47-.207-70.484.249-29.277.573-58.388.772-87.674-.183q-11.98-.386-23.944-.88l1.24,1.245C3.439,122.2,1.149,62.715,3.811,3.287c-.521.4-1.042.8-1.571,1.2,1.637.656,3.845.183,5.581.141l8.483-.2,12.675-.3q9.748-.224,19.5-.456l47.582-1.12C97.645,2.507,97.653.017,96.057.058Z" transform="translate(0.002 -0.002)" fill="#1583d8"/>
    </g>
    <g id="Radios_Default-5" data-name="Radios / Default" transform="translate(1182.132 713.613)">
      <path id="Oval-9" data-name="Oval" d="M1.046,4.666A4.5,4.5,0,0,1,6.394,1.119C8.458,1.5,9.136,3.74,9.124,5.591,9.1,8.518,5.387,9.288,3.17,8.346A3.484,3.484,0,0,1,1.064,4.528c.072-.661-.963-.656-1.035,0-.442,4.03,3.839,6.162,7.3,4.865a4.1,4.1,0,0,0,2.824-3.657C10.245,3.533,9.35.9,7.048.21a5.557,5.557,0,0,0-7,4.182C-.054,5.042.943,5.323,1.046,4.666Z" transform="translate(0.003 0.009)" fill="#1583d8"/>
    </g>
    <g id="Radios_Default-6" data-name="Radios / Default" transform="translate(1148.926 713.613)">
      <path id="Oval-10" data-name="Oval" d="M1.046,4.666A4.5,4.5,0,0,1,6.394,1.119C8.458,1.5,9.136,3.74,9.124,5.591,9.1,8.518,5.387,9.288,3.17,8.346A3.484,3.484,0,0,1,1.064,4.528c.072-.661-.963-.656-1.035,0-.442,4.03,3.839,6.162,7.3,4.865a4.1,4.1,0,0,0,2.824-3.657C10.245,3.533,9.35.9,7.048.21a5.557,5.557,0,0,0-7,4.182C-.054,5.042.943,5.323,1.046,4.666Z" transform="translate(0.003 0.009)" fill="#1583d8"/>
    </g>
    <g id="Radios_Checked_2-3" data-name="Radios / Checked 2" transform="translate(1165.521 713.613)">
      <g id="Oval-11" data-name="Oval" transform="translate(0 0)">
        <path id="Oval-12" data-name="Oval" d="M.032,4.545a.591.591,0,0,1,.013-.073.6.6,0,0,1,.007-.064A5.567,5.567,0,0,1,7.063.219c2.305.691,3.2,3.328,3.11,5.535A4.11,4.11,0,0,1,7.345,9.418a6.022,6.022,0,0,1-2.112.38C2.365,9.8-.323,7.782.032,4.545Z" transform="translate(0 0)" fill="#1583d8"/>
      </g>
    </g>
    <text id="How_to_play_2" data-name="How to play?" transform="translate(1104 341)" fill="#1583d8" font-size="26" font-family="TektonPro-Bold, Tekton Pro" font-weight="700"><tspan x="0" y="0">How to play?</tspan></text>
    <text id="How_to_play_3" data-name="How to play?" transform="translate(1518.575 341)" fill="#1583d8" font-size="26" font-family="TektonPro-Bold, Tekton Pro" font-weight="700"><tspan x="0" y="0">How to play?</tspan></text>
    <text id="Lorem_ipsum_dolor_sit_amet_consetetur_sadipscing_elitr_sed_diam_nonumy_eirmod_tempor_invidunt_ut_labore_et_dolore_magna_aliquyam_erat_2" data-name="Lorem ipsum dolor sit amet, consetetur 
sadipscing elitr, sed diam nonumy 
eirmod tempor invidunt ut labore et 
dolore magna aliquyam erat," transform="translate(1171 632)" fill="#1583d8" font-size="13" font-family="TektonPro-Bold, Tekton Pro" font-weight="700"><tspan x="-106.164" y="0">Lorem ipsum dolor sit amet, consetetur </tspan><tspan x="-89.323" y="19">sadipscing elitr, sed diam nonumy </tspan><tspan x="-94.731" y="38">eirmod tempor invidunt ut labore et </tspan><tspan x="-73.729" y="57">dolore magna aliquyam erat,</tspan></text>
    <text id="Lorem_ipsum_dolor_sit_amet_consetetur_sadipscing_elitr_sed_diam_nonumy_eirmod_tempor_invidunt_ut_labore_et_dolore_magna_aliquyam_erat_3" data-name="Lorem ipsum dolor sit amet, consetetur 
sadipscing elitr, sed diam nonumy 
eirmod tempor invidunt ut labore et 
dolore magna aliquyam erat," transform="translate(1591.5 632)" fill="#1583d8" font-size="13" font-family="TektonPro-Bold, Tekton Pro" font-weight="700"><tspan x="-106.164" y="0">Lorem ipsum dolor sit amet, consetetur </tspan><tspan x="-89.323" y="19">sadipscing elitr, sed diam nonumy </tspan><tspan x="-94.731" y="38">eirmod tempor invidunt ut labore et </tspan><tspan x="-73.729" y="57">dolore magna aliquyam erat,</tspan></text>
    <g id="Buttons_Square_Button_Default_Confirm-3" data-name="Buttons / Square Button / Default / Confirm" transform="translate(1123.452 769.484)">
      <path id="Square_Button-3" data-name="Square Button" d="M2.085,33.06c-.01-4.933.157-9.86.131-14.789-.026-5.706-.343-11.4-.228-17.107l-.979.97q17.075.233,34.151.278c10.551.026,21.09-.259,31.641-.323,8.776-.055,17.549.039,26.321-.155l-.979-.97c-.242,10.7-.666,21.4-.646,32.1l.979-.97c-13.332.44-26.69.2-40.025.411-10.9.168-21.817.065-32.725-.019q-9.36-.073-18.72-.2l.845,1.458c.033-.065.065-.133.1-.2.568-1.112-1.123-2.095-1.691-.98-.033.065-.065.133-.1.2a.98.98,0,0,0,.845,1.458q17.413.238,34.83.281c10.633.023,21.259-.3,31.889-.291,8.254,0,16.5.087,24.752-.184a.99.99,0,0,0,.979-.97c-.02-10.7.4-21.4.646-32.1a.982.982,0,0,0-.979-.97c-13.792.3-27.6.236-41.39.423C40.988.558,30.238.465,19.49.381Q10.248.318,1.008.193a.988.988,0,0,0-.979.97c-.114,5.706.206,11.4.232,17.107C.284,23.2.121,28.127.13,33.06A.978.978,0,0,0,2.085,33.06Z" transform="translate(-0.005 0.011)" fill="#1583d8"/>
      <text id="skip-2" data-name="skip" transform="translate(46.634 20.516)" fill="#1583d8" font-size="16" font-family="TektonPro-Bold, Tekton Pro" font-weight="700"><tspan x="-13.24" y="0">skip</tspan></text>
      <g id="Buttons_Square_Button_Default_Confirm-4" data-name="Buttons / Square Button / Default / Confirm">
        <path id="Square_Button-4" data-name="Square Button" d="M2.085,33.06c-.01-4.933.157-9.86.131-14.789-.026-5.706-.343-11.4-.228-17.107l-.979.97q17.075.233,34.151.278c10.551.026,21.09-.259,31.641-.323,8.776-.055,17.549.039,26.321-.155l-.979-.97c-.242,10.7-.666,21.4-.646,32.1l.979-.97c-13.332.44-26.69.2-40.025.411-10.9.168-21.817.065-32.725-.019q-9.36-.073-18.72-.2l.845,1.458c.033-.065.065-.133.1-.2.568-1.112-1.123-2.095-1.691-.98-.033.065-.065.133-.1.2a.98.98,0,0,0,.845,1.458q17.413.238,34.83.281c10.633.023,21.259-.3,31.889-.291,8.254,0,16.5.087,24.752-.184a.99.99,0,0,0,.979-.97c-.02-10.7.4-21.4.646-32.1a.982.982,0,0,0-.979-.97c-13.792.3-27.6.236-41.39.423C40.988.558,30.238.465,19.49.381Q10.248.318,1.008.193a.988.988,0,0,0-.979.97c-.114,5.706.206,11.4.232,17.107C.284,23.2.121,28.127.13,33.06A.978.978,0,0,0,2.085,33.06Z" transform="translate(-0.005 0.011)" fill="#1583d8"/>
      </g>
    </g>
    <g id="Buttons_Square_Button_Default_Confirm-5" data-name="Buttons / Square Button / Default / Confirm" transform="translate(1544.561 769.484)">
      <path id="Square_Button-5" data-name="Square Button" d="M2.085,33.06c-.01-4.933.157-9.86.131-14.789-.026-5.706-.343-11.4-.228-17.107l-.979.97q17.075.233,34.151.278c10.551.026,21.09-.259,31.641-.323,8.776-.055,17.549.039,26.321-.155l-.979-.97c-.242,10.7-.666,21.4-.646,32.1l.979-.97c-13.332.44-26.69.2-40.025.411-10.9.168-21.817.065-32.725-.019q-9.36-.073-18.72-.2l.845,1.458c.033-.065.065-.133.1-.2.568-1.112-1.123-2.095-1.691-.98-.033.065-.065.133-.1.2a.98.98,0,0,0,.845,1.458q17.413.238,34.83.281c10.633.023,21.259-.3,31.889-.291,8.254,0,16.5.087,24.752-.184a.99.99,0,0,0,.979-.97c-.02-10.7.4-21.4.646-32.1a.982.982,0,0,0-.979-.97c-13.792.3-27.6.236-41.39.423C40.988.558,30.238.465,19.49.381Q10.248.318,1.008.193a.988.988,0,0,0-.979.97c-.114,5.706.206,11.4.232,17.107C.284,23.2.121,28.127.13,33.06A.978.978,0,0,0,2.085,33.06Z" transform="translate(-0.005 0.011)" fill="#1583d8"/>
      <text id="skip-3" data-name="skip" transform="translate(46.634 20.516)" fill="#1583d8" font-size="16" font-family="TektonPro-Bold, Tekton Pro" font-weight="700"><tspan x="-13.24" y="0">skip</tspan></text>
      <g id="Buttons_Square_Button_Default_Confirm-6" data-name="Buttons / Square Button / Default / Confirm">
        <path id="Square_Button-6" data-name="Square Button" d="M2.085,33.06c-.01-4.933.157-9.86.131-14.789-.026-5.706-.343-11.4-.228-17.107l-.979.97q17.075.233,34.151.278c10.551.026,21.09-.259,31.641-.323,8.776-.055,17.549.039,26.321-.155l-.979-.97c-.242,10.7-.666,21.4-.646,32.1l.979-.97c-13.332.44-26.69.2-40.025.411-10.9.168-21.817.065-32.725-.019q-9.36-.073-18.72-.2l.845,1.458c.033-.065.065-.133.1-.2.568-1.112-1.123-2.095-1.691-.98-.033.065-.065.133-.1.2a.98.98,0,0,0,.845,1.458q17.413.238,34.83.281c10.633.023,21.259-.3,31.889-.291,8.254,0,16.5.087,24.752-.184a.99.99,0,0,0,.979-.97c-.02-10.7.4-21.4.646-32.1a.982.982,0,0,0-.979-.97c-13.792.3-27.6.236-41.39.423C40.988.558,30.238.465,19.49.381Q10.248.318,1.008.193a.988.988,0,0,0-.979.97c-.114,5.706.206,11.4.232,17.107C.284,23.2.121,28.127.13,33.06A.978.978,0,0,0,2.085,33.06Z" transform="translate(-0.005 0.011)" fill="#1583d8"/>
      </g>
    </g>
  </g>
</svg>
