<svg xmlns="http://www.w3.org/2000/svg" xmlns:xlink="http://www.w3.org/1999/xlink" width="793" height="394" viewBox="0 0 793 394">
  <defs>
    <clipPath id="clip-path">
      <path id="Shape" d="M337.242-26.667H345a1.242,1.242,0,0,1,1.242,1.242v2.795h0A1.242,1.242,0,0,1,345-21.388h-7.763A1.242,1.242,0,0,1,336-22.63v-2.795h0A1.242,1.242,0,0,1,337.242-26.667Z" transform="translate(-336 26.667)" fill="none" clip-rule="evenodd"/>
    </clipPath>
    <clipPath id="clip-path-2">
      <path id="Shape-2" data-name="Shape" d="M359-23v1.863a1.011,1.011,0,0,0,.619-.932A1.011,1.011,0,0,0,359-23" transform="translate(-359 23)" fill="#1583d8"/>
    </clipPath>
    <clipPath id="clip-path-3">
      <path id="Shape-3" data-name="Shape" d="M338.621-24.667h7.142a.621.621,0,0,1,.621.621v2.174h0a.621.621,0,0,1-.621.621h-7.142a.621.621,0,0,1-.621-.621v-2.174h0A.621.621,0,0,1,338.621-24.667Z" transform="translate(-338 24.667)" fill="#1583d8"/>
    </clipPath>
    <clipPath id="clip-path-4">
      <path id="Shape-4" data-name="Shape" d="M319.251-25.609a4.024,4.024,0,0,1,2.773,1.108.143.143,0,0,0,.2,0l.538-.543a.15.15,0,0,0,.043-.106.15.15,0,0,0-.045-.106,5.076,5.076,0,0,0-7.024,0,.15.15,0,0,0-.045.106.15.15,0,0,0,.043.106l.539.543a.143.143,0,0,0,.2,0,4.024,4.024,0,0,1,2.773-1.108Zm0,1.768a2.285,2.285,0,0,1,1.534.591.145.145,0,0,0,.2,0l.538-.543a.15.15,0,0,0,.044-.107.15.15,0,0,0-.046-.106,3.335,3.335,0,0,0-4.542,0,.15.15,0,0,0-.046.106.15.15,0,0,0,.044.107l.538.543a.145.145,0,0,0,.2,0,2.286,2.286,0,0,1,1.533-.591Zm1.034,1.3a.146.146,0,0,0,.044-.107.146.146,0,0,0-.048-.105,1.594,1.594,0,0,0-2.058,0,.146.146,0,0,0-.048.105.146.146,0,0,0,.044.107l.93.939a.145.145,0,0,0,.1.043.145.145,0,0,0,.1-.043Z" transform="translate(-315.694 26.669)" fill="#1583d8"/>
    </clipPath>
    <clipPath id="clip-path-5">
      <path id="Shape-5" data-name="Shape" d="M294.132-23.228h.466a.466.466,0,0,1,.466.466v.932a.466.466,0,0,1-.466.466h-.466a.466.466,0,0,1-.466-.466v-.932a.466.466,0,0,1,.466-.466Zm2.174-.932h.466a.466.466,0,0,1,.466.466v1.863a.466.466,0,0,1-.466.466h-.466a.466.466,0,0,1-.466-.466v-1.863A.466.466,0,0,1,296.306-24.16Zm2.174-1.087h.466a.466.466,0,0,1,.466.466v2.95a.466.466,0,0,1-.466.466h-.466a.466.466,0,0,1-.466-.466v-2.95A.466.466,0,0,1,298.48-25.247Zm2.174-1.087h.466a.466.466,0,0,1,.466.466v4.037a.466.466,0,0,1-.466.466h-.466a.466.466,0,0,1-.466-.466v-4.037a.466.466,0,0,1,.466-.466Z" transform="translate(-293.667 26.333)" fill="#1583d8"/>
    </clipPath>
    <clipPath id="clip-Research_5_persona_6">
      <rect width="793" height="394"/>
    </clipPath>
  </defs>
  <g id="Research_5_persona_6" data-name="Research 5_persona – 6" clip-path="url(#clip-Research_5_persona_6)">
    <rect width="793" height="394" fill="rgba(70,98,158,0)"/>
    <g id="Group_1253" data-name="Group 1253" transform="translate(2172.102 -13288)">
      <g id="Mobile_wireframe" data-name="Mobile wireframe" transform="translate(-1943.911 13341.621)">
        <g id="Phone_border_screen" data-name="Phone border screen" transform="translate(0.085 0.102)" fill="none">
          <path d="M23.243-.054s47.731.107,56.858,0,56.79,0,56.79,0a23.289,23.289,0,0,1,23.289,23.289s.147,81.885,0,102.951.661,78.667,0,89.191,0,86.389,0,86.389a23.289,23.289,0,0,1-23.289,23.289s-42.966-.5-54.75,0-58.9,0-58.9,0A23.289,23.289,0,0,1-.046,301.765s-.04-50.869-.04-104.518c0-.286.04-113.313.04-113.313v-60.7A23.289,23.289,0,0,1,23.243-.054Z" stroke="none"/>
          <path d="M 98.88050842285156 1.898284912109375 C 89.11763000488281 1.898284912109375 82.80709075927734 1.914154052734375 80.12425231933594 1.945526123046875 C 77.42537689208984 1.977020263671875 71.09321594238281 1.9930419921875 61.30362701416016 1.9930419921875 C 44.64775848388672 1.9930419921875 23.45059204101563 1.94610595703125 23.24287414550781 1.945648193359375 C 20.3680419921875 1.945648193359375 17.58029174804688 2.50823974609375 14.95704650878906 3.617767333984375 C 12.42225646972656 4.689910888671875 10.14533996582031 6.225189208984375 8.189590454101563 8.180938720703125 C 6.233840942382813 10.13668823242188 4.698593139648438 12.41357421875 3.62646484375 14.9483642578125 C 2.516921997070313 17.57162475585938 1.954345703125 20.35940551757813 1.954345703125 23.23419189453125 L 1.954345703125 83.93452453613281 C 1.95391845703125 85.06477355957031 1.91455078125 196.9641571044922 1.91455078125 197.2467346191406 C 1.91455078125 250.2821044921875 1.95391845703125 301.2548217773438 1.954345703125 301.7650756835938 C 1.954345703125 304.639892578125 2.516921997070313 307.4276428222656 3.62646484375 310.0509033203125 C 4.698593139648438 312.585693359375 6.233840942382813 314.8626098632813 8.189590454101563 316.818359375 C 10.14533996582031 318.7741088867188 12.42225646972656 320.3093566894531 14.95704650878906 321.3815002441406 C 17.58029174804688 322.4910278320313 20.3680419921875 323.0536193847656 23.24287414550781 323.0536193847656 L 23.2535400390625 323.0536193847656 L 23.26420593261719 323.0537414550781 C 23.4735107421875 323.0559387207031 44.39337921142578 323.2769470214844 61.63442230224609 323.2769470214844 C 71.73792266845703 323.2769470214844 78.60879516601563 323.202392578125 82.05621337890625 323.0554504394531 C 85.55988311767578 322.9060363769531 92.12621307373047 322.8302917480469 101.5727081298828 322.8302917480469 C 117.461540222168 322.8302917480469 136.3457794189453 323.0471801757813 136.9031524658203 323.0536193847656 C 139.7736511230469 323.0520324707031 142.5572204589844 322.4894714355469 145.1768035888672 321.3815002441406 C 147.7115936279297 320.3093566894531 149.9884643554688 318.7741088867188 151.9442138671875 316.818359375 C 153.8999633789063 314.8626098632813 155.4352569580078 312.585693359375 156.5073852539063 310.0509033203125 C 157.615966796875 307.4299011230469 158.1785430908203 304.6448364257813 158.1795043945313 301.7726135253906 C 158.1512908935547 298.5305786132813 157.526611328125 225.7149505615234 158.1834259033203 215.2505187988281 C 158.5870513916016 208.8193969726563 158.4313812255859 183.7944946289063 158.2940521240234 161.7154846191406 C 158.2061767578125 147.5855255126953 158.1231231689453 134.2392425537109 158.1795501708984 126.1707305908203 C 158.3250427246094 105.3552856445313 158.1809692382813 24.05657958984375 158.1795043945313 23.23419189453125 C 158.1795043945313 20.35940551757813 157.6169281005859 17.57162475585938 156.5073852539063 14.9483642578125 C 155.4352569580078 12.41357421875 153.8999633789063 10.13668823242188 151.9442138671875 8.180938720703125 C 149.9884643554688 6.225189208984375 147.7115936279297 4.689910888671875 145.1768035888672 3.617767333984375 C 142.5535430908203 2.50823974609375 139.7657470703125 1.945648193359375 136.8865051269531 1.945648193359375 C 136.6746673583984 1.9451904296875 115.5127105712891 1.898284912109375 98.88050842285156 1.898284912109375 M 98.88050842285156 -0.101715087890625 C 115.7074508666992 -0.101715087890625 136.8909606933594 -0.054351806640625 136.8909606933594 -0.054351806640625 C 149.7528381347656 -0.054351806640625 160.1795043945313 10.372314453125 160.1795043945313 23.23419189453125 C 160.1795043945313 23.23419189453125 160.3267517089844 105.1196594238281 160.1795043945313 126.1847381591797 C 160.0322113037109 147.2498626708984 160.8400421142578 204.851318359375 160.1795043945313 215.3758239746094 C 159.5189208984375 225.9002685546875 160.1795043945313 301.7650756835938 160.1795043945313 301.7650756835938 C 160.1795043945313 314.6269836425781 149.7528381347656 325.0536193847656 136.8909606933594 325.0536193847656 C 136.8909606933594 325.0536193847656 117.7941741943359 324.8302917480469 101.5727233886719 324.8302917480469 C 93.46051788330078 324.8302917480469 86.06963348388672 324.8861083984375 82.14141845703125 325.0536193847656 C 78.21391296386719 325.2210998535156 70.3594970703125 325.2769165039063 61.63442993164063 325.2769165039063 C 44.18269348144531 325.2769165039063 23.24287414550781 325.0536193847656 23.24287414550781 325.0536193847656 C 10.38096618652344 325.0536193847656 -0.045654296875 314.6269836425781 -0.045654296875 301.7650756835938 C -0.045654296875 301.7650756835938 -0.08544921875 250.8964538574219 -0.08544921875 197.2467346191406 C -0.08544921875 196.9605255126953 -0.045654296875 83.93382263183594 -0.045654296875 83.93382263183594 L -0.045654296875 23.23419189453125 C -0.045654296875 10.372314453125 10.38096618652344 -0.054351806640625 23.24287414550781 -0.054351806640625 C 23.24287414550781 -0.054351806640625 44.45732116699219 -0.006988525390625 61.30364227294922 -0.006988525390625 C 69.72834014892578 -0.006988525390625 77.05830383300781 -0.018798828125 80.10088348388672 -0.054351806640625 C 83.14290618896484 -0.089874267578125 90.46781158447266 -0.101715087890625 98.88050842285156 -0.101715087890625 Z" stroke="none" fill="#1583d8"/>
        </g>
        <g id="Phone_screen" data-name="Phone screen" transform="translate(9.355 9.829)" fill="#fff" opacity="0.6">
          <path d="M 126.6894226074219 305.0117492675781 L 14.9049186706543 305.0117492675781 C 11.19064998626709 305.0117492675781 7.698765277862549 303.5653381347656 5.072457313537598 300.9389038085938 C 2.446303606033325 298.3126831054688 0.9999958276748657 294.8209228515625 0.9999958276748657 291.1068115234375 L 0.9999958276748657 223.7193298339844 L 0.9999958276748657 67.94637298583984 L 0.9999958276748657 14.9049129486084 C 0.9999958276748657 11.19083595275879 2.446303606033325 7.699067115783691 5.072457313537598 5.07275915145874 C 7.698726654052734 2.446413040161133 11.19064998626709 0.9999900460243225 14.9049186706543 0.9999900460243225 L 31.0156192779541 0.9999900460243225 C 30.78774070739746 1.804828882217407 30.67280387878418 2.638762950897217 30.67280387878418 3.492913007736206 C 30.67280387878418 8.538951873779297 34.77764892578125 12.6441822052002 39.82318878173828 12.6441822052002 L 102.2364196777344 12.6441822052002 C 107.2824554443359 12.6441822052002 111.3876876831055 8.538951873779297 111.3876876831055 3.492913007736206 C 111.3876876831055 2.638715028762817 111.2727432250977 1.804835677146912 111.0448150634766 0.9999900460243225 L 126.6894226074219 0.9999900460243225 C 130.4033813476563 0.9999900460243225 133.8951568603516 2.446413040161133 136.5214996337891 5.072797775268555 C 139.1478729248047 7.699143886566162 140.5942993164063 11.19091320037842 140.5942993164063 14.9049129486084 L 140.5942993164063 291.1068115234375 C 140.5942993164063 294.8208312988281 139.1478729248047 298.3125915527344 136.5215301513672 300.9388732910156 C 133.8951568603516 303.5653381347656 130.4033813476563 305.0117492675781 126.6894226074219 305.0117492675781 Z" stroke="none"/>
          <path d="M 126.6894378662109 304.0117492675781 C 130.13623046875 304.0117492675781 133.3768920898438 302.6693420410156 135.8144378662109 300.2317504882813 C 138.2519378662109 297.7943725585938 139.5943145751953 294.5537414550781 139.5943145751953 291.1068420410156 L 139.5943145751953 14.90491676330566 C 139.5943145751953 11.45804119110107 138.2519378662109 8.217374801635742 135.8143615722656 5.779874801635742 C 133.3769836425781 3.342374563217163 130.1363525390625 1.999999642372131 126.6894378662109 1.999999642372131 L 112.2795028686523 1.999999642372131 C 112.3515090942383 2.490300893783569 112.3876876831055 2.988501310348511 112.3876876831055 3.492916345596313 C 112.3876876831055 9.090374946594238 107.833854675293 13.64420795440674 102.236442565918 13.64420795440674 L 39.82319259643555 13.64420795440674 C 34.22627639770508 13.64420795440674 29.67281723022461 9.090374946594238 29.67281723022461 3.492916345596313 C 29.67281723022461 2.988422155380249 29.7089729309082 2.490374565124512 29.78098487854004 1.999999642372131 L 14.90494155883789 1.999999642372131 C 11.45769119262695 1.999999642372131 8.216940879821777 3.342374563217163 5.779607772827148 5.779916286468506 C 3.34227466583252 8.217290878295898 1.999982953071594 11.45795822143555 1.999982953071594 14.90491676330566 L 1.999982953071594 67.94637298583984 L 1.999982953071594 223.7193298339844 L 1.999982953071594 291.1068420410156 C 1.999982953071594 294.5538024902344 3.34227466583252 297.7944641113281 5.779607772827148 300.2318420410156 C 8.216982841491699 302.6693420410156 11.4577751159668 304.0117492675781 14.90494155883789 304.0117492675781 L 126.6894378662109 304.0117492675781 M 126.6894378662109 306.0117492675781 L 14.90494155883789 306.0117492675781 C 10.92352485656738 306.0117492675781 7.180482864379883 304.4613037109375 4.365357875823975 301.64599609375 C 1.550316333770752 298.8309020996094 -1.700846405583434e-05 295.0879516601563 -1.700846405583434e-05 291.1068420410156 L -1.700846405583434e-05 223.7193298339844 L -1.700846405583434e-05 67.94637298583984 L -1.700846405583434e-05 14.90491676330566 C -1.700846405583434e-05 10.92379093170166 1.550316333770752 7.180832862854004 4.365357875823975 4.365707874298096 C 7.180441379547119 1.550416350364685 10.92348289489746 -3.66210912261522e-07 14.90494155883789 -3.66210912261522e-07 L 32.45710754394531 -3.66210912261522e-07 C 31.93698310852051 1.094916343688965 31.67281723022461 2.269624710083008 31.67281723022461 3.492916345596313 C 31.67281723022461 7.987541198730469 35.32902526855469 11.64420795440674 39.82319259643555 11.64420795440674 L 102.236442565918 11.64420795440674 C 106.7310256958008 11.64420795440674 110.3876876831055 7.987541198730469 110.3876876831055 3.492916345596313 C 110.3876876831055 2.270791292190552 110.1237716674805 1.095582962036133 109.6032333374023 -3.66210912261522e-07 L 126.6894378662109 -3.66210912261522e-07 C 130.6705322265625 -3.66210912261522e-07 134.4134368896484 1.550416350364685 137.2286071777344 4.365707874298096 C 140.0438995361328 7.180916309356689 141.5943145751953 10.92383289337158 141.5943145751953 14.90491676330566 L 141.5943145751953 291.1068420410156 C 141.5943145751953 295.0879516601563 140.0438995361328 298.8308410644531 137.2286071777344 301.64599609375 C 134.4133605957031 304.4613037109375 130.6705322265625 306.0117492675781 126.6894378662109 306.0117492675781 Z" stroke="none" fill="#1583d8"/>
        </g>
        <g id="Header_icon" data-name="Header icon" transform="translate(67.739 12.157)">
          <path id="Line" d="M.739,73.622c.193.107,7.564.139,11.541.027,3.5-.1,7-.381,10.509-.411.211,0,1.439,0,1.659,0,.244.062.6-.276.6-.564s-.477-.525-.9-.5c-3.452-.021-6.855.151-10.329.175-3.715.152-11.674.033-11.674.033L.7,72.292s-.586.067-.6.61S.546,73.515.739,73.622Z" transform="translate(-0.102 -70.931)" fill="#1583d8"/>
          <ellipse id="Ellipse_335" data-name="Ellipse 335" cx="1.63" cy="1.63" rx="1.63" ry="1.63" transform="translate(26.852)" fill="#1583d8"/>
        </g>
        <path id="Line-2" data-name="Line" d="M1.613,73.663c.5.11,19.489.143,29.736.028,9.019-.1,18.037-.392,27.077-.423.545,0,3.708,0,4.273,0,.63.063.528-.381.528-.677s-.206-.442-1.3-.421c-8.894-.022-17.661.155-26.613.18-9.573.157-30.078.034-30.078.034L1.518,72.3s-.727.074-.762.632S1.115,73.553,1.613,73.663Z" transform="translate(47.959 233.731)" fill="#1583d8" stroke="#1583d8" stroke-width="1"/>
        <g id="status_bar_light" data-name="status bar/light" transform="translate(15.876 20.076)">
          <g id="Battery" transform="translate(120.169 1.087)">
            <g id="Border" transform="translate(0 0)" clip-path="url(#clip-path)">
              <path id="Fill" d="M1.242,0H9a1.242,1.242,0,0,1,1.242,1.242V4.037h0A1.242,1.242,0,0,1,9,5.279H1.242A1.242,1.242,0,0,1,0,4.037V1.242H0A1.242,1.242,0,0,1,1.242,0Z" fill="none" stroke="rgba(21,131,216,0.5)" stroke-width="2"/>
            </g>
            <g id="Cap" transform="translate(10.713 1.708)" clip-path="url(#clip-path-2)">
              <path id="Fill-2" data-name="Fill" d="M354-28h5.276v6.521H354Z" transform="translate(-356.329 25.671)" fill="#1583d8"/>
            </g>
            <g id="Capacity" transform="translate(0.932 0.932)" clip-path="url(#clip-path-3)">
              <path id="Fill-3" data-name="Fill" d="M333-29.667h13.042v8.073H333Z" transform="translate(-335.329 27.338)" fill="#1583d8"/>
            </g>
          </g>
          <g id="Wifi" transform="translate(110.711 1.086)">
            <g id="Wifi-2" data-name="Wifi" transform="translate(0 0)" clip-path="url(#clip-path-4)">
              <path id="Fill-4" data-name="Fill" d="M310.694-31.669h11.771V-21.9H310.694Z" transform="translate(-313.023 29.34)" fill="#1583d8"/>
            </g>
          </g>
          <g id="Cellular_Connection" data-name="Cellular Connection" transform="translate(100.451 1.242)">
            <g id="Cellular_Connection-2" data-name="Cellular Connection" clip-path="url(#clip-path-5)">
              <path id="Fill-5" data-name="Fill" d="M288.667-31.333h12.576v9.626H288.667Z" transform="translate(-290.996 29.004)" fill="#1583d8"/>
            </g>
          </g>
          <g id="Bars___Time_Black" data-name="Bars/_/Time Black" transform="translate(0 0)">
            <path id="Background" d="M21-27.548H46.152V-35H21Z" transform="translate(-21 35)" fill="none"/>
            <text id="_10:20" data-name="10:20" transform="translate(1.863 4.863)" fill="#1583d8" font-size="5" font-family="TektonPro-Bold, Tekton Pro" font-weight="700"><tspan x="0" y="0">10:20</tspan></text>
          </g>
        </g>
      </g>
      <text id="How_to_play_" data-name="How to play?" transform="translate(-1897.174 13410.912)" fill="#1583d8" font-size="13" font-family="TektonPro-Bold, Tekton Pro" font-weight="700"><tspan x="0" y="0">How to play?</tspan></text>
      <g id="Buttons_Square_Button_Default_Confirm" data-name="Buttons / Square Button / Default / Confirm" transform="translate(-1887.37 13606.589)">
        <path id="Square_Button" data-name="Square Button" d="M1.054,16.665c0-2.487.079-4.972.066-7.457C1.107,6.33.947,3.456,1,.581L.511,1.07q8.61.117,17.22.14c5.32.013,10.634-.13,15.955-.163,4.425-.028,8.849.02,13.272-.078L46.464.48c-.122,5.4-.336,10.789-.326,16.185l.494-.489c-6.723.222-13.458.1-20.182.207-5.5.085-11,.033-16.5-.01q-4.72-.037-9.44-.1l.426.735c.016-.033.033-.067.051-.1.286-.561-.566-1.056-.852-.494-.016.033-.033.067-.051.1a.494.494,0,0,0,.426.735q8.78.12,17.563.142c5.362.011,10.72-.15,16.08-.147,4.162,0,8.32.044,12.481-.093a.5.5,0,0,0,.494-.489c-.01-5.4.2-10.789.326-16.185a.5.5,0,0,0-.494-.489C40,.143,33.042.108,26.088.2,20.67.276,15.249.229,9.83.187Q5.17.155.511.092A.5.5,0,0,0,.017.581c-.058,2.877.1,5.751.117,8.626.012,2.486-.071,4.97-.066,7.457A.493.493,0,0,0,1.054,16.665Z" transform="translate(-0.005 0.011)" fill="#1583d8"/>
        <text id="skip" transform="translate(23.768 10.055)" fill="#1583d8" font-size="6" font-family="TektonPro-Bold, Tekton Pro" font-weight="700"><tspan x="-4.965" y="0">skip</tspan></text>
      </g>
      <g id="Media_Cross" data-name="Media / Cross" transform="translate(-1909.99 13431.65)">
        <line id="Line_1" data-name="Line 1" x2="90.313" y2="90.592" transform="translate(1.88 1.446)" fill="none" stroke="#1583d8" stroke-miterlimit="10" stroke-width="2"/>
        <line id="Line_2" data-name="Line 2" x1="90.168" y2="90.17" transform="translate(1.403 1.408)" fill="none" stroke="#1583d8" stroke-miterlimit="10" stroke-width="2"/>
        <path id="Path_972" data-name="Path 972" d="M48.435.03Q36.622.307,24.809.587L15.608.8q-3.045.069-6.1.142c-1.355.033-2.714.063-4.069.1-1.1.029-2.943.427-3.981.013-.4-.159-.775.239-.792.607C-.672,31.624.483,61.624.078,91.606a.637.637,0,0,0,.625.628c10.072.431,20.157.745,30.238.883,16.3.222,32.594-.573,48.895-.565,4.232,0,8.459.017,12.691.088a.634.634,0,0,0,.625-.628c-.721-30.263.163-60.535-.554-90.793a.64.64,0,0,0-.625-.628C80.132.369,68.292.156,56.448.043,53.776.018,51.1-.028,48.435.03a.628.628,0,0,0,0,1.255c12.9-.28,25.861.239,38.764.469l4.774.088-.625-.628c.721,30.263-.163,60.535.554,90.793l.625-.628c-11.844-.209-23.7-.1-35.541.126-14.763.289-29.442.389-44.209-.092Q6.736,91.219.7,90.97l.625.628c.4-29.979-.75-59.974.592-89.94-.263.2-.525.4-.792.6a7.555,7.555,0,0,0,2.814.071l4.277-.1,6.391-.151q4.915-.113,9.831-.23l23.993-.565C49.236,1.265,49.24.01,48.435.03Z" transform="translate(0.002 -0.002)" fill="#1583d8"/>
      </g>
      <text id="Lorem_ipsum_dolor_sit_amet_consetetur_sadipscing_elitr_sed_diam_nonumy_eirmod_tempor_invidunt_ut_labore_et_dolore_magna_aliquyam_erat_" data-name="Lorem ipsum dolor sit amet, consetetur 
sadipscing elitr, sed diam nonumy 
eirmod tempor invidunt ut labore et 
dolore magna aliquyam erat," transform="translate(-1862.47 13544.572)" fill="#1583d8" font-size="5" font-family="TektonPro-Bold, Tekton Pro" font-weight="700"><tspan x="-40.832" y="0">Lorem ipsum dolor sit amet, consetetur </tspan><tspan x="-34.355" y="7">sadipscing elitr, sed diam nonumy </tspan><tspan x="-36.435" y="14">eirmod tempor invidunt ut labore et </tspan><tspan x="-28.357" y="21">dolore magna aliquyam erat,</tspan></text>
      <g id="Radios_Default" data-name="Radios / Default" transform="translate(-1858.479 13584.889)">
        <path id="Oval" d="M.526,2.348A2.269,2.269,0,0,1,3.223.56C4.263.749,4.605,1.881,4.6,2.815c-.01,1.476-1.884,1.864-3,1.389A1.757,1.757,0,0,1,.535,2.279c.037-.333-.485-.331-.522,0C-.21,4.311,1.948,5.386,3.694,4.732A2.069,2.069,0,0,0,5.118,2.888,2.655,2.655,0,0,0,3.553.1,2.8,2.8,0,0,0,.022,2.21C-.029,2.538.474,2.68.526,2.348Z" transform="translate(0.003 0.009)" fill="#1583d8"/>
      </g>
      <g id="Radios_Default-2" data-name="Radios / Default" transform="translate(-1866.204 13584.889)">
        <path id="Oval-2" data-name="Oval" d="M.526,2.348A2.269,2.269,0,0,1,3.223.56C4.263.749,4.605,1.881,4.6,2.815c-.01,1.476-1.884,1.864-3,1.389A1.757,1.757,0,0,1,.535,2.279c.037-.333-.485-.331-.522,0C-.21,4.311,1.948,5.386,3.694,4.732A2.069,2.069,0,0,0,5.118,2.888,2.655,2.655,0,0,0,3.553.1,2.8,2.8,0,0,0,.022,2.21C-.029,2.538.474,2.68.526,2.348Z" transform="translate(0.003 0.009)" fill="#1583d8"/>
      </g>
      <g id="Radios_Checked_2" data-name="Radios / Checked 2" transform="translate(-1873.938 13584.889)">
        <g id="Oval-3" data-name="Oval" transform="translate(0 0)">
          <path id="Oval-4" data-name="Oval" d="M.016,2.292a.3.3,0,0,1,.006-.037.3.3,0,0,1,0-.032A2.807,2.807,0,0,1,3.562.111,2.66,2.66,0,0,1,5.13,2.9,2.073,2.073,0,0,1,3.7,4.749a3.037,3.037,0,0,1-1.065.192A2.443,2.443,0,0,1,.016,2.292Z" transform="translate(0 0)" fill="#1583d8"/>
        </g>
      </g>
      <g id="Mobile_wireframe-2" data-name="Mobile wireframe" transform="translate(-2118 13341.621)">
        <g id="Phone_border_screen-2" data-name="Phone border screen" transform="translate(0.085 0.102)" fill="none">
          <path d="M23.243-.054s47.731.107,56.858,0,56.79,0,56.79,0a23.289,23.289,0,0,1,23.289,23.289s.147,81.885,0,102.951.661,78.667,0,89.191,0,86.389,0,86.389a23.289,23.289,0,0,1-23.289,23.289s-42.966-.5-54.75,0-58.9,0-58.9,0A23.289,23.289,0,0,1-.046,301.765s-.04-50.869-.04-104.518c0-.286.04-113.313.04-113.313v-60.7A23.289,23.289,0,0,1,23.243-.054Z" stroke="none"/>
          <path d="M 98.88050842285156 1.898284912109375 C 89.11763000488281 1.898284912109375 82.80709075927734 1.914154052734375 80.12425231933594 1.945526123046875 C 77.42537689208984 1.977020263671875 71.09321594238281 1.9930419921875 61.30362701416016 1.9930419921875 C 44.64775848388672 1.9930419921875 23.45059204101563 1.94610595703125 23.24287414550781 1.945648193359375 C 20.3680419921875 1.945648193359375 17.58029174804688 2.50823974609375 14.95704650878906 3.617767333984375 C 12.42225646972656 4.689910888671875 10.14533996582031 6.225189208984375 8.189590454101563 8.180938720703125 C 6.233840942382813 10.13668823242188 4.698593139648438 12.41357421875 3.62646484375 14.9483642578125 C 2.516921997070313 17.57162475585938 1.954345703125 20.35940551757813 1.954345703125 23.23419189453125 L 1.954345703125 83.93452453613281 C 1.95391845703125 85.06477355957031 1.91455078125 196.9641571044922 1.91455078125 197.2467346191406 C 1.91455078125 250.2821044921875 1.95391845703125 301.2548217773438 1.954345703125 301.7650756835938 C 1.954345703125 304.639892578125 2.516921997070313 307.4276428222656 3.62646484375 310.0509033203125 C 4.698593139648438 312.585693359375 6.233840942382813 314.8626098632813 8.189590454101563 316.818359375 C 10.14533996582031 318.7741088867188 12.42225646972656 320.3093566894531 14.95704650878906 321.3815002441406 C 17.58029174804688 322.4910278320313 20.3680419921875 323.0536193847656 23.24287414550781 323.0536193847656 L 23.2535400390625 323.0536193847656 L 23.26420593261719 323.0537414550781 C 23.4735107421875 323.0559387207031 44.39337921142578 323.2769470214844 61.63442230224609 323.2769470214844 C 71.73792266845703 323.2769470214844 78.60879516601563 323.202392578125 82.05621337890625 323.0554504394531 C 85.55988311767578 322.9060363769531 92.12621307373047 322.8302917480469 101.5727081298828 322.8302917480469 C 117.461540222168 322.8302917480469 136.3457794189453 323.0471801757813 136.9031524658203 323.0536193847656 C 139.7736511230469 323.0520324707031 142.5572204589844 322.4894714355469 145.1768035888672 321.3815002441406 C 147.7115936279297 320.3093566894531 149.9884643554688 318.7741088867188 151.9442138671875 316.818359375 C 153.8999633789063 314.8626098632813 155.4352569580078 312.585693359375 156.5073852539063 310.0509033203125 C 157.615966796875 307.4299011230469 158.1785430908203 304.6448364257813 158.1795043945313 301.7726135253906 C 158.1512908935547 298.5305786132813 157.526611328125 225.7149505615234 158.1834259033203 215.2505187988281 C 158.5870513916016 208.8193969726563 158.4313812255859 183.7944946289063 158.2940521240234 161.7154846191406 C 158.2061767578125 147.5855255126953 158.1231231689453 134.2392425537109 158.1795501708984 126.1707305908203 C 158.3250427246094 105.3552856445313 158.1809692382813 24.05657958984375 158.1795043945313 23.23419189453125 C 158.1795043945313 20.35940551757813 157.6169281005859 17.57162475585938 156.5073852539063 14.9483642578125 C 155.4352569580078 12.41357421875 153.8999633789063 10.13668823242188 151.9442138671875 8.180938720703125 C 149.9884643554688 6.225189208984375 147.7115936279297 4.689910888671875 145.1768035888672 3.617767333984375 C 142.5535430908203 2.50823974609375 139.7657470703125 1.945648193359375 136.8865051269531 1.945648193359375 C 136.6746673583984 1.9451904296875 115.5127105712891 1.898284912109375 98.88050842285156 1.898284912109375 M 98.88050842285156 -0.101715087890625 C 115.7074508666992 -0.101715087890625 136.8909606933594 -0.054351806640625 136.8909606933594 -0.054351806640625 C 149.7528381347656 -0.054351806640625 160.1795043945313 10.372314453125 160.1795043945313 23.23419189453125 C 160.1795043945313 23.23419189453125 160.3267517089844 105.1196594238281 160.1795043945313 126.1847381591797 C 160.0322113037109 147.2498626708984 160.8400421142578 204.851318359375 160.1795043945313 215.3758239746094 C 159.5189208984375 225.9002685546875 160.1795043945313 301.7650756835938 160.1795043945313 301.7650756835938 C 160.1795043945313 314.6269836425781 149.7528381347656 325.0536193847656 136.8909606933594 325.0536193847656 C 136.8909606933594 325.0536193847656 117.7941741943359 324.8302917480469 101.5727233886719 324.8302917480469 C 93.46051788330078 324.8302917480469 86.06963348388672 324.8861083984375 82.14141845703125 325.0536193847656 C 78.21391296386719 325.2210998535156 70.3594970703125 325.2769165039063 61.63442993164063 325.2769165039063 C 44.18269348144531 325.2769165039063 23.24287414550781 325.0536193847656 23.24287414550781 325.0536193847656 C 10.38096618652344 325.0536193847656 -0.045654296875 314.6269836425781 -0.045654296875 301.7650756835938 C -0.045654296875 301.7650756835938 -0.08544921875 250.8964538574219 -0.08544921875 197.2467346191406 C -0.08544921875 196.9605255126953 -0.045654296875 83.93382263183594 -0.045654296875 83.93382263183594 L -0.045654296875 23.23419189453125 C -0.045654296875 10.372314453125 10.38096618652344 -0.054351806640625 23.24287414550781 -0.054351806640625 C 23.24287414550781 -0.054351806640625 44.45732116699219 -0.006988525390625 61.30364227294922 -0.006988525390625 C 69.72834014892578 -0.006988525390625 77.05830383300781 -0.018798828125 80.10088348388672 -0.054351806640625 C 83.14290618896484 -0.089874267578125 90.46781158447266 -0.101715087890625 98.88050842285156 -0.101715087890625 Z" stroke="none" fill="#1583d8"/>
        </g>
        <g id="Phone_screen-2" data-name="Phone screen" transform="translate(9.355 9.829)" fill="#fff" opacity="0.6">
          <path d="M 126.6894226074219 305.0117492675781 L 14.9049186706543 305.0117492675781 C 11.19064998626709 305.0117492675781 7.698765277862549 303.5653381347656 5.072457313537598 300.9389038085938 C 2.446303606033325 298.3126831054688 0.9999958276748657 294.8209228515625 0.9999958276748657 291.1068115234375 L 0.9999958276748657 223.7193298339844 L 0.9999958276748657 67.94637298583984 L 0.9999958276748657 14.9049129486084 C 0.9999958276748657 11.19083595275879 2.446303606033325 7.699067115783691 5.072457313537598 5.07275915145874 C 7.698726654052734 2.446413040161133 11.19064998626709 0.9999900460243225 14.9049186706543 0.9999900460243225 L 31.0156192779541 0.9999900460243225 C 30.78774070739746 1.804828882217407 30.67280387878418 2.638762950897217 30.67280387878418 3.492913007736206 C 30.67280387878418 8.538951873779297 34.77764892578125 12.6441822052002 39.82318878173828 12.6441822052002 L 102.2364196777344 12.6441822052002 C 107.2824554443359 12.6441822052002 111.3876876831055 8.538951873779297 111.3876876831055 3.492913007736206 C 111.3876876831055 2.638715028762817 111.2727432250977 1.804835677146912 111.0448150634766 0.9999900460243225 L 126.6894226074219 0.9999900460243225 C 130.4033813476563 0.9999900460243225 133.8951568603516 2.446413040161133 136.5214996337891 5.072797775268555 C 139.1478729248047 7.699143886566162 140.5942993164063 11.19091320037842 140.5942993164063 14.9049129486084 L 140.5942993164063 291.1068115234375 C 140.5942993164063 294.8208312988281 139.1478729248047 298.3125915527344 136.5215301513672 300.9388732910156 C 133.8951568603516 303.5653381347656 130.4033813476563 305.0117492675781 126.6894226074219 305.0117492675781 Z" stroke="none"/>
          <path d="M 126.6894378662109 304.0117492675781 C 130.13623046875 304.0117492675781 133.3768920898438 302.6693420410156 135.8144378662109 300.2317504882813 C 138.2519378662109 297.7943725585938 139.5943145751953 294.5537414550781 139.5943145751953 291.1068420410156 L 139.5943145751953 14.90491676330566 C 139.5943145751953 11.45804119110107 138.2519378662109 8.217374801635742 135.8143615722656 5.779874801635742 C 133.3769836425781 3.342374563217163 130.1363525390625 1.999999642372131 126.6894378662109 1.999999642372131 L 112.2795028686523 1.999999642372131 C 112.3515090942383 2.490300893783569 112.3876876831055 2.988501310348511 112.3876876831055 3.492916345596313 C 112.3876876831055 9.090374946594238 107.833854675293 13.64420795440674 102.236442565918 13.64420795440674 L 39.82319259643555 13.64420795440674 C 34.22627639770508 13.64420795440674 29.67281723022461 9.090374946594238 29.67281723022461 3.492916345596313 C 29.67281723022461 2.988422155380249 29.7089729309082 2.490374565124512 29.78098487854004 1.999999642372131 L 14.90494155883789 1.999999642372131 C 11.45769119262695 1.999999642372131 8.216940879821777 3.342374563217163 5.779607772827148 5.779916286468506 C 3.34227466583252 8.217290878295898 1.999982953071594 11.45795822143555 1.999982953071594 14.90491676330566 L 1.999982953071594 67.94637298583984 L 1.999982953071594 223.7193298339844 L 1.999982953071594 291.1068420410156 C 1.999982953071594 294.5538024902344 3.34227466583252 297.7944641113281 5.779607772827148 300.2318420410156 C 8.216982841491699 302.6693420410156 11.4577751159668 304.0117492675781 14.90494155883789 304.0117492675781 L 126.6894378662109 304.0117492675781 M 126.6894378662109 306.0117492675781 L 14.90494155883789 306.0117492675781 C 10.92352485656738 306.0117492675781 7.180482864379883 304.4613037109375 4.365357875823975 301.64599609375 C 1.550316333770752 298.8309020996094 -1.700846405583434e-05 295.0879516601563 -1.700846405583434e-05 291.1068420410156 L -1.700846405583434e-05 223.7193298339844 L -1.700846405583434e-05 67.94637298583984 L -1.700846405583434e-05 14.90491676330566 C -1.700846405583434e-05 10.92379093170166 1.550316333770752 7.180832862854004 4.365357875823975 4.365707874298096 C 7.180441379547119 1.550416350364685 10.92348289489746 -3.66210912261522e-07 14.90494155883789 -3.66210912261522e-07 L 32.45710754394531 -3.66210912261522e-07 C 31.93698310852051 1.094916343688965 31.67281723022461 2.269624710083008 31.67281723022461 3.492916345596313 C 31.67281723022461 7.987541198730469 35.32902526855469 11.64420795440674 39.82319259643555 11.64420795440674 L 102.236442565918 11.64420795440674 C 106.7310256958008 11.64420795440674 110.3876876831055 7.987541198730469 110.3876876831055 3.492916345596313 C 110.3876876831055 2.270791292190552 110.1237716674805 1.095582962036133 109.6032333374023 -3.66210912261522e-07 L 126.6894378662109 -3.66210912261522e-07 C 130.6705322265625 -3.66210912261522e-07 134.4134368896484 1.550416350364685 137.2286071777344 4.365707874298096 C 140.0438995361328 7.180916309356689 141.5943145751953 10.92383289337158 141.5943145751953 14.90491676330566 L 141.5943145751953 291.1068420410156 C 141.5943145751953 295.0879516601563 140.0438995361328 298.8308410644531 137.2286071777344 301.64599609375 C 134.4133605957031 304.4613037109375 130.6705322265625 306.0117492675781 126.6894378662109 306.0117492675781 Z" stroke="none" fill="#1583d8"/>
        </g>
        <g id="Header_icon-2" data-name="Header icon" transform="translate(67.739 12.157)">
          <path id="Line-3" data-name="Line" d="M.739,73.622c.193.107,7.564.139,11.541.027,3.5-.1,7-.381,10.509-.411.211,0,1.439,0,1.659,0,.244.062.6-.276.6-.564s-.477-.525-.9-.5c-3.452-.021-6.855.151-10.329.175-3.715.152-11.674.033-11.674.033L.7,72.292s-.586.067-.6.61S.546,73.515.739,73.622Z" transform="translate(-0.102 -70.931)" fill="#1583d8"/>
          <ellipse id="Ellipse_335-2" data-name="Ellipse 335" cx="1.63" cy="1.63" rx="1.63" ry="1.63" transform="translate(26.852)" fill="#1583d8"/>
        </g>
        <path id="Line-4" data-name="Line" d="M1.613,73.663c.5.11,19.489.143,29.736.028,9.019-.1,18.037-.392,27.077-.423.545,0,3.708,0,4.273,0,.63.063.528-.381.528-.677s-.206-.442-1.3-.421c-8.894-.022-17.661.155-26.613.18-9.573.157-30.078.034-30.078.034L1.518,72.3s-.727.074-.762.632S1.115,73.553,1.613,73.663Z" transform="translate(47.959 233.731)" fill="#1583d8" stroke="#1583d8" stroke-width="1"/>
        <g id="status_bar_light-2" data-name="status bar/light" transform="translate(15.876 20.076)">
          <g id="Battery-2" data-name="Battery" transform="translate(120.169 1.087)">
            <g id="Border-2" data-name="Border" transform="translate(0 0)" clip-path="url(#clip-path)">
              <path id="Fill-6" data-name="Fill" d="M1.242,0H9a1.242,1.242,0,0,1,1.242,1.242V4.037h0A1.242,1.242,0,0,1,9,5.279H1.242A1.242,1.242,0,0,1,0,4.037V1.242H0A1.242,1.242,0,0,1,1.242,0Z" fill="none" stroke="rgba(21,131,216,0.5)" stroke-width="2"/>
            </g>
            <g id="Cap-2" data-name="Cap" transform="translate(10.713 1.708)" clip-path="url(#clip-path-2)">
              <path id="Fill-7" data-name="Fill" d="M354-28h5.276v6.521H354Z" transform="translate(-356.329 25.671)" fill="#1583d8"/>
            </g>
            <g id="Capacity-2" data-name="Capacity" transform="translate(0.932 0.932)" clip-path="url(#clip-path-3)">
              <path id="Fill-8" data-name="Fill" d="M333-29.667h13.042v8.073H333Z" transform="translate(-335.329 27.338)" fill="#1583d8"/>
            </g>
          </g>
          <g id="Wifi-3" data-name="Wifi" transform="translate(110.711 1.086)">
            <g id="Wifi-4" data-name="Wifi" transform="translate(0 0)" clip-path="url(#clip-path-4)">
              <path id="Fill-9" data-name="Fill" d="M310.694-31.669h11.771V-21.9H310.694Z" transform="translate(-313.023 29.34)" fill="#1583d8"/>
            </g>
          </g>
          <g id="Cellular_Connection-3" data-name="Cellular Connection" transform="translate(100.451 1.242)">
            <g id="Cellular_Connection-4" data-name="Cellular Connection" clip-path="url(#clip-path-5)">
              <path id="Fill-10" data-name="Fill" d="M288.667-31.333h12.576v9.626H288.667Z" transform="translate(-290.996 29.004)" fill="#1583d8"/>
            </g>
          </g>
          <g id="Bars___Time_Black-2" data-name="Bars/_/Time Black" transform="translate(0 0)">
            <path id="Background-2" data-name="Background" d="M21-27.548H46.152V-35H21Z" transform="translate(-21 35)" fill="none"/>
            <text id="_10:20-2" data-name="10:20" transform="translate(1.863 4.863)" fill="#1583d8" font-size="5" font-family="TektonPro-Bold, Tekton Pro" font-weight="700"><tspan x="0" y="0">10:20</tspan></text>
          </g>
        </g>
      </g>
      <g id="Media_Small" data-name="Media / Small" transform="translate(-2065.682 13476.364)">
        <path id="Path_973" data-name="Path 973" d="M29.589,1.095c-14.825.346-13.216.309-28.046.659l-.152-.065C.574,19.6,1.286,37.52,1.038,55.447c0,0,17.936.77,26.465.5,15.551-.488,28.464-.258,28.464-.258-.441-18.254.11-36.01-.331-54.264C55.636,1.426,33.325,1,29.589,1.095Z" transform="translate(-0.534 -0.583)" fill="#fafafa"/>
        <path id="Path_974" data-name="Path 974" d="M29.058.051,14.835.383q-2.7.062-5.4.129Q7.609.553,5.787.6C4.574.627,2.111,1.116.99.664A.464.464,0,0,0,.4,1.106C-.389,19.019.282,36.946.047,54.864a.465.465,0,0,0,.46.461c8.194.35,16.41.659,24.608.544,10.11-.143,20.206-.475,30.32-.3a.468.468,0,0,0,.46-.461c-.423-18.088.092-36.181-.331-54.264A.468.468,0,0,0,55.1.383C46.433.217,37.73-.129,29.058.051a.461.461,0,0,0,0,.922C37.73.8,46.433,1.143,55.1,1.3l-.46-.461c.423,18.088-.092,36.181.331,54.264l.46-.461c-10.11-.175-20.211.157-30.32.3-8.2.115-16.419-.194-24.608-.544l.46.461C1.2,36.946.53,19.019,1.32,1.106c-.193.147-.391.295-.584.447.979.392,2.569.023,3.6,0Q6.327,1.5,8.319,1.461q3.054-.069,6.112-.143L29.063.973A.461.461,0,0,0,29.058.051Z" transform="translate(-0.003 -0.001)" fill="#1583d8"/>
        <text id="logo" transform="translate(21.426 28.22)" fill="#1583d8" font-size="6" font-family="TektonPro-Bold, Tekton Pro" font-weight="700"><tspan x="0" y="0">logo</tspan></text>
      </g>
      <g id="Mobile_wireframe-3" data-name="Mobile wireframe" transform="translate(-1593.732 13341.621)">
        <g id="Phone_border_screen-3" data-name="Phone border screen" transform="translate(0.085 0.102)" fill="none">
          <path d="M23.243-.054s47.731.107,56.858,0,56.79,0,56.79,0a23.289,23.289,0,0,1,23.289,23.289s.147,81.885,0,102.951.661,78.667,0,89.191,0,86.389,0,86.389a23.289,23.289,0,0,1-23.289,23.289s-42.966-.5-54.75,0-58.9,0-58.9,0A23.289,23.289,0,0,1-.046,301.765s-.04-50.869-.04-104.518c0-.286.04-113.313.04-113.313v-60.7A23.289,23.289,0,0,1,23.243-.054Z" stroke="none"/>
          <path d="M 98.88050842285156 1.898284912109375 C 89.11763000488281 1.898284912109375 82.80709075927734 1.914154052734375 80.12425231933594 1.945526123046875 C 77.42537689208984 1.977020263671875 71.09321594238281 1.9930419921875 61.30362701416016 1.9930419921875 C 44.64775848388672 1.9930419921875 23.45059204101563 1.94610595703125 23.24287414550781 1.945648193359375 C 20.3680419921875 1.945648193359375 17.58029174804688 2.50823974609375 14.95704650878906 3.617767333984375 C 12.42225646972656 4.689910888671875 10.14533996582031 6.225189208984375 8.189590454101563 8.180938720703125 C 6.233840942382813 10.13668823242188 4.698593139648438 12.41357421875 3.62646484375 14.9483642578125 C 2.516921997070313 17.57162475585938 1.954345703125 20.35940551757813 1.954345703125 23.23419189453125 L 1.954345703125 83.93452453613281 C 1.95391845703125 85.06477355957031 1.91455078125 196.9641571044922 1.91455078125 197.2467346191406 C 1.91455078125 250.2821044921875 1.95391845703125 301.2548217773438 1.954345703125 301.7650756835938 C 1.954345703125 304.639892578125 2.516921997070313 307.4276428222656 3.62646484375 310.0509033203125 C 4.698593139648438 312.585693359375 6.233840942382813 314.8626098632813 8.189590454101563 316.818359375 C 10.14533996582031 318.7741088867188 12.42225646972656 320.3093566894531 14.95704650878906 321.3815002441406 C 17.58029174804688 322.4910278320313 20.3680419921875 323.0536193847656 23.24287414550781 323.0536193847656 L 23.2535400390625 323.0536193847656 L 23.26420593261719 323.0537414550781 C 23.4735107421875 323.0559387207031 44.39337921142578 323.2769470214844 61.63442230224609 323.2769470214844 C 71.73792266845703 323.2769470214844 78.60879516601563 323.202392578125 82.05621337890625 323.0554504394531 C 85.55988311767578 322.9060363769531 92.12621307373047 322.8302917480469 101.5727081298828 322.8302917480469 C 117.461540222168 322.8302917480469 136.3457794189453 323.0471801757813 136.9031524658203 323.0536193847656 C 139.7736511230469 323.0520324707031 142.5572204589844 322.4894714355469 145.1768035888672 321.3815002441406 C 147.7115936279297 320.3093566894531 149.9884643554688 318.7741088867188 151.9442138671875 316.818359375 C 153.8999633789063 314.8626098632813 155.4352569580078 312.585693359375 156.5073852539063 310.0509033203125 C 157.615966796875 307.4299011230469 158.1785430908203 304.6448364257813 158.1795043945313 301.7726135253906 C 158.1512908935547 298.5305786132813 157.526611328125 225.7149505615234 158.1834259033203 215.2505187988281 C 158.5870513916016 208.8193969726563 158.4313812255859 183.7944946289063 158.2940521240234 161.7154846191406 C 158.2061767578125 147.5855255126953 158.1231231689453 134.2392425537109 158.1795501708984 126.1707305908203 C 158.3250427246094 105.3552856445313 158.1809692382813 24.05657958984375 158.1795043945313 23.23419189453125 C 158.1795043945313 20.35940551757813 157.6169281005859 17.57162475585938 156.5073852539063 14.9483642578125 C 155.4352569580078 12.41357421875 153.8999633789063 10.13668823242188 151.9442138671875 8.180938720703125 C 149.9884643554688 6.225189208984375 147.7115936279297 4.689910888671875 145.1768035888672 3.617767333984375 C 142.5535430908203 2.50823974609375 139.7657470703125 1.945648193359375 136.8865051269531 1.945648193359375 C 136.6746673583984 1.9451904296875 115.5127105712891 1.898284912109375 98.88050842285156 1.898284912109375 M 98.88050842285156 -0.101715087890625 C 115.7074508666992 -0.101715087890625 136.8909606933594 -0.054351806640625 136.8909606933594 -0.054351806640625 C 149.7528381347656 -0.054351806640625 160.1795043945313 10.372314453125 160.1795043945313 23.23419189453125 C 160.1795043945313 23.23419189453125 160.3267517089844 105.1196594238281 160.1795043945313 126.1847381591797 C 160.0322113037109 147.2498626708984 160.8400421142578 204.851318359375 160.1795043945313 215.3758239746094 C 159.5189208984375 225.9002685546875 160.1795043945313 301.7650756835938 160.1795043945313 301.7650756835938 C 160.1795043945313 314.6269836425781 149.7528381347656 325.0536193847656 136.8909606933594 325.0536193847656 C 136.8909606933594 325.0536193847656 117.7941741943359 324.8302917480469 101.5727233886719 324.8302917480469 C 93.46051788330078 324.8302917480469 86.06963348388672 324.8861083984375 82.14141845703125 325.0536193847656 C 78.21391296386719 325.2210998535156 70.3594970703125 325.2769165039063 61.63442993164063 325.2769165039063 C 44.18269348144531 325.2769165039063 23.24287414550781 325.0536193847656 23.24287414550781 325.0536193847656 C 10.38096618652344 325.0536193847656 -0.045654296875 314.6269836425781 -0.045654296875 301.7650756835938 C -0.045654296875 301.7650756835938 -0.08544921875 250.8964538574219 -0.08544921875 197.2467346191406 C -0.08544921875 196.9605255126953 -0.045654296875 83.93382263183594 -0.045654296875 83.93382263183594 L -0.045654296875 23.23419189453125 C -0.045654296875 10.372314453125 10.38096618652344 -0.054351806640625 23.24287414550781 -0.054351806640625 C 23.24287414550781 -0.054351806640625 44.45732116699219 -0.006988525390625 61.30364227294922 -0.006988525390625 C 69.72834014892578 -0.006988525390625 77.05830383300781 -0.018798828125 80.10088348388672 -0.054351806640625 C 83.14290618896484 -0.089874267578125 90.46781158447266 -0.101715087890625 98.88050842285156 -0.101715087890625 Z" stroke="none" fill="#1583d8"/>
        </g>
        <g id="Phone_screen-3" data-name="Phone screen" transform="translate(9.355 9.829)" fill="#fff" opacity="0.6">
          <path d="M 126.6894226074219 305.0117492675781 L 14.9049186706543 305.0117492675781 C 11.19064998626709 305.0117492675781 7.698765277862549 303.5653381347656 5.072457313537598 300.9389038085938 C 2.446303606033325 298.3126831054688 0.9999958276748657 294.8209228515625 0.9999958276748657 291.1068115234375 L 0.9999958276748657 223.7193298339844 L 0.9999958276748657 67.94637298583984 L 0.9999958276748657 14.9049129486084 C 0.9999958276748657 11.19083595275879 2.446303606033325 7.699067115783691 5.072457313537598 5.07275915145874 C 7.698726654052734 2.446413040161133 11.19064998626709 0.9999900460243225 14.9049186706543 0.9999900460243225 L 31.0156192779541 0.9999900460243225 C 30.78774070739746 1.804828882217407 30.67280387878418 2.638762950897217 30.67280387878418 3.492913007736206 C 30.67280387878418 8.538951873779297 34.77764892578125 12.6441822052002 39.82318878173828 12.6441822052002 L 102.2364196777344 12.6441822052002 C 107.2824554443359 12.6441822052002 111.3876876831055 8.538951873779297 111.3876876831055 3.492913007736206 C 111.3876876831055 2.638715028762817 111.2727432250977 1.804835677146912 111.0448150634766 0.9999900460243225 L 126.6894226074219 0.9999900460243225 C 130.4033813476563 0.9999900460243225 133.8951568603516 2.446413040161133 136.5214996337891 5.072797775268555 C 139.1478729248047 7.699143886566162 140.5942993164063 11.19091320037842 140.5942993164063 14.9049129486084 L 140.5942993164063 291.1068115234375 C 140.5942993164063 294.8208312988281 139.1478729248047 298.3125915527344 136.5215301513672 300.9388732910156 C 133.8951568603516 303.5653381347656 130.4033813476563 305.0117492675781 126.6894226074219 305.0117492675781 Z" stroke="none"/>
          <path d="M 126.6894378662109 304.0117492675781 C 130.13623046875 304.0117492675781 133.3768920898438 302.6693420410156 135.8144378662109 300.2317504882813 C 138.2519378662109 297.7943725585938 139.5943145751953 294.5537414550781 139.5943145751953 291.1068420410156 L 139.5943145751953 14.90491676330566 C 139.5943145751953 11.45804119110107 138.2519378662109 8.217374801635742 135.8143615722656 5.779874801635742 C 133.3769836425781 3.342374563217163 130.1363525390625 1.999999642372131 126.6894378662109 1.999999642372131 L 112.2795028686523 1.999999642372131 C 112.3515090942383 2.490300893783569 112.3876876831055 2.988501310348511 112.3876876831055 3.492916345596313 C 112.3876876831055 9.090374946594238 107.833854675293 13.64420795440674 102.236442565918 13.64420795440674 L 39.82319259643555 13.64420795440674 C 34.22627639770508 13.64420795440674 29.67281723022461 9.090374946594238 29.67281723022461 3.492916345596313 C 29.67281723022461 2.988422155380249 29.7089729309082 2.490374565124512 29.78098487854004 1.999999642372131 L 14.90494155883789 1.999999642372131 C 11.45769119262695 1.999999642372131 8.216940879821777 3.342374563217163 5.779607772827148 5.779916286468506 C 3.34227466583252 8.217290878295898 1.999982953071594 11.45795822143555 1.999982953071594 14.90491676330566 L 1.999982953071594 67.94637298583984 L 1.999982953071594 223.7193298339844 L 1.999982953071594 291.1068420410156 C 1.999982953071594 294.5538024902344 3.34227466583252 297.7944641113281 5.779607772827148 300.2318420410156 C 8.216982841491699 302.6693420410156 11.4577751159668 304.0117492675781 14.90494155883789 304.0117492675781 L 126.6894378662109 304.0117492675781 M 126.6894378662109 306.0117492675781 L 14.90494155883789 306.0117492675781 C 10.92352485656738 306.0117492675781 7.180482864379883 304.4613037109375 4.365357875823975 301.64599609375 C 1.550316333770752 298.8309020996094 -1.700846405583434e-05 295.0879516601563 -1.700846405583434e-05 291.1068420410156 L -1.700846405583434e-05 223.7193298339844 L -1.700846405583434e-05 67.94637298583984 L -1.700846405583434e-05 14.90491676330566 C -1.700846405583434e-05 10.92379093170166 1.550316333770752 7.180832862854004 4.365357875823975 4.365707874298096 C 7.180441379547119 1.550416350364685 10.92348289489746 -3.66210912261522e-07 14.90494155883789 -3.66210912261522e-07 L 32.45710754394531 -3.66210912261522e-07 C 31.93698310852051 1.094916343688965 31.67281723022461 2.269624710083008 31.67281723022461 3.492916345596313 C 31.67281723022461 7.987541198730469 35.32902526855469 11.64420795440674 39.82319259643555 11.64420795440674 L 102.236442565918 11.64420795440674 C 106.7310256958008 11.64420795440674 110.3876876831055 7.987541198730469 110.3876876831055 3.492916345596313 C 110.3876876831055 2.270791292190552 110.1237716674805 1.095582962036133 109.6032333374023 -3.66210912261522e-07 L 126.6894378662109 -3.66210912261522e-07 C 130.6705322265625 -3.66210912261522e-07 134.4134368896484 1.550416350364685 137.2286071777344 4.365707874298096 C 140.0438995361328 7.180916309356689 141.5943145751953 10.92383289337158 141.5943145751953 14.90491676330566 L 141.5943145751953 291.1068420410156 C 141.5943145751953 295.0879516601563 140.0438995361328 298.8308410644531 137.2286071777344 301.64599609375 C 134.4133605957031 304.4613037109375 130.6705322265625 306.0117492675781 126.6894378662109 306.0117492675781 Z" stroke="none" fill="#1583d8"/>
        </g>
        <g id="Header_icon-3" data-name="Header icon" transform="translate(67.739 12.157)">
          <path id="Line-5" data-name="Line" d="M.739,73.622c.193.107,7.564.139,11.541.027,3.5-.1,7-.381,10.509-.411.211,0,1.439,0,1.659,0,.244.062.6-.276.6-.564s-.477-.525-.9-.5c-3.452-.021-6.855.151-10.329.175-3.715.152-11.674.033-11.674.033L.7,72.292s-.586.067-.6.61S.546,73.515.739,73.622Z" transform="translate(-0.102 -70.931)" fill="#1583d8"/>
          <ellipse id="Ellipse_335-3" data-name="Ellipse 335" cx="1.63" cy="1.63" rx="1.63" ry="1.63" transform="translate(26.852)" fill="#1583d8"/>
        </g>
        <path id="Line-6" data-name="Line" d="M1.613,73.663c.5.11,19.489.143,29.736.028,9.019-.1,18.037-.392,27.077-.423.545,0,3.708,0,4.273,0,.63.063.528-.381.528-.677s-.206-.442-1.3-.421c-8.894-.022-17.661.155-26.613.18-9.573.157-30.078.034-30.078.034L1.518,72.3s-.727.074-.762.632S1.115,73.553,1.613,73.663Z" transform="translate(47.959 233.731)" fill="#1583d8" stroke="#1583d8" stroke-width="1"/>
        <g id="status_bar_light-3" data-name="status bar/light" transform="translate(15.876 20.076)">
          <g id="Battery-3" data-name="Battery" transform="translate(120.169 1.087)">
            <g id="Border-3" data-name="Border" transform="translate(0 0)" clip-path="url(#clip-path)">
              <path id="Fill-11" data-name="Fill" d="M1.242,0H9a1.242,1.242,0,0,1,1.242,1.242V4.037h0A1.242,1.242,0,0,1,9,5.279H1.242A1.242,1.242,0,0,1,0,4.037V1.242H0A1.242,1.242,0,0,1,1.242,0Z" fill="none" stroke="rgba(21,131,216,0.5)" stroke-width="2"/>
            </g>
            <g id="Cap-3" data-name="Cap" transform="translate(10.713 1.708)" clip-path="url(#clip-path-2)">
              <path id="Fill-12" data-name="Fill" d="M354-28h5.276v6.521H354Z" transform="translate(-356.329 25.671)" fill="#1583d8"/>
            </g>
            <g id="Capacity-3" data-name="Capacity" transform="translate(0.932 0.932)" clip-path="url(#clip-path-3)">
              <path id="Fill-13" data-name="Fill" d="M333-29.667h13.042v8.073H333Z" transform="translate(-335.329 27.338)" fill="#1583d8"/>
            </g>
          </g>
          <g id="Wifi-5" data-name="Wifi" transform="translate(110.711 1.086)">
            <g id="Wifi-6" data-name="Wifi" transform="translate(0 0)" clip-path="url(#clip-path-4)">
              <path id="Fill-14" data-name="Fill" d="M310.694-31.669h11.771V-21.9H310.694Z" transform="translate(-313.023 29.34)" fill="#1583d8"/>
            </g>
          </g>
          <g id="Cellular_Connection-5" data-name="Cellular Connection" transform="translate(100.451 1.242)">
            <g id="Cellular_Connection-6" data-name="Cellular Connection" clip-path="url(#clip-path-5)">
              <path id="Fill-15" data-name="Fill" d="M288.667-31.333h12.576v9.626H288.667Z" transform="translate(-290.996 29.004)" fill="#1583d8"/>
            </g>
          </g>
          <g id="Bars___Time_Black-3" data-name="Bars/_/Time Black" transform="translate(0 0)">
            <path id="Background-3" data-name="Background" d="M21-27.548H46.152V-35H21Z" transform="translate(-21 35)" fill="none"/>
            <text id="_10:20-3" data-name="10:20" transform="translate(1.863 4.863)" fill="#1583d8" font-size="5" font-family="TektonPro-Bold, Tekton Pro" font-weight="700"><tspan x="0" y="0">10:20</tspan></text>
          </g>
        </g>
      </g>
      <text id="How_to_play_2" data-name="How to play?" transform="translate(-1547.174 13410.912)" fill="#1583d8" font-size="13" font-family="TektonPro-Bold, Tekton Pro" font-weight="700"><tspan x="0" y="0">How to play?</tspan></text>
      <g id="Buttons_Square_Button_Default_Confirm-2" data-name="Buttons / Square Button / Default / Confirm" transform="translate(-1537.191 13606.589)">
        <path id="Square_Button-2" data-name="Square Button" d="M1.054,16.665c0-2.487.079-4.972.066-7.457C1.107,6.33.947,3.456,1,.581L.511,1.07q8.61.117,17.22.14c5.32.013,10.634-.13,15.955-.163,4.425-.028,8.849.02,13.272-.078L46.464.48c-.122,5.4-.336,10.789-.326,16.185l.494-.489c-6.723.222-13.458.1-20.182.207-5.5.085-11,.033-16.5-.01q-4.72-.037-9.44-.1l.426.735c.016-.033.033-.067.051-.1.286-.561-.566-1.056-.852-.494-.016.033-.033.067-.051.1a.494.494,0,0,0,.426.735q8.78.12,17.563.142c5.362.011,10.72-.15,16.08-.147,4.162,0,8.32.044,12.481-.093a.5.5,0,0,0,.494-.489c-.01-5.4.2-10.789.326-16.185a.5.5,0,0,0-.494-.489C40,.143,33.042.108,26.088.2,20.67.276,15.249.229,9.83.187Q5.17.155.511.092A.5.5,0,0,0,.017.581c-.058,2.877.1,5.751.117,8.626.012,2.486-.071,4.97-.066,7.457A.493.493,0,0,0,1.054,16.665Z" transform="translate(-0.005 0.011)" fill="#1583d8"/>
        <text id="skip-2" data-name="skip" transform="translate(23.768 10.055)" fill="#1583d8" font-size="6" font-family="TektonPro-Bold, Tekton Pro" font-weight="700"><tspan x="-4.965" y="0">skip</tspan></text>
      </g>
      <g id="Media_Cross-2" data-name="Media / Cross" transform="translate(-1559.812 13431.65)">
        <line id="Line_1-2" data-name="Line 1" x2="90.313" y2="90.592" transform="translate(1.88 1.446)" fill="none" stroke="#1583d8" stroke-miterlimit="10" stroke-width="2"/>
        <line id="Line_2-2" data-name="Line 2" x1="90.168" y2="90.17" transform="translate(1.403 1.408)" fill="none" stroke="#1583d8" stroke-miterlimit="10" stroke-width="2"/>
        <path id="Path_972-2" data-name="Path 972" d="M48.435.03Q36.622.307,24.809.587L15.608.8q-3.045.069-6.1.142c-1.355.033-2.714.063-4.069.1-1.1.029-2.943.427-3.981.013-.4-.159-.775.239-.792.607C-.672,31.624.483,61.624.078,91.606a.637.637,0,0,0,.625.628c10.072.431,20.157.745,30.238.883,16.3.222,32.594-.573,48.895-.565,4.232,0,8.459.017,12.691.088a.634.634,0,0,0,.625-.628c-.721-30.263.163-60.535-.554-90.793a.64.64,0,0,0-.625-.628C80.132.369,68.292.156,56.448.043,53.776.018,51.1-.028,48.435.03a.628.628,0,0,0,0,1.255c12.9-.28,25.861.239,38.764.469l4.774.088-.625-.628c.721,30.263-.163,60.535.554,90.793l.625-.628c-11.844-.209-23.7-.1-35.541.126-14.763.289-29.442.389-44.209-.092Q6.736,91.219.7,90.97l.625.628c.4-29.979-.75-59.974.592-89.94-.263.2-.525.4-.792.6a7.555,7.555,0,0,0,2.814.071l4.277-.1,6.391-.151q4.915-.113,9.831-.23l23.993-.565C49.236,1.265,49.24.01,48.435.03Z" transform="translate(0.002 -0.002)" fill="#1583d8"/>
      </g>
      <text id="Lorem_ipsum_dolor_sit_amet_consetetur_sadipscing_elitr_sed_diam_nonumy_eirmod_tempor_invidunt_ut_labore_et_dolore_magna_aliquyam_erat_2" data-name="Lorem ipsum dolor sit amet, consetetur 
sadipscing elitr, sed diam nonumy 
eirmod tempor invidunt ut labore et 
dolore magna aliquyam erat," transform="translate(-1512.291 13544.572)" fill="#1583d8" font-size="5" font-family="TektonPro-Bold, Tekton Pro" font-weight="700"><tspan x="-40.832" y="0">Lorem ipsum dolor sit amet, consetetur </tspan><tspan x="-34.355" y="7">sadipscing elitr, sed diam nonumy </tspan><tspan x="-36.435" y="14">eirmod tempor invidunt ut labore et </tspan><tspan x="-28.357" y="21">dolore magna aliquyam erat,</tspan></text>
      <g id="Radios_Default-3" data-name="Radios / Default" transform="translate(-1523.75 13584.889)">
        <path id="Oval-5" data-name="Oval" d="M.526,2.348A2.269,2.269,0,0,1,3.223.56C4.263.749,4.605,1.881,4.6,2.815c-.01,1.476-1.884,1.864-3,1.389A1.757,1.757,0,0,1,.535,2.279c.037-.333-.485-.331-.522,0C-.21,4.311,1.948,5.386,3.694,4.732A2.069,2.069,0,0,0,5.118,2.888,2.655,2.655,0,0,0,3.553.1,2.8,2.8,0,0,0,.022,2.21C-.029,2.538.474,2.68.526,2.348Z" transform="translate(0.003 0.009)" fill="#1583d8"/>
      </g>
      <g id="Radios_Default-4" data-name="Radios / Default" transform="translate(-1516.025 13584.889)">
        <path id="Oval-6" data-name="Oval" d="M.526,2.348A2.269,2.269,0,0,1,3.223.56C4.263.749,4.605,1.881,4.6,2.815c-.01,1.476-1.884,1.864-3,1.389A1.757,1.757,0,0,1,.535,2.279c.037-.333-.485-.331-.522,0C-.21,4.311,1.948,5.386,3.694,4.732A2.069,2.069,0,0,0,5.118,2.888,2.655,2.655,0,0,0,3.553.1,2.8,2.8,0,0,0,.022,2.21C-.029,2.538.474,2.68.526,2.348Z" transform="translate(0.003 0.009)" fill="#1583d8"/>
      </g>
      <g id="Radios_Checked_2-2" data-name="Radios / Checked 2" transform="translate(-1508.3 13584.881)">
        <g id="Oval-7" data-name="Oval" transform="translate(0 0)">
          <path id="Oval-8" data-name="Oval" d="M.016,2.292a.3.3,0,0,1,.006-.037.3.3,0,0,1,0-.032A2.807,2.807,0,0,1,3.562.111,2.66,2.66,0,0,1,5.13,2.9,2.073,2.073,0,0,1,3.7,4.749a3.037,3.037,0,0,1-1.065.192A2.443,2.443,0,0,1,.016,2.292Z" transform="translate(0 0)" fill="#1583d8"/>
        </g>
      </g>
      <g id="Mobile_wireframe-4" data-name="Mobile wireframe" transform="translate(-1768.821 13341.621)">
        <g id="Phone_border_screen-4" data-name="Phone border screen" transform="translate(0.085 0.102)" fill="none">
          <path d="M23.243-.054s47.731.107,56.858,0,56.79,0,56.79,0a23.289,23.289,0,0,1,23.289,23.289s.147,81.885,0,102.951.661,78.667,0,89.191,0,86.389,0,86.389a23.289,23.289,0,0,1-23.289,23.289s-42.966-.5-54.75,0-58.9,0-58.9,0A23.289,23.289,0,0,1-.046,301.765s-.04-50.869-.04-104.518c0-.286.04-113.313.04-113.313v-60.7A23.289,23.289,0,0,1,23.243-.054Z" stroke="none"/>
          <path d="M 98.88050842285156 1.898284912109375 C 89.11763000488281 1.898284912109375 82.80709075927734 1.914154052734375 80.12425231933594 1.945526123046875 C 77.42537689208984 1.977020263671875 71.09321594238281 1.9930419921875 61.30362701416016 1.9930419921875 C 44.64775848388672 1.9930419921875 23.45059204101563 1.94610595703125 23.24287414550781 1.945648193359375 C 20.3680419921875 1.945648193359375 17.58029174804688 2.50823974609375 14.95704650878906 3.617767333984375 C 12.42225646972656 4.689910888671875 10.14533996582031 6.225189208984375 8.189590454101563 8.180938720703125 C 6.233840942382813 10.13668823242188 4.698593139648438 12.41357421875 3.62646484375 14.9483642578125 C 2.516921997070313 17.57162475585938 1.954345703125 20.35940551757813 1.954345703125 23.23419189453125 L 1.954345703125 83.93452453613281 C 1.95391845703125 85.06477355957031 1.91455078125 196.9641571044922 1.91455078125 197.2467346191406 C 1.91455078125 250.2821044921875 1.95391845703125 301.2548217773438 1.954345703125 301.7650756835938 C 1.954345703125 304.639892578125 2.516921997070313 307.4276428222656 3.62646484375 310.0509033203125 C 4.698593139648438 312.585693359375 6.233840942382813 314.8626098632813 8.189590454101563 316.818359375 C 10.14533996582031 318.7741088867188 12.42225646972656 320.3093566894531 14.95704650878906 321.3815002441406 C 17.58029174804688 322.4910278320313 20.3680419921875 323.0536193847656 23.24287414550781 323.0536193847656 L 23.2535400390625 323.0536193847656 L 23.26420593261719 323.0537414550781 C 23.4735107421875 323.0559387207031 44.39337921142578 323.2769470214844 61.63442230224609 323.2769470214844 C 71.73792266845703 323.2769470214844 78.60879516601563 323.202392578125 82.05621337890625 323.0554504394531 C 85.55988311767578 322.9060363769531 92.12621307373047 322.8302917480469 101.5727081298828 322.8302917480469 C 117.461540222168 322.8302917480469 136.3457794189453 323.0471801757813 136.9031524658203 323.0536193847656 C 139.7736511230469 323.0520324707031 142.5572204589844 322.4894714355469 145.1768035888672 321.3815002441406 C 147.7115936279297 320.3093566894531 149.9884643554688 318.7741088867188 151.9442138671875 316.818359375 C 153.8999633789063 314.8626098632813 155.4352569580078 312.585693359375 156.5073852539063 310.0509033203125 C 157.615966796875 307.4299011230469 158.1785430908203 304.6448364257813 158.1795043945313 301.7726135253906 C 158.1512908935547 298.5305786132813 157.526611328125 225.7149505615234 158.1834259033203 215.2505187988281 C 158.5870513916016 208.8193969726563 158.4313812255859 183.7944946289063 158.2940521240234 161.7154846191406 C 158.2061767578125 147.5855255126953 158.1231231689453 134.2392425537109 158.1795501708984 126.1707305908203 C 158.3250427246094 105.3552856445313 158.1809692382813 24.05657958984375 158.1795043945313 23.23419189453125 C 158.1795043945313 20.35940551757813 157.6169281005859 17.57162475585938 156.5073852539063 14.9483642578125 C 155.4352569580078 12.41357421875 153.8999633789063 10.13668823242188 151.9442138671875 8.180938720703125 C 149.9884643554688 6.225189208984375 147.7115936279297 4.689910888671875 145.1768035888672 3.617767333984375 C 142.5535430908203 2.50823974609375 139.7657470703125 1.945648193359375 136.8865051269531 1.945648193359375 C 136.6746673583984 1.9451904296875 115.5127105712891 1.898284912109375 98.88050842285156 1.898284912109375 M 98.88050842285156 -0.101715087890625 C 115.7074508666992 -0.101715087890625 136.8909606933594 -0.054351806640625 136.8909606933594 -0.054351806640625 C 149.7528381347656 -0.054351806640625 160.1795043945313 10.372314453125 160.1795043945313 23.23419189453125 C 160.1795043945313 23.23419189453125 160.3267517089844 105.1196594238281 160.1795043945313 126.1847381591797 C 160.0322113037109 147.2498626708984 160.8400421142578 204.851318359375 160.1795043945313 215.3758239746094 C 159.5189208984375 225.9002685546875 160.1795043945313 301.7650756835938 160.1795043945313 301.7650756835938 C 160.1795043945313 314.6269836425781 149.7528381347656 325.0536193847656 136.8909606933594 325.0536193847656 C 136.8909606933594 325.0536193847656 117.7941741943359 324.8302917480469 101.5727233886719 324.8302917480469 C 93.46051788330078 324.8302917480469 86.06963348388672 324.8861083984375 82.14141845703125 325.0536193847656 C 78.21391296386719 325.2210998535156 70.3594970703125 325.2769165039063 61.63442993164063 325.2769165039063 C 44.18269348144531 325.2769165039063 23.24287414550781 325.0536193847656 23.24287414550781 325.0536193847656 C 10.38096618652344 325.0536193847656 -0.045654296875 314.6269836425781 -0.045654296875 301.7650756835938 C -0.045654296875 301.7650756835938 -0.08544921875 250.8964538574219 -0.08544921875 197.2467346191406 C -0.08544921875 196.9605255126953 -0.045654296875 83.93382263183594 -0.045654296875 83.93382263183594 L -0.045654296875 23.23419189453125 C -0.045654296875 10.372314453125 10.38096618652344 -0.054351806640625 23.24287414550781 -0.054351806640625 C 23.24287414550781 -0.054351806640625 44.45732116699219 -0.006988525390625 61.30364227294922 -0.006988525390625 C 69.72834014892578 -0.006988525390625 77.05830383300781 -0.018798828125 80.10088348388672 -0.054351806640625 C 83.14290618896484 -0.089874267578125 90.46781158447266 -0.101715087890625 98.88050842285156 -0.101715087890625 Z" stroke="none" fill="#1583d8"/>
        </g>
        <g id="Phone_screen-4" data-name="Phone screen" transform="translate(9.355 9.829)" fill="#fff" opacity="0.6">
          <path d="M 126.6894226074219 305.0117492675781 L 14.9049186706543 305.0117492675781 C 11.19064998626709 305.0117492675781 7.698765277862549 303.5653381347656 5.072457313537598 300.9389038085938 C 2.446303606033325 298.3126831054688 0.9999958276748657 294.8209228515625 0.9999958276748657 291.1068115234375 L 0.9999958276748657 223.7193298339844 L 0.9999958276748657 67.94637298583984 L 0.9999958276748657 14.9049129486084 C 0.9999958276748657 11.19083595275879 2.446303606033325 7.699067115783691 5.072457313537598 5.07275915145874 C 7.698726654052734 2.446413040161133 11.19064998626709 0.9999900460243225 14.9049186706543 0.9999900460243225 L 31.0156192779541 0.9999900460243225 C 30.78774070739746 1.804828882217407 30.67280387878418 2.638762950897217 30.67280387878418 3.492913007736206 C 30.67280387878418 8.538951873779297 34.77764892578125 12.6441822052002 39.82318878173828 12.6441822052002 L 102.2364196777344 12.6441822052002 C 107.2824554443359 12.6441822052002 111.3876876831055 8.538951873779297 111.3876876831055 3.492913007736206 C 111.3876876831055 2.638715028762817 111.2727432250977 1.804835677146912 111.0448150634766 0.9999900460243225 L 126.6894226074219 0.9999900460243225 C 130.4033813476563 0.9999900460243225 133.8951568603516 2.446413040161133 136.5214996337891 5.072797775268555 C 139.1478729248047 7.699143886566162 140.5942993164063 11.19091320037842 140.5942993164063 14.9049129486084 L 140.5942993164063 291.1068115234375 C 140.5942993164063 294.8208312988281 139.1478729248047 298.3125915527344 136.5215301513672 300.9388732910156 C 133.8951568603516 303.5653381347656 130.4033813476563 305.0117492675781 126.6894226074219 305.0117492675781 Z" stroke="none"/>
          <path d="M 126.6894378662109 304.0117492675781 C 130.13623046875 304.0117492675781 133.3768920898438 302.6693420410156 135.8144378662109 300.2317504882813 C 138.2519378662109 297.7943725585938 139.5943145751953 294.5537414550781 139.5943145751953 291.1068420410156 L 139.5943145751953 14.90491676330566 C 139.5943145751953 11.45804119110107 138.2519378662109 8.217374801635742 135.8143615722656 5.779874801635742 C 133.3769836425781 3.342374563217163 130.1363525390625 1.999999642372131 126.6894378662109 1.999999642372131 L 112.2795028686523 1.999999642372131 C 112.3515090942383 2.490300893783569 112.3876876831055 2.988501310348511 112.3876876831055 3.492916345596313 C 112.3876876831055 9.090374946594238 107.833854675293 13.64420795440674 102.236442565918 13.64420795440674 L 39.82319259643555 13.64420795440674 C 34.22627639770508 13.64420795440674 29.67281723022461 9.090374946594238 29.67281723022461 3.492916345596313 C 29.67281723022461 2.988422155380249 29.7089729309082 2.490374565124512 29.78098487854004 1.999999642372131 L 14.90494155883789 1.999999642372131 C 11.45769119262695 1.999999642372131 8.216940879821777 3.342374563217163 5.779607772827148 5.779916286468506 C 3.34227466583252 8.217290878295898 1.999982953071594 11.45795822143555 1.999982953071594 14.90491676330566 L 1.999982953071594 67.94637298583984 L 1.999982953071594 223.7193298339844 L 1.999982953071594 291.1068420410156 C 1.999982953071594 294.5538024902344 3.34227466583252 297.7944641113281 5.779607772827148 300.2318420410156 C 8.216982841491699 302.6693420410156 11.4577751159668 304.0117492675781 14.90494155883789 304.0117492675781 L 126.6894378662109 304.0117492675781 M 126.6894378662109 306.0117492675781 L 14.90494155883789 306.0117492675781 C 10.92352485656738 306.0117492675781 7.180482864379883 304.4613037109375 4.365357875823975 301.64599609375 C 1.550316333770752 298.8309020996094 -1.700846405583434e-05 295.0879516601563 -1.700846405583434e-05 291.1068420410156 L -1.700846405583434e-05 223.7193298339844 L -1.700846405583434e-05 67.94637298583984 L -1.700846405583434e-05 14.90491676330566 C -1.700846405583434e-05 10.92379093170166 1.550316333770752 7.180832862854004 4.365357875823975 4.365707874298096 C 7.180441379547119 1.550416350364685 10.92348289489746 -3.66210912261522e-07 14.90494155883789 -3.66210912261522e-07 L 32.45710754394531 -3.66210912261522e-07 C 31.93698310852051 1.094916343688965 31.67281723022461 2.269624710083008 31.67281723022461 3.492916345596313 C 31.67281723022461 7.987541198730469 35.32902526855469 11.64420795440674 39.82319259643555 11.64420795440674 L 102.236442565918 11.64420795440674 C 106.7310256958008 11.64420795440674 110.3876876831055 7.987541198730469 110.3876876831055 3.492916345596313 C 110.3876876831055 2.270791292190552 110.1237716674805 1.095582962036133 109.6032333374023 -3.66210912261522e-07 L 126.6894378662109 -3.66210912261522e-07 C 130.6705322265625 -3.66210912261522e-07 134.4134368896484 1.550416350364685 137.2286071777344 4.365707874298096 C 140.0438995361328 7.180916309356689 141.5943145751953 10.92383289337158 141.5943145751953 14.90491676330566 L 141.5943145751953 291.1068420410156 C 141.5943145751953 295.0879516601563 140.0438995361328 298.8308410644531 137.2286071777344 301.64599609375 C 134.4133605957031 304.4613037109375 130.6705322265625 306.0117492675781 126.6894378662109 306.0117492675781 Z" stroke="none" fill="#1583d8"/>
        </g>
        <g id="Header_icon-4" data-name="Header icon" transform="translate(67.739 12.157)">
          <path id="Line-7" data-name="Line" d="M.739,73.622c.193.107,7.564.139,11.541.027,3.5-.1,7-.381,10.509-.411.211,0,1.439,0,1.659,0,.244.062.6-.276.6-.564s-.477-.525-.9-.5c-3.452-.021-6.855.151-10.329.175-3.715.152-11.674.033-11.674.033L.7,72.292s-.586.067-.6.61S.546,73.515.739,73.622Z" transform="translate(-0.102 -70.931)" fill="#1583d8"/>
          <ellipse id="Ellipse_335-4" data-name="Ellipse 335" cx="1.63" cy="1.63" rx="1.63" ry="1.63" transform="translate(26.852)" fill="#1583d8"/>
        </g>
        <path id="Line-8" data-name="Line" d="M1.613,73.663c.5.11,19.489.143,29.736.028,9.019-.1,18.037-.392,27.077-.423.545,0,3.708,0,4.273,0,.63.063.528-.381.528-.677s-.206-.442-1.3-.421c-8.894-.022-17.661.155-26.613.18-9.573.157-30.078.034-30.078.034L1.518,72.3s-.727.074-.762.632S1.115,73.553,1.613,73.663Z" transform="translate(47.959 233.731)" fill="#1583d8" stroke="#1583d8" stroke-width="1"/>
        <g id="status_bar_light-4" data-name="status bar/light" transform="translate(15.876 20.076)">
          <g id="Battery-4" data-name="Battery" transform="translate(120.169 1.087)">
            <g id="Border-4" data-name="Border" transform="translate(0 0)" clip-path="url(#clip-path)">
              <path id="Fill-16" data-name="Fill" d="M1.242,0H9a1.242,1.242,0,0,1,1.242,1.242V4.037h0A1.242,1.242,0,0,1,9,5.279H1.242A1.242,1.242,0,0,1,0,4.037V1.242H0A1.242,1.242,0,0,1,1.242,0Z" fill="none" stroke="rgba(21,131,216,0.5)" stroke-width="2"/>
            </g>
            <g id="Cap-4" data-name="Cap" transform="translate(10.713 1.708)" clip-path="url(#clip-path-2)">
              <path id="Fill-17" data-name="Fill" d="M354-28h5.276v6.521H354Z" transform="translate(-356.329 25.671)" fill="#1583d8"/>
            </g>
            <g id="Capacity-4" data-name="Capacity" transform="translate(0.932 0.932)" clip-path="url(#clip-path-3)">
              <path id="Fill-18" data-name="Fill" d="M333-29.667h13.042v8.073H333Z" transform="translate(-335.329 27.338)" fill="#1583d8"/>
            </g>
          </g>
          <g id="Wifi-7" data-name="Wifi" transform="translate(110.711 1.086)">
            <g id="Wifi-8" data-name="Wifi" transform="translate(0 0)" clip-path="url(#clip-path-4)">
              <path id="Fill-19" data-name="Fill" d="M310.694-31.669h11.771V-21.9H310.694Z" transform="translate(-313.023 29.34)" fill="#1583d8"/>
            </g>
          </g>
          <g id="Cellular_Connection-7" data-name="Cellular Connection" transform="translate(100.451 1.242)">
            <g id="Cellular_Connection-8" data-name="Cellular Connection" clip-path="url(#clip-path-5)">
              <path id="Fill-20" data-name="Fill" d="M288.667-31.333h12.576v9.626H288.667Z" transform="translate(-290.996 29.004)" fill="#1583d8"/>
            </g>
          </g>
          <g id="Bars___Time_Black-4" data-name="Bars/_/Time Black" transform="translate(0 0)">
            <path id="Background-4" data-name="Background" d="M21-27.548H46.152V-35H21Z" transform="translate(-21 35)" fill="none"/>
            <text id="_10:20-4" data-name="10:20" transform="translate(1.863 4.863)" fill="#1583d8" font-size="5" font-family="TektonPro-Bold, Tekton Pro" font-weight="700"><tspan x="0" y="0">10:20</tspan></text>
          </g>
        </g>
      </g>
      <text id="How_to_play_3" data-name="How to play?" transform="translate(-1722.174 13410.912)" fill="#1583d8" font-size="13" font-family="TektonPro-Bold, Tekton Pro" font-weight="700"><tspan x="0" y="0">How to play?</tspan></text>
      <g id="Buttons_Square_Button_Default_Confirm-3" data-name="Buttons / Square Button / Default / Confirm" transform="translate(-1712.28 13606.589)">
        <path id="Square_Button-3" data-name="Square Button" d="M1.054,16.665c0-2.487.079-4.972.066-7.457C1.107,6.33.947,3.456,1,.581L.511,1.07q8.61.117,17.22.14c5.32.013,10.634-.13,15.955-.163,4.425-.028,8.849.02,13.272-.078L46.464.48c-.122,5.4-.336,10.789-.326,16.185l.494-.489c-6.723.222-13.458.1-20.182.207-5.5.085-11,.033-16.5-.01q-4.72-.037-9.44-.1l.426.735c.016-.033.033-.067.051-.1.286-.561-.566-1.056-.852-.494-.016.033-.033.067-.051.1a.494.494,0,0,0,.426.735q8.78.12,17.563.142c5.362.011,10.72-.15,16.08-.147,4.162,0,8.32.044,12.481-.093a.5.5,0,0,0,.494-.489c-.01-5.4.2-10.789.326-16.185a.5.5,0,0,0-.494-.489C40,.143,33.042.108,26.088.2,20.67.276,15.249.229,9.83.187Q5.17.155.511.092A.5.5,0,0,0,.017.581c-.058,2.877.1,5.751.117,8.626.012,2.486-.071,4.97-.066,7.457A.493.493,0,0,0,1.054,16.665Z" transform="translate(-0.005 0.011)" fill="#1583d8"/>
        <text id="skip-3" data-name="skip" transform="translate(23.768 10.055)" fill="#1583d8" font-size="6" font-family="TektonPro-Bold, Tekton Pro" font-weight="700"><tspan x="-4.965" y="0">skip</tspan></text>
      </g>
      <g id="Media_Cross-3" data-name="Media / Cross" transform="translate(-1734.901 13431.65)">
        <line id="Line_1-3" data-name="Line 1" x2="90.313" y2="90.592" transform="translate(1.88 1.446)" fill="none" stroke="#1583d8" stroke-miterlimit="10" stroke-width="2"/>
        <line id="Line_2-3" data-name="Line 2" x1="90.168" y2="90.17" transform="translate(1.403 1.408)" fill="none" stroke="#1583d8" stroke-miterlimit="10" stroke-width="2"/>
        <path id="Path_972-3" data-name="Path 972" d="M48.435.03Q36.622.307,24.809.587L15.608.8q-3.045.069-6.1.142c-1.355.033-2.714.063-4.069.1-1.1.029-2.943.427-3.981.013-.4-.159-.775.239-.792.607C-.672,31.624.483,61.624.078,91.606a.637.637,0,0,0,.625.628c10.072.431,20.157.745,30.238.883,16.3.222,32.594-.573,48.895-.565,4.232,0,8.459.017,12.691.088a.634.634,0,0,0,.625-.628c-.721-30.263.163-60.535-.554-90.793a.64.64,0,0,0-.625-.628C80.132.369,68.292.156,56.448.043,53.776.018,51.1-.028,48.435.03a.628.628,0,0,0,0,1.255c12.9-.28,25.861.239,38.764.469l4.774.088-.625-.628c.721,30.263-.163,60.535.554,90.793l.625-.628c-11.844-.209-23.7-.1-35.541.126-14.763.289-29.442.389-44.209-.092Q6.736,91.219.7,90.97l.625.628c.4-29.979-.75-59.974.592-89.94-.263.2-.525.4-.792.6a7.555,7.555,0,0,0,2.814.071l4.277-.1,6.391-.151q4.915-.113,9.831-.23l23.993-.565C49.236,1.265,49.24.01,48.435.03Z" transform="translate(0.002 -0.002)" fill="#1583d8"/>
      </g>
      <text id="Lorem_ipsum_dolor_sit_amet_consetetur_sadipscing_elitr_sed_diam_nonumy_eirmod_tempor_invidunt_ut_labore_et_dolore_magna_aliquyam_erat_3" data-name="Lorem ipsum dolor sit amet, consetetur 
sadipscing elitr, sed diam nonumy 
eirmod tempor invidunt ut labore et 
dolore magna aliquyam erat," transform="translate(-1687.381 13544.572)" fill="#1583d8" font-size="5" font-family="TektonPro-Bold, Tekton Pro" font-weight="700"><tspan x="-40.832" y="0">Lorem ipsum dolor sit amet, consetetur </tspan><tspan x="-34.355" y="7">sadipscing elitr, sed diam nonumy </tspan><tspan x="-36.435" y="14">eirmod tempor invidunt ut labore et </tspan><tspan x="-28.357" y="21">dolore magna aliquyam erat,</tspan></text>
      <g id="Radios_Default-5" data-name="Radios / Default" transform="translate(-1683.39 13584.889)">
        <path id="Oval-9" data-name="Oval" d="M.526,2.348A2.269,2.269,0,0,1,3.223.56C4.263.749,4.605,1.881,4.6,2.815c-.01,1.476-1.884,1.864-3,1.389A1.757,1.757,0,0,1,.535,2.279c.037-.333-.485-.331-.522,0C-.21,4.311,1.948,5.386,3.694,4.732A2.069,2.069,0,0,0,5.118,2.888,2.655,2.655,0,0,0,3.553.1,2.8,2.8,0,0,0,.022,2.21C-.029,2.538.474,2.68.526,2.348Z" transform="translate(0.003 0.009)" fill="#1583d8"/>
      </g>
      <g id="Radios_Default-6" data-name="Radios / Default" transform="translate(-1698.848 13584.889)">
        <path id="Oval-10" data-name="Oval" d="M.526,2.348A2.269,2.269,0,0,1,3.223.56C4.263.749,4.605,1.881,4.6,2.815c-.01,1.476-1.884,1.864-3,1.389A1.757,1.757,0,0,1,.535,2.279c.037-.333-.485-.331-.522,0C-.21,4.311,1.948,5.386,3.694,4.732A2.069,2.069,0,0,0,5.118,2.888,2.655,2.655,0,0,0,3.553.1,2.8,2.8,0,0,0,.022,2.21C-.029,2.538.474,2.68.526,2.348Z" transform="translate(0.003 0.009)" fill="#1583d8"/>
      </g>
      <g id="Radios_Checked_2-3" data-name="Radios / Checked 2" transform="translate(-1691.123 13584.889)">
        <g id="Oval-11" data-name="Oval" transform="translate(0 0)">
          <path id="Oval-12" data-name="Oval" d="M.016,2.292a.3.3,0,0,1,.006-.037.3.3,0,0,1,0-.032A2.807,2.807,0,0,1,3.562.111,2.66,2.66,0,0,1,5.13,2.9,2.073,2.073,0,0,1,3.7,4.749a3.037,3.037,0,0,1-1.065.192A2.443,2.443,0,0,1,.016,2.292Z" transform="translate(0 0)" fill="#1583d8"/>
        </g>
      </g>
    </g>
  </g>
</svg>
