<svg xmlns="http://www.w3.org/2000/svg" xmlns:xlink="http://www.w3.org/1999/xlink" width="1920" height="1080" viewBox="0 0 1920 1080">
  <defs>
    <clipPath id="clip-path">
      <path id="Shape" d="M338.667-26.667h16.667A2.667,2.667,0,0,1,358-24v6h0a2.667,2.667,0,0,1-2.667,2.667H338.667A2.667,2.667,0,0,1,336-18v-6h0A2.667,2.667,0,0,1,338.667-26.667Z" transform="translate(0 44)" fill="none" clip-rule="evenodd"/>
    </clipPath>
    <clipPath id="clip-path-2">
      <path id="Shape-2" data-name="Shape" d="M359-23v4a2.17,2.17,0,0,0,1.328-2A2.17,2.17,0,0,0,359-23" transform="translate(0 44)" fill="#1583d8"/>
    </clipPath>
    <clipPath id="clip-path-3">
      <path id="Shape-3" data-name="Shape" d="M339.333-24.667h15.333A1.333,1.333,0,0,1,356-23.333v4.667h0a1.333,1.333,0,0,1-1.333,1.333H339.333A1.333,1.333,0,0,1,338-18.667v-4.667h0A1.333,1.333,0,0,1,339.333-24.667Z" transform="translate(0 44)" fill="#1583d8"/>
    </clipPath>
    <clipPath id="clip-path-4">
      <path id="Shape-4" data-name="Shape" d="M323.33-24.392a8.64,8.64,0,0,1,5.953,2.378.308.308,0,0,0,.433,0l1.156-1.167a.322.322,0,0,0,.093-.229.322.322,0,0,0-.1-.227,10.9,10.9,0,0,0-15.08,0,.322.322,0,0,0-.1.227.322.322,0,0,0,.093.229l1.156,1.167a.308.308,0,0,0,.433,0,8.641,8.641,0,0,1,5.954-2.378Zm0,3.8a4.907,4.907,0,0,1,3.294,1.27.31.31,0,0,0,.433-.006l1.155-1.167a.322.322,0,0,0,.094-.23.322.322,0,0,0-.1-.229,7.159,7.159,0,0,0-9.752,0,.322.322,0,0,0-.1.229.322.322,0,0,0,.094.23l1.154,1.167a.31.31,0,0,0,.433.006,4.907,4.907,0,0,1,3.292-1.27Zm2.219,2.784a.314.314,0,0,0,.094-.231.314.314,0,0,0-.1-.226,3.422,3.422,0,0,0-4.419,0,.314.314,0,0,0-.1.226.314.314,0,0,0,.094.231l2,2.016a.311.311,0,0,0,.222.093.312.312,0,0,0,.222-.093Z" transform="translate(0 44)" fill="#1583d8"/>
    </clipPath>
    <clipPath id="clip-path-5">
      <path id="Shape-5" data-name="Shape" d="M294.667-19.667h1a1,1,0,0,1,1,1v2a1,1,0,0,1-1,1h-1a1,1,0,0,1-1-1v-2a1,1,0,0,1,1-1Zm4.667-2h1a1,1,0,0,1,1,1v4a1,1,0,0,1-1,1h-1a1,1,0,0,1-1-1v-4A1,1,0,0,1,299.333-21.667ZM304-24h1a1,1,0,0,1,1,1v6.333a1,1,0,0,1-1,1h-1a1,1,0,0,1-1-1V-23A1,1,0,0,1,304-24Zm4.667-2.333h1a1,1,0,0,1,1,1v8.667a1,1,0,0,1-1,1h-1a1,1,0,0,1-1-1v-8.667a1,1,0,0,1,1-1Z" transform="translate(0 44)" fill="#1583d8"/>
    </clipPath>
    <clipPath id="clip-path-6">
      <rect width="28.754" height="28.186" fill="none"/>
    </clipPath>
    <clipPath id="clip-path-7">
      <rect width="7.047" height="10.186" fill="none"/>
    </clipPath>
    <clipPath id="clip-path-15">
      <rect width="8.911" height="6.164" fill="none"/>
    </clipPath>
    <clipPath id="clip-Research_5_persona_9">
      <rect width="1920" height="1080"/>
    </clipPath>
  </defs>
  <g id="Research_5_persona_9" data-name="Research 5_persona – 9" clip-path="url(#clip-Research_5_persona_9)">
    <rect width="1920" height="1080" fill="rgba(70,98,158,0.1)"/>
    <g id="Group_1324" data-name="Group 1324">
      <g id="Mobile_wireframe" data-name="Mobile wireframe" transform="translate(-160.24 133.811)">
        <g id="Phone_border_screen" data-name="Phone border screen" transform="translate(527 57)" fill="none">
          <path d="M50,0S152.478.229,172.073,0,294,0,294,0a50,50,0,0,1,50,50s.316,175.806,0,221.033,1.418,168.9,0,191.491S344,648,344,648a50,50,0,0,1-50,50s-92.248-1.079-117.546,0S50,698,50,698A50,50,0,0,1,0,648S-.085,538.786-.085,423.6c0-.615.085-243.281.085-243.281V50A50,50,0,0,1,50,0Z" stroke="none"/>
          <path d="M 212.3923797607422 1.89825439453125 C 191.4261932373047 1.89825439453125 177.86865234375 1.93243408203125 172.0962982177734 1.9998779296875 C 166.3073883056641 2.0673828125 152.7213745117188 2.1016845703125 131.7156524658203 2.1016845703125 C 95.95838928222656 2.1016845703125 50.45101928710938 2.0009765625 50.00003051757813 1.99993896484375 C 43.51919555664063 1.99993896484375 37.2332763671875 3.268798828125 31.31683349609375 5.771240234375 C 25.60128784179688 8.18865966796875 20.46774291992188 11.64996337890625 16.058837890625 16.058837890625 C 11.6500244140625 20.4677734375 8.188751220703125 25.60125732421875 5.77130126953125 31.31689453125 C 3.268829345703125 37.23321533203125 2.000030517578125 43.5191650390625 2.000030517578125 49.99993896484375 L 2.000030517578125 180.321533203125 C 1.99920654296875 182.7481689453125 1.91455078125 422.994140625 1.91455078125 423.601318359375 C 1.91455078125 537.4681396484375 1.99920654296875 646.90625 2.000030517578125 647.9999389648438 C 2.000030517578125 654.4807739257813 3.268829345703125 660.7667846679688 5.77130126953125 666.6831665039063 C 8.188751220703125 672.398681640625 11.6500244140625 677.5322265625 16.058837890625 681.941162109375 C 20.46774291992188 686.3499755859375 25.60128784179688 689.8112182617188 31.31683349609375 692.2286987304688 C 37.23318481445313 694.7311401367188 43.51919555664063 695.9999389648438 50.00003051757813 695.9999389648438 L 50.01065063476563 695.9999389648438 L 50.02139282226563 696.0000610351563 C 50.4708251953125 696.0048828125 95.39692687988281 696.4794311523438 132.4258422851563 696.4794311523438 C 154.1511077880859 696.4794311523438 168.9356536865234 696.3186645507813 176.36865234375 696.0017700195313 C 183.8576507568359 695.6824340820313 197.9224700927734 695.5205078125 218.1724700927734 695.5205078125 C 252.3585815429688 695.5205078125 293.0079956054688 695.9883422851563 294.0076293945313 695.9999389648438 C 300.4859313964844 695.9990234375 306.7689208984375 694.730224609375 312.68310546875 692.2286987304688 C 318.3987426757813 689.8112182617188 323.5321960449219 686.3499755859375 327.9411010742188 681.941162109375 C 332.3500061035156 677.5322265625 335.811279296875 672.398681640625 338.228759765625 666.6831665039063 C 340.7302856445313 660.7688598632813 341.9990844726563 654.4850463867188 342.0000305175781 648.0067138671875 C 341.9407348632813 641.1922607421875 340.59814453125 484.7958984375 342.0039367675781 462.3987731933594 C 342.8754577636719 448.5121459960938 342.541015625 394.740966796875 342.2459411621094 347.2995910644531 C 342.0572814941406 316.9717712402344 341.8791198730469 288.3258666992188 342.0001220703125 271.0186767578125 C 342.3125610351563 226.3183288574219 342.0032043457031 51.761474609375 342.0000305175781 49.99993896484375 C 342.0000305175781 43.5191650390625 340.731201171875 37.23321533203125 338.228759765625 31.31689453125 C 335.811279296875 25.60125732421875 332.3500061035156 20.4677734375 327.9411010742188 16.058837890625 C 323.5321960449219 11.64996337890625 318.3987426757813 8.18865966796875 312.68310546875 5.771240234375 C 306.7667541503906 3.268798828125 300.4808349609375 1.99993896484375 293.9955749511719 1.99993896484375 C 293.5407409667969 1.99896240234375 248.1041107177734 1.89825439453125 212.3923797607422 1.89825439453125 M 212.3923797607422 -0.10174560546875 C 248.5194549560547 -0.10174560546875 294.0000305175781 -6.103515625e-05 294.0000305175781 -6.103515625e-05 C 321.6141967773438 -6.103515625e-05 344.0000305175781 22.38580322265625 344.0000305175781 49.99993896484375 C 344.0000305175781 49.99993896484375 344.3161926269531 225.8064270019531 344.0000305175781 271.0326843261719 C 343.683837890625 316.259033203125 345.418212890625 439.92822265625 344.0000305175781 462.5240478515625 C 342.5817565917969 485.119873046875 344.0000305175781 647.9999389648438 344.0000305175781 647.9999389648438 C 344.0000305175781 675.6142578125 321.6141967773438 697.9999389648438 294.0000305175781 697.9999389648438 C 294.0000305175781 697.9999389648438 252.9996185302734 697.5205078125 218.1724853515625 697.5205078125 C 200.7557373046875 697.5205078125 184.8876495361328 697.6403198242188 176.4538421630859 697.9999389648438 C 168.0215606689453 698.3594970703125 151.1583251953125 698.4793701171875 132.4257965087891 698.4793701171875 C 94.95730590820313 698.4793701171875 50.00003051757813 697.9999389648438 50.00003051757813 697.9999389648438 C 22.3857421875 697.9999389648438 3.0517578125e-05 675.6142578125 3.0517578125e-05 647.9999389648438 C 3.0517578125e-05 647.9999389648438 -0.08544921875 538.7861328125 -0.08544921875 423.601318359375 C -0.08544921875 422.9867858886719 3.0517578125e-05 180.32080078125 3.0517578125e-05 180.32080078125 L 3.0517578125e-05 49.99993896484375 C 3.0517578125e-05 22.38580322265625 22.3857421875 -6.103515625e-05 50.00003051757813 -6.103515625e-05 C 50.00003051757813 -6.103515625e-05 95.54698181152344 0.10162353515625 131.7156677246094 0.10162353515625 C 149.8033294677734 0.10162353515625 165.5405883789063 0.07623291015625 172.0729217529297 -6.103515625e-05 C 178.6040802001953 -0.0762939453125 194.3304901123047 -0.10174560546875 212.3923797607422 -0.10174560546875 Z" stroke="none" fill="#1583d8"/>
        </g>
        <g id="Phone_screen" data-name="Phone screen" transform="translate(2662 617)" fill="#fff" opacity="0.6">
          <path d="M -1843.000244140625 116.9998779296875 L -2082.999755859375 116.9998779296875 C -2087.18505859375 116.9998779296875 -2091.244873046875 116.1803741455078 -2095.06640625 114.5641250610352 C -2098.757568359375 113.0027923583984 -2102.072998046875 110.7673797607422 -2104.919921875 107.9201278686523 C -2107.76708984375 105.0732955932617 -2110.002685546875 101.7580413818359 -2111.564453125 98.06629180908203 C -2113.180419921875 94.24471282958984 -2114 90.18512725830078 -2114 86.00038146972656 L -2114 -58.67995452880859 L -2114 -393.1208801269531 L -2114 -506.9996948242188 C -2114 -511.1846923828125 -2113.180419921875 -515.2444458007813 -2111.564453125 -519.0662231445313 C -2110.002685546875 -522.7578735351563 -2107.76708984375 -526.0733032226563 -2104.920166015625 -528.9202270507813 C -2102.07275390625 -531.7676391601563 -2098.75732421875 -534.0030517578125 -2095.066162109375 -535.5643920898438 C -2091.244873046875 -537.1806030273438 -2087.18505859375 -538.0001220703125 -2082.999755859375 -538.0001220703125 L -2047.961547851563 -538.0001220703125 C -2047.986938476563 -537.6674194335938 -2047.999633789063 -537.33349609375 -2047.999633789063 -537.0003051757813 L -2047.999633789063 -525.9996337890625 C -2047.999633789063 -522.5275268554688 -2046.647583007813 -519.2631225585938 -2044.192504882813 -516.8076782226563 C -2041.737060546875 -514.3522338867188 -2038.472412109375 -512.9999389648438 -2035 -512.9999389648438 L -1890 -512.9999389648438 C -1886.527587890625 -512.9999389648438 -1883.262939453125 -514.3522338867188 -1880.8076171875 -516.8076782226563 C -1878.352416992188 -519.2631225585938 -1877.000366210938 -522.5275268554688 -1877.000366210938 -525.9996337890625 L -1877.000366210938 -537.0003051757813 C -1877.000366210938 -537.3336791992188 -1877.013061523438 -537.6676025390625 -1877.038452148438 -538.0001220703125 L -1843.000244140625 -538.0001220703125 C -1838.814697265625 -538.0001220703125 -1834.7548828125 -537.1806030273438 -1830.933715820313 -535.5643920898438 C -1827.242431640625 -534.0030517578125 -1823.927001953125 -531.7677001953125 -1821.079711914063 -528.9202880859375 C -1818.232299804688 -526.0729370117188 -1815.996948242188 -522.757568359375 -1814.435546875 -519.0661010742188 C -1812.8193359375 -515.2448120117188 -1811.999877929688 -511.1850280761719 -1811.999877929688 -506.9996948242188 L -1811.999877929688 86.00038146972656 C -1811.999877929688 90.18546295166016 -1812.8193359375 94.24504089355469 -1814.435546875 98.06637573242188 C -1815.996948242188 101.7576293945313 -1818.232299804688 105.0728759765625 -1821.079711914063 107.9200439453125 C -1823.926635742188 110.7672958374023 -1827.242065429688 113.0026245117188 -1830.933715820313 114.5641250610352 C -1834.7548828125 116.1803741455078 -1838.814697265625 116.9998779296875 -1843.000244140625 116.9998779296875 Z" stroke="none"/>
          <path d="M -1843.000244140625 115.9998779296875 C -1838.94921875 115.9998779296875 -1835.020629882813 115.2069625854492 -1831.3232421875 113.6431274414063 C -1827.750854492188 112.1320419311523 -1824.542358398438 109.9687118530273 -1821.786743164063 107.2129592895508 C -1819.030883789063 104.4572982788086 -1816.867553710938 101.2488784790039 -1815.3564453125 97.67679595947266 C -1813.792724609375 93.97946166992188 -1812.999877929688 90.05088043212891 -1812.999877929688 86.00038146972656 L -1812.999877929688 -506.9996948242188 C -1812.999877929688 -511.0504455566406 -1813.792724609375 -514.9791870117188 -1815.3564453125 -518.676513671875 C -1816.867553710938 -522.248779296875 -1819.030883789063 -525.4573974609375 -1821.786865234375 -528.2131958007813 C -1824.542602539063 -530.9690551757813 -1827.751220703125 -533.1324462890625 -1831.3232421875 -534.6433715820313 C -1835.020629882813 -536.2072143554688 -1838.94921875 -537.0001220703125 -1843.000244140625 -537.0001220703125 L -1876.000366210938 -537.0003051757813 L -1876.000366210938 -525.9996337890625 C -1876.000366210938 -522.2604370117188 -1877.456420898438 -518.744873046875 -1880.100463867188 -516.1005249023438 C -1882.744750976563 -513.456298828125 -1886.260498046875 -511.9999694824219 -1890 -511.9999694824219 L -2035 -511.9999694824219 C -2038.739501953125 -511.9999694824219 -2042.255249023438 -513.456298828125 -2044.899536132813 -516.1006469726563 C -2047.543579101563 -518.744873046875 -2048.999755859375 -522.2604370117188 -2048.999755859375 -525.9996337890625 L -2048.999755859375 -537.0001220703125 L -2082.999755859375 -537.0001220703125 C -2087.050537109375 -537.0001220703125 -2090.979248046875 -536.2072143554688 -2094.6767578125 -534.6433715820313 C -2098.248779296875 -533.1324462890625 -2101.457275390625 -530.9689331054688 -2104.212890625 -528.213134765625 C -2106.968505859375 -525.4577026367188 -2109.132080078125 -522.2491455078125 -2110.643310546875 -518.6766967773438 C -2112.20703125 -514.9788818359375 -2113 -511.0501098632813 -2113 -506.9996948242188 L -2113 -393.1208801269531 L -2113 -58.67995452880859 L -2113 86.00038146972656 C -2113 90.05054473876953 -2112.20703125 93.9791259765625 -2110.643310546875 97.67662811279297 C -2109.132080078125 101.2492141723633 -2106.968505859375 104.4577102661133 -2104.212890625 107.2130432128906 C -2101.457275390625 109.9687957763672 -2098.248779296875 112.132209777832 -2094.6767578125 113.6431274414063 C -2090.979248046875 115.2069625854492 -2087.050537109375 115.9998779296875 -2082.999755859375 115.9998779296875 L -1843.000244140625 115.9998779296875 M -1843.000244140625 117.9998779296875 L -2082.999755859375 117.9998779296875 C -2087.319580078125 117.9998779296875 -2091.510498046875 117.1537933349609 -2095.455810546875 115.4851303100586 C -2099.266357421875 113.8733749389648 -2102.6884765625 111.566047668457 -2105.627197265625 108.6272125244141 C -2108.56591796875 105.6887969970703 -2110.873291015625 102.2666244506836 -2112.4853515625 98.45587921142578 C -2114.15380859375 94.51054382324219 -2115 90.31996154785156 -2115 86.00038146972656 L -2115 -58.67995452880859 L -2115 -393.1208801269531 L -2115 -506.9996948242188 C -2115 -511.3195495605469 -2114.15380859375 -515.5103149414063 -2112.4853515625 -519.4556884765625 C -2110.873291015625 -523.2665405273438 -2108.56591796875 -526.6887817382813 -2105.627197265625 -529.6273803710938 C -2102.688232421875 -532.5662841796875 -2099.26611328125 -534.8735961914063 -2095.455810546875 -536.4853515625 C -2091.510498046875 -538.154052734375 -2087.319580078125 -539.0001220703125 -2082.999755859375 -539.0001220703125 L -2046.833740234375 -539.0001220703125 C -2046.943359375 -538.3458862304688 -2046.999633789063 -537.6732788085938 -2046.999633789063 -537.0003051757813 L -2046.999633789063 -525.9996337890625 C -2046.999633789063 -522.7945556640625 -2045.75146484375 -519.7811889648438 -2043.4853515625 -517.5147705078125 C -2041.21875 -515.2482299804688 -2038.205322265625 -513.9999389648438 -2035 -513.9999389648438 L -1890 -513.9999389648438 C -1886.794677734375 -513.9999389648438 -1883.78125 -515.2482299804688 -1881.5146484375 -517.5147705078125 C -1879.24853515625 -519.7811889648438 -1878.000366210938 -522.7945556640625 -1878.000366210938 -525.9996337890625 L -1878.000366210938 -537.0003051757813 C -1878.000366210938 -537.6710205078125 -1878.05615234375 -538.3438720703125 -1878.166259765625 -539.0001220703125 L -1843.000244140625 -539.0001220703125 C -1838.68017578125 -539.0001220703125 -1834.489379882813 -538.154052734375 -1830.544189453125 -536.4853515625 C -1826.733764648438 -534.8737182617188 -1823.3115234375 -532.5663452148438 -1820.37255859375 -529.6273803710938 C -1817.433715820313 -526.6885986328125 -1815.126342773438 -523.266357421875 -1813.514526367188 -519.4556884765625 C -1811.845947265625 -515.5104370117188 -1810.999877929688 -511.3197021484375 -1810.999877929688 -506.9996948242188 L -1810.999877929688 86.00038146972656 C -1810.999877929688 90.32012939453125 -1811.845947265625 94.51071166992188 -1813.514526367188 98.45587921142578 C -1815.126342773438 102.2663803100586 -1817.433715820313 105.6885452270508 -1820.37255859375 108.6272125244141 C -1823.311279296875 111.566047668457 -1826.733642578125 113.8733749389648 -1830.544189453125 115.4851303100586 C -1834.489379882813 117.1537933349609 -1838.68017578125 117.9998779296875 -1843.000244140625 117.9998779296875 Z" stroke="none" fill="#1583d8"/>
        </g>
        <g id="Header_icon" data-name="Header icon" transform="translate(-4896 -2128)">
          <path id="Line" d="M1.47,75.29c.415.23,16.24.3,24.779.058,7.515-.212,15.03-.818,22.563-.882.454,0,3.09,0,3.561,0,.525.132,1.292-.592,1.293-1.211s-1.024-1.127-1.935-1.083c-7.412-.046-14.717.324-22.176.376-7.977.327-25.064.07-25.064.07l-3.1-.184S.132,72.578.1,73.743,1.055,75.06,1.47,75.29Z" transform="translate(5568.247 2141.488)" fill="#1583d8"/>
          <circle id="Ellipse_335" data-name="Ellipse 335" cx="3.5" cy="3.5" r="3.5" transform="translate(5626 2211)" fill="#1583d8"/>
        </g>
        <path id="Line-2" data-name="Line" d="M2.6,75.378c1.069.236,41.843.308,63.843.06,19.363-.218,38.725-.841,58.134-.907,1.169,0,7.961,0,9.175,0,1.352.136,1.133-.818,1.135-1.454s-.443-.95-2.788-.9c-19.1-.047-37.919.333-57.138.387-20.552.336-64.578.072-64.578.072l-7.987-.189S.833,72.6.758,73.8,1.53,75.141,2.6,75.378Z" transform="translate(630.747 641.488)" fill="#1583d8" stroke="#1583d8" stroke-width="1"/>
        <g id="status_bar_light" data-name="status bar/light" transform="translate(470 5)">
          <g id="Battery" transform="translate(13 80)">
            <g id="Border" clip-path="url(#clip-path)">
              <path id="Fill" d="M2.667,0H19.333A2.667,2.667,0,0,1,22,2.667v6h0a2.667,2.667,0,0,1-2.667,2.667H2.667A2.667,2.667,0,0,1,0,8.667v-6H0A2.667,2.667,0,0,1,2.667,0Z" transform="translate(336 17.333)" fill="none" stroke="rgba(21,131,216,0.5)" stroke-width="2"/>
            </g>
            <g id="Cap" clip-path="url(#clip-path-2)">
              <path id="Fill-2" data-name="Fill" d="M354-28h11.328v14H354Z" transform="translate(0 44)" fill="#1583d8"/>
            </g>
            <g id="Capacity" clip-path="url(#clip-path-3)">
              <path id="Fill-3" data-name="Fill" d="M333-29.667h28v17.333H333Z" transform="translate(0 44)" fill="#1583d8"/>
            </g>
          </g>
          <g id="Wifi" transform="translate(13 80)">
            <g id="Wifi-2" data-name="Wifi" clip-path="url(#clip-path-4)">
              <path id="Fill-4" data-name="Fill" d="M310.694-31.669h25.272V-10.7H310.694Z" transform="translate(0 44)" fill="#1583d8"/>
            </g>
          </g>
          <g id="Cellular_Connection" data-name="Cellular Connection" transform="translate(13 80)">
            <g id="Cellular_Connection-2" data-name="Cellular Connection" clip-path="url(#clip-path-5)">
              <path id="Fill-5" data-name="Fill" d="M288.667-31.333h27v20.667h-27Z" transform="translate(0 44)" fill="#1583d8"/>
            </g>
          </g>
          <g id="Bars___Time_Black" data-name="Bars/_/Time Black" transform="translate(62 80)">
            <path id="Background" d="M21-19H75V-35H21Z" transform="translate(8 50)" fill="none"/>
            <text id="_10:20" data-name="10:20" transform="translate(33 29)" fill="#1583d8" font-size="14" font-family="TektonPro-Bold, Tekton Pro" font-weight="700"><tspan x="0" y="0">10:20</tspan></text>
          </g>
        </g>
      </g>
      <g id="Button_-_Circle_-_Arrow_Left_1" data-name="Button - Circle - Arrow Left 1" transform="translate(407.5 276)" clip-path="url(#clip-path-6)">
        <path id="Oval" d="M1.614,13.219C2.709,5.343,10.414.8,17.841,1.768c6.872.895,9.262,8.01,9.347,14.244.131,9.645-11.633,12.451-18.829,9.317-4.971-2.163-7.337-6.918-6.716-12.32C1.758,12,.217,12.014.1,13.009c-.617,5.352,1.536,10.383,6.215,13.044a17.47,17.47,0,0,0,14.117,1.163c4.475-1.577,7.928-5.22,8.27-10.189C29.143,10.66,26.63,2.689,20.1.655,11.6-1.99,1.4,3.621.129,12.8-.009,13.791,1.476,14.219,1.614,13.219Z" transform="translate(0.002 0.001)" fill="#1583d8"/>
        <g id="Icon_-_Arrow_Left_1" data-name="Icon - Arrow Left 1" transform="translate(10.932 8.716)" clip-path="url(#clip-path-7)">
          <path id="Arrow_Left_1" data-name="Arrow Left 1" d="M.3,2.146q2.148,2.22,4.2,4.528c-.09-.337-.177-.678-.268-1.015-.007.024-.01.052-.017.076A1.05,1.05,0,0,0,5.954,6.75,61.71,61.71,0,0,0,9.923,1.82C10.788.8,9.318-.679,8.449.346A60.336,60.336,0,0,1,4.481,5.277c.58.337,1.161.678,1.741,1.015.222-.959-.7-1.6-1.282-2.238Q3.381,2.339,1.77.676c-.931-.97-2.4.5-1.473,1.47Z" transform="translate(7.047 0) rotate(90)" fill="#1583d8"/>
        </g>
      </g>
      <text id="_Lorem_ipsum_dolor_sit_amet_consetetur_sadipscing_elitr_sed_diam_nonumy_eirmod_tempor_" data-name="&quot;Lorem ipsum dolor sit amet, 
consetetur sadipscing elitr, 
sed diam nonumy 
eirmod tempor?&quot;" transform="translate(539 511)" fill="#1583d8" font-size="15" font-family="TektonPro-Bold, Tekton Pro" font-weight="700"><tspan x="-88.912" y="0">&quot;Lorem ipsum dolor sit amet, </tspan><tspan x="-85.808" y="21">consetetur sadipscing elitr, </tspan><tspan x="-53.43" y="42">sed diam nonumy </tspan><tspan x="-51.202" y="63">eirmod tempor?&quot;</tspan></text>
      <text id="_33_60" data-name="33/60" transform="translate(658.5 829)" fill="#1583d8" font-size="9" font-family="TektonPro-Bold, Tekton Pro" font-weight="700"><tspan x="-13.329" y="0">33/60</tspan></text>
      <path id="Icon_-_Heart" data-name="Icon - Heart" d="M9.287,18.963c3.2,2.409,5.922-.682,8.144-2.828,2.413-2.33,5.713-5.078,6.189-8.616.353-2.633-1.583-6.4-4.234-7.235-3.578-1.129-6.12,1.291-8.331,3.74h1.529C10.726,1.968,8.915.017,5.98.057,3.257.093,1.608,1.975.534,4.334-.649,6.924.3,9.5,1.951,11.634a56.1,56.1,0,0,0,7.119,7.159c1.031.931,2.568-.6,1.529-1.529C9,15.825,7.433,14.343,5.926,12.806S2.427,9.47,2.178,7.227c-.224-1.987,1.432-4.833,3.563-5,2.352-.184,3.87,1.731,5.313,3.329a1.088,1.088,0,0,0,1.529,0c1.5-1.659,3.087-3.643,5.551-3.322,2.647.346,3.874,4.213,2.925,6.333s-2.846,3.765-4.461,5.356c-1.547,1.522-3.91,4.916-6.221,3.17C9.265,16.254,8.187,18.133,9.287,18.963Z" transform="translate(647.495 280.176)" fill="#1583d8"/>
      <g id="Progress_Bars_Size_Small_Solid_-_Half" data-name="Progress Bars / Size / Small / Solid - Half" transform="translate(404.873 832)">
        <path id="Half" d="M91.712,10.988q-27.943-.058-55.887-.3-10.892-.108-21.781-.3-4.331-.079-8.656-.186C3.1,10.145.689,9.066.12,5.912-.563,2.118,1.783.22,4.415.02A.785.785,0,0,1,4.61,0C5.966.034,7.319.069,8.675.1,23.734.434,38.8.555,53.858.654Q83.63.848,113.4.836q31.537.012,63.071-.113Q204.353.613,232.228.38q10.906-.1,21.809-.235,4.33-.057,8.665-.13c2.205-.038,5.179.51,5.518,3.925a5.377,5.377,0,0,1-4.332,6.193.782.782,0,0,1-.263.049.736.736,0,0,1-.231,0q-1.913.032-3.827.057c-15.1.228-30.2.35-45.3.453q-29.758.205-59.519.273-18.119.046-36.238.047Q105.11,11.016,91.712,10.988Zm47.094-2.26q13.6-.02,27.2-.066,28.233-.09,56.465-.3c13.711-.106,27.421-.229,41.131-.459l.022,0a3.3,3.3,0,0,0,2.434-1.493,2.666,2.666,0,0,0-.9-3.8A6.59,6.59,0,0,0,262.3,2.3c-13.989.229-27.976.347-41.966.453q-28.351.216-56.707.292-12.413.036-24.823.055Z" transform="translate(-0.002 -0.001)" fill="#1583d8" stroke="#1583d8" stroke-miterlimit="10" stroke-width="0.5"/>
      </g>
      <g id="Mobile_wireframe-2" data-name="Mobile wireframe" transform="translate(260.76 133.811)">
        <g id="Phone_border_screen-2" data-name="Phone border screen" transform="translate(527 57)" fill="none">
          <path d="M50,0S152.478.229,172.073,0,294,0,294,0a50,50,0,0,1,50,50s.316,175.806,0,221.033,1.418,168.9,0,191.491S344,648,344,648a50,50,0,0,1-50,50s-92.248-1.079-117.546,0S50,698,50,698A50,50,0,0,1,0,648S-.085,538.786-.085,423.6c0-.615.085-243.281.085-243.281V50A50,50,0,0,1,50,0Z" stroke="none"/>
          <path d="M 212.3923797607422 1.89825439453125 C 191.4261932373047 1.89825439453125 177.86865234375 1.93243408203125 172.0962982177734 1.9998779296875 C 166.3073883056641 2.0673828125 152.7213745117188 2.1016845703125 131.7156524658203 2.1016845703125 C 95.95838928222656 2.1016845703125 50.45101928710938 2.0009765625 50.00003051757813 1.99993896484375 C 43.51919555664063 1.99993896484375 37.2332763671875 3.268798828125 31.31683349609375 5.771240234375 C 25.60128784179688 8.18865966796875 20.46774291992188 11.64996337890625 16.058837890625 16.058837890625 C 11.6500244140625 20.4677734375 8.188751220703125 25.60125732421875 5.77130126953125 31.31689453125 C 3.268829345703125 37.23321533203125 2.000030517578125 43.5191650390625 2.000030517578125 49.99993896484375 L 2.000030517578125 180.321533203125 C 1.99920654296875 182.7481689453125 1.91455078125 422.994140625 1.91455078125 423.601318359375 C 1.91455078125 537.4681396484375 1.99920654296875 646.90625 2.000030517578125 647.9999389648438 C 2.000030517578125 654.4807739257813 3.268829345703125 660.7667846679688 5.77130126953125 666.6831665039063 C 8.188751220703125 672.398681640625 11.6500244140625 677.5322265625 16.058837890625 681.941162109375 C 20.46774291992188 686.3499755859375 25.60128784179688 689.8112182617188 31.31683349609375 692.2286987304688 C 37.23318481445313 694.7311401367188 43.51919555664063 695.9999389648438 50.00003051757813 695.9999389648438 L 50.01065063476563 695.9999389648438 L 50.02139282226563 696.0000610351563 C 50.4708251953125 696.0048828125 95.39692687988281 696.4794311523438 132.4258422851563 696.4794311523438 C 154.1511077880859 696.4794311523438 168.9356536865234 696.3186645507813 176.36865234375 696.0017700195313 C 183.8576507568359 695.6824340820313 197.9224700927734 695.5205078125 218.1724700927734 695.5205078125 C 252.3585815429688 695.5205078125 293.0079956054688 695.9883422851563 294.0076293945313 695.9999389648438 C 300.4859313964844 695.9990234375 306.7689208984375 694.730224609375 312.68310546875 692.2286987304688 C 318.3987426757813 689.8112182617188 323.5321960449219 686.3499755859375 327.9411010742188 681.941162109375 C 332.3500061035156 677.5322265625 335.811279296875 672.398681640625 338.228759765625 666.6831665039063 C 340.7302856445313 660.7688598632813 341.9990844726563 654.4850463867188 342.0000305175781 648.0067138671875 C 341.9407348632813 641.1922607421875 340.59814453125 484.7958984375 342.0039367675781 462.3987731933594 C 342.8754577636719 448.5121459960938 342.541015625 394.740966796875 342.2459411621094 347.2995910644531 C 342.0572814941406 316.9717712402344 341.8791198730469 288.3258666992188 342.0001220703125 271.0186767578125 C 342.3125610351563 226.3183288574219 342.0032043457031 51.761474609375 342.0000305175781 49.99993896484375 C 342.0000305175781 43.5191650390625 340.731201171875 37.23321533203125 338.228759765625 31.31689453125 C 335.811279296875 25.60125732421875 332.3500061035156 20.4677734375 327.9411010742188 16.058837890625 C 323.5321960449219 11.64996337890625 318.3987426757813 8.18865966796875 312.68310546875 5.771240234375 C 306.7667541503906 3.268798828125 300.4808349609375 1.99993896484375 293.9955749511719 1.99993896484375 C 293.5407409667969 1.99896240234375 248.1041107177734 1.89825439453125 212.3923797607422 1.89825439453125 M 212.3923797607422 -0.10174560546875 C 248.5194549560547 -0.10174560546875 294.0000305175781 -6.103515625e-05 294.0000305175781 -6.103515625e-05 C 321.6141967773438 -6.103515625e-05 344.0000305175781 22.38580322265625 344.0000305175781 49.99993896484375 C 344.0000305175781 49.99993896484375 344.3161926269531 225.8064270019531 344.0000305175781 271.0326843261719 C 343.683837890625 316.259033203125 345.418212890625 439.92822265625 344.0000305175781 462.5240478515625 C 342.5817565917969 485.119873046875 344.0000305175781 647.9999389648438 344.0000305175781 647.9999389648438 C 344.0000305175781 675.6142578125 321.6141967773438 697.9999389648438 294.0000305175781 697.9999389648438 C 294.0000305175781 697.9999389648438 252.9996185302734 697.5205078125 218.1724853515625 697.5205078125 C 200.7557373046875 697.5205078125 184.8876495361328 697.6403198242188 176.4538421630859 697.9999389648438 C 168.0215606689453 698.3594970703125 151.1583251953125 698.4793701171875 132.4257965087891 698.4793701171875 C 94.95730590820313 698.4793701171875 50.00003051757813 697.9999389648438 50.00003051757813 697.9999389648438 C 22.3857421875 697.9999389648438 3.0517578125e-05 675.6142578125 3.0517578125e-05 647.9999389648438 C 3.0517578125e-05 647.9999389648438 -0.08544921875 538.7861328125 -0.08544921875 423.601318359375 C -0.08544921875 422.9867858886719 3.0517578125e-05 180.32080078125 3.0517578125e-05 180.32080078125 L 3.0517578125e-05 49.99993896484375 C 3.0517578125e-05 22.38580322265625 22.3857421875 -6.103515625e-05 50.00003051757813 -6.103515625e-05 C 50.00003051757813 -6.103515625e-05 95.54698181152344 0.10162353515625 131.7156677246094 0.10162353515625 C 149.8033294677734 0.10162353515625 165.5405883789063 0.07623291015625 172.0729217529297 -6.103515625e-05 C 178.6040802001953 -0.0762939453125 194.3304901123047 -0.10174560546875 212.3923797607422 -0.10174560546875 Z" stroke="none" fill="#1583d8"/>
        </g>
        <g id="Phone_screen-2" data-name="Phone screen" transform="translate(2662 617)" fill="#fff" opacity="0.6">
          <path d="M -1843.000244140625 116.9998779296875 L -2082.999755859375 116.9998779296875 C -2087.18505859375 116.9998779296875 -2091.244873046875 116.1803741455078 -2095.06640625 114.5641250610352 C -2098.757568359375 113.0027923583984 -2102.072998046875 110.7673797607422 -2104.919921875 107.9201278686523 C -2107.76708984375 105.0732955932617 -2110.002685546875 101.7580413818359 -2111.564453125 98.06629180908203 C -2113.180419921875 94.24471282958984 -2114 90.18512725830078 -2114 86.00038146972656 L -2114 -58.67995452880859 L -2114 -393.1208801269531 L -2114 -506.9996948242188 C -2114 -511.1846923828125 -2113.180419921875 -515.2444458007813 -2111.564453125 -519.0662231445313 C -2110.002685546875 -522.7578735351563 -2107.76708984375 -526.0733032226563 -2104.920166015625 -528.9202270507813 C -2102.07275390625 -531.7676391601563 -2098.75732421875 -534.0030517578125 -2095.066162109375 -535.5643920898438 C -2091.244873046875 -537.1806030273438 -2087.18505859375 -538.0001220703125 -2082.999755859375 -538.0001220703125 L -2047.961547851563 -538.0001220703125 C -2047.986938476563 -537.6674194335938 -2047.999633789063 -537.33349609375 -2047.999633789063 -537.0003051757813 L -2047.999633789063 -525.9996337890625 C -2047.999633789063 -522.5275268554688 -2046.647583007813 -519.2631225585938 -2044.192504882813 -516.8076782226563 C -2041.737060546875 -514.3522338867188 -2038.472412109375 -512.9999389648438 -2035 -512.9999389648438 L -1890 -512.9999389648438 C -1886.527587890625 -512.9999389648438 -1883.262939453125 -514.3522338867188 -1880.8076171875 -516.8076782226563 C -1878.352416992188 -519.2631225585938 -1877.000366210938 -522.5275268554688 -1877.000366210938 -525.9996337890625 L -1877.000366210938 -537.0003051757813 C -1877.000366210938 -537.3336791992188 -1877.013061523438 -537.6676025390625 -1877.038452148438 -538.0001220703125 L -1843.000244140625 -538.0001220703125 C -1838.814697265625 -538.0001220703125 -1834.7548828125 -537.1806030273438 -1830.933715820313 -535.5643920898438 C -1827.242431640625 -534.0030517578125 -1823.927001953125 -531.7677001953125 -1821.079711914063 -528.9202880859375 C -1818.232299804688 -526.0729370117188 -1815.996948242188 -522.757568359375 -1814.435546875 -519.0661010742188 C -1812.8193359375 -515.2448120117188 -1811.999877929688 -511.1850280761719 -1811.999877929688 -506.9996948242188 L -1811.999877929688 86.00038146972656 C -1811.999877929688 90.18546295166016 -1812.8193359375 94.24504089355469 -1814.435546875 98.06637573242188 C -1815.996948242188 101.7576293945313 -1818.232299804688 105.0728759765625 -1821.079711914063 107.9200439453125 C -1823.926635742188 110.7672958374023 -1827.242065429688 113.0026245117188 -1830.933715820313 114.5641250610352 C -1834.7548828125 116.1803741455078 -1838.814697265625 116.9998779296875 -1843.000244140625 116.9998779296875 Z" stroke="none"/>
          <path d="M -1843.000244140625 115.9998779296875 C -1838.94921875 115.9998779296875 -1835.020629882813 115.2069625854492 -1831.3232421875 113.6431274414063 C -1827.750854492188 112.1320419311523 -1824.542358398438 109.9687118530273 -1821.786743164063 107.2129592895508 C -1819.030883789063 104.4572982788086 -1816.867553710938 101.2488784790039 -1815.3564453125 97.67679595947266 C -1813.792724609375 93.97946166992188 -1812.999877929688 90.05088043212891 -1812.999877929688 86.00038146972656 L -1812.999877929688 -506.9996948242188 C -1812.999877929688 -511.0504455566406 -1813.792724609375 -514.9791870117188 -1815.3564453125 -518.676513671875 C -1816.867553710938 -522.248779296875 -1819.030883789063 -525.4573974609375 -1821.786865234375 -528.2131958007813 C -1824.542602539063 -530.9690551757813 -1827.751220703125 -533.1324462890625 -1831.3232421875 -534.6433715820313 C -1835.020629882813 -536.2072143554688 -1838.94921875 -537.0001220703125 -1843.000244140625 -537.0001220703125 L -1876.000366210938 -537.0003051757813 L -1876.000366210938 -525.9996337890625 C -1876.000366210938 -522.2604370117188 -1877.456420898438 -518.744873046875 -1880.100463867188 -516.1005249023438 C -1882.744750976563 -513.456298828125 -1886.260498046875 -511.9999694824219 -1890 -511.9999694824219 L -2035 -511.9999694824219 C -2038.739501953125 -511.9999694824219 -2042.255249023438 -513.456298828125 -2044.899536132813 -516.1006469726563 C -2047.543579101563 -518.744873046875 -2048.999755859375 -522.2604370117188 -2048.999755859375 -525.9996337890625 L -2048.999755859375 -537.0001220703125 L -2082.999755859375 -537.0001220703125 C -2087.050537109375 -537.0001220703125 -2090.979248046875 -536.2072143554688 -2094.6767578125 -534.6433715820313 C -2098.248779296875 -533.1324462890625 -2101.457275390625 -530.9689331054688 -2104.212890625 -528.213134765625 C -2106.968505859375 -525.4577026367188 -2109.132080078125 -522.2491455078125 -2110.643310546875 -518.6766967773438 C -2112.20703125 -514.9788818359375 -2113 -511.0501098632813 -2113 -506.9996948242188 L -2113 -393.1208801269531 L -2113 -58.67995452880859 L -2113 86.00038146972656 C -2113 90.05054473876953 -2112.20703125 93.9791259765625 -2110.643310546875 97.67662811279297 C -2109.132080078125 101.2492141723633 -2106.968505859375 104.4577102661133 -2104.212890625 107.2130432128906 C -2101.457275390625 109.9687957763672 -2098.248779296875 112.132209777832 -2094.6767578125 113.6431274414063 C -2090.979248046875 115.2069625854492 -2087.050537109375 115.9998779296875 -2082.999755859375 115.9998779296875 L -1843.000244140625 115.9998779296875 M -1843.000244140625 117.9998779296875 L -2082.999755859375 117.9998779296875 C -2087.319580078125 117.9998779296875 -2091.510498046875 117.1537933349609 -2095.455810546875 115.4851303100586 C -2099.266357421875 113.8733749389648 -2102.6884765625 111.566047668457 -2105.627197265625 108.6272125244141 C -2108.56591796875 105.6887969970703 -2110.873291015625 102.2666244506836 -2112.4853515625 98.45587921142578 C -2114.15380859375 94.51054382324219 -2115 90.31996154785156 -2115 86.00038146972656 L -2115 -58.67995452880859 L -2115 -393.1208801269531 L -2115 -506.9996948242188 C -2115 -511.3195495605469 -2114.15380859375 -515.5103149414063 -2112.4853515625 -519.4556884765625 C -2110.873291015625 -523.2665405273438 -2108.56591796875 -526.6887817382813 -2105.627197265625 -529.6273803710938 C -2102.688232421875 -532.5662841796875 -2099.26611328125 -534.8735961914063 -2095.455810546875 -536.4853515625 C -2091.510498046875 -538.154052734375 -2087.319580078125 -539.0001220703125 -2082.999755859375 -539.0001220703125 L -2046.833740234375 -539.0001220703125 C -2046.943359375 -538.3458862304688 -2046.999633789063 -537.6732788085938 -2046.999633789063 -537.0003051757813 L -2046.999633789063 -525.9996337890625 C -2046.999633789063 -522.7945556640625 -2045.75146484375 -519.7811889648438 -2043.4853515625 -517.5147705078125 C -2041.21875 -515.2482299804688 -2038.205322265625 -513.9999389648438 -2035 -513.9999389648438 L -1890 -513.9999389648438 C -1886.794677734375 -513.9999389648438 -1883.78125 -515.2482299804688 -1881.5146484375 -517.5147705078125 C -1879.24853515625 -519.7811889648438 -1878.000366210938 -522.7945556640625 -1878.000366210938 -525.9996337890625 L -1878.000366210938 -537.0003051757813 C -1878.000366210938 -537.6710205078125 -1878.05615234375 -538.3438720703125 -1878.166259765625 -539.0001220703125 L -1843.000244140625 -539.0001220703125 C -1838.68017578125 -539.0001220703125 -1834.489379882813 -538.154052734375 -1830.544189453125 -536.4853515625 C -1826.733764648438 -534.8737182617188 -1823.3115234375 -532.5663452148438 -1820.37255859375 -529.6273803710938 C -1817.433715820313 -526.6885986328125 -1815.126342773438 -523.266357421875 -1813.514526367188 -519.4556884765625 C -1811.845947265625 -515.5104370117188 -1810.999877929688 -511.3197021484375 -1810.999877929688 -506.9996948242188 L -1810.999877929688 86.00038146972656 C -1810.999877929688 90.32012939453125 -1811.845947265625 94.51071166992188 -1813.514526367188 98.45587921142578 C -1815.126342773438 102.2663803100586 -1817.433715820313 105.6885452270508 -1820.37255859375 108.6272125244141 C -1823.311279296875 111.566047668457 -1826.733642578125 113.8733749389648 -1830.544189453125 115.4851303100586 C -1834.489379882813 117.1537933349609 -1838.68017578125 117.9998779296875 -1843.000244140625 117.9998779296875 Z" stroke="none" fill="#1583d8"/>
        </g>
        <g id="Header_icon-2" data-name="Header icon" transform="translate(-4896 -2128)">
          <path id="Line-3" data-name="Line" d="M1.47,75.29c.415.23,16.24.3,24.779.058,7.515-.212,15.03-.818,22.563-.882.454,0,3.09,0,3.561,0,.525.132,1.292-.592,1.293-1.211s-1.024-1.127-1.935-1.083c-7.412-.046-14.717.324-22.176.376-7.977.327-25.064.07-25.064.07l-3.1-.184S.132,72.578.1,73.743,1.055,75.06,1.47,75.29Z" transform="translate(5568.247 2141.488)" fill="#1583d8"/>
          <circle id="Ellipse_335-2" data-name="Ellipse 335" cx="3.5" cy="3.5" r="3.5" transform="translate(5626 2211)" fill="#1583d8"/>
        </g>
        <path id="Line-4" data-name="Line" d="M2.6,75.378c1.069.236,41.843.308,63.843.06,19.363-.218,38.725-.841,58.134-.907,1.169,0,7.961,0,9.175,0,1.352.136,1.133-.818,1.135-1.454s-.443-.95-2.788-.9c-19.1-.047-37.919.333-57.138.387-20.552.336-64.578.072-64.578.072l-7.987-.189S.833,72.6.758,73.8,1.53,75.141,2.6,75.378Z" transform="translate(630.747 641.488)" fill="#1583d8" stroke="#1583d8" stroke-width="1"/>
        <g id="status_bar_light-2" data-name="status bar/light" transform="translate(470 5)">
          <g id="Battery-2" data-name="Battery" transform="translate(13 80)">
            <g id="Border-2" data-name="Border" clip-path="url(#clip-path)">
              <path id="Fill-6" data-name="Fill" d="M2.667,0H19.333A2.667,2.667,0,0,1,22,2.667v6h0a2.667,2.667,0,0,1-2.667,2.667H2.667A2.667,2.667,0,0,1,0,8.667v-6H0A2.667,2.667,0,0,1,2.667,0Z" transform="translate(336 17.333)" fill="none" stroke="rgba(21,131,216,0.5)" stroke-width="2"/>
            </g>
            <g id="Cap-2" data-name="Cap" clip-path="url(#clip-path-2)">
              <path id="Fill-7" data-name="Fill" d="M354-28h11.328v14H354Z" transform="translate(0 44)" fill="#1583d8"/>
            </g>
            <g id="Capacity-2" data-name="Capacity" clip-path="url(#clip-path-3)">
              <path id="Fill-8" data-name="Fill" d="M333-29.667h28v17.333H333Z" transform="translate(0 44)" fill="#1583d8"/>
            </g>
          </g>
          <g id="Wifi-3" data-name="Wifi" transform="translate(13 80)">
            <g id="Wifi-4" data-name="Wifi" clip-path="url(#clip-path-4)">
              <path id="Fill-9" data-name="Fill" d="M310.694-31.669h25.272V-10.7H310.694Z" transform="translate(0 44)" fill="#1583d8"/>
            </g>
          </g>
          <g id="Cellular_Connection-3" data-name="Cellular Connection" transform="translate(13 80)">
            <g id="Cellular_Connection-4" data-name="Cellular Connection" clip-path="url(#clip-path-5)">
              <path id="Fill-10" data-name="Fill" d="M288.667-31.333h27v20.667h-27Z" transform="translate(0 44)" fill="#1583d8"/>
            </g>
          </g>
          <g id="Bars___Time_Black-2" data-name="Bars/_/Time Black" transform="translate(62 80)">
            <path id="Background-2" data-name="Background" d="M21-19H75V-35H21Z" transform="translate(8 50)" fill="none"/>
            <text id="_10:20-2" data-name="10:20" transform="translate(33 29)" fill="#1583d8" font-size="14" font-family="TektonPro-Bold, Tekton Pro" font-weight="700"><tspan x="0" y="0">10:20</tspan></text>
          </g>
        </g>
      </g>
      <g id="Button_-_Circle_-_Arrow_Left_1-2" data-name="Button - Circle - Arrow Left 1" transform="translate(828.5 276)" clip-path="url(#clip-path-6)">
        <path id="Oval-2" data-name="Oval" d="M1.614,13.219C2.709,5.343,10.414.8,17.841,1.768c6.872.895,9.262,8.01,9.347,14.244.131,9.645-11.633,12.451-18.829,9.317-4.971-2.163-7.337-6.918-6.716-12.32C1.758,12,.217,12.014.1,13.009c-.617,5.352,1.536,10.383,6.215,13.044a17.47,17.47,0,0,0,14.117,1.163c4.475-1.577,7.928-5.22,8.27-10.189C29.143,10.66,26.63,2.689,20.1.655,11.6-1.99,1.4,3.621.129,12.8-.009,13.791,1.476,14.219,1.614,13.219Z" transform="translate(0.002 0.001)" fill="#1583d8"/>
        <g id="Icon_-_Arrow_Left_1-2" data-name="Icon - Arrow Left 1" transform="translate(10.932 8.716)" clip-path="url(#clip-path-7)">
          <path id="Arrow_Left_1-2" data-name="Arrow Left 1" d="M.3,2.146q2.148,2.22,4.2,4.528c-.09-.337-.177-.678-.268-1.015-.007.024-.01.052-.017.076A1.05,1.05,0,0,0,5.954,6.75,61.71,61.71,0,0,0,9.923,1.82C10.788.8,9.318-.679,8.449.346A60.336,60.336,0,0,1,4.481,5.277c.58.337,1.161.678,1.741,1.015.222-.959-.7-1.6-1.282-2.238Q3.381,2.339,1.77.676c-.931-.97-2.4.5-1.473,1.47Z" transform="translate(7.047 0) rotate(90)" fill="#1583d8"/>
        </g>
      </g>
      <text id="_33_60-2" data-name="33/60" transform="translate(1079.5 829)" fill="#1583d8" font-size="9" font-family="TektonPro-Bold, Tekton Pro" font-weight="700"><tspan x="-13.329" y="0">33/60</tspan></text>
      <path id="Icon_-_Heart-2" data-name="Icon - Heart" d="M9.287,18.963c3.2,2.409,5.922-.682,8.144-2.828,2.413-2.33,5.713-5.078,6.189-8.616.353-2.633-1.583-6.4-4.234-7.235-3.578-1.129-6.12,1.291-8.331,3.74h1.529C10.726,1.968,8.915.017,5.98.057,3.257.093,1.608,1.975.534,4.334-.649,6.924.3,9.5,1.951,11.634a56.1,56.1,0,0,0,7.119,7.159c1.031.931,2.568-.6,1.529-1.529C9,15.825,7.433,14.343,5.926,12.806S2.427,9.47,2.178,7.227c-.224-1.987,1.432-4.833,3.563-5,2.352-.184,3.87,1.731,5.313,3.329a1.088,1.088,0,0,0,1.529,0c1.5-1.659,3.087-3.643,5.551-3.322,2.647.346,3.874,4.213,2.925,6.333s-2.846,3.765-4.461,5.356c-1.547,1.522-3.91,4.916-6.221,3.17C9.265,16.254,8.187,18.133,9.287,18.963Z" transform="translate(1068.495 280.176)" fill="#1583d8"/>
      <g id="Progress_Bars_Size_Small_Solid_-_Half-2" data-name="Progress Bars / Size / Small / Solid - Half" transform="translate(825.873 832)">
        <path id="Half-2" data-name="Half" d="M91.712,10.988q-27.943-.058-55.887-.3-10.892-.108-21.781-.3-4.331-.079-8.656-.186C3.1,10.145.689,9.066.12,5.912-.563,2.118,1.783.22,4.415.02A.785.785,0,0,1,4.61,0C5.966.034,7.319.069,8.675.1,23.734.434,38.8.555,53.858.654Q83.63.848,113.4.836q31.537.012,63.071-.113Q204.353.613,232.228.38q10.906-.1,21.809-.235,4.33-.057,8.665-.13c2.205-.038,5.179.51,5.518,3.925a5.377,5.377,0,0,1-4.332,6.193.782.782,0,0,1-.263.049.736.736,0,0,1-.231,0q-1.913.032-3.827.057c-15.1.228-30.2.35-45.3.453q-29.758.205-59.519.273-18.119.046-36.238.047Q105.11,11.016,91.712,10.988Zm47.094-2.26q13.6-.02,27.2-.066,28.233-.09,56.465-.3c13.711-.106,27.421-.229,41.131-.459l.022,0a3.3,3.3,0,0,0,2.434-1.493,2.666,2.666,0,0,0-.9-3.8A6.59,6.59,0,0,0,262.3,2.3c-13.989.229-27.976.347-41.966.453q-28.351.216-56.707.292-12.413.036-24.823.055Z" transform="translate(-0.002 -0.001)" fill="#1583d8" stroke="#1583d8" stroke-miterlimit="10" stroke-width="0.5"/>
      </g>
      <g id="Heart_Solid" data-name="Heart Solid" transform="translate(1068.5 280.172)">
        <path id="Icon_-_Heart_Solid" data-name="Icon - Heart Solid" d="M-1694.713-4073.037c-.023-.018-.045-.035-.067-.054a1.253,1.253,0,0,1-.149-.116,56.1,56.1,0,0,1-7.12-7.159c-1.652-2.139-2.6-4.709-1.417-7.3,1.074-2.359,2.723-4.242,5.445-4.278,2.536-.034,4.232,1.417,5.844,3.137,2.034-2.124,4.392-3.91,7.562-2.91,2.651.837,4.587,4.6,4.234,7.236-.477,3.537-3.776,6.286-6.189,8.616-1.649,1.592-3.575,3.705-5.765,3.7A3.9,3.9,0,0,1-1694.713-4073.037Z" transform="translate(1703.994 4092.002)" fill="#1583d8"/>
      </g>
      <g id="Media_Text_Image" data-name="Media / Text Image" transform="translate(619.502 440)">
        <path id="Path_972" data-name="Path 972" d="M103.991.071Q78.629.739,53.266,1.418l-19.755.517q-6.539.167-13.086.344c-2.909.081-5.827.152-8.736.233-2.372.071-6.319,1.033-8.548.03-.859-.385-1.665.577-1.7,1.469C-1.441,76.543,1.038,149.157.17,221.729a1.463,1.463,0,0,0,1.343,1.519c21.625,1.043,43.277,1.8,64.921,2.137,34.989.537,69.978-1.388,104.976-1.367,9.085,0,18.161.041,27.246.213A1.456,1.456,0,0,0,200,222.712c-1.548-73.251.349-146.523-1.19-219.764a1.469,1.469,0,0,0-1.343-1.519C172.044.891,146.624.375,121.195.1c-5.737-.061-11.475-.172-17.2-.03-1.728.041-1.728,3.079,0,3.039,27.7-.679,55.522.577,83.225,1.134l10.249.213-1.343-1.519c1.549,73.251-.349,146.523,1.19,219.764l1.343-1.519c-25.429-.506-50.886-.253-76.306.3-31.7.7-63.211.942-94.915-.223q-12.97-.471-25.922-1.074l1.343,1.519c.868-72.563-1.611-145.166,1.271-217.7C3.562,4.5,3,4.983,2.426,5.47c1.772.8,4.162.223,6.042.172L17.651,5.4l13.722-.365q10.553-.273,21.106-.557L103.991,3.11C105.71,3.059,105.719.02,103.991.071Z" transform="translate(241 0)" fill="#1583d8"/>
      </g>
      <path id="Path_1124" data-name="Path 1124" d="M4111.232,13503.929c16.395,63.564-13.17,121.216-13.17,121.216" transform="translate(-867.632 -13672.094) rotate(9)" fill="none" stroke="#707070" stroke-width="1"/>
      <g id="Polygon_9" data-name="Polygon 9" transform="translate(1050.182 442.41) rotate(-138)" fill="#fff">
        <path d="M 22.65117835998535 12.49999904632568 L 2.348819017410278 12.49999904632568 C 2.04210901260376 12.49999904632568 1.919159054756165 12.26720905303955 1.888779044151306 12.1958589553833 C 1.85840904712677 12.12450885772705 1.775819063186646 11.87453937530518 1.988409042358398 11.65343856811523 L 12.13958930969238 1.096218943595886 C 12.23472881317139 0.9972689747810364 12.3627290725708 0.9427789449691772 12.49999904632568 0.9427789449691772 C 12.63726902008057 0.9427789449691772 12.76526927947998 0.9972689747810364 12.86040878295898 1.096218943595886 L 23.01158905029297 11.65343856811523 C 23.22417831420898 11.87453937530518 23.14158821105957 12.12450885772705 23.11121940612793 12.1958589553833 C 23.08083915710449 12.26720905303955 22.95788955688477 12.49999904632568 22.65117835998535 12.49999904632568 Z" stroke="none"/>
        <path d="M 12.49999904632568 1.442778587341309 L 2.348823547363281 11.9999942779541 C 2.348823547363281 11.99999618530273 2.348825454711914 11.99999713897705 2.348819732666016 11.99999904632568 L 22.65117263793945 11.99999904632568 C 22.65117263793945 11.99999713897705 22.65117454528809 11.99999618530273 22.65117835998535 11.99999904632568 L 12.50108909606934 1.442878723144531 C 12.50097942352295 1.442849159240723 12.50056934356689 1.442778587341309 12.49999904632568 1.442778587341309 M 12.49999904632568 0.4427766799926758 C 12.76205158233643 0.4427766799926758 13.02410411834717 0.5450735092163086 13.22082901000977 0.749669075012207 L 23.37200927734375 11.30688858032227 C 23.98296928405762 11.94228935241699 23.53265953063965 12.99999904632568 22.65117835998535 12.99999904632568 L 2.348819732666016 12.99999904632568 C 1.467338562011719 12.99999904632568 1.01702880859375 11.94228935241699 1.627988815307617 11.30688858032227 L 11.7791690826416 0.749669075012207 C 11.9758939743042 0.5450735092163086 12.23794651031494 0.4427766799926758 12.49999904632568 0.4427766799926758 Z" stroke="none" fill="#707070"/>
      </g>
      <g id="Group_1323" data-name="Group 1323" transform="translate(891.623 543.777)">
        <g id="Form_Fields_Pill_Box_Half" data-name="Form Fields / Pill Box / Half" transform="translate(0)">
          <path id="Pill_Box" data-name="Pill Box" d="M127.824,2.469C123.964-.392,118.87.033,114.2.06q-4.333.025-8.664.03Q90.984.123,76.431.122,59.72.127,43.007.116,30.911.105,18.814.07a74.253,74.253,0,0,0-9.39.156C5.586.7,2.247,2.482.773,5.877c-1.239,2.855-1.1,6.618,1.2,9.011C4.9,17.93,9.823,17.913,13.906,17.917q4.158,0,8.315,0,14.207.005,28.415.005H84.456q13.478,0,26.956-.005l7.046,0a24.26,24.26,0,0,0,6.438-.677c3.356-.924,5.689-3.06,6.187-6.3a9.1,9.1,0,0,0-3.26-8.472c-.537-.426-1.324.289-.783.717C129.885,5.441,128.378,2.88,127.824,2.469Z" transform="translate(0.004 0.001)" fill="#1583d8"/>
        </g>
      </g>
      <g id="Group_1322" data-name="Group 1322" transform="translate(874.455 621.777)">
        <g id="Form_Fields_Pill_Box_Half-2" data-name="Form Fields / Pill Box / Half" transform="translate(0)">
          <path id="Pill_Box-2" data-name="Pill Box" d="M166.7,3.449c-5.034-4-11.677-3.4-17.766-3.365q-5.651.035-11.3.043Q118.655.173,99.676.171,77.883.178,56.087.162,40.313.148,24.536.1C20.48.077,16.306-.216,12.291.316,7.286.977,2.931,3.468,1.009,8.21-.607,12.2-.429,17.454,2.57,20.8c3.815,4.249,10.241,4.225,15.567,4.23q5.423,0,10.844,0,18.527.007,37.057.007h44.1q17.577,0,35.154-.007l9.189,0a29.628,29.628,0,0,0,8.4-.945c4.376-1.29,7.419-4.275,8.069-8.8A13.186,13.186,0,0,0,166.7,3.449c-.7-.6-1.727.4-1.021,1C169.386,7.6,167.421,4.023,166.7,3.449Z" transform="translate(0.004 0.001)" fill="#1583d8"/>
        </g>
      </g>
      <g id="Progress_Bars_Size_Small_Line_-_Empty" data-name="Progress Bars / Size / Small / Line - Empty" transform="translate(1029.047 520.711) rotate(90)">
        <path id="Unfilled" d="M62.953.275c.619.14,1.186.824,1.1,2.061-.081,1.128-.791,1.308-1.318,1.3q-1.035-.024-2.07-.043-2.6-.047-5.208-.078Q48.8,3.428,42.14,3.4q-7.53-.041-15.061-.038-7.11,0-14.221.06c-3.6.033-7.193.073-10.79.183l-.97.033V2.884h.034v.753C.473,3.617-.143,2.991.027,1.685.162.644.739.287,1.284.269Q2.317.233,3.351.207q2.6-.066,5.2-.1C13,.047,17.45.021,21.9.009q7.527-.023,15.053.006,7.107.024,14.214.09c3.606.034,7.212.074,10.818.149.324.005.646.013.969.02.275.006.275.759,0,.753C59.678.951,56.4.911,53.125.876Q46.383.8,39.641.777,32.3.743,24.964.753,18.195.762,11.427.826C8.077.861,4.728.9,1.379,1.017a.9.9,0,0,0-.641.194,1.319,1.319,0,0,0-.3,1.12.658.658,0,0,0,.7.551c.275.008.275.745,0,.753H1.1c-.275.008-.275-.743,0-.753,3.279-.119,6.559-.161,9.838-.2q6.725-.075,13.451-.077,7.343-.013,14.686.02,6.771.028,13.543.1c3.34.035,6.681.074,10.021.149a1.164,1.164,0,0,0,.682-.1,1.079,1.079,0,0,0,.215-1.253.8.8,0,0,0-.581-.493C62.685.966,62.681.212,62.953.275Z" transform="translate(0 0)" fill="#1583d8"/>
      </g>
      <g id="Progress_Bars_Size_Small_Line_-_Empty-2" data-name="Progress Bars / Size / Small / Line - Empty" transform="translate(1020.047 520.711) rotate(90)">
        <path id="Unfilled-2" data-name="Unfilled" d="M37.291.191c.367.1.7.572.65,1.432-.048.783-.469.909-.78.9q-.613-.017-1.226-.03-1.542-.033-3.085-.054-3.944-.058-7.888-.078-4.46-.029-8.922-.026c-2.808,0-5.266.161-8.074.192-2.13.023-4.513.206-6.644.282-.192.007-.48-.29-.672-.282V2H.67v.806C.279,2.8-.086,2.077.015,1.17.1.447.437.2.76.186Q1.372.162,1.984.144,3.525.1,5.065.076C7.7.032,10.336.015,12.971.006q4.459-.016,8.917,0,4.21.017,8.42.063c2.136.024,4.272.051,6.408.1.192,0,.383.009.574.014C37.454.2,37.13.147,37.291.191Z" transform="translate(0 -8.617)" fill="#1583d8"/>
      </g>
      <g id="Drop_Downs_Base_Box_Action_1" data-name="Drop Downs / Base Box / Action 1" transform="translate(767.623 -581.994)">
        <path id="Base_Box" data-name="Base Box" d="M61.084,117.127c-20.048-.173-40.1-.319-60.148-.1A.967.967,0,0,1,0,116.052c0-6.191.059-12.38.128-18.571C.388,74.377.958,51.229,0,28.134a1,1,0,0,1,.064-.413c0-.392,0-.786,0-1.175q-.13-9.339,0-18.682C.093,5.572-.5,2.268,2.453,1.723a54.729,54.729,0,0,1,6.753-.5q3.255-.182,6.516-.28C23.966.682,32.218.687,40.469.693,45.6.7,50.726.7,55.853.641Q73.1.439,90.35.229C103.064.1,115.781-.015,128.5,0c5.334.006,10.669.034,16,.124q3.181.052,6.354.147c2.226.068,5.225-.112,5.668,2.756q.007.042.01.083a1.065,1.065,0,0,1,.022.169c.144,2.978.184,5.965.2,8.948q.023,5.214-.1,10.428c-.044,1.65-.1,3.3-.184,4.942q-.005.106-.009.216a1.059,1.059,0,0,1,.032.316c-.255,6.194-.386,12.4-.449,18.593-.23,23.112.442,46.217.449,69.326a.972.972,0,0,1-.935.976c-11.245.273-22.491.394-33.739.43q-3.621.011-7.242.011C96.743,117.466,78.912,117.281,61.084,117.127Zm-26.515-2.139c20.232.084,40.461.342,60.691.462,19.786.115,39.572.107,59.356-.356-.009-5.873-.062-11.743-.127-17.616-.243-21.686-.76-43.41-.031-65.092a8.39,8.39,0,0,1-2.623.235c-.276,0-.541-.008-.789,0q-3.422.07-6.849.134-7.318.139-14.634.268c-12.152.215-24.308.439-36.464.515-20.913.127-41.833.209-62.747.112-4.82-.025-9.6,0-14.419.28-4.284.247-8.895.505-13.057-.757a4.7,4.7,0,0,1-.831-.336c.147,4.629.23,9.26.277,13.892.23,22.78-.424,45.556-.449,68.339q10.489-.11,20.976-.1Q28.708,114.963,34.569,114.988ZM7.4,3.2c-1.213.074-2.432.144-3.642.262-1.188.118-1.718.137-1.777,1.412-.05,1.11-.047,2.226-.059,3.336q-.052,4.414-.047,8.826,0,4.5.05,9c.012,1.132-.006,2.276.062,3.407.078,1.282.642,1.721,1.833,2.042a22,22,0,0,0,3.822.614,82.473,82.473,0,0,0,11.465-.09c2.567-.138,5.133-.277,7.687-.256,3.691.031,7.382.037,11.074.043q30.089.043,60.178-.168c13.515-.106,27.03-.392,40.545-.642l7.473-.141q1.557-.028,3.115-.059c.391-.008.809.007,1.233.022a10.989,10.989,0,0,0,2.5-.1c.829-.172,1.4-.421,1.571-1.309a7.345,7.345,0,0,0,.062-.948c.035-.586.063-1.172.091-1.758.065-1.491.112-2.98.15-4.471.152-6.283.2-12.593-.1-18.873-.335-1.374-1.936-1.147-3.09-1.186-.942-.031-1.88-.056-2.821-.081-22.448-.568-44.932-.15-67.389.118-10.235.118-20.474.262-30.709.368-4.365.045-8.733.036-13.1.027q-2.666-.005-5.333-.007C23.954,2.593,15.667,2.673,7.4,3.2Z" transform="translate(114 1057)" fill="#1583d8"/>
        <g id="Icon_-_Arrow_Down" data-name="Icon - Arrow Down" transform="translate(247.374 1070.618)" clip-path="url(#clip-path-15)">
          <path id="Arrow_Down" data-name="Arrow Down" d="M472.742,46.361q1.878,1.942,3.675,3.961c-.079-.295-.155-.593-.234-.888-.006.021-.009.046-.015.067a.919.919,0,0,0,1.523.888,53.99,53.99,0,0,0,3.471-4.313c.757-.891-.529-2.185-1.289-1.289A52.789,52.789,0,0,1,476.4,49.1c.508.295,1.015.593,1.523.888.195-.839-.614-1.4-1.122-1.957q-1.363-1.5-2.772-2.954c-.818-.848-2.106.441-1.289,1.286Z" transform="translate(-472.48 -44.484)" fill="#1583d8"/>
        </g>
        <text id="List_1" data-name="List 1" transform="translate(132.772 1117.344)" fill="#1583d8" font-size="15" font-family="TektonPro-Bold, Tekton Pro" font-weight="700"><tspan x="0" y="0">List 1</tspan></text>
        <text id="SAVE" transform="translate(173.877 1221.344)" fill="#fff" font-size="15" font-family="TektonPro-Bold, Tekton Pro" font-weight="700"><tspan x="0" y="0">SAVE</tspan></text>
        <text id="List_2" data-name="List 2" transform="translate(132.772 1138.677)" fill="#fff" font-size="15" font-family="TektonPro-Bold, Tekton Pro" font-weight="700"><tspan x="0" y="0">List 2</tspan></text>
        <text id="List_3" data-name="List 3" transform="translate(132.772 1160.009)" fill="#1583d8" font-size="15" font-family="TektonPro-Bold, Tekton Pro" font-weight="700"><tspan x="0" y="0">List 3</tspan></text>
        <text id="My_questions" data-name="My questions" transform="translate(182.239 1079.282)" fill="#1583d8" font-size="15" font-family="TektonPro-Bold, Tekton Pro" font-weight="700"><tspan x="-41.49" y="0">My questions</tspan></text>
      </g>
      <g id="Mobile_wireframe-3" data-name="Mobile wireframe" transform="translate(681.76 133.811)">
        <g id="Phone_border_screen-3" data-name="Phone border screen" transform="translate(527 57)" fill="none">
          <path d="M50,0S152.478.229,172.073,0,294,0,294,0a50,50,0,0,1,50,50s.316,175.806,0,221.033,1.418,168.9,0,191.491S344,648,344,648a50,50,0,0,1-50,50s-92.248-1.079-117.546,0S50,698,50,698A50,50,0,0,1,0,648S-.085,538.786-.085,423.6c0-.615.085-243.281.085-243.281V50A50,50,0,0,1,50,0Z" stroke="none"/>
          <path d="M 212.3923797607422 1.89825439453125 C 191.4261932373047 1.89825439453125 177.86865234375 1.93243408203125 172.0962982177734 1.9998779296875 C 166.3073883056641 2.0673828125 152.7213745117188 2.1016845703125 131.7156524658203 2.1016845703125 C 95.95838928222656 2.1016845703125 50.45101928710938 2.0009765625 50.00003051757813 1.99993896484375 C 43.51919555664063 1.99993896484375 37.2332763671875 3.268798828125 31.31683349609375 5.771240234375 C 25.60128784179688 8.18865966796875 20.46774291992188 11.64996337890625 16.058837890625 16.058837890625 C 11.6500244140625 20.4677734375 8.188751220703125 25.60125732421875 5.77130126953125 31.31689453125 C 3.268829345703125 37.23321533203125 2.000030517578125 43.5191650390625 2.000030517578125 49.99993896484375 L 2.000030517578125 180.321533203125 C 1.99920654296875 182.7481689453125 1.91455078125 422.994140625 1.91455078125 423.601318359375 C 1.91455078125 537.4681396484375 1.99920654296875 646.90625 2.000030517578125 647.9999389648438 C 2.000030517578125 654.4807739257813 3.268829345703125 660.7667846679688 5.77130126953125 666.6831665039063 C 8.188751220703125 672.398681640625 11.6500244140625 677.5322265625 16.058837890625 681.941162109375 C 20.46774291992188 686.3499755859375 25.60128784179688 689.8112182617188 31.31683349609375 692.2286987304688 C 37.23318481445313 694.7311401367188 43.51919555664063 695.9999389648438 50.00003051757813 695.9999389648438 L 50.01065063476563 695.9999389648438 L 50.02139282226563 696.0000610351563 C 50.4708251953125 696.0048828125 95.39692687988281 696.4794311523438 132.4258422851563 696.4794311523438 C 154.1511077880859 696.4794311523438 168.9356536865234 696.3186645507813 176.36865234375 696.0017700195313 C 183.8576507568359 695.6824340820313 197.9224700927734 695.5205078125 218.1724700927734 695.5205078125 C 252.3585815429688 695.5205078125 293.0079956054688 695.9883422851563 294.0076293945313 695.9999389648438 C 300.4859313964844 695.9990234375 306.7689208984375 694.730224609375 312.68310546875 692.2286987304688 C 318.3987426757813 689.8112182617188 323.5321960449219 686.3499755859375 327.9411010742188 681.941162109375 C 332.3500061035156 677.5322265625 335.811279296875 672.398681640625 338.228759765625 666.6831665039063 C 340.7302856445313 660.7688598632813 341.9990844726563 654.4850463867188 342.0000305175781 648.0067138671875 C 341.9407348632813 641.1922607421875 340.59814453125 484.7958984375 342.0039367675781 462.3987731933594 C 342.8754577636719 448.5121459960938 342.541015625 394.740966796875 342.2459411621094 347.2995910644531 C 342.0572814941406 316.9717712402344 341.8791198730469 288.3258666992188 342.0001220703125 271.0186767578125 C 342.3125610351563 226.3183288574219 342.0032043457031 51.761474609375 342.0000305175781 49.99993896484375 C 342.0000305175781 43.5191650390625 340.731201171875 37.23321533203125 338.228759765625 31.31689453125 C 335.811279296875 25.60125732421875 332.3500061035156 20.4677734375 327.9411010742188 16.058837890625 C 323.5321960449219 11.64996337890625 318.3987426757813 8.18865966796875 312.68310546875 5.771240234375 C 306.7667541503906 3.268798828125 300.4808349609375 1.99993896484375 293.9955749511719 1.99993896484375 C 293.5407409667969 1.99896240234375 248.1041107177734 1.89825439453125 212.3923797607422 1.89825439453125 M 212.3923797607422 -0.10174560546875 C 248.5194549560547 -0.10174560546875 294.0000305175781 -6.103515625e-05 294.0000305175781 -6.103515625e-05 C 321.6141967773438 -6.103515625e-05 344.0000305175781 22.38580322265625 344.0000305175781 49.99993896484375 C 344.0000305175781 49.99993896484375 344.3161926269531 225.8064270019531 344.0000305175781 271.0326843261719 C 343.683837890625 316.259033203125 345.418212890625 439.92822265625 344.0000305175781 462.5240478515625 C 342.5817565917969 485.119873046875 344.0000305175781 647.9999389648438 344.0000305175781 647.9999389648438 C 344.0000305175781 675.6142578125 321.6141967773438 697.9999389648438 294.0000305175781 697.9999389648438 C 294.0000305175781 697.9999389648438 252.9996185302734 697.5205078125 218.1724853515625 697.5205078125 C 200.7557373046875 697.5205078125 184.8876495361328 697.6403198242188 176.4538421630859 697.9999389648438 C 168.0215606689453 698.3594970703125 151.1583251953125 698.4793701171875 132.4257965087891 698.4793701171875 C 94.95730590820313 698.4793701171875 50.00003051757813 697.9999389648438 50.00003051757813 697.9999389648438 C 22.3857421875 697.9999389648438 3.0517578125e-05 675.6142578125 3.0517578125e-05 647.9999389648438 C 3.0517578125e-05 647.9999389648438 -0.08544921875 538.7861328125 -0.08544921875 423.601318359375 C -0.08544921875 422.9867858886719 3.0517578125e-05 180.32080078125 3.0517578125e-05 180.32080078125 L 3.0517578125e-05 49.99993896484375 C 3.0517578125e-05 22.38580322265625 22.3857421875 -6.103515625e-05 50.00003051757813 -6.103515625e-05 C 50.00003051757813 -6.103515625e-05 95.54698181152344 0.10162353515625 131.7156677246094 0.10162353515625 C 149.8033294677734 0.10162353515625 165.5405883789063 0.07623291015625 172.0729217529297 -6.103515625e-05 C 178.6040802001953 -0.0762939453125 194.3304901123047 -0.10174560546875 212.3923797607422 -0.10174560546875 Z" stroke="none" fill="#1583d8"/>
        </g>
        <g id="Phone_screen-3" data-name="Phone screen" transform="translate(2662 617)" fill="#fff" opacity="0.6">
          <path d="M -1843.000244140625 116.9998779296875 L -2082.999755859375 116.9998779296875 C -2087.18505859375 116.9998779296875 -2091.244873046875 116.1803741455078 -2095.06640625 114.5641250610352 C -2098.757568359375 113.0027923583984 -2102.072998046875 110.7673797607422 -2104.919921875 107.9201278686523 C -2107.76708984375 105.0732955932617 -2110.002685546875 101.7580413818359 -2111.564453125 98.06629180908203 C -2113.180419921875 94.24471282958984 -2114 90.18512725830078 -2114 86.00038146972656 L -2114 -58.67995452880859 L -2114 -393.1208801269531 L -2114 -506.9996948242188 C -2114 -511.1846923828125 -2113.180419921875 -515.2444458007813 -2111.564453125 -519.0662231445313 C -2110.002685546875 -522.7578735351563 -2107.76708984375 -526.0733032226563 -2104.920166015625 -528.9202270507813 C -2102.07275390625 -531.7676391601563 -2098.75732421875 -534.0030517578125 -2095.066162109375 -535.5643920898438 C -2091.244873046875 -537.1806030273438 -2087.18505859375 -538.0001220703125 -2082.999755859375 -538.0001220703125 L -2047.961547851563 -538.0001220703125 C -2047.986938476563 -537.6674194335938 -2047.999633789063 -537.33349609375 -2047.999633789063 -537.0003051757813 L -2047.999633789063 -525.9996337890625 C -2047.999633789063 -522.5275268554688 -2046.647583007813 -519.2631225585938 -2044.192504882813 -516.8076782226563 C -2041.737060546875 -514.3522338867188 -2038.472412109375 -512.9999389648438 -2035 -512.9999389648438 L -1890 -512.9999389648438 C -1886.527587890625 -512.9999389648438 -1883.262939453125 -514.3522338867188 -1880.8076171875 -516.8076782226563 C -1878.352416992188 -519.2631225585938 -1877.000366210938 -522.5275268554688 -1877.000366210938 -525.9996337890625 L -1877.000366210938 -537.0003051757813 C -1877.000366210938 -537.3336791992188 -1877.013061523438 -537.6676025390625 -1877.038452148438 -538.0001220703125 L -1843.000244140625 -538.0001220703125 C -1838.814697265625 -538.0001220703125 -1834.7548828125 -537.1806030273438 -1830.933715820313 -535.5643920898438 C -1827.242431640625 -534.0030517578125 -1823.927001953125 -531.7677001953125 -1821.079711914063 -528.9202880859375 C -1818.232299804688 -526.0729370117188 -1815.996948242188 -522.757568359375 -1814.435546875 -519.0661010742188 C -1812.8193359375 -515.2448120117188 -1811.999877929688 -511.1850280761719 -1811.999877929688 -506.9996948242188 L -1811.999877929688 86.00038146972656 C -1811.999877929688 90.18546295166016 -1812.8193359375 94.24504089355469 -1814.435546875 98.06637573242188 C -1815.996948242188 101.7576293945313 -1818.232299804688 105.0728759765625 -1821.079711914063 107.9200439453125 C -1823.926635742188 110.7672958374023 -1827.242065429688 113.0026245117188 -1830.933715820313 114.5641250610352 C -1834.7548828125 116.1803741455078 -1838.814697265625 116.9998779296875 -1843.000244140625 116.9998779296875 Z" stroke="none"/>
          <path d="M -1843.000244140625 115.9998779296875 C -1838.94921875 115.9998779296875 -1835.020629882813 115.2069625854492 -1831.3232421875 113.6431274414063 C -1827.750854492188 112.1320419311523 -1824.542358398438 109.9687118530273 -1821.786743164063 107.2129592895508 C -1819.030883789063 104.4572982788086 -1816.867553710938 101.2488784790039 -1815.3564453125 97.67679595947266 C -1813.792724609375 93.97946166992188 -1812.999877929688 90.05088043212891 -1812.999877929688 86.00038146972656 L -1812.999877929688 -506.9996948242188 C -1812.999877929688 -511.0504455566406 -1813.792724609375 -514.9791870117188 -1815.3564453125 -518.676513671875 C -1816.867553710938 -522.248779296875 -1819.030883789063 -525.4573974609375 -1821.786865234375 -528.2131958007813 C -1824.542602539063 -530.9690551757813 -1827.751220703125 -533.1324462890625 -1831.3232421875 -534.6433715820313 C -1835.020629882813 -536.2072143554688 -1838.94921875 -537.0001220703125 -1843.000244140625 -537.0001220703125 L -1876.000366210938 -537.0003051757813 L -1876.000366210938 -525.9996337890625 C -1876.000366210938 -522.2604370117188 -1877.456420898438 -518.744873046875 -1880.100463867188 -516.1005249023438 C -1882.744750976563 -513.456298828125 -1886.260498046875 -511.9999694824219 -1890 -511.9999694824219 L -2035 -511.9999694824219 C -2038.739501953125 -511.9999694824219 -2042.255249023438 -513.456298828125 -2044.899536132813 -516.1006469726563 C -2047.543579101563 -518.744873046875 -2048.999755859375 -522.2604370117188 -2048.999755859375 -525.9996337890625 L -2048.999755859375 -537.0001220703125 L -2082.999755859375 -537.0001220703125 C -2087.050537109375 -537.0001220703125 -2090.979248046875 -536.2072143554688 -2094.6767578125 -534.6433715820313 C -2098.248779296875 -533.1324462890625 -2101.457275390625 -530.9689331054688 -2104.212890625 -528.213134765625 C -2106.968505859375 -525.4577026367188 -2109.132080078125 -522.2491455078125 -2110.643310546875 -518.6766967773438 C -2112.20703125 -514.9788818359375 -2113 -511.0501098632813 -2113 -506.9996948242188 L -2113 -393.1208801269531 L -2113 -58.67995452880859 L -2113 86.00038146972656 C -2113 90.05054473876953 -2112.20703125 93.9791259765625 -2110.643310546875 97.67662811279297 C -2109.132080078125 101.2492141723633 -2106.968505859375 104.4577102661133 -2104.212890625 107.2130432128906 C -2101.457275390625 109.9687957763672 -2098.248779296875 112.132209777832 -2094.6767578125 113.6431274414063 C -2090.979248046875 115.2069625854492 -2087.050537109375 115.9998779296875 -2082.999755859375 115.9998779296875 L -1843.000244140625 115.9998779296875 M -1843.000244140625 117.9998779296875 L -2082.999755859375 117.9998779296875 C -2087.319580078125 117.9998779296875 -2091.510498046875 117.1537933349609 -2095.455810546875 115.4851303100586 C -2099.266357421875 113.8733749389648 -2102.6884765625 111.566047668457 -2105.627197265625 108.6272125244141 C -2108.56591796875 105.6887969970703 -2110.873291015625 102.2666244506836 -2112.4853515625 98.45587921142578 C -2114.15380859375 94.51054382324219 -2115 90.31996154785156 -2115 86.00038146972656 L -2115 -58.67995452880859 L -2115 -393.1208801269531 L -2115 -506.9996948242188 C -2115 -511.3195495605469 -2114.15380859375 -515.5103149414063 -2112.4853515625 -519.4556884765625 C -2110.873291015625 -523.2665405273438 -2108.56591796875 -526.6887817382813 -2105.627197265625 -529.6273803710938 C -2102.688232421875 -532.5662841796875 -2099.26611328125 -534.8735961914063 -2095.455810546875 -536.4853515625 C -2091.510498046875 -538.154052734375 -2087.319580078125 -539.0001220703125 -2082.999755859375 -539.0001220703125 L -2046.833740234375 -539.0001220703125 C -2046.943359375 -538.3458862304688 -2046.999633789063 -537.6732788085938 -2046.999633789063 -537.0003051757813 L -2046.999633789063 -525.9996337890625 C -2046.999633789063 -522.7945556640625 -2045.75146484375 -519.7811889648438 -2043.4853515625 -517.5147705078125 C -2041.21875 -515.2482299804688 -2038.205322265625 -513.9999389648438 -2035 -513.9999389648438 L -1890 -513.9999389648438 C -1886.794677734375 -513.9999389648438 -1883.78125 -515.2482299804688 -1881.5146484375 -517.5147705078125 C -1879.24853515625 -519.7811889648438 -1878.000366210938 -522.7945556640625 -1878.000366210938 -525.9996337890625 L -1878.000366210938 -537.0003051757813 C -1878.000366210938 -537.6710205078125 -1878.05615234375 -538.3438720703125 -1878.166259765625 -539.0001220703125 L -1843.000244140625 -539.0001220703125 C -1838.68017578125 -539.0001220703125 -1834.489379882813 -538.154052734375 -1830.544189453125 -536.4853515625 C -1826.733764648438 -534.8737182617188 -1823.3115234375 -532.5663452148438 -1820.37255859375 -529.6273803710938 C -1817.433715820313 -526.6885986328125 -1815.126342773438 -523.266357421875 -1813.514526367188 -519.4556884765625 C -1811.845947265625 -515.5104370117188 -1810.999877929688 -511.3197021484375 -1810.999877929688 -506.9996948242188 L -1810.999877929688 86.00038146972656 C -1810.999877929688 90.32012939453125 -1811.845947265625 94.51071166992188 -1813.514526367188 98.45587921142578 C -1815.126342773438 102.2663803100586 -1817.433715820313 105.6885452270508 -1820.37255859375 108.6272125244141 C -1823.311279296875 111.566047668457 -1826.733642578125 113.8733749389648 -1830.544189453125 115.4851303100586 C -1834.489379882813 117.1537933349609 -1838.68017578125 117.9998779296875 -1843.000244140625 117.9998779296875 Z" stroke="none" fill="#1583d8"/>
        </g>
        <g id="Header_icon-3" data-name="Header icon" transform="translate(-4896 -2128)">
          <path id="Line-5" data-name="Line" d="M1.47,75.29c.415.23,16.24.3,24.779.058,7.515-.212,15.03-.818,22.563-.882.454,0,3.09,0,3.561,0,.525.132,1.292-.592,1.293-1.211s-1.024-1.127-1.935-1.083c-7.412-.046-14.717.324-22.176.376-7.977.327-25.064.07-25.064.07l-3.1-.184S.132,72.578.1,73.743,1.055,75.06,1.47,75.29Z" transform="translate(5568.247 2141.488)" fill="#1583d8"/>
          <circle id="Ellipse_335-3" data-name="Ellipse 335" cx="3.5" cy="3.5" r="3.5" transform="translate(5626 2211)" fill="#1583d8"/>
        </g>
        <path id="Line-6" data-name="Line" d="M2.6,75.378c1.069.236,41.843.308,63.843.06,19.363-.218,38.725-.841,58.134-.907,1.169,0,7.961,0,9.175,0,1.352.136,1.133-.818,1.135-1.454s-.443-.95-2.788-.9c-19.1-.047-37.919.333-57.138.387-20.552.336-64.578.072-64.578.072l-7.987-.189S.833,72.6.758,73.8,1.53,75.141,2.6,75.378Z" transform="translate(630.747 641.488)" fill="#1583d8" stroke="#1583d8" stroke-width="1"/>
        <g id="status_bar_light-3" data-name="status bar/light" transform="translate(470 5)">
          <g id="Battery-3" data-name="Battery" transform="translate(13 80)">
            <g id="Border-3" data-name="Border" clip-path="url(#clip-path)">
              <path id="Fill-11" data-name="Fill" d="M2.667,0H19.333A2.667,2.667,0,0,1,22,2.667v6h0a2.667,2.667,0,0,1-2.667,2.667H2.667A2.667,2.667,0,0,1,0,8.667v-6H0A2.667,2.667,0,0,1,2.667,0Z" transform="translate(336 17.333)" fill="none" stroke="rgba(21,131,216,0.5)" stroke-width="2"/>
            </g>
            <g id="Cap-3" data-name="Cap" clip-path="url(#clip-path-2)">
              <path id="Fill-12" data-name="Fill" d="M354-28h11.328v14H354Z" transform="translate(0 44)" fill="#1583d8"/>
            </g>
            <g id="Capacity-3" data-name="Capacity" clip-path="url(#clip-path-3)">
              <path id="Fill-13" data-name="Fill" d="M333-29.667h28v17.333H333Z" transform="translate(0 44)" fill="#1583d8"/>
            </g>
          </g>
          <g id="Wifi-5" data-name="Wifi" transform="translate(13 80)">
            <g id="Wifi-6" data-name="Wifi" clip-path="url(#clip-path-4)">
              <path id="Fill-14" data-name="Fill" d="M310.694-31.669h25.272V-10.7H310.694Z" transform="translate(0 44)" fill="#1583d8"/>
            </g>
          </g>
          <g id="Cellular_Connection-5" data-name="Cellular Connection" transform="translate(13 80)">
            <g id="Cellular_Connection-6" data-name="Cellular Connection" clip-path="url(#clip-path-5)">
              <path id="Fill-15" data-name="Fill" d="M288.667-31.333h27v20.667h-27Z" transform="translate(0 44)" fill="#1583d8"/>
            </g>
          </g>
          <g id="Bars___Time_Black-3" data-name="Bars/_/Time Black" transform="translate(62 80)">
            <path id="Background-3" data-name="Background" d="M21-19H75V-35H21Z" transform="translate(8 50)" fill="none"/>
            <text id="_10:20-3" data-name="10:20" transform="translate(33 29)" fill="#1583d8" font-size="14" font-family="TektonPro-Bold, Tekton Pro" font-weight="700"><tspan x="0" y="0">10:20</tspan></text>
          </g>
        </g>
      </g>
      <g id="Button_-_Circle_-_Arrow_Left_1-3" data-name="Button - Circle - Arrow Left 1" transform="translate(1249.5 276)" clip-path="url(#clip-path-6)">
        <path id="Oval-3" data-name="Oval" d="M1.614,13.219C2.709,5.343,10.414.8,17.841,1.768c6.872.895,9.262,8.01,9.347,14.244.131,9.645-11.633,12.451-18.829,9.317-4.971-2.163-7.337-6.918-6.716-12.32C1.758,12,.217,12.014.1,13.009c-.617,5.352,1.536,10.383,6.215,13.044a17.47,17.47,0,0,0,14.117,1.163c4.475-1.577,7.928-5.22,8.27-10.189C29.143,10.66,26.63,2.689,20.1.655,11.6-1.99,1.4,3.621.129,12.8-.009,13.791,1.476,14.219,1.614,13.219Z" transform="translate(0.002 0.001)" fill="#1583d8"/>
        <g id="Icon_-_Arrow_Left_1-3" data-name="Icon - Arrow Left 1" transform="translate(10.932 8.716)" clip-path="url(#clip-path-7)">
          <path id="Arrow_Left_1-3" data-name="Arrow Left 1" d="M.3,2.146q2.148,2.22,4.2,4.528c-.09-.337-.177-.678-.268-1.015-.007.024-.01.052-.017.076A1.05,1.05,0,0,0,5.954,6.75,61.71,61.71,0,0,0,9.923,1.82C10.788.8,9.318-.679,8.449.346A60.336,60.336,0,0,1,4.481,5.277c.58.337,1.161.678,1.741,1.015.222-.959-.7-1.6-1.282-2.238Q3.381,2.339,1.77.676c-.931-.97-2.4.5-1.473,1.47Z" transform="translate(7.047 0) rotate(90)" fill="#1583d8"/>
        </g>
      </g>
      <g id="Button_-_Circle_-_Arrow_Left_1-4" data-name="Button - Circle - Arrow Left 1" transform="translate(1351.272 549.371) rotate(-90)">
        <path id="Oval-4" data-name="Oval" d="M3.408,27.886C5.716,11.271,21.969,1.694,37.636,3.731c14.5,1.888,19.537,16.9,19.715,30.045C57.628,54.122,32.813,60.04,17.634,53.43,7.147,48.868,2.156,38.836,3.467,27.443c.244-2.12-3.008-2.1-3.252,0-1.3,11.288,3.241,21.9,13.109,27.515A36.851,36.851,0,0,0,43.1,57.41c9.44-3.327,16.724-11.012,17.445-21.492C61.476,22.488,56.176,5.674,42.4,1.383,24.473-4.2,2.963,7.639.275,27-.017,29.092,3.115,29.995,3.408,27.886Z" transform="translate(0.002 0.001)" fill="#1583d8"/>
        <g id="Icon_-_Arrow_Left_1-4" data-name="Icon - Arrow Left 1" transform="translate(14.997 14.135)">
          <path id="Arrow_Left_1-4" data-name="Arrow Left 1" d="M.734,5.5q5.31,5.687,10.388,11.6c-.223-.863-.438-1.735-.662-2.6-.017.062-.026.133-.043.2a2.608,2.608,0,0,0,4.3,2.6C18.511,13.532,28.5-.521,31.883-4.642c2.139-2.607-1.5-6.4-3.643-3.773-3.377,4.12-13.371,18.183-17.16,21.929,1.435.863,2.87,1.735,4.3,2.6.55-2.456-1.736-4.1-3.171-5.731Q8.36,5.99,4.377,1.732C2.075-.751-1.568,3.022.734,5.5Z" transform="translate(18.047 0) rotate(90)" fill="#1583d8"/>
        </g>
      </g>
      <text id="The_question_has_successfully_saved_to_your_list" data-name="The question has 
successfully saved 
to your list" transform="translate(1381 577)" fill="#1583d8" font-size="15" font-family="TektonPro-Bold, Tekton Pro" font-weight="700"><tspan x="-52.62" y="0">The question has </tspan><tspan x="-58.635" y="21">successfully saved </tspan><tspan x="-33.847" y="42">to your list</tspan></text>
      <text id="_33_60-3" data-name="33/60" transform="translate(1500.5 829)" fill="#1583d8" font-size="9" font-family="TektonPro-Bold, Tekton Pro" font-weight="700"><tspan x="-13.329" y="0">33/60</tspan></text>
      <path id="Icon_-_Heart-3" data-name="Icon - Heart" d="M9.287,18.963c3.2,2.409,5.922-.682,8.144-2.828,2.413-2.33,5.713-5.078,6.189-8.616.353-2.633-1.583-6.4-4.234-7.235-3.578-1.129-6.12,1.291-8.331,3.74h1.529C10.726,1.968,8.915.017,5.98.057,3.257.093,1.608,1.975.534,4.334-.649,6.924.3,9.5,1.951,11.634a56.1,56.1,0,0,0,7.119,7.159c1.031.931,2.568-.6,1.529-1.529C9,15.825,7.433,14.343,5.926,12.806S2.427,9.47,2.178,7.227c-.224-1.987,1.432-4.833,3.563-5,2.352-.184,3.87,1.731,5.313,3.329a1.088,1.088,0,0,0,1.529,0c1.5-1.659,3.087-3.643,5.551-3.322,2.647.346,3.874,4.213,2.925,6.333s-2.846,3.765-4.461,5.356c-1.547,1.522-3.91,4.916-6.221,3.17C9.265,16.254,8.187,18.133,9.287,18.963Z" transform="translate(1489.495 280.176)" fill="#1583d8"/>
      <g id="Progress_Bars_Size_Small_Solid_-_Half-3" data-name="Progress Bars / Size / Small / Solid - Half" transform="translate(1246.873 832)">
        <path id="Half-3" data-name="Half" d="M91.712,10.988q-27.943-.058-55.887-.3-10.892-.108-21.781-.3-4.331-.079-8.656-.186C3.1,10.145.689,9.066.12,5.912-.563,2.118,1.783.22,4.415.02A.785.785,0,0,1,4.61,0C5.966.034,7.319.069,8.675.1,23.734.434,38.8.555,53.858.654Q83.63.848,113.4.836q31.537.012,63.071-.113Q204.353.613,232.228.38q10.906-.1,21.809-.235,4.33-.057,8.665-.13c2.205-.038,5.179.51,5.518,3.925a5.377,5.377,0,0,1-4.332,6.193.782.782,0,0,1-.263.049.736.736,0,0,1-.231,0q-1.913.032-3.827.057c-15.1.228-30.2.35-45.3.453q-29.758.205-59.519.273-18.119.046-36.238.047Q105.11,11.016,91.712,10.988Zm47.094-2.26q13.6-.02,27.2-.066,28.233-.09,56.465-.3c13.711-.106,27.421-.229,41.131-.459l.022,0a3.3,3.3,0,0,0,2.434-1.493,2.666,2.666,0,0,0-.9-3.8A6.59,6.59,0,0,0,262.3,2.3c-13.989.229-27.976.347-41.966.453q-28.351.216-56.707.292-12.413.036-24.823.055Z" transform="translate(-0.002 -0.001)" fill="#1583d8" stroke="#1583d8" stroke-miterlimit="10" stroke-width="0.5"/>
      </g>
      <g id="Heart_Solid-2" data-name="Heart Solid" transform="translate(1489.5 280.172)">
        <path id="Icon_-_Heart_Solid-2" data-name="Icon - Heart Solid" d="M-1694.713-4073.037c-.023-.018-.045-.035-.067-.054a1.253,1.253,0,0,1-.149-.116,56.1,56.1,0,0,1-7.12-7.159c-1.652-2.139-2.6-4.709-1.417-7.3,1.074-2.359,2.723-4.242,5.445-4.278,2.536-.034,4.232,1.417,5.844,3.137,2.034-2.124,4.392-3.91,7.562-2.91,2.651.837,4.587,4.6,4.234,7.236-.477,3.537-3.776,6.286-6.189,8.616-1.649,1.592-3.575,3.705-5.765,3.7A3.9,3.9,0,0,1-1694.713-4073.037Z" transform="translate(1703.994 4092.002)" fill="#1583d8"/>
      </g>
      <g id="Media_Text_Image-2" data-name="Media / Text Image" transform="translate(1040.502 440)">
        <path id="Path_972-2" data-name="Path 972" d="M103.991.071Q78.629.739,53.266,1.418l-19.755.517q-6.539.167-13.086.344c-2.909.081-5.827.152-8.736.233-2.372.071-6.319,1.033-8.548.03-.859-.385-1.665.577-1.7,1.469C-1.441,76.543,1.038,149.157.17,221.729a1.463,1.463,0,0,0,1.343,1.519c21.625,1.043,43.277,1.8,64.921,2.137,34.989.537,69.978-1.388,104.976-1.367,9.085,0,18.161.041,27.246.213A1.456,1.456,0,0,0,200,222.712c-1.548-73.251.349-146.523-1.19-219.764a1.469,1.469,0,0,0-1.343-1.519C172.044.891,146.624.375,121.195.1c-5.737-.061-11.475-.172-17.2-.03-1.728.041-1.728,3.079,0,3.039,27.7-.679,55.522.577,83.225,1.134l10.249.213-1.343-1.519c1.549,73.251-.349,146.523,1.19,219.764l1.343-1.519c-25.429-.506-50.886-.253-76.306.3-31.7.7-63.211.942-94.915-.223q-12.97-.471-25.922-1.074l1.343,1.519c.868-72.563-1.611-145.166,1.271-217.7C3.562,4.5,3,4.983,2.426,5.47c1.772.8,4.162.223,6.042.172L17.651,5.4l13.722-.365q10.553-.273,21.106-.557L103.991,3.11C105.71,3.059,105.719.02,103.991.071Z" transform="translate(241 0)" fill="#1583d8"/>
      </g>
      <path id="Path_1125" data-name="Path 1125" d="M4111.232,13503.929c16.395,63.564-13.17,121.216-13.17,121.216" transform="translate(-446.632 -13672.094) rotate(9)" fill="none" stroke="#707070" stroke-width="1"/>
      <g id="Polygon_10" data-name="Polygon 10" transform="translate(1471.182 442.41) rotate(-138)" fill="#fff">
        <path d="M 22.65117835998535 12.49999904632568 L 2.348819017410278 12.49999904632568 C 2.04210901260376 12.49999904632568 1.919159054756165 12.26720905303955 1.888779044151306 12.1958589553833 C 1.85840904712677 12.12450885772705 1.775819063186646 11.87453937530518 1.988409042358398 11.65343856811523 L 12.13958930969238 1.096218943595886 C 12.23472881317139 0.9972689747810364 12.3627290725708 0.9427789449691772 12.49999904632568 0.9427789449691772 C 12.63726902008057 0.9427789449691772 12.76526927947998 0.9972689747810364 12.86040878295898 1.096218943595886 L 23.01158905029297 11.65343856811523 C 23.22417831420898 11.87453937530518 23.14158821105957 12.12450885772705 23.11121940612793 12.1958589553833 C 23.08083915710449 12.26720905303955 22.95788955688477 12.49999904632568 22.65117835998535 12.49999904632568 Z" stroke="none"/>
        <path d="M 12.49999904632568 1.442778587341309 L 2.348823547363281 11.9999942779541 C 2.348823547363281 11.99999618530273 2.348825454711914 11.99999713897705 2.348819732666016 11.99999904632568 L 22.65117263793945 11.99999904632568 C 22.65117263793945 11.99999713897705 22.65117454528809 11.99999618530273 22.65117835998535 11.99999904632568 L 12.50108909606934 1.442878723144531 C 12.50097942352295 1.442849159240723 12.50056934356689 1.442778587341309 12.49999904632568 1.442778587341309 M 12.49999904632568 0.4427766799926758 C 12.76205158233643 0.4427766799926758 13.02410411834717 0.5450735092163086 13.22082901000977 0.749669075012207 L 23.37200927734375 11.30688858032227 C 23.98296928405762 11.94228935241699 23.53265953063965 12.99999904632568 22.65117835998535 12.99999904632568 L 2.348819732666016 12.99999904632568 C 1.467338562011719 12.99999904632568 1.01702880859375 11.94228935241699 1.627988815307617 11.30688858032227 L 11.7791690826416 0.749669075012207 C 11.9758939743042 0.5450735092163086 12.23794651031494 0.4427766799926758 12.49999904632568 0.4427766799926758 Z" stroke="none" fill="#707070"/>
      </g>
    </g>
  </g>
</svg>
