<svg xmlns="http://www.w3.org/2000/svg" xmlns:xlink="http://www.w3.org/1999/xlink" width="793" height="394" viewBox="0 0 793 394">
  <defs>
    <clipPath id="clip-path">
      <path id="Shape" d="M337.248-26.667h7.8a1.245,1.245,0,0,1,1.248,1.241v2.793h0a1.245,1.245,0,0,1-1.248,1.241h-7.8A1.245,1.245,0,0,1,336-22.632v-2.793h0A1.245,1.245,0,0,1,337.248-26.667Z" transform="translate(-336 26.667)" fill="none" clip-rule="evenodd"/>
    </clipPath>
    <clipPath id="clip-path-2">
      <path id="Shape-2" data-name="Shape" d="M359-23v1.862a1.01,1.01,0,0,0,.622-.931A1.01,1.01,0,0,0,359-23" transform="translate(-359 23)" fill="#1583d8"/>
    </clipPath>
    <clipPath id="clip-path-3">
      <path id="Shape-3" data-name="Shape" d="M338.624-24.667H345.8a.622.622,0,0,1,.624.621v2.173h0a.622.622,0,0,1-.624.621h-7.177a.622.622,0,0,1-.624-.621v-2.173h0A.622.622,0,0,1,338.624-24.667Z" transform="translate(-338 24.667)" fill="#1583d8"/>
    </clipPath>
    <clipPath id="clip-path-4">
      <path id="Shape-4" data-name="Shape" d="M319.268-25.609a4.056,4.056,0,0,1,2.786,1.107.145.145,0,0,0,.2,0l.541-.543a.149.149,0,0,0,.044-.106.149.149,0,0,0-.045-.106,5.121,5.121,0,0,0-7.059,0,.149.149,0,0,0-.045.106.149.149,0,0,0,.044.106l.541.543a.145.145,0,0,0,.2,0,4.056,4.056,0,0,1,2.787-1.107Zm0,1.767a2.3,2.3,0,0,1,1.542.591.146.146,0,0,0,.2,0l.54-.543a.15.15,0,0,0,.044-.107.15.15,0,0,0-.046-.106,3.364,3.364,0,0,0-4.565,0,.15.15,0,0,0-.046.106.15.15,0,0,0,.044.107l.54.543a.146.146,0,0,0,.2,0,2.3,2.3,0,0,1,1.541-.591Zm1.039,1.3a.146.146,0,0,0,.044-.107.146.146,0,0,0-.048-.105,1.608,1.608,0,0,0-2.069,0,.146.146,0,0,0-.048.105.146.146,0,0,0,.044.107l.935.938a.146.146,0,0,0,.1.043.146.146,0,0,0,.1-.043Z" transform="translate(-315.694 26.669)" fill="#1583d8"/>
    </clipPath>
    <clipPath id="clip-path-5">
      <path id="Shape-5" data-name="Shape" d="M294.135-23.23h.468a.467.467,0,0,1,.468.466v.931a.467.467,0,0,1-.468.466h-.468a.467.467,0,0,1-.468-.466v-.931a.467.467,0,0,1,.468-.466Zm2.184-.931h.468a.467.467,0,0,1,.468.466v1.862a.467.467,0,0,1-.468.466h-.468a.467.467,0,0,1-.468-.466V-23.7A.467.467,0,0,1,296.319-24.161Zm2.184-1.086h.468a.467.467,0,0,1,.468.466v2.949a.467.467,0,0,1-.468.466H298.5a.467.467,0,0,1-.468-.466v-2.949A.467.467,0,0,1,298.5-25.247Zm2.184-1.086h.468a.467.467,0,0,1,.468.466v4.035a.467.467,0,0,1-.468.466h-.468a.467.467,0,0,1-.468-.466v-4.035a.467.467,0,0,1,.468-.466Z" transform="translate(-293.667 26.333)" fill="#1583d8"/>
    </clipPath>
    <clipPath id="clip-path-6">
      <rect width="13.459" height="13.193" fill="none"/>
    </clipPath>
    <clipPath id="clip-path-7">
      <rect width="3.298" height="4.768" fill="none"/>
    </clipPath>
    <clipPath id="clip-path-15">
      <rect width="4.171" height="2.885" fill="none"/>
    </clipPath>
    <clipPath id="clip-Research_5_persona_6">
      <rect width="793" height="394"/>
    </clipPath>
  </defs>
  <g id="Research_5_persona_6" data-name="Research 5_persona – 6" clip-path="url(#clip-Research_5_persona_6)">
    <rect width="793" height="394" fill="rgba(70,98,158,0)"/>
    <g id="Group_1255" data-name="Group 1255" transform="translate(1617.261 -13286.379)">
      <g id="Mobile_wireframe" data-name="Mobile wireframe" transform="translate(-1485.376 13340.147)">
        <g id="Phone_border_screen" data-name="Phone border screen" transform="translate(0.085 0.102)" fill="none">
          <path d="M23.358-.054s47.967.107,57.139,0,57.071,0,57.071,0a23.341,23.341,0,0,1,23.4,23.278s.148,81.848,0,102.9.664,78.631,0,89.151,0,86.35,0,86.35a23.341,23.341,0,0,1-23.4,23.278s-43.179-.5-55.02,0-59.19,0-59.19,0a23.341,23.341,0,0,1-23.4-23.278s-.04-50.846-.04-104.471c0-.286.04-113.262.04-113.262V23.224A23.341,23.341,0,0,1,23.358-.054Z" stroke="none"/>
          <path d="M 99.37002563476563 1.8983154296875 C 89.55956268310547 1.8983154296875 83.21772766113281 1.9141845703125 80.52072906494141 1.945526123046875 C 77.80785369873047 1.977020263671875 71.44444274902344 1.99298095703125 61.60731506347656 1.99298095703125 C 44.86906433105469 1.99298095703125 23.56706237792969 1.94610595703125 23.3582763671875 1.945648193359375 C 20.46656799316406 1.945648193359375 17.66252136230469 2.50848388671875 15.02401733398438 3.618438720703125 C 12.47523498535156 4.69073486328125 10.18594360351563 6.225982666015625 8.2197265625 8.181640625 C 6.2542724609375 10.13650512695313 4.71148681640625 12.4122314453125 3.634185791015625 14.94546508789063 C 2.5196533203125 17.56637573242188 1.95452880859375 20.35159301757813 1.95452880859375 23.2236328125 L 1.95452880859375 83.89642333984375 C 1.9541015625 85.02618408203125 1.914566040039063 196.8748016357422 1.914566040039063 197.1572570800781 C 1.914566040039063 250.1685485839844 1.9541015625 301.1182250976563 1.95452880859375 301.6282348632813 C 1.95452880859375 304.5002746582031 2.5196533203125 307.2854614257813 3.634185791015625 309.9064025878906 C 4.71148681640625 312.4396362304688 6.2542724609375 314.7153015136719 8.2197265625 316.6702270507813 C 10.18594360351563 318.6258544921875 12.47523498535156 320.1611328125 15.02401733398438 321.2333984375 C 17.66252136230469 322.3433837890625 20.46656799316406 322.9061889648438 23.3582763671875 322.9061889648438 L 23.368896484375 322.9061889648438 L 23.37948608398438 322.9063110351563 C 23.58981323242188 322.9085083007813 44.61331176757813 323.12939453125 61.93968963623047 323.12939453125 C 72.09452056884766 323.12939453125 78.99968719482422 323.0549011230469 82.46335601806641 322.907958984375 C 85.98389434814453 322.7586669921875 92.5823974609375 322.6829833984375 102.0755615234375 322.6829833984375 C 118.0429000854492 322.6829833984375 137.0204467773438 322.8997497558594 137.5805358886719 322.9061889648438 C 140.4679412841797 322.9046020507813 143.2679748535156 322.341796875 145.9027709960938 321.2333984375 C 148.4515686035156 320.1611328125 150.7408599853516 318.6258544921875 152.7070617675781 316.6702270507813 C 154.6725616455078 314.7153015136719 156.2153167724609 312.4396362304688 157.2926025390625 309.9064025878906 C 158.4061279296875 307.2878723144531 158.9712371826172 304.505126953125 158.9722747802734 301.6358642578125 C 158.9439239501953 298.395263671875 158.316162109375 225.6122436523438 158.9762268066406 215.1521301269531 C 159.3818511962891 208.7242736816406 159.2254028320313 183.7105560302734 159.08740234375 161.6414337158203 C 158.9990692138672 147.5181732177734 158.9156494140625 134.1781768798828 158.9723205566406 126.1134796142578 C 159.1185607910156 105.3074798583984 158.9737701416016 24.04562377929688 158.9722747802734 23.2236328125 C 158.9722747802734 20.35159301757813 158.4071502685547 17.56637573242188 157.2926025390625 14.94546508789063 C 156.2153167724609 12.4122314453125 154.6725158691406 10.13650512695313 152.7070617675781 8.181640625 C 150.7408599853516 6.225982666015625 148.4515686035156 4.69073486328125 145.9027709960938 3.618438720703125 C 143.2642669677734 2.50848388671875 140.4602355957031 1.945648193359375 137.5640563964844 1.945648193359375 C 137.3512268066406 1.9451904296875 116.0846481323242 1.89825439453125 99.37002563476563 1.8983154296875 M 99.37004089355469 -0.101715087890625 C 116.2802124023438 -0.101715087890625 137.5685272216797 -0.054351806640625 137.5685272216797 -0.054351806640625 C 150.4940643310547 -0.054351806640625 160.9722747802734 10.3675537109375 160.9722747802734 23.2236328125 C 160.9722747802734 23.2236328125 161.1202697753906 105.0719757080078 160.9722747802734 126.1275177001953 C 160.8242797851563 147.1830596923828 161.6360626220703 204.7584228515625 160.9722747802734 215.2781066894531 C 160.3084411621094 225.7978057861328 160.9722747802734 301.6282348632813 160.9722747802734 301.6282348632813 C 160.9722747802734 314.4843139648438 150.4940643310547 324.9061889648438 137.5685272216797 324.9061889648438 C 137.5685272216797 324.9061889648438 118.3772735595703 324.6829833984375 102.0755615234375 324.6829833984375 C 93.92322540283203 324.6829833984375 86.49576568603516 324.73876953125 82.54810333251953 324.9061889648438 C 78.60118103027344 325.0735778808594 70.70792388916016 325.12939453125 61.93970489501953 325.12939453125 C 44.40165710449219 325.12939453125 23.3582763671875 324.9061889648438 23.3582763671875 324.9061889648438 C 10.43276977539063 324.9061889648438 -0.04547119140625 314.4843139648438 -0.04547119140625 301.6282348632813 C -0.04547119140625 301.6282348632813 -0.0854339599609375 250.7826385498047 -0.0854339599609375 197.1572570800781 C -0.0854339599609375 196.8711853027344 -0.04547119140625 83.89572143554688 -0.04547119140625 83.89572143554688 L -0.04547119140625 23.2236328125 C -0.04547119140625 10.3675537109375 10.43276977539063 -0.054351806640625 23.3582763671875 -0.054351806640625 C 23.3582763671875 -0.054351806640625 44.67765808105469 -0.00701904296875 61.60730743408203 -0.00701904296875 C 70.07368469238281 -0.00701904296875 77.43990325927734 -0.018829345703125 80.49752044677734 -0.054351806640625 C 83.55458831787109 -0.089874267578125 90.91572570800781 -0.101715087890625 99.37004089355469 -0.101715087890625 Z" stroke="none" fill="#1583d8"/>
        </g>
        <g id="Phone_screen" data-name="Phone screen" transform="translate(9.401 9.824)" fill="#fff" opacity="0.6">
          <path d="M 127.3167190551758 304.8722534179688 L 14.97871685028076 304.8722534179688 C 11.24375534057617 304.8722534179688 7.732677936553955 303.4259338378906 5.092255115509033 300.7997741699219 C 2.45333194732666 298.175048828125 0.9999856948852539 294.6856994628906 0.9999856948852539 290.9745178222656 L 0.9999856948852539 223.6175842285156 L 0.9999856948852539 67.91577911376953 L 0.9999856948852539 14.89774227142334 C 0.9999856948852539 11.18647289276123 2.45333194732666 7.697165012359619 5.092255115509033 5.072511196136475 C 7.732639789581299 2.446319103240967 11.2437162399292 1.000049829483032 14.97871685028076 1.000049829483032 L 31.17202568054199 1.000049829483032 C 30.94429588317871 1.80453360080719 30.82940864562988 2.638196229934692 30.82940864562988 3.492011308670044 C 30.82940864562988 8.535550117492676 34.93264007568359 12.63878059387207 39.97621536254883 12.63878059387207 L 102.7862930297852 12.63878059387207 C 107.8303680419922 12.63878059387207 111.9340209960938 8.535550117492676 111.9340209960938 3.492011308670044 C 111.9340209960938 2.638172149658203 111.8191452026367 1.804537057876587 111.5914077758789 1.000049829483032 L 127.3167190551758 1.000049829483032 C 131.0513305664063 1.000049829483032 134.5621032714844 2.446319103240967 137.2023773193359 5.072473049163818 C 139.8412170410156 7.697203636169434 141.2945251464844 11.18655014038086 141.2945251464844 14.89774227142334 L 141.2945251464844 290.9745178222656 C 141.2945251464844 294.6856689453125 139.8412170410156 298.1750183105469 137.2023773193359 300.7997741699219 C 134.5620574951172 303.4259338378906 131.0512542724609 304.8722534179688 127.3167190551758 304.8722534179688 Z" stroke="none"/>
          <path d="M 127.3167114257813 303.8722229003906 C 130.7851715087891 303.8722229003906 134.0455017089844 302.5292663574219 136.4971313476563 300.0907592773438 C 138.9459228515625 297.6551208496094 140.2945404052734 294.4175720214844 140.2945404052734 290.9745483398438 L 140.2945404052734 14.89770984649658 C 140.2945404052734 11.45466804504395 138.9459228515625 8.217126846313477 136.4971313476563 5.781459808349609 C 134.0455474853516 3.342960119247437 130.7852172851563 2.000043392181396 127.3167114257813 2.000043392181396 L 112.8259506225586 2.000043392181396 C 112.8978729248047 2.490063905715942 112.9340057373047 2.987910747528076 112.9340057373047 3.492043256759644 C 112.9340057373047 9.086959838867188 108.3817520141602 13.63879299163818 102.7862930297852 13.63879299163818 L 39.97621154785156 13.63879299163818 C 34.38125610351563 13.63879299163818 29.82942199707031 9.086959838867188 29.82942199707031 3.492043256759644 C 29.82942199707031 2.987938404083252 29.86556053161621 2.490053176879883 29.93747711181641 2.000043392181396 L 14.9787130355835 2.000043392181396 C 11.50979614257813 2.000043392181396 8.249171257019043 3.3430016040802 5.797421455383301 5.781501770019531 C 3.348629951477051 8.217084884643555 2.000005006790161 11.45458507537842 2.000005006790161 14.89770984649658 L 2.000005006790161 67.91579437255859 L 2.000005006790161 223.6175842285156 L 2.000005006790161 290.9745483398438 C 2.000005006790161 294.4176330566406 3.348629951477051 297.6551208496094 5.797463417053223 300.0907592773438 C 8.249130249023438 302.5292663574219 11.50979614257813 303.8722229003906 14.9787130355835 303.8722229003906 L 127.3167114257813 303.8722229003906 M 127.3167114257813 305.8722229003906 L 14.9787130355835 305.8722229003906 C 10.97762966156006 305.8722229003906 7.216129779815674 304.3226318359375 4.387046813964844 301.5087585449219 C 1.558004975318909 298.6950073242188 4.943847670801915e-06 294.9538879394531 4.943847670801915e-06 290.9745483398438 L 4.943847670801915e-06 223.6175842285156 L 4.943847670801915e-06 67.91579437255859 L 4.943847670801915e-06 14.89770984649658 C 4.943847670801915e-06 10.9183349609375 1.558004975318909 7.177209854125977 4.387046813964844 4.363460063934326 C 7.216129779815674 1.549626708030701 10.97767162322998 4.337565042078495e-05 14.9787130355835 4.337565042078495e-05 L 32.61350631713867 4.337565042078495e-05 C 32.09354782104492 1.094626665115356 31.82942199707031 2.269001722335815 31.82942199707031 3.492043256759644 C 31.82942199707031 7.984168529510498 35.48404693603516 11.63879299163818 39.97621154785156 11.63879299163818 L 102.7862930297852 11.63879299163818 C 107.2790069580078 11.63879299163818 110.9340057373047 7.984168529510498 110.9340057373047 3.492043256759644 C 110.9340057373047 2.270126819610596 110.6702117919922 1.095251679420471 110.1499252319336 4.337565042078495e-05 L 127.3167114257813 4.337565042078495e-05 C 131.3173828125 4.337565042078495e-05 135.0785827636719 1.549626708030701 137.9075469970703 4.363460063934326 C 140.7365417480469 7.177293300628662 142.2945404052734 10.91845989227295 142.2945404052734 14.89770984649658 L 142.2945404052734 290.9745483398438 C 142.2945404052734 294.9538269042969 140.7365417480469 298.6949462890625 137.9075469970703 301.5087585449219 C 135.0785827636719 304.3225708007813 131.3173828125 305.8722229003906 127.3167114257813 305.8722229003906 Z" stroke="none" fill="#1583d8"/>
        </g>
        <g id="Header_icon" data-name="Header icon" transform="translate(68.074 12.152)">
          <path id="Line" d="M.742,73.621c.194.107,7.6.139,11.6.027,3.518-.1,7.035-.381,10.561-.411.212,0,1.446,0,1.667,0,.246.061.6-.276.605-.564s-.479-.525-.905-.5c-3.469-.021-6.889.151-10.38.175-3.734.152-11.732.033-11.732.033L.7,72.292s-.589.067-.6.609S.548,73.514.742,73.621Z" transform="translate(-0.102 -70.931)" fill="#1583d8"/>
          <ellipse id="Ellipse_335" data-name="Ellipse 335" cx="1.638" cy="1.629" rx="1.638" ry="1.629" transform="translate(26.985)" fill="#1583d8"/>
        </g>
        <path id="Line-2" data-name="Line" d="M1.617,73.662c.5.11,19.586.143,29.883.028,9.063-.1,18.126-.392,27.211-.422.547,0,3.726,0,4.295,0,.633.063.53-.381.531-.677s-.207-.442-1.305-.421c-8.938-.022-17.749.155-26.745.18-9.62.157-30.227.034-30.227.034L1.521,72.3s-.731.074-.766.632S1.117,73.552,1.617,73.662Z" transform="translate(48.2 233.592)" fill="#1583d8" stroke="#1583d8" stroke-width="1"/>
        <g id="status_bar_light" data-name="status bar/light" transform="translate(15.955 20.066)">
          <g id="Battery" transform="translate(120.763 1.086)">
            <g id="Border" transform="translate(0 0)" clip-path="url(#clip-path)">
              <path id="Fill" d="M1.248,0h7.8A1.245,1.245,0,0,1,10.3,1.241V4.035h0A1.245,1.245,0,0,1,9.049,5.276h-7.8A1.245,1.245,0,0,1,0,4.035V1.241H0A1.245,1.245,0,0,1,1.248,0Z" fill="none" stroke="rgba(21,131,216,0.5)" stroke-width="2"/>
            </g>
            <g id="Cap" transform="translate(10.766 1.707)" clip-path="url(#clip-path-2)">
              <path id="Fill-2" data-name="Fill" d="M354-28h5.3v6.518H354Z" transform="translate(-356.34 25.672)" fill="#1583d8"/>
            </g>
            <g id="Capacity" transform="translate(0.936 0.931)" clip-path="url(#clip-path-3)">
              <path id="Fill-3" data-name="Fill" d="M333-29.667h13.106v8.07H333Z" transform="translate(-335.34 27.339)" fill="#1583d8"/>
            </g>
          </g>
          <g id="Wifi" transform="translate(111.258 1.085)">
            <g id="Wifi-2" data-name="Wifi" transform="translate(0 0)" clip-path="url(#clip-path-4)">
              <path id="Fill-4" data-name="Fill" d="M310.694-31.669h11.829v9.761H310.694Z" transform="translate(-313.034 29.342)" fill="#1583d8"/>
            </g>
          </g>
          <g id="Cellular_Connection" data-name="Cellular Connection" transform="translate(100.948 1.241)">
            <g id="Cellular_Connection-2" data-name="Cellular Connection" transform="translate(0 0)" clip-path="url(#clip-path-5)">
              <path id="Fill-5" data-name="Fill" d="M288.667-31.333H301.3v9.622H288.667Z" transform="translate(-291.007 29.006)" fill="#1583d8"/>
            </g>
          </g>
          <g id="Bars___Time_Black" data-name="Bars/_/Time Black" transform="translate(0 0)">
            <path id="Background" d="M21-27.551H46.276V-35H21Z" transform="translate(-21 35)" fill="none"/>
            <text id="_10:20" data-name="10:20" transform="translate(1.872 4.862)" fill="#1583d8" font-size="4" font-family="TektonPro-Bold, Tekton Pro" font-weight="700"><tspan x="0" y="0">10:20</tspan></text>
          </g>
        </g>
      </g>
      <g id="Button_-_Circle_-_Arrow_Left_1" data-name="Button - Circle - Arrow Left 1" transform="translate(-1466.267 13380.071)" clip-path="url(#clip-path-6)">
        <path id="Oval" d="M.755,6.187C1.267,2.5,4.873.375,8.35.827c3.217.419,4.335,3.749,4.375,6.667.061,4.515-5.445,5.828-8.814,4.361A5.321,5.321,0,0,1,.768,6.089c.054-.471-.667-.466-.722,0a6.007,6.007,0,0,0,2.909,6.106,8.177,8.177,0,0,0,6.608.544,5.494,5.494,0,0,0,3.871-4.769c.206-2.98-.97-6.711-4.027-7.663C5.429-.932.656,1.694.06,5.99-.005,6.455.69,6.655.755,6.187Z" transform="translate(0.002 0.001)" fill="#1583d8"/>
        <g id="Icon_-_Arrow_Left_1" data-name="Icon - Arrow Left 1" transform="translate(5.117 4.08)" clip-path="url(#clip-path-7)">
          <path id="Arrow_Left_1" data-name="Arrow Left 1" d="M.139,1Q1.144,2.044,2.105,3.124c-.042-.158-.083-.317-.125-.475,0,.011,0,.024-.008.036a.492.492,0,0,0,.815.475A28.885,28.885,0,0,0,4.644.852c.4-.477-.283-1.169-.69-.69A28.242,28.242,0,0,1,2.1,2.47l.815.475c.1-.449-.329-.75-.6-1.047Q1.583,1.095.829.317C.393-.137-.3.552.139,1Z" transform="translate(3.298 0) rotate(90)" fill="#1583d8"/>
        </g>
      </g>
      <text id="_Lorem_ipsum_dolor_sit_amet_consetetur_sadipscing_elitr_sed_diam_nonumy_eirmod_tempor_" data-name="&quot;Lorem ipsum dolor sit amet, 
consetetur sadipscing elitr, 
sed diam nonumy 
eirmod tempor?&quot;" transform="translate(-1402 13486.677)" fill="#1583d8" font-size="9" font-family="TektonPro-Bold, Tekton Pro" font-weight="700"><tspan x="-53.348" y="0">&quot;Lorem ipsum dolor sit amet, </tspan><tspan x="-51.484" y="13">consetetur sadipscing elitr, </tspan><tspan x="-32.058" y="26">sed diam nonumy </tspan><tspan x="-30.721" y="39">eirmod tempor?&quot;</tspan></text>
      <text id="_33_60" data-name="33/60" transform="translate(-1349 13635.811)" fill="#1583d8" font-size="4" font-family="TektonPro-Bold, Tekton Pro" font-weight="700"><tspan x="-5.924" y="0">33/60</tspan></text>
      <path id="Icon_-_Heart" data-name="Icon - Heart" d="M4.35,7.195c1.5.914,2.772-.259,3.812-1.073,1.129-.884,2.674-1.927,2.9-3.27A2.765,2.765,0,0,0,9.077.107C7.4-.322,6.212.6,5.177,1.526h.716A4.384,4.384,0,0,0,2.8.021,2.842,2.842,0,0,0,.253,1.644a2.28,2.28,0,0,0,.663,2.77A24.383,24.383,0,0,0,4.249,7.131c.483.353,1.2-.226.716-.58C4.215,6,3.482,5.442,2.777,4.859S1.139,3.593,1.023,2.741A1.892,1.892,0,0,1,2.69.845,3.408,3.408,0,0,1,5.177,2.108a.6.6,0,0,0,.716,0A3.345,3.345,0,0,1,8.491.847a1.753,1.753,0,0,1,1.369,2.4A7.917,7.917,0,0,1,7.772,5.283c-.724.578-1.83,1.865-2.912,1.2C4.34,6.167,3.835,6.88,4.35,7.195Z" transform="translate(-1353.934 13382.026)" fill="#1583d8"/>
      <g id="Progress_Bars_Size_Small_Solid_-_Half" data-name="Progress Bars / Size / Small / Solid - Half" transform="translate(-1467.497 13638.563)">
        <path id="Half" d="M42.928,5.143Q29.849,5.116,16.769,5q-5.1-.051-10.2-.139-2.027-.037-4.052-.087A2.365,2.365,0,0,1,.056,2.767,2.14,2.14,0,0,1,2.067.009.368.368,0,0,1,2.158,0c.635.016,1.268.032,1.9.046C11.109.2,18.16.26,25.21.306Q39.145.4,53.081.391,67.842.4,82.6.338,95.653.287,108.7.178q5.105-.045,10.208-.11,2.027-.027,4.056-.061c1.032-.018,2.424.238,2.583,1.837a2.517,2.517,0,0,1-2.028,2.9.366.366,0,0,1-.123.023.345.345,0,0,1-.108,0q-.9.015-1.791.027c-7.068.107-14.137.164-21.205.212q-13.929.1-27.859.128-8.481.021-16.962.022Q49.2,5.156,42.928,5.143ZM64.972,4.085q6.365-.009,12.731-.031,13.215-.042,26.43-.14c6.418-.05,12.835-.107,19.252-.215l.01,0a1.543,1.543,0,0,0,1.14-.7,1.248,1.248,0,0,0-.421-1.777,3.085,3.085,0,0,0-1.336-.144c-6.548.107-13.1.162-19.643.212q-13.27.1-26.543.137-5.81.017-11.619.026Z" transform="translate(0 0)" fill="#1583d8" stroke="#1583d8" stroke-miterlimit="10" stroke-width="0.5"/>
      </g>
      <g id="Mobile_wireframe-2" data-name="Mobile wireframe" transform="translate(-1301.423 13340.147)">
        <g id="Phone_border_screen-2" data-name="Phone border screen" transform="translate(0.085 0.102)" fill="none">
          <path d="M23.358-.054s47.967.107,57.139,0,57.071,0,57.071,0a23.341,23.341,0,0,1,23.4,23.278s.148,81.848,0,102.9.664,78.631,0,89.151,0,86.35,0,86.35a23.341,23.341,0,0,1-23.4,23.278s-43.179-.5-55.02,0-59.19,0-59.19,0a23.341,23.341,0,0,1-23.4-23.278s-.04-50.846-.04-104.471c0-.286.04-113.262.04-113.262V23.224A23.341,23.341,0,0,1,23.358-.054Z" stroke="none"/>
          <path d="M 99.37002563476563 1.8983154296875 C 89.55956268310547 1.8983154296875 83.21772766113281 1.9141845703125 80.52072906494141 1.945526123046875 C 77.80785369873047 1.977020263671875 71.44444274902344 1.99298095703125 61.60731506347656 1.99298095703125 C 44.86906433105469 1.99298095703125 23.56706237792969 1.94610595703125 23.3582763671875 1.945648193359375 C 20.46656799316406 1.945648193359375 17.66252136230469 2.50848388671875 15.02401733398438 3.618438720703125 C 12.47523498535156 4.69073486328125 10.18594360351563 6.225982666015625 8.2197265625 8.181640625 C 6.2542724609375 10.13650512695313 4.71148681640625 12.4122314453125 3.634185791015625 14.94546508789063 C 2.5196533203125 17.56637573242188 1.95452880859375 20.35159301757813 1.95452880859375 23.2236328125 L 1.95452880859375 83.89642333984375 C 1.9541015625 85.02618408203125 1.914566040039063 196.8748016357422 1.914566040039063 197.1572570800781 C 1.914566040039063 250.1685485839844 1.9541015625 301.1182250976563 1.95452880859375 301.6282348632813 C 1.95452880859375 304.5002746582031 2.5196533203125 307.2854614257813 3.634185791015625 309.9064025878906 C 4.71148681640625 312.4396362304688 6.2542724609375 314.7153015136719 8.2197265625 316.6702270507813 C 10.18594360351563 318.6258544921875 12.47523498535156 320.1611328125 15.02401733398438 321.2333984375 C 17.66252136230469 322.3433837890625 20.46656799316406 322.9061889648438 23.3582763671875 322.9061889648438 L 23.368896484375 322.9061889648438 L 23.37948608398438 322.9063110351563 C 23.58981323242188 322.9085083007813 44.61331176757813 323.12939453125 61.93968963623047 323.12939453125 C 72.09452056884766 323.12939453125 78.99968719482422 323.0549011230469 82.46335601806641 322.907958984375 C 85.98389434814453 322.7586669921875 92.5823974609375 322.6829833984375 102.0755615234375 322.6829833984375 C 118.0429000854492 322.6829833984375 137.0204467773438 322.8997497558594 137.5805358886719 322.9061889648438 C 140.4679412841797 322.9046020507813 143.2679748535156 322.341796875 145.9027709960938 321.2333984375 C 148.4515686035156 320.1611328125 150.7408599853516 318.6258544921875 152.7070617675781 316.6702270507813 C 154.6725616455078 314.7153015136719 156.2153167724609 312.4396362304688 157.2926025390625 309.9064025878906 C 158.4061279296875 307.2878723144531 158.9712371826172 304.505126953125 158.9722747802734 301.6358642578125 C 158.9439239501953 298.395263671875 158.316162109375 225.6122436523438 158.9762268066406 215.1521301269531 C 159.3818511962891 208.7242736816406 159.2254028320313 183.7105560302734 159.08740234375 161.6414337158203 C 158.9990692138672 147.5181732177734 158.9156494140625 134.1781768798828 158.9723205566406 126.1134796142578 C 159.1185607910156 105.3074798583984 158.9737701416016 24.04562377929688 158.9722747802734 23.2236328125 C 158.9722747802734 20.35159301757813 158.4071502685547 17.56637573242188 157.2926025390625 14.94546508789063 C 156.2153167724609 12.4122314453125 154.6725158691406 10.13650512695313 152.7070617675781 8.181640625 C 150.7408599853516 6.225982666015625 148.4515686035156 4.69073486328125 145.9027709960938 3.618438720703125 C 143.2642669677734 2.50848388671875 140.4602355957031 1.945648193359375 137.5640563964844 1.945648193359375 C 137.3512268066406 1.9451904296875 116.0846481323242 1.89825439453125 99.37002563476563 1.8983154296875 M 99.37004089355469 -0.101715087890625 C 116.2802124023438 -0.101715087890625 137.5685272216797 -0.054351806640625 137.5685272216797 -0.054351806640625 C 150.4940643310547 -0.054351806640625 160.9722747802734 10.3675537109375 160.9722747802734 23.2236328125 C 160.9722747802734 23.2236328125 161.1202697753906 105.0719757080078 160.9722747802734 126.1275177001953 C 160.8242797851563 147.1830596923828 161.6360626220703 204.7584228515625 160.9722747802734 215.2781066894531 C 160.3084411621094 225.7978057861328 160.9722747802734 301.6282348632813 160.9722747802734 301.6282348632813 C 160.9722747802734 314.4843139648438 150.4940643310547 324.9061889648438 137.5685272216797 324.9061889648438 C 137.5685272216797 324.9061889648438 118.3772735595703 324.6829833984375 102.0755615234375 324.6829833984375 C 93.92322540283203 324.6829833984375 86.49576568603516 324.73876953125 82.54810333251953 324.9061889648438 C 78.60118103027344 325.0735778808594 70.70792388916016 325.12939453125 61.93970489501953 325.12939453125 C 44.40165710449219 325.12939453125 23.3582763671875 324.9061889648438 23.3582763671875 324.9061889648438 C 10.43276977539063 324.9061889648438 -0.04547119140625 314.4843139648438 -0.04547119140625 301.6282348632813 C -0.04547119140625 301.6282348632813 -0.0854339599609375 250.7826385498047 -0.0854339599609375 197.1572570800781 C -0.0854339599609375 196.8711853027344 -0.04547119140625 83.89572143554688 -0.04547119140625 83.89572143554688 L -0.04547119140625 23.2236328125 C -0.04547119140625 10.3675537109375 10.43276977539063 -0.054351806640625 23.3582763671875 -0.054351806640625 C 23.3582763671875 -0.054351806640625 44.67765808105469 -0.00701904296875 61.60730743408203 -0.00701904296875 C 70.07368469238281 -0.00701904296875 77.43990325927734 -0.018829345703125 80.49752044677734 -0.054351806640625 C 83.55458831787109 -0.089874267578125 90.91572570800781 -0.101715087890625 99.37004089355469 -0.101715087890625 Z" stroke="none" fill="#1583d8"/>
        </g>
        <g id="Phone_screen-2" data-name="Phone screen" transform="translate(9.401 9.824)" fill="#fff" opacity="0.6">
          <path d="M 127.3167190551758 304.8722534179688 L 14.97871685028076 304.8722534179688 C 11.24375534057617 304.8722534179688 7.732677936553955 303.4259338378906 5.092255115509033 300.7997741699219 C 2.45333194732666 298.175048828125 0.9999856948852539 294.6856994628906 0.9999856948852539 290.9745178222656 L 0.9999856948852539 223.6175842285156 L 0.9999856948852539 67.91577911376953 L 0.9999856948852539 14.89774227142334 C 0.9999856948852539 11.18647289276123 2.45333194732666 7.697165012359619 5.092255115509033 5.072511196136475 C 7.732639789581299 2.446319103240967 11.2437162399292 1.000049829483032 14.97871685028076 1.000049829483032 L 31.17202568054199 1.000049829483032 C 30.94429588317871 1.80453360080719 30.82940864562988 2.638196229934692 30.82940864562988 3.492011308670044 C 30.82940864562988 8.535550117492676 34.93264007568359 12.63878059387207 39.97621536254883 12.63878059387207 L 102.7862930297852 12.63878059387207 C 107.8303680419922 12.63878059387207 111.9340209960938 8.535550117492676 111.9340209960938 3.492011308670044 C 111.9340209960938 2.638172149658203 111.8191452026367 1.804537057876587 111.5914077758789 1.000049829483032 L 127.3167190551758 1.000049829483032 C 131.0513305664063 1.000049829483032 134.5621032714844 2.446319103240967 137.2023773193359 5.072473049163818 C 139.8412170410156 7.697203636169434 141.2945251464844 11.18655014038086 141.2945251464844 14.89774227142334 L 141.2945251464844 290.9745178222656 C 141.2945251464844 294.6856689453125 139.8412170410156 298.1750183105469 137.2023773193359 300.7997741699219 C 134.5620574951172 303.4259338378906 131.0512542724609 304.8722534179688 127.3167190551758 304.8722534179688 Z" stroke="none"/>
          <path d="M 127.3167114257813 303.8722229003906 C 130.7851715087891 303.8722229003906 134.0455017089844 302.5292663574219 136.4971313476563 300.0907592773438 C 138.9459228515625 297.6551208496094 140.2945404052734 294.4175720214844 140.2945404052734 290.9745483398438 L 140.2945404052734 14.89770984649658 C 140.2945404052734 11.45466804504395 138.9459228515625 8.217126846313477 136.4971313476563 5.781459808349609 C 134.0455474853516 3.342960119247437 130.7852172851563 2.000043392181396 127.3167114257813 2.000043392181396 L 112.8259506225586 2.000043392181396 C 112.8978729248047 2.490063905715942 112.9340057373047 2.987910747528076 112.9340057373047 3.492043256759644 C 112.9340057373047 9.086959838867188 108.3817520141602 13.63879299163818 102.7862930297852 13.63879299163818 L 39.97621154785156 13.63879299163818 C 34.38125610351563 13.63879299163818 29.82942199707031 9.086959838867188 29.82942199707031 3.492043256759644 C 29.82942199707031 2.987938404083252 29.86556053161621 2.490053176879883 29.93747711181641 2.000043392181396 L 14.9787130355835 2.000043392181396 C 11.50979614257813 2.000043392181396 8.249171257019043 3.3430016040802 5.797421455383301 5.781501770019531 C 3.348629951477051 8.217084884643555 2.000005006790161 11.45458507537842 2.000005006790161 14.89770984649658 L 2.000005006790161 67.91579437255859 L 2.000005006790161 223.6175842285156 L 2.000005006790161 290.9745483398438 C 2.000005006790161 294.4176330566406 3.348629951477051 297.6551208496094 5.797463417053223 300.0907592773438 C 8.249130249023438 302.5292663574219 11.50979614257813 303.8722229003906 14.9787130355835 303.8722229003906 L 127.3167114257813 303.8722229003906 M 127.3167114257813 305.8722229003906 L 14.9787130355835 305.8722229003906 C 10.97762966156006 305.8722229003906 7.216129779815674 304.3226318359375 4.387046813964844 301.5087585449219 C 1.558004975318909 298.6950073242188 4.943847670801915e-06 294.9538879394531 4.943847670801915e-06 290.9745483398438 L 4.943847670801915e-06 223.6175842285156 L 4.943847670801915e-06 67.91579437255859 L 4.943847670801915e-06 14.89770984649658 C 4.943847670801915e-06 10.9183349609375 1.558004975318909 7.177209854125977 4.387046813964844 4.363460063934326 C 7.216129779815674 1.549626708030701 10.97767162322998 4.337565042078495e-05 14.9787130355835 4.337565042078495e-05 L 32.61350631713867 4.337565042078495e-05 C 32.09354782104492 1.094626665115356 31.82942199707031 2.269001722335815 31.82942199707031 3.492043256759644 C 31.82942199707031 7.984168529510498 35.48404693603516 11.63879299163818 39.97621154785156 11.63879299163818 L 102.7862930297852 11.63879299163818 C 107.2790069580078 11.63879299163818 110.9340057373047 7.984168529510498 110.9340057373047 3.492043256759644 C 110.9340057373047 2.270126819610596 110.6702117919922 1.095251679420471 110.1499252319336 4.337565042078495e-05 L 127.3167114257813 4.337565042078495e-05 C 131.3173828125 4.337565042078495e-05 135.0785827636719 1.549626708030701 137.9075469970703 4.363460063934326 C 140.7365417480469 7.177293300628662 142.2945404052734 10.91845989227295 142.2945404052734 14.89770984649658 L 142.2945404052734 290.9745483398438 C 142.2945404052734 294.9538269042969 140.7365417480469 298.6949462890625 137.9075469970703 301.5087585449219 C 135.0785827636719 304.3225708007813 131.3173828125 305.8722229003906 127.3167114257813 305.8722229003906 Z" stroke="none" fill="#1583d8"/>
        </g>
        <g id="Header_icon-2" data-name="Header icon" transform="translate(68.074 12.152)">
          <path id="Line-3" data-name="Line" d="M.742,73.621c.194.107,7.6.139,11.6.027,3.518-.1,7.035-.381,10.561-.411.212,0,1.446,0,1.667,0,.246.061.6-.276.605-.564s-.479-.525-.905-.5c-3.469-.021-6.889.151-10.38.175-3.734.152-11.732.033-11.732.033L.7,72.292s-.589.067-.6.609S.548,73.514.742,73.621Z" transform="translate(-0.102 -70.931)" fill="#1583d8"/>
          <ellipse id="Ellipse_335-2" data-name="Ellipse 335" cx="1.638" cy="1.629" rx="1.638" ry="1.629" transform="translate(26.985)" fill="#1583d8"/>
        </g>
        <path id="Line-4" data-name="Line" d="M1.617,73.662c.5.11,19.586.143,29.883.028,9.063-.1,18.126-.392,27.211-.422.547,0,3.726,0,4.295,0,.633.063.53-.381.531-.677s-.207-.442-1.305-.421c-8.938-.022-17.749.155-26.745.18-9.62.157-30.227.034-30.227.034L1.521,72.3s-.731.074-.766.632S1.117,73.552,1.617,73.662Z" transform="translate(48.2 233.592)" fill="#1583d8" stroke="#1583d8" stroke-width="1"/>
        <g id="status_bar_light-2" data-name="status bar/light" transform="translate(15.955 20.066)">
          <g id="Battery-2" data-name="Battery" transform="translate(120.763 1.086)">
            <g id="Border-2" data-name="Border" transform="translate(0 0)" clip-path="url(#clip-path)">
              <path id="Fill-6" data-name="Fill" d="M1.248,0h7.8A1.245,1.245,0,0,1,10.3,1.241V4.035h0A1.245,1.245,0,0,1,9.049,5.276h-7.8A1.245,1.245,0,0,1,0,4.035V1.241H0A1.245,1.245,0,0,1,1.248,0Z" fill="none" stroke="rgba(21,131,216,0.5)" stroke-width="2"/>
            </g>
            <g id="Cap-2" data-name="Cap" transform="translate(10.766 1.707)" clip-path="url(#clip-path-2)">
              <path id="Fill-7" data-name="Fill" d="M354-28h5.3v6.518H354Z" transform="translate(-356.34 25.672)" fill="#1583d8"/>
            </g>
            <g id="Capacity-2" data-name="Capacity" transform="translate(0.936 0.931)" clip-path="url(#clip-path-3)">
              <path id="Fill-8" data-name="Fill" d="M333-29.667h13.106v8.07H333Z" transform="translate(-335.34 27.339)" fill="#1583d8"/>
            </g>
          </g>
          <g id="Wifi-3" data-name="Wifi" transform="translate(111.258 1.085)">
            <g id="Wifi-4" data-name="Wifi" transform="translate(0 0)" clip-path="url(#clip-path-4)">
              <path id="Fill-9" data-name="Fill" d="M310.694-31.669h11.829v9.761H310.694Z" transform="translate(-313.034 29.342)" fill="#1583d8"/>
            </g>
          </g>
          <g id="Cellular_Connection-3" data-name="Cellular Connection" transform="translate(100.948 1.241)">
            <g id="Cellular_Connection-4" data-name="Cellular Connection" transform="translate(0 0)" clip-path="url(#clip-path-5)">
              <path id="Fill-10" data-name="Fill" d="M288.667-31.333H301.3v9.622H288.667Z" transform="translate(-291.007 29.006)" fill="#1583d8"/>
            </g>
          </g>
          <g id="Bars___Time_Black-2" data-name="Bars/_/Time Black" transform="translate(0 0)">
            <path id="Background-2" data-name="Background" d="M21-27.551H46.276V-35H21Z" transform="translate(-21 35)" fill="none"/>
            <text id="_10:20-2" data-name="10:20" transform="translate(1.872 4.862)" fill="#1583d8" font-size="4" font-family="TektonPro-Bold, Tekton Pro" font-weight="700"><tspan x="0" y="0">10:20</tspan></text>
          </g>
        </g>
      </g>
      <g id="Button_-_Circle_-_Arrow_Left_1-2" data-name="Button - Circle - Arrow Left 1" transform="translate(-1282.313 13380.071)" clip-path="url(#clip-path-6)">
        <path id="Oval-2" data-name="Oval" d="M.755,6.187C1.267,2.5,4.873.375,8.35.827c3.217.419,4.335,3.749,4.375,6.667.061,4.515-5.445,5.828-8.814,4.361A5.321,5.321,0,0,1,.768,6.089c.054-.471-.667-.466-.722,0a6.007,6.007,0,0,0,2.909,6.106,8.177,8.177,0,0,0,6.608.544,5.494,5.494,0,0,0,3.871-4.769c.206-2.98-.97-6.711-4.027-7.663C5.429-.932.656,1.694.06,5.99-.005,6.455.69,6.655.755,6.187Z" transform="translate(0.002 0.001)" fill="#1583d8"/>
        <g id="Icon_-_Arrow_Left_1-2" data-name="Icon - Arrow Left 1" transform="translate(5.117 4.08)" clip-path="url(#clip-path-7)">
          <path id="Arrow_Left_1-2" data-name="Arrow Left 1" d="M.139,1Q1.144,2.044,2.105,3.124c-.042-.158-.083-.317-.125-.475,0,.011,0,.024-.008.036a.492.492,0,0,0,.815.475A28.885,28.885,0,0,0,4.644.852c.4-.477-.283-1.169-.69-.69A28.242,28.242,0,0,1,2.1,2.47l.815.475c.1-.449-.329-.75-.6-1.047Q1.583,1.095.829.317C.393-.137-.3.552.139,1Z" transform="translate(3.298 0) rotate(90)" fill="#1583d8"/>
        </g>
      </g>
      <path id="Icon_-_Heart-2" data-name="Icon - Heart" d="M4.35,7.195c1.5.914,2.772-.259,3.812-1.073,1.129-.884,2.674-1.927,2.9-3.27A2.765,2.765,0,0,0,9.077.107C7.4-.322,6.212.6,5.177,1.526h.716A4.384,4.384,0,0,0,2.8.021,2.842,2.842,0,0,0,.253,1.644a2.28,2.28,0,0,0,.663,2.77A24.383,24.383,0,0,0,4.249,7.131c.483.353,1.2-.226.716-.58C4.215,6,3.482,5.442,2.777,4.859S1.139,3.593,1.023,2.741A1.892,1.892,0,0,1,2.69.845,3.408,3.408,0,0,1,5.177,2.108a.6.6,0,0,0,.716,0A3.345,3.345,0,0,1,8.491.847a1.753,1.753,0,0,1,1.369,2.4A7.917,7.917,0,0,1,7.772,5.283c-.724.578-1.83,1.865-2.912,1.2C4.34,6.167,3.835,6.88,4.35,7.195Z" transform="translate(-1169.981 13382.025)" fill="#1583d8"/>
      <g id="Progress_Bars_Size_Small_Solid_-_Half-2" data-name="Progress Bars / Size / Small / Solid - Half" transform="translate(-1283.544 13638.563)">
        <path id="Half-2" data-name="Half" d="M42.928,5.143Q29.849,5.116,16.769,5q-5.1-.051-10.2-.139-2.027-.037-4.052-.087A2.365,2.365,0,0,1,.056,2.767,2.14,2.14,0,0,1,2.067.009.368.368,0,0,1,2.158,0c.635.016,1.268.032,1.9.046C11.109.2,18.16.26,25.21.306Q39.145.4,53.081.391,67.842.4,82.6.338,95.653.287,108.7.178q5.105-.045,10.208-.11,2.027-.027,4.056-.061c1.032-.018,2.424.238,2.583,1.837a2.517,2.517,0,0,1-2.028,2.9.366.366,0,0,1-.123.023.345.345,0,0,1-.108,0q-.9.015-1.791.027c-7.068.107-14.137.164-21.205.212q-13.929.1-27.859.128-8.481.021-16.962.022Q49.2,5.156,42.928,5.143ZM64.972,4.085q6.365-.009,12.731-.031,13.215-.042,26.43-.14c6.418-.05,12.835-.107,19.252-.215l.01,0a1.543,1.543,0,0,0,1.14-.7,1.248,1.248,0,0,0-.421-1.777,3.085,3.085,0,0,0-1.336-.144c-6.548.107-13.1.162-19.643.212q-13.27.1-26.543.137-5.81.017-11.619.026Z" transform="translate(0 0)" fill="#1583d8" stroke="#1583d8" stroke-miterlimit="10" stroke-width="0.5"/>
      </g>
      <g id="Heart_Solid" data-name="Heart Solid" transform="translate(-1169.975 13382.023)">
        <path id="Icon_-_Heart_Solid" data-name="Icon - Heart Solid" d="M4.344,8.877l-.031-.025a.593.593,0,0,1-.07-.054A26.264,26.264,0,0,1,.91,5.446,3.258,3.258,0,0,1,.247,2.03,2.879,2.879,0,0,1,2.8.027,3.636,3.636,0,0,1,5.532,1.5C6.484.5,7.587-.335,9.071.134A3.44,3.44,0,0,1,11.053,3.52c-.223,1.656-1.767,2.942-2.9,4.033-.772.745-1.673,1.734-2.7,1.734A1.825,1.825,0,0,1,4.344,8.877Z" transform="translate(0 0)" fill="#1583d8"/>
      </g>
      <g id="Media_Text_Image" data-name="Media / Text Image" transform="translate(-1267.335 13455.908)">
        <path id="Path_972" data-name="Path 972" d="M48.675.034Q36.8.347,24.932.665L15.685.907q-3.061.078-6.125.161c-1.362.038-2.727.071-4.089.109-1.11.033-2.958.484-4,.014-.4-.18-.779.27-.8.687C-.675,35.829.485,69.817.079,103.787a.685.685,0,0,0,.628.711c10.122.488,20.257.844,30.388,1,16.377.251,32.755-.65,49.137-.64,4.253,0,8.5.019,12.753.1a.682.682,0,0,0,.628-.711c-.725-34.287.163-68.584-.557-102.866A.688.688,0,0,0,92.428.67c-11.9-.251-23.8-.493-35.7-.621C54.042.02,51.356-.032,48.675.034c-.809.019-.809,1.441,0,1.422,12.967-.318,25.989.27,38.956.531l4.8.1L91.8,1.376c.725,34.287-.163,68.584.557,102.866l.628-.711c-11.9-.237-23.818-.119-35.717.142-14.836.327-29.587.441-44.427-.1q-6.071-.22-12.133-.5l.628.711c.406-33.965-.754-67.948.595-101.9-.264.228-.528.455-.8.683a6.752,6.752,0,0,0,2.828.081l4.3-.114,6.423-.171q4.94-.128,9.879-.261l24.112-.64C49.479,1.433,49.483.011,48.675.034Z" transform="translate(0.002 -0.002)" fill="#1583d8"/>
      </g>
      <path id="Path_1052" data-name="Path 1052" d="M6.164,0C13.838,29.753,0,56.738,0,56.738" transform="translate(-1170.445 13394.066) rotate(9)" fill="none" stroke="#707070" stroke-width="1"/>
      <g id="Polygon_7" data-name="Polygon 7" transform="translate(-1178.549 13457.373) rotate(-138)" fill="#fff">
        <path d="M 9.353043556213379 5.58497428894043 L 2.348823547363281 5.58497428894043 C 2.04210352897644 5.58497428894043 1.919153571128845 5.352184295654297 1.888783574104309 5.280834197998047 C 1.858403563499451 5.209484100341797 1.775823593139648 4.959514141082764 1.988403558731079 4.738424301147461 L 5.490523338317871 1.096214175224304 C 5.585663318634033 0.9972642064094543 5.713663578033447 0.94277423620224 5.85093355178833 0.94277423620224 C 5.988203525543213 0.94277423620224 6.116203784942627 0.9972642064094543 6.211343765258789 1.096214175224304 L 9.71345329284668 4.738414287567139 C 9.926043510437012 4.959514141082764 9.843463897705078 5.209484100341797 9.813083648681641 5.280834197998047 C 9.782713890075684 5.352184295654297 9.659763336181641 5.58497428894043 9.353043556213379 5.58497428894043 Z" stroke="none"/>
        <path d="M 5.85093355178833 1.442774295806885 L 2.348827362060547 5.084970474243164 C 2.348827362060547 5.084971904754639 2.348828315734863 5.084972858428955 2.348823547363281 5.08497428894043 L 9.353038787841797 5.08497428894043 C 9.353038787841797 5.084972858428955 9.353039741516113 5.084971904754639 9.353043556213379 5.08497428894043 L 5.852023601531982 1.442874431610107 C 5.851913452148438 1.442844390869141 5.851503372192383 1.442774295806885 5.85093355178833 1.442774295806885 M 5.85093355178833 0.4427719116210938 C 6.112986087799072 0.4427719116210938 6.375038623809814 0.5450692176818848 6.571763515472412 0.749664306640625 L 10.07387351989746 4.39186429977417 C 10.68484306335449 5.02726411819458 10.23452377319336 6.08497428894043 9.353043556213379 6.08497428894043 L 2.348823547363281 6.08497428894043 C 1.467343330383301 6.08497428894043 1.017023086547852 5.02726411819458 1.627993583679199 4.39186429977417 L 5.130103588104248 0.749664306640625 C 5.326828479766846 0.5450692176818848 5.588881015777588 0.4427719116210938 5.85093355178833 0.4427719116210938 Z" stroke="none" fill="#707070"/>
      </g>
      <g id="Group_61" data-name="Group 61" transform="translate(-1252.767 13504.498)">
        <g id="Form_Fields_Pill_Box_Half" data-name="Form Fields / Pill Box / Half" transform="translate(0)">
          <path id="Pill_Box" data-name="Pill Box" d="M59.829,1.155C58.022-.184,55.638.015,53.452.027Q51.424.039,49.4.041,42.585.057,35.773.056q-7.822,0-15.645,0Q14.467.049,8.8.032A34.756,34.756,0,0,0,4.409.1,4.781,4.781,0,0,0,.36,2.75,3.926,3.926,0,0,0,.92,6.968C2.289,8.392,4.6,8.384,6.507,8.386l3.892,0,13.3,0H39.53l12.617,0,3.3,0a11.356,11.356,0,0,0,3.014-.317,3.642,3.642,0,0,0,2.9-2.949,4.257,4.257,0,0,0-1.526-3.965c-.252-.2-.62.135-.367.336C60.794,2.546,60.088,1.347,59.829,1.155Z" transform="translate(0.004 0.001)" fill="#1583d8"/>
        </g>
      </g>
      <g id="Group_62" data-name="Group 62" transform="translate(-1260.803 13540.795)">
        <g id="Form_Fields_Pill_Box_Half-2" data-name="Form Fields / Pill Box / Half" transform="translate(0)">
          <path id="Pill_Box-2" data-name="Pill Box" d="M78.025,1.614C75.669-.257,72.56.021,69.709.039q-2.645.017-5.289.02Q55.537.08,46.654.079q-10.2,0-20.4,0Q18.867.068,11.483.045a42.325,42.325,0,0,0-5.732.1A6.236,6.236,0,0,0,.47,3.842,5.8,5.8,0,0,0,1.2,9.734c1.786,1.989,4.794,1.978,7.287,1.98l5.076,0q8.672,0,17.345,0H51.552q8.227,0,16.455,0l4.3,0a13.868,13.868,0,0,0,3.93-.442,4.941,4.941,0,0,0,3.777-4.119,6.172,6.172,0,0,0-1.99-5.539c-.328-.279-.808.189-.478.469C79.284,3.557,78.364,1.882,78.025,1.614Z" transform="translate(0.004 0.001)" fill="#1583d8"/>
        </g>
      </g>
      <g id="Progress_Bars_Size_Small_Line_-_Empty" data-name="Progress Bars / Size / Small / Line - Empty" transform="translate(-1188.442 13493.697) rotate(90)">
        <path id="Unfilled" d="M29.468.129c.29.066.555.386.513.965-.038.528-.37.612-.617.607L28.4,1.68q-1.219-.022-2.438-.036-3.116-.039-6.232-.053-3.524-.019-7.05-.018-3.328,0-6.656.028c-1.683.015-3.367.034-5.05.086L.515,1.7V1.35H.531V1.7c-.309-.009-.6-.3-.518-.913C.077.3.347.135.6.126Q1.086.109,1.57.1,2.787.066,4,.051C6.086.022,8.169.01,10.251,0q3.523-.011,7.046,0,3.327.011,6.653.042c1.688.016,3.376.035,5.064.07l.454.009c.129,0,.129.355,0,.352C27.935.445,26.4.427,24.868.41Q21.712.377,18.556.364,15.121.348,11.686.353q-3.168,0-6.336.034C3.782.4,2.214.422.646.476a.422.422,0,0,0-.3.091A.618.618,0,0,0,.2,1.092a.308.308,0,0,0,.327.258c.129,0,.129.349,0,.352H.515c-.129,0-.129-.348,0-.352,1.535-.056,3.07-.075,4.605-.092q3.148-.035,6.3-.036,3.437-.006,6.874.009,3.169.013,6.339.045c1.563.016,3.127.035,4.691.07a.545.545,0,0,0,.319-.048.505.505,0,0,0,.1-.587.372.372,0,0,0-.272-.231C29.342.452,29.341.1,29.468.129Z" transform="translate(0 0)" fill="#1583d8"/>
      </g>
      <g id="Progress_Bars_Size_Small_Line_-_Empty-2" data-name="Progress Bars / Size / Small / Line - Empty" transform="translate(-1188.621 13493.733) rotate(90)">
        <path id="Unfilled-2" data-name="Unfilled" d="M17.456.09c.172.046.329.268.3.67-.022.367-.219.425-.365.421l-.574-.014q-.722-.015-1.444-.025-1.846-.027-3.692-.037Q9.6,1.092,7.509,1.093c-1.314,0-2.465.075-3.779.09-1,.011-2.113.1-3.11.132-.09,0-.225-.136-.315-.132V.938H.315v.377C.132,1.308-.039.972.008.548.046.209.205.094.357.087Q.643.076.93.067,1.651.046,2.372.036C3.605.015,4.839.007,6.073,0Q8.159,0,10.246.005q1.971.008,3.941.029c1,.011,2,.024,3,.049l.269.007C17.532.092,17.381.069,17.456.09Z" transform="translate(0 0)" fill="#1583d8"/>
      </g>
      <g id="Drop_Downs_Base_Box_Action_1" data-name="Drop Downs / Base Box / Action 1" transform="translate(-1257.448 13472.279)">
        <path id="Base_Box" data-name="Base Box" d="M28.592,54.824c-9.384-.081-18.769-.15-28.154-.046A.453.453,0,0,1,0,54.321c0-2.9.028-5.795.06-8.693C.182,34.814.448,23.979,0,13.169a.47.47,0,0,1,.03-.193c0-.183,0-.368,0-.55q-.061-4.371,0-8.744C.044,2.608-.234,1.062,1.148.806A25.617,25.617,0,0,1,4.309.571Q5.833.486,7.359.44C11.218.319,15.08.322,18.942.324c2.4,0,4.8,0,7.2-.024Q34.216.205,42.291.107C48.242.045,54.194-.007,60.147,0c2.5,0,4.994.016,7.491.058q1.489.024,2.974.069c1.042.032,2.446-.052,2.653,1.29q0,.02,0,.039a.5.5,0,0,1,.01.079c.067,1.394.086,2.792.092,4.188q.011,2.44-.048,4.881c-.02.772-.047,1.543-.086,2.313q0,.05,0,.1a.5.5,0,0,1,.015.148c-.119,2.9-.181,5.8-.21,8.7-.108,10.818.207,21.633.21,32.45a.455.455,0,0,1-.437.457c-5.263.128-10.528.184-15.792.2q-1.695.005-3.39.005C45.283,54.983,36.937,54.9,28.592,54.824Zm-12.411-1c9.47.04,18.939.16,28.408.216,9.261.054,18.523.05,27.783-.166,0-2.749-.029-5.5-.06-8.246-.114-10.151-.356-20.319-.015-30.468a3.927,3.927,0,0,1-1.228.11c-.129,0-.253,0-.37,0l-3.206.063q-3.426.065-6.85.125c-5.688.1-11.378.206-17.068.241-9.789.06-19.581.1-29.37.052-2.256-.012-4.493,0-6.749.131a17.766,17.766,0,0,1-6.112-.354,2.2,2.2,0,0,1-.389-.157c.069,2.167.108,4.334.13,6.5C1.194,32.534.888,43.2.876,53.859q4.91-.051,9.818-.048Q13.437,53.811,16.181,53.823ZM3.463,1.5c-.568.035-1.138.067-1.7.123s-.8.064-.832.661C.9,2.8.9,3.325.9,3.844Q.874,5.911.877,7.976q0,2.106.023,4.211c.006.53,0,1.065.029,1.595.036.6.3.806.858.956a10.3,10.3,0,0,0,1.789.288,38.6,38.6,0,0,0,5.366-.042c1.2-.065,2.4-.13,3.6-.12,1.728.014,3.456.017,5.183.02q14.084.02,28.168-.079c6.326-.05,12.652-.184,18.978-.3l3.5-.066,1.458-.028c.183,0,.379,0,.577.01a5.144,5.144,0,0,0,1.171-.045c.388-.081.657-.2.735-.613a3.439,3.439,0,0,0,.029-.444c.016-.274.029-.549.042-.823.031-.7.052-1.4.07-2.093.071-2.941.095-5.894-.047-8.834-.157-.643-.906-.537-1.446-.555C70.518,1,70.079.989,69.638.977,59.131.711,48.607.907,38.1,1.032c-4.791.055-9.583.123-14.374.172-2.043.021-4.087.017-6.132.013q-1.248,0-2.5,0C11.212,1.214,7.333,1.251,3.463,1.5Z" transform="translate(0 0)" fill="#1583d8"/>
        <g id="Icon_-_Arrow_Down" data-name="Icon - Arrow Down" transform="translate(62.429 6.374)" clip-path="url(#clip-path-15)">
          <path id="Arrow_Down" data-name="Arrow Down" d="M472.6,45.362q.879.909,1.72,1.854c-.037-.138-.073-.277-.11-.415,0,.01,0,.021-.007.031a.43.43,0,0,0,.713.415,25.274,25.274,0,0,0,1.625-2.019c.354-.417-.248-1.023-.6-.6a24.712,24.712,0,0,1-1.625,2.019l.713.415c.091-.393-.287-.656-.525-.916q-.638-.7-1.3-1.383c-.383-.4-.986.206-.6.6Z" transform="translate(-472.48 -44.484)" fill="#1583d8"/>
        </g>
        <text id="List_1" data-name="List 1" transform="translate(8.787 27.565)" fill="#1583d8" font-size="5" font-family="TektonPro-Bold, Tekton Pro" font-weight="700"><tspan x="0" y="0">List 1</tspan></text>
        <text id="SAVE" transform="translate(31.027 76.245)" fill="#fff" font-size="5" font-family="TektonPro-Bold, Tekton Pro" font-weight="700"><tspan x="0" y="0">SAVE</tspan></text>
        <text id="List_2" data-name="List 2" transform="translate(8.787 37.55)" fill="#fff" font-size="5" font-family="TektonPro-Bold, Tekton Pro" font-weight="700"><tspan x="0" y="0">List 2</tspan></text>
        <text id="List_3" data-name="List 3" transform="translate(8.787 47.535)" fill="#1583d8" font-size="5" font-family="TektonPro-Bold, Tekton Pro" font-weight="700"><tspan x="0" y="0">List 3</tspan></text>
        <text id="My_questions" data-name="My questions" transform="translate(27.448 9.348)" fill="#1583d8" font-size="7" font-family="TektonPro-Bold, Tekton Pro" font-weight="700"><tspan x="-19.362" y="0">My questions</tspan></text>
      </g>
      <g id="Mobile_wireframe-3" data-name="Mobile wireframe" transform="translate(-1117.469 13340)">
        <g id="Phone_border_screen-3" data-name="Phone border screen" transform="translate(0.085 0.102)" fill="none">
          <path d="M23.358-.054s47.967.107,57.139,0,57.071,0,57.071,0a23.341,23.341,0,0,1,23.4,23.278s.148,81.848,0,102.9.664,78.631,0,89.151,0,86.35,0,86.35a23.341,23.341,0,0,1-23.4,23.278s-43.179-.5-55.02,0-59.19,0-59.19,0a23.341,23.341,0,0,1-23.4-23.278s-.04-50.846-.04-104.471c0-.286.04-113.262.04-113.262V23.224A23.341,23.341,0,0,1,23.358-.054Z" stroke="none"/>
          <path d="M 99.37002563476563 1.8983154296875 C 89.55956268310547 1.8983154296875 83.21772766113281 1.9141845703125 80.52072906494141 1.945526123046875 C 77.80785369873047 1.977020263671875 71.44444274902344 1.99298095703125 61.60731506347656 1.99298095703125 C 44.86906433105469 1.99298095703125 23.56706237792969 1.94610595703125 23.3582763671875 1.945648193359375 C 20.46656799316406 1.945648193359375 17.66252136230469 2.50848388671875 15.02401733398438 3.618438720703125 C 12.47523498535156 4.69073486328125 10.18594360351563 6.225982666015625 8.2197265625 8.181640625 C 6.2542724609375 10.13650512695313 4.71148681640625 12.4122314453125 3.634185791015625 14.94546508789063 C 2.5196533203125 17.56637573242188 1.95452880859375 20.35159301757813 1.95452880859375 23.2236328125 L 1.95452880859375 83.89642333984375 C 1.9541015625 85.02618408203125 1.914566040039063 196.8748016357422 1.914566040039063 197.1572570800781 C 1.914566040039063 250.1685485839844 1.9541015625 301.1182250976563 1.95452880859375 301.6282348632813 C 1.95452880859375 304.5002746582031 2.5196533203125 307.2854614257813 3.634185791015625 309.9064025878906 C 4.71148681640625 312.4396362304688 6.2542724609375 314.7153015136719 8.2197265625 316.6702270507813 C 10.18594360351563 318.6258544921875 12.47523498535156 320.1611328125 15.02401733398438 321.2333984375 C 17.66252136230469 322.3433837890625 20.46656799316406 322.9061889648438 23.3582763671875 322.9061889648438 L 23.368896484375 322.9061889648438 L 23.37948608398438 322.9063110351563 C 23.58981323242188 322.9085083007813 44.61331176757813 323.12939453125 61.93968963623047 323.12939453125 C 72.09452056884766 323.12939453125 78.99968719482422 323.0549011230469 82.46335601806641 322.907958984375 C 85.98389434814453 322.7586669921875 92.5823974609375 322.6829833984375 102.0755615234375 322.6829833984375 C 118.0429000854492 322.6829833984375 137.0204467773438 322.8997497558594 137.5805358886719 322.9061889648438 C 140.4679412841797 322.9046020507813 143.2679748535156 322.341796875 145.9027709960938 321.2333984375 C 148.4515686035156 320.1611328125 150.7408599853516 318.6258544921875 152.7070617675781 316.6702270507813 C 154.6725616455078 314.7153015136719 156.2153167724609 312.4396362304688 157.2926025390625 309.9064025878906 C 158.4061279296875 307.2878723144531 158.9712371826172 304.505126953125 158.9722747802734 301.6358642578125 C 158.9439239501953 298.395263671875 158.316162109375 225.6122436523438 158.9762268066406 215.1521301269531 C 159.3818511962891 208.7242736816406 159.2254028320313 183.7105560302734 159.08740234375 161.6414337158203 C 158.9990692138672 147.5181732177734 158.9156494140625 134.1781768798828 158.9723205566406 126.1134796142578 C 159.1185607910156 105.3074798583984 158.9737701416016 24.04562377929688 158.9722747802734 23.2236328125 C 158.9722747802734 20.35159301757813 158.4071502685547 17.56637573242188 157.2926025390625 14.94546508789063 C 156.2153167724609 12.4122314453125 154.6725158691406 10.13650512695313 152.7070617675781 8.181640625 C 150.7408599853516 6.225982666015625 148.4515686035156 4.69073486328125 145.9027709960938 3.618438720703125 C 143.2642669677734 2.50848388671875 140.4602355957031 1.945648193359375 137.5640563964844 1.945648193359375 C 137.3512268066406 1.9451904296875 116.0846481323242 1.89825439453125 99.37002563476563 1.8983154296875 M 99.37004089355469 -0.101715087890625 C 116.2802124023438 -0.101715087890625 137.5685272216797 -0.054351806640625 137.5685272216797 -0.054351806640625 C 150.4940643310547 -0.054351806640625 160.9722747802734 10.3675537109375 160.9722747802734 23.2236328125 C 160.9722747802734 23.2236328125 161.1202697753906 105.0719757080078 160.9722747802734 126.1275177001953 C 160.8242797851563 147.1830596923828 161.6360626220703 204.7584228515625 160.9722747802734 215.2781066894531 C 160.3084411621094 225.7978057861328 160.9722747802734 301.6282348632813 160.9722747802734 301.6282348632813 C 160.9722747802734 314.4843139648438 150.4940643310547 324.9061889648438 137.5685272216797 324.9061889648438 C 137.5685272216797 324.9061889648438 118.3772735595703 324.6829833984375 102.0755615234375 324.6829833984375 C 93.92322540283203 324.6829833984375 86.49576568603516 324.73876953125 82.54810333251953 324.9061889648438 C 78.60118103027344 325.0735778808594 70.70792388916016 325.12939453125 61.93970489501953 325.12939453125 C 44.40165710449219 325.12939453125 23.3582763671875 324.9061889648438 23.3582763671875 324.9061889648438 C 10.43276977539063 324.9061889648438 -0.04547119140625 314.4843139648438 -0.04547119140625 301.6282348632813 C -0.04547119140625 301.6282348632813 -0.0854339599609375 250.7826385498047 -0.0854339599609375 197.1572570800781 C -0.0854339599609375 196.8711853027344 -0.04547119140625 83.89572143554688 -0.04547119140625 83.89572143554688 L -0.04547119140625 23.2236328125 C -0.04547119140625 10.3675537109375 10.43276977539063 -0.054351806640625 23.3582763671875 -0.054351806640625 C 23.3582763671875 -0.054351806640625 44.67765808105469 -0.00701904296875 61.60730743408203 -0.00701904296875 C 70.07368469238281 -0.00701904296875 77.43990325927734 -0.018829345703125 80.49752044677734 -0.054351806640625 C 83.55458831787109 -0.089874267578125 90.91572570800781 -0.101715087890625 99.37004089355469 -0.101715087890625 Z" stroke="none" fill="#1583d8"/>
        </g>
        <g id="Phone_screen-3" data-name="Phone screen" transform="translate(9.401 9.824)" fill="#fff" opacity="0.6">
          <path d="M 127.3167190551758 304.8722534179688 L 14.97871685028076 304.8722534179688 C 11.24375534057617 304.8722534179688 7.732677936553955 303.4259338378906 5.092255115509033 300.7997741699219 C 2.45333194732666 298.175048828125 0.9999856948852539 294.6856994628906 0.9999856948852539 290.9745178222656 L 0.9999856948852539 223.6175842285156 L 0.9999856948852539 67.91577911376953 L 0.9999856948852539 14.89774227142334 C 0.9999856948852539 11.18647289276123 2.45333194732666 7.697165012359619 5.092255115509033 5.072511196136475 C 7.732639789581299 2.446319103240967 11.2437162399292 1.000049829483032 14.97871685028076 1.000049829483032 L 31.17202568054199 1.000049829483032 C 30.94429588317871 1.80453360080719 30.82940864562988 2.638196229934692 30.82940864562988 3.492011308670044 C 30.82940864562988 8.535550117492676 34.93264007568359 12.63878059387207 39.97621536254883 12.63878059387207 L 102.7862930297852 12.63878059387207 C 107.8303680419922 12.63878059387207 111.9340209960938 8.535550117492676 111.9340209960938 3.492011308670044 C 111.9340209960938 2.638172149658203 111.8191452026367 1.804537057876587 111.5914077758789 1.000049829483032 L 127.3167190551758 1.000049829483032 C 131.0513305664063 1.000049829483032 134.5621032714844 2.446319103240967 137.2023773193359 5.072473049163818 C 139.8412170410156 7.697203636169434 141.2945251464844 11.18655014038086 141.2945251464844 14.89774227142334 L 141.2945251464844 290.9745178222656 C 141.2945251464844 294.6856689453125 139.8412170410156 298.1750183105469 137.2023773193359 300.7997741699219 C 134.5620574951172 303.4259338378906 131.0512542724609 304.8722534179688 127.3167190551758 304.8722534179688 Z" stroke="none"/>
          <path d="M 127.3167114257813 303.8722229003906 C 130.7851715087891 303.8722229003906 134.0455017089844 302.5292663574219 136.4971313476563 300.0907592773438 C 138.9459228515625 297.6551208496094 140.2945404052734 294.4175720214844 140.2945404052734 290.9745483398438 L 140.2945404052734 14.89770984649658 C 140.2945404052734 11.45466804504395 138.9459228515625 8.217126846313477 136.4971313476563 5.781459808349609 C 134.0455474853516 3.342960119247437 130.7852172851563 2.000043392181396 127.3167114257813 2.000043392181396 L 112.8259506225586 2.000043392181396 C 112.8978729248047 2.490063905715942 112.9340057373047 2.987910747528076 112.9340057373047 3.492043256759644 C 112.9340057373047 9.086959838867188 108.3817520141602 13.63879299163818 102.7862930297852 13.63879299163818 L 39.97621154785156 13.63879299163818 C 34.38125610351563 13.63879299163818 29.82942199707031 9.086959838867188 29.82942199707031 3.492043256759644 C 29.82942199707031 2.987938404083252 29.86556053161621 2.490053176879883 29.93747711181641 2.000043392181396 L 14.9787130355835 2.000043392181396 C 11.50979614257813 2.000043392181396 8.249171257019043 3.3430016040802 5.797421455383301 5.781501770019531 C 3.348629951477051 8.217084884643555 2.000005006790161 11.45458507537842 2.000005006790161 14.89770984649658 L 2.000005006790161 67.91579437255859 L 2.000005006790161 223.6175842285156 L 2.000005006790161 290.9745483398438 C 2.000005006790161 294.4176330566406 3.348629951477051 297.6551208496094 5.797463417053223 300.0907592773438 C 8.249130249023438 302.5292663574219 11.50979614257813 303.8722229003906 14.9787130355835 303.8722229003906 L 127.3167114257813 303.8722229003906 M 127.3167114257813 305.8722229003906 L 14.9787130355835 305.8722229003906 C 10.97762966156006 305.8722229003906 7.216129779815674 304.3226318359375 4.387046813964844 301.5087585449219 C 1.558004975318909 298.6950073242188 4.943847670801915e-06 294.9538879394531 4.943847670801915e-06 290.9745483398438 L 4.943847670801915e-06 223.6175842285156 L 4.943847670801915e-06 67.91579437255859 L 4.943847670801915e-06 14.89770984649658 C 4.943847670801915e-06 10.9183349609375 1.558004975318909 7.177209854125977 4.387046813964844 4.363460063934326 C 7.216129779815674 1.549626708030701 10.97767162322998 4.337565042078495e-05 14.9787130355835 4.337565042078495e-05 L 32.61350631713867 4.337565042078495e-05 C 32.09354782104492 1.094626665115356 31.82942199707031 2.269001722335815 31.82942199707031 3.492043256759644 C 31.82942199707031 7.984168529510498 35.48404693603516 11.63879299163818 39.97621154785156 11.63879299163818 L 102.7862930297852 11.63879299163818 C 107.2790069580078 11.63879299163818 110.9340057373047 7.984168529510498 110.9340057373047 3.492043256759644 C 110.9340057373047 2.270126819610596 110.6702117919922 1.095251679420471 110.1499252319336 4.337565042078495e-05 L 127.3167114257813 4.337565042078495e-05 C 131.3173828125 4.337565042078495e-05 135.0785827636719 1.549626708030701 137.9075469970703 4.363460063934326 C 140.7365417480469 7.177293300628662 142.2945404052734 10.91845989227295 142.2945404052734 14.89770984649658 L 142.2945404052734 290.9745483398438 C 142.2945404052734 294.9538269042969 140.7365417480469 298.6949462890625 137.9075469970703 301.5087585449219 C 135.0785827636719 304.3225708007813 131.3173828125 305.8722229003906 127.3167114257813 305.8722229003906 Z" stroke="none" fill="#1583d8"/>
        </g>
        <g id="Header_icon-3" data-name="Header icon" transform="translate(68.074 12.152)">
          <path id="Line-5" data-name="Line" d="M.742,73.621c.194.107,7.6.139,11.6.027,3.518-.1,7.035-.381,10.561-.411.212,0,1.446,0,1.667,0,.246.061.6-.276.605-.564s-.479-.525-.905-.5c-3.469-.021-6.889.151-10.38.175-3.734.152-11.732.033-11.732.033L.7,72.292s-.589.067-.6.609S.548,73.514.742,73.621Z" transform="translate(-0.102 -70.931)" fill="#1583d8"/>
          <ellipse id="Ellipse_335-3" data-name="Ellipse 335" cx="1.638" cy="1.629" rx="1.638" ry="1.629" transform="translate(26.985)" fill="#1583d8"/>
        </g>
        <path id="Line-6" data-name="Line" d="M1.617,73.662c.5.11,19.586.143,29.883.028,9.063-.1,18.126-.392,27.211-.422.547,0,3.726,0,4.295,0,.633.063.53-.381.531-.677s-.207-.442-1.305-.421c-8.938-.022-17.749.155-26.745.18-9.62.157-30.227.034-30.227.034L1.521,72.3s-.731.074-.766.632S1.117,73.552,1.617,73.662Z" transform="translate(48.2 233.592)" fill="#1583d8" stroke="#1583d8" stroke-width="1"/>
        <g id="status_bar_light-3" data-name="status bar/light" transform="translate(15.955 20.066)">
          <g id="Battery-3" data-name="Battery" transform="translate(120.763 1.086)">
            <g id="Border-3" data-name="Border" transform="translate(0 0)" clip-path="url(#clip-path)">
              <path id="Fill-11" data-name="Fill" d="M1.248,0h7.8A1.245,1.245,0,0,1,10.3,1.241V4.035h0A1.245,1.245,0,0,1,9.049,5.276h-7.8A1.245,1.245,0,0,1,0,4.035V1.241H0A1.245,1.245,0,0,1,1.248,0Z" fill="none" stroke="rgba(21,131,216,0.5)" stroke-width="2"/>
            </g>
            <g id="Cap-3" data-name="Cap" transform="translate(10.766 1.707)" clip-path="url(#clip-path-2)">
              <path id="Fill-12" data-name="Fill" d="M354-28h5.3v6.518H354Z" transform="translate(-356.34 25.672)" fill="#1583d8"/>
            </g>
            <g id="Capacity-3" data-name="Capacity" transform="translate(0.936 0.931)" clip-path="url(#clip-path-3)">
              <path id="Fill-13" data-name="Fill" d="M333-29.667h13.106v8.07H333Z" transform="translate(-335.34 27.339)" fill="#1583d8"/>
            </g>
          </g>
          <g id="Wifi-5" data-name="Wifi" transform="translate(111.258 1.085)">
            <g id="Wifi-6" data-name="Wifi" transform="translate(0 0)" clip-path="url(#clip-path-4)">
              <path id="Fill-14" data-name="Fill" d="M310.694-31.669h11.829v9.761H310.694Z" transform="translate(-313.034 29.342)" fill="#1583d8"/>
            </g>
          </g>
          <g id="Cellular_Connection-5" data-name="Cellular Connection" transform="translate(100.948 1.241)">
            <g id="Cellular_Connection-6" data-name="Cellular Connection" transform="translate(0 0)" clip-path="url(#clip-path-5)">
              <path id="Fill-15" data-name="Fill" d="M288.667-31.333H301.3v9.622H288.667Z" transform="translate(-291.007 29.006)" fill="#1583d8"/>
            </g>
          </g>
          <g id="Bars___Time_Black-3" data-name="Bars/_/Time Black" transform="translate(0 0)">
            <path id="Background-3" data-name="Background" d="M21-27.551H46.276V-35H21Z" transform="translate(-21 35)" fill="none"/>
            <text id="_10:20-3" data-name="10:20" transform="translate(1.872 4.862)" fill="#1583d8" font-size="4" font-family="TektonPro-Bold, Tekton Pro" font-weight="700"><tspan x="0" y="0">10:20</tspan></text>
          </g>
        </g>
      </g>
      <g id="Button_-_Circle_-_Arrow_Left_1-3" data-name="Button - Circle - Arrow Left 1" transform="translate(-1098.36 13379.922)" clip-path="url(#clip-path-6)">
        <path id="Oval-3" data-name="Oval" d="M.755,6.187C1.267,2.5,4.873.375,8.35.827c3.217.419,4.335,3.749,4.375,6.667.061,4.515-5.445,5.828-8.814,4.361A5.321,5.321,0,0,1,.768,6.089c.054-.471-.667-.466-.722,0a6.007,6.007,0,0,0,2.909,6.106,8.177,8.177,0,0,0,6.608.544,5.494,5.494,0,0,0,3.871-4.769c.206-2.98-.97-6.711-4.027-7.663C5.429-.932.656,1.694.06,5.99-.005,6.455.69,6.655.755,6.187Z" transform="translate(0.002 0.001)" fill="#1583d8"/>
        <g id="Icon_-_Arrow_Left_1-3" data-name="Icon - Arrow Left 1" transform="translate(5.117 4.08)" clip-path="url(#clip-path-7)">
          <path id="Arrow_Left_1-3" data-name="Arrow Left 1" d="M.139,1Q1.144,2.044,2.105,3.124c-.042-.158-.083-.317-.125-.475,0,.011,0,.024-.008.036a.492.492,0,0,0,.815.475A28.885,28.885,0,0,0,4.644.852c.4-.477-.283-1.169-.69-.69A28.242,28.242,0,0,1,2.1,2.47l.815.475c.1-.449-.329-.75-.6-1.047Q1.583,1.095.829.317C.393-.137-.3.552.139,1Z" transform="translate(3.298 0) rotate(90)" fill="#1583d8"/>
        </g>
      </g>
      <g id="Button_-_Circle_-_Arrow_Left_1-4" data-name="Button - Circle - Arrow Left 1" transform="translate(-1053.802 13512.965) rotate(-90)">
        <path id="Oval-4" data-name="Oval" d="M1.946,16.16C3.265,6.531,12.551.981,21.5,2.162c8.282,1.094,11.162,9.792,11.264,17.412.158,11.791-14.02,15.22-22.692,11.39C4.083,28.319,1.231,22.506,1.98,15.9c.139-1.229-1.718-1.216-1.858,0C-.621,22.445,1.974,28.6,7.612,31.848A20.789,20.789,0,0,0,24.626,33.27c5.394-1.928,9.555-6.381,9.967-12.455C35.122,13.031,32.094,3.288,24.224.8,13.981-2.433,1.692,4.427.156,15.646-.011,16.859,1.779,17.382,1.946,16.16Z" transform="translate(0.002 0.001)" fill="#1583d8"/>
        <g id="Icon_-_Arrow_Left_1-4" data-name="Icon - Arrow Left 1" transform="translate(9.652 7.96)">
          <path id="Arrow_Left_1-4" data-name="Arrow Left 1" d="M.418,8.3Q3.443,11.5,6.336,14.812c-.127-.484-.25-.974-.377-1.458-.01.035-.015.075-.024.11a1.483,1.483,0,0,0,2.452,1.458c2.159-2.108,7.847-9.995,9.776-12.307C19.382,1.152,17.311-.976,16.088.5,14.164,2.81,8.47,10.7,6.312,12.8c.817.484,1.635.974,2.452,1.458.313-1.378-.989-2.3-1.806-3.216q-2.2-2.465-4.464-4.855C1.182,4.8-.893,6.916.418,8.3Z" transform="translate(15.348 0) rotate(90)" fill="#1583d8"/>
        </g>
      </g>
      <text id="The_question_has_successfully_saved_to_your_list" data-name="The question has 
successfully saved 
to your list" transform="translate(-1037 13526.506)" fill="#1583d8" font-size="7" font-family="TektonPro-Bold, Tekton Pro" font-weight="700"><tspan x="-24.556" y="0">The question has </tspan><tspan x="-27.363" y="9">successfully saved </tspan><tspan x="-15.795" y="18">to your list</tspan></text>
      <path id="Icon_-_Heart-3" data-name="Icon - Heart" d="M4.35,7.195c1.5.914,2.772-.259,3.812-1.073,1.129-.884,2.674-1.927,2.9-3.27A2.765,2.765,0,0,0,9.077.107C7.4-.322,6.212.6,5.177,1.526h.716A4.384,4.384,0,0,0,2.8.021,2.842,2.842,0,0,0,.253,1.644a2.28,2.28,0,0,0,.663,2.77A24.383,24.383,0,0,0,4.249,7.131c.483.353,1.2-.226.716-.58C4.215,6,3.482,5.442,2.777,4.859S1.139,3.593,1.023,2.741A1.892,1.892,0,0,1,2.69.845,3.408,3.408,0,0,1,5.177,2.108a.6.6,0,0,0,.716,0A3.345,3.345,0,0,1,8.491.847a1.753,1.753,0,0,1,1.369,2.4A7.917,7.917,0,0,1,7.772,5.283c-.724.578-1.83,1.865-2.912,1.2C4.34,6.167,3.835,6.88,4.35,7.195Z" transform="translate(-986.027 13381.877)" fill="#1583d8"/>
      <g id="Progress_Bars_Size_Small_Solid_-_Half-3" data-name="Progress Bars / Size / Small / Solid - Half" transform="translate(-1099.591 13638.414)">
        <path id="Half-3" data-name="Half" d="M42.928,5.143Q29.849,5.116,16.769,5q-5.1-.051-10.2-.139-2.027-.037-4.052-.087A2.365,2.365,0,0,1,.056,2.767,2.14,2.14,0,0,1,2.067.009.368.368,0,0,1,2.158,0c.635.016,1.268.032,1.9.046C11.109.2,18.16.26,25.21.306Q39.145.4,53.081.391,67.842.4,82.6.338,95.653.287,108.7.178q5.105-.045,10.208-.11,2.027-.027,4.056-.061c1.032-.018,2.424.238,2.583,1.837a2.517,2.517,0,0,1-2.028,2.9.366.366,0,0,1-.123.023.345.345,0,0,1-.108,0q-.9.015-1.791.027c-7.068.107-14.137.164-21.205.212q-13.929.1-27.859.128-8.481.021-16.962.022Q49.2,5.156,42.928,5.143ZM64.972,4.085q6.365-.009,12.731-.031,13.215-.042,26.43-.14c6.418-.05,12.835-.107,19.252-.215l.01,0a1.543,1.543,0,0,0,1.14-.7,1.248,1.248,0,0,0-.421-1.777,3.085,3.085,0,0,0-1.336-.144c-6.548.107-13.1.162-19.643.212q-13.27.1-26.543.137-5.81.017-11.619.026Z" transform="translate(0 0)" fill="#1583d8" stroke="#1583d8" stroke-miterlimit="10" stroke-width="0.5"/>
      </g>
      <g id="Heart_Solid-2" data-name="Heart Solid" transform="translate(-986.022 13381.875)">
        <path id="Icon_-_Heart_Solid-2" data-name="Icon - Heart Solid" d="M4.344,8.877l-.031-.025a.593.593,0,0,1-.07-.054A26.264,26.264,0,0,1,.91,5.446,3.258,3.258,0,0,1,.247,2.03,2.879,2.879,0,0,1,2.8.027,3.636,3.636,0,0,1,5.532,1.5C6.484.5,7.587-.335,9.071.134A3.44,3.44,0,0,1,11.053,3.52c-.223,1.656-1.767,2.942-2.9,4.033-.772.745-1.673,1.734-2.7,1.734A1.825,1.825,0,0,1,4.344,8.877Z" transform="translate(0 0)" fill="#1583d8"/>
      </g>
      <g id="Media_Text_Image-2" data-name="Media / Text Image" transform="translate(-1083.381 13455.762)">
        <path id="Path_972-2" data-name="Path 972" d="M48.675.034Q36.8.347,24.932.665L15.685.907q-3.061.078-6.125.161c-1.362.038-2.727.071-4.089.109-1.11.033-2.958.484-4,.014-.4-.18-.779.27-.8.687C-.675,35.829.485,69.817.079,103.787a.685.685,0,0,0,.628.711c10.122.488,20.257.844,30.388,1,16.377.251,32.755-.65,49.137-.64,4.253,0,8.5.019,12.753.1a.682.682,0,0,0,.628-.711c-.725-34.287.163-68.584-.557-102.866A.688.688,0,0,0,92.428.67c-11.9-.251-23.8-.493-35.7-.621C54.042.02,51.356-.032,48.675.034c-.809.019-.809,1.441,0,1.422,12.967-.318,25.989.27,38.956.531l4.8.1L91.8,1.376c.725,34.287-.163,68.584.557,102.866l.628-.711c-11.9-.237-23.818-.119-35.717.142-14.836.327-29.587.441-44.427-.1q-6.071-.22-12.133-.5l.628.711c.406-33.965-.754-67.948.595-101.9-.264.228-.528.455-.8.683a6.752,6.752,0,0,0,2.828.081l4.3-.114,6.423-.171q4.94-.128,9.879-.261l24.112-.64C49.479,1.433,49.483.011,48.675.034Z" transform="translate(0.002 -0.002)" fill="#1583d8"/>
      </g>
      <path id="Path_1052-2" data-name="Path 1052" d="M6.164,0C13.838,29.753,0,56.738,0,56.738" transform="translate(-986.491 13393.919) rotate(9)" fill="none" stroke="#707070" stroke-width="1"/>
      <g id="Polygon_7-2" data-name="Polygon 7" transform="translate(-994.596 13457.226) rotate(-138)" fill="#fff">
        <path d="M 9.353043556213379 5.58497428894043 L 2.348823547363281 5.58497428894043 C 2.04210352897644 5.58497428894043 1.919153571128845 5.352184295654297 1.888783574104309 5.280834197998047 C 1.858403563499451 5.209484100341797 1.775823593139648 4.959514141082764 1.988403558731079 4.738424301147461 L 5.490523338317871 1.096214175224304 C 5.585663318634033 0.9972642064094543 5.713663578033447 0.94277423620224 5.85093355178833 0.94277423620224 C 5.988203525543213 0.94277423620224 6.116203784942627 0.9972642064094543 6.211343765258789 1.096214175224304 L 9.71345329284668 4.738414287567139 C 9.926043510437012 4.959514141082764 9.843463897705078 5.209484100341797 9.813083648681641 5.280834197998047 C 9.782713890075684 5.352184295654297 9.659763336181641 5.58497428894043 9.353043556213379 5.58497428894043 Z" stroke="none"/>
        <path d="M 5.85093355178833 1.442774295806885 L 2.348827362060547 5.084970474243164 C 2.348827362060547 5.084971904754639 2.348828315734863 5.084972858428955 2.348823547363281 5.08497428894043 L 9.353038787841797 5.08497428894043 C 9.353038787841797 5.084972858428955 9.353039741516113 5.084971904754639 9.353043556213379 5.08497428894043 L 5.852023601531982 1.442874431610107 C 5.851913452148438 1.442844390869141 5.851503372192383 1.442774295806885 5.85093355178833 1.442774295806885 M 5.85093355178833 0.4427719116210938 C 6.112986087799072 0.4427719116210938 6.375038623809814 0.5450692176818848 6.571763515472412 0.749664306640625 L 10.07387351989746 4.39186429977417 C 10.68484306335449 5.02726411819458 10.23452377319336 6.08497428894043 9.353043556213379 6.08497428894043 L 2.348823547363281 6.08497428894043 C 1.467343330383301 6.08497428894043 1.017023086547852 5.02726411819458 1.627993583679199 4.39186429977417 L 5.130103588104248 0.749664306640625 C 5.326828479766846 0.5450692176818848 5.588881015777588 0.4427719116210938 5.85093355178833 0.4427719116210938 Z" stroke="none" fill="#707070"/>
      </g>
      <text id="_33_60-2" data-name="33/60" transform="translate(-1165 13635.811)" fill="#1583d8" font-size="4" font-family="TektonPro-Bold, Tekton Pro" font-weight="700"><tspan x="-5.924" y="0">33/60</tspan></text>
      <text id="_33_60-3" data-name="33/60" transform="translate(-980 13635.811)" fill="#1583d8" font-size="4" font-family="TektonPro-Bold, Tekton Pro" font-weight="700"><tspan x="-5.924" y="0">33/60</tspan></text>
    </g>
  </g>
</svg>
