<svg width="183" height="183" viewBox="0 0 183 183" fill="none" xmlns="http://www.w3.org/2000/svg">
<rect width="183" height="183" fill="#4D3026"/>
<path d="M146.431 102.854C146.609 103.875 144.83 106.175 144.296 107.124C146.253 107.836 148.033 106.946 148.389 106.946C148.744 106.946 149.278 108.014 150.88 109.081C151.028 109.18 144.118 113.53 144.118 120.469C144.118 127.942 149.456 132.568 155.684 132.568C161.911 132.568 167.427 126.519 166.715 127.23C166.004 127.942 164.542 127.182 164.758 127.052C168.317 124.917 170.452 120.647 169.918 121.181C169.384 121.715 165.401 123.999 165.648 122.96C167.427 115.487 162.623 110.683 159.776 109.437C159.594 109.358 163.224 106.904 163.869 101.964C164.402 97.8717 161.555 92 155.328 92C148.389 92 145.72 98.7614 146.431 102.854Z" fill="#F2F0F0" stroke="#F2F0F0" stroke-linecap="round" stroke-linejoin="round"/>
<path d="M148.745 133.458C146.254 133.458 144.475 134.881 144.83 134.704C146.788 135.415 148.567 136.839 148.567 136.839C148.567 136.839 151.058 135.059 152.659 134.704C153.048 134.617 151.236 133.458 148.745 133.458Z" fill="#F2F0F0" stroke="#F2F0F0" stroke-linecap="round" stroke-linejoin="round"/>
<path d="M162.312 133.458C159.821 133.458 158.042 134.881 158.398 134.704C160.355 135.415 162.134 136.839 162.134 136.839C162.134 136.839 164.625 135.059 166.227 134.704C166.615 134.617 164.803 133.458 162.312 133.458Z" fill="#F2F0F0" stroke="#F2F0F0" stroke-linecap="round" stroke-linejoin="round"/>
<path fill-rule="evenodd" clip-rule="evenodd" d="M58 169.756V152.497C58 148.226 60.1352 141.109 68.8538 141.109C77.5724 141.109 79.5297 148.76 79.5297 151.785C79.5297 156.055 75.7931 162.461 69.2097 162.461C64.5015 162.461 62.1957 160.173 61.4668 159.449C61.2866 159.271 61.2028 159.187 61.2028 159.258V169.756C61.2028 170.824 60.491 171.535 59.6014 171.535C58.7117 171.535 58 170.824 58 169.756ZM68.8539 159.436C73.0795 159.436 76.505 156.01 76.505 151.785C76.505 147.559 73.0795 144.134 68.8539 144.134C64.6284 144.134 61.2029 147.559 61.2029 151.785C61.2029 156.01 64.6284 159.436 68.8539 159.436Z" fill="#F2F0F0"/>
<path d="M148.567 163.35C149.457 163.35 150.169 162.639 150.169 161.571V142.888C150.169 141.821 149.457 141.109 148.567 141.109C147.678 141.109 146.966 141.821 146.966 142.888V161.571C146.966 162.639 147.678 163.35 148.567 163.35Z" fill="#F2F0F0" stroke="#F2F0F0" stroke-linecap="round" stroke-linejoin="round"/>
<path d="M162.09 163.35C162.979 163.35 163.691 162.639 163.691 161.571V142.888C163.691 141.821 162.979 141.109 162.09 141.109C161.2 141.109 160.488 141.821 160.488 142.888V161.571C160.488 162.639 161.2 163.35 162.09 163.35Z" fill="#F2F0F0" stroke="#F2F0F0" stroke-linecap="round" stroke-linejoin="round"/>
<path fill-rule="evenodd" clip-rule="evenodd" d="M116.361 169.756V152.497C116.361 148.226 118.497 141.109 127.215 141.109C135.934 141.109 137.891 148.76 137.891 151.785C137.891 156.055 134.154 162.461 127.571 162.461C122.863 162.461 120.557 160.173 119.828 159.449C119.648 159.271 119.564 159.187 119.564 159.258V169.756C119.564 170.824 118.852 171.535 117.963 171.535C117.073 171.535 116.361 170.824 116.361 169.756ZM127.215 159.436C131.441 159.436 134.866 156.01 134.866 151.785C134.866 147.559 131.441 144.134 127.215 144.134C122.989 144.134 119.564 147.559 119.564 151.785C119.564 156.01 122.989 159.436 127.215 159.436Z" fill="#F2F0F0"/>
<path fill-rule="evenodd" clip-rule="evenodd" d="M108.71 161.571V152.852C108.71 148.582 106.575 141.465 97.8562 141.465C89.1375 141.465 87.1803 149.116 87.1803 152.141C87.1803 156.411 90.9168 162.817 97.5003 162.817C102.208 162.817 104.514 160.529 105.243 159.805C105.423 159.627 105.507 159.543 105.507 159.614V161.571C105.507 162.639 106.219 163.35 107.109 163.35C107.998 163.35 108.71 162.639 108.71 161.571ZM97.856 159.792C93.6305 159.792 90.205 156.366 90.205 152.141C90.205 147.915 93.6305 144.49 97.856 144.49C102.082 144.49 105.507 147.915 105.507 152.141C105.507 156.366 102.082 159.792 97.856 159.792Z" fill="#F2F0F0"/>
</svg>
