<svg width="1920" height="800" viewBox="0 0 1920 800" fill="none" xmlns="http://www.w3.org/2000/svg">
<rect width="1920" height="800" fill="#EEEEFF" fill-opacity="0.48"/>
<rect width="1920" height="441" fill="#EEEEFF"/>
<path d="M181.312 123.5V154.438C181.292 158.729 179.938 162.24 177.25 164.969C174.583 167.698 170.958 169.229 166.375 169.562L164.781 169.625C159.802 169.625 155.833 168.281 152.875 165.594C149.917 162.906 148.417 159.208 148.375 154.5V123.5H154.312V154.312C154.312 157.604 155.219 160.167 157.031 162C158.844 163.812 161.427 164.719 164.781 164.719C168.177 164.719 170.771 163.812 172.562 162C174.375 160.188 175.281 157.635 175.281 154.344V123.5H181.312ZM209.562 160.031C209.562 158.469 208.969 157.26 207.781 156.406C206.615 155.531 204.562 154.781 201.625 154.156C198.708 153.531 196.385 152.781 194.656 151.906C192.948 151.031 191.677 149.99 190.844 148.781C190.031 147.573 189.625 146.135 189.625 144.469C189.625 141.698 190.792 139.354 193.125 137.438C195.479 135.521 198.479 134.562 202.125 134.562C205.958 134.562 209.062 135.552 211.438 137.531C213.833 139.51 215.031 142.042 215.031 145.125H209.219C209.219 143.542 208.542 142.177 207.188 141.031C205.854 139.885 204.167 139.312 202.125 139.312C200.021 139.312 198.375 139.771 197.188 140.688C196 141.604 195.406 142.802 195.406 144.281C195.406 145.677 195.958 146.729 197.062 147.438C198.167 148.146 200.156 148.823 203.031 149.469C205.927 150.115 208.271 150.885 210.062 151.781C211.854 152.677 213.177 153.76 214.031 155.031C214.906 156.281 215.344 157.812 215.344 159.625C215.344 162.646 214.135 165.073 211.719 166.906C209.302 168.719 206.167 169.625 202.312 169.625C199.604 169.625 197.208 169.146 195.125 168.188C193.042 167.229 191.406 165.896 190.219 164.188C189.052 162.458 188.469 160.594 188.469 158.594H194.25C194.354 160.531 195.125 162.073 196.562 163.219C198.021 164.344 199.938 164.906 202.312 164.906C204.5 164.906 206.25 164.469 207.562 163.594C208.896 162.698 209.562 161.51 209.562 160.031ZM236.906 169.625C232.323 169.625 228.594 168.125 225.719 165.125C222.844 162.104 221.406 158.073 221.406 153.031V151.969C221.406 148.615 222.042 145.625 223.312 143C224.604 140.354 226.396 138.292 228.688 136.812C231 135.312 233.5 134.562 236.188 134.562C240.583 134.562 244 136.01 246.438 138.906C248.875 141.802 250.094 145.948 250.094 151.344V153.75H227.188C227.271 157.083 228.24 159.781 230.094 161.844C231.969 163.885 234.344 164.906 237.219 164.906C239.26 164.906 240.99 164.49 242.406 163.656C243.823 162.823 245.062 161.719 246.125 160.344L249.656 163.094C246.823 167.448 242.573 169.625 236.906 169.625ZM236.188 139.312C233.854 139.312 231.896 140.167 230.312 141.875C228.729 143.562 227.75 145.938 227.375 149H244.312V148.562C244.146 145.625 243.354 143.354 241.938 141.75C240.521 140.125 238.604 139.312 236.188 139.312ZM273.156 140.375C272.281 140.229 271.333 140.156 270.312 140.156C266.521 140.156 263.948 141.771 262.594 145V169H256.812V135.188H262.438L262.531 139.094C264.427 136.073 267.115 134.562 270.594 134.562C271.719 134.562 272.573 134.708 273.156 135V140.375ZM315.5 125.906C312.917 125.49 310.833 125.281 309.25 125.281C305.083 125.281 303 127.469 303 131.844V135.188H310.219V139.656H303V169H297.219V139.656H291.875V135.188H297.219V131.5C297.24 127.896 298.25 125.135 300.25 123.219C302.25 121.302 305.094 120.344 308.781 120.344C310.885 120.344 315.052 120.979 321.281 122.25V169H315.5V125.906ZM329.219 151.781C329.219 148.469 329.865 145.49 331.156 142.844C332.469 140.198 334.281 138.156 336.594 136.719C338.927 135.281 341.583 134.562 344.562 134.562C349.167 134.562 352.885 136.156 355.719 139.344C358.573 142.531 360 146.771 360 152.062V152.469C360 155.76 359.365 158.719 358.094 161.344C356.844 163.948 355.042 165.979 352.688 167.438C350.354 168.896 347.667 169.625 344.625 169.625C340.042 169.625 336.323 168.031 333.469 164.844C330.635 161.656 329.219 157.438 329.219 152.188V151.781ZM335.031 152.469C335.031 156.219 335.896 159.229 337.625 161.5C339.375 163.771 341.708 164.906 344.625 164.906C347.562 164.906 349.896 163.76 351.625 161.469C353.354 159.156 354.219 155.927 354.219 151.781C354.219 148.073 353.333 145.073 351.562 142.781C349.812 140.469 347.479 139.312 344.562 139.312C341.708 139.312 339.406 140.448 337.656 142.719C335.906 144.99 335.031 148.24 335.031 152.469ZM397.188 161.031L403.688 135.188H409.469L399.625 169H394.938L386.719 143.375L378.719 169H374.031L364.219 135.188H369.969L376.625 160.5L384.5 135.188H389.156L397.188 161.031ZM431.062 165.969C431.062 164.969 431.354 164.135 431.938 163.469C432.542 162.802 433.438 162.469 434.625 162.469C435.812 162.469 436.708 162.802 437.312 163.469C437.938 164.135 438.25 164.969 438.25 165.969C438.25 166.927 437.938 167.729 437.312 168.375C436.708 169.021 435.812 169.344 434.625 169.344C433.438 169.344 432.542 169.021 431.938 168.375C431.354 167.729 431.062 166.927 431.062 165.969ZM431.094 138.375C431.094 137.375 431.385 136.542 431.969 135.875C432.573 135.208 433.469 134.875 434.656 134.875C435.844 134.875 436.74 135.208 437.344 135.875C437.969 136.542 438.281 137.375 438.281 138.375C438.281 139.333 437.969 140.135 437.344 140.781C436.74 141.427 435.844 141.75 434.656 141.75C433.469 141.75 432.573 141.427 431.969 140.781C431.385 140.135 431.094 139.333 431.094 138.375ZM476.938 148.719C471.792 147.24 468.042 145.427 465.688 143.281C463.354 141.115 462.188 138.448 462.188 135.281C462.188 131.698 463.615 128.74 466.469 126.406C469.344 124.052 473.073 122.875 477.656 122.875C480.781 122.875 483.562 123.479 486 124.688C488.458 125.896 490.354 127.562 491.688 129.688C493.042 131.812 493.719 134.135 493.719 136.656H487.688C487.688 133.906 486.812 131.75 485.062 130.188C483.312 128.604 480.844 127.812 477.656 127.812C474.698 127.812 472.385 128.469 470.719 129.781C469.073 131.073 468.25 132.875 468.25 135.188C468.25 137.042 469.031 138.615 470.594 139.906C472.177 141.177 474.854 142.344 478.625 143.406C482.417 144.469 485.375 145.646 487.5 146.938C489.646 148.208 491.229 149.698 492.25 151.406C493.292 153.115 493.812 155.125 493.812 157.438C493.812 161.125 492.375 164.083 489.5 166.312C486.625 168.521 482.781 169.625 477.969 169.625C474.844 169.625 471.927 169.031 469.219 167.844C466.51 166.635 464.417 164.99 462.938 162.906C461.479 160.823 460.75 158.458 460.75 155.812H466.781C466.781 158.562 467.792 160.74 469.812 162.344C471.854 163.927 474.573 164.719 477.969 164.719C481.135 164.719 483.562 164.073 485.25 162.781C486.938 161.49 487.781 159.729 487.781 157.5C487.781 155.271 487 153.552 485.438 152.344C483.875 151.115 481.042 149.906 476.938 148.719ZM514.656 169.625C510.073 169.625 506.344 168.125 503.469 165.125C500.594 162.104 499.156 158.073 499.156 153.031V151.969C499.156 148.615 499.792 145.625 501.062 143C502.354 140.354 504.146 138.292 506.438 136.812C508.75 135.312 511.25 134.562 513.938 134.562C518.333 134.562 521.75 136.01 524.188 138.906C526.625 141.802 527.844 145.948 527.844 151.344V153.75H504.938C505.021 157.083 505.99 159.781 507.844 161.844C509.719 163.885 512.094 164.906 514.969 164.906C517.01 164.906 518.74 164.49 520.156 163.656C521.573 162.823 522.812 161.719 523.875 160.344L527.406 163.094C524.573 167.448 520.323 169.625 514.656 169.625ZM513.938 139.312C511.604 139.312 509.646 140.167 508.062 141.875C506.479 143.562 505.5 145.938 505.125 149H522.062V148.562C521.896 145.625 521.104 143.354 519.688 141.75C518.271 140.125 516.354 139.312 513.938 139.312ZM542.406 127V135.188H548.719V139.656H542.406V160.625C542.406 161.979 542.688 163 543.25 163.688C543.812 164.354 544.771 164.688 546.125 164.688C546.792 164.688 547.708 164.562 548.875 164.312V169C547.354 169.417 545.875 169.625 544.438 169.625C541.854 169.625 539.906 168.844 538.594 167.281C537.281 165.719 536.625 163.5 536.625 160.625V139.656H530.469V135.188H536.625V127H542.406ZM563.344 127V135.188H569.656V139.656H563.344V160.625C563.344 161.979 563.625 163 564.188 163.688C564.75 164.354 565.708 164.688 567.062 164.688C567.729 164.688 568.646 164.562 569.812 164.312V169C568.292 169.417 566.812 169.625 565.375 169.625C562.792 169.625 560.844 168.844 559.531 167.281C558.219 165.719 557.562 163.5 557.562 160.625V139.656H551.406V135.188H557.562V127H563.344ZM582.719 169H576.938V135.188H582.719V169ZM576.469 126.219C576.469 125.281 576.75 124.49 577.312 123.844C577.896 123.198 578.75 122.875 579.875 122.875C581 122.875 581.854 123.198 582.438 123.844C583.021 124.49 583.312 125.281 583.312 126.219C583.312 127.156 583.021 127.938 582.438 128.562C581.854 129.188 581 129.5 579.875 129.5C578.75 129.5 577.896 129.188 577.312 128.562C576.75 127.938 576.469 127.156 576.469 126.219ZM597.469 135.188L597.656 139.438C600.24 136.188 603.615 134.562 607.781 134.562C614.927 134.562 618.531 138.594 618.594 146.656V169H612.812V146.625C612.792 144.188 612.229 142.385 611.125 141.219C610.042 140.052 608.344 139.469 606.031 139.469C604.156 139.469 602.51 139.969 601.094 140.969C599.677 141.969 598.573 143.281 597.781 144.906V169H592V135.188H597.469ZM625.938 151.812C625.938 146.542 627.156 142.354 629.594 139.25C632.031 136.125 635.26 134.562 639.281 134.562C643.406 134.562 646.625 136.021 648.938 138.938L649.219 135.188H654.5V168.188C654.5 172.562 653.198 176.01 650.594 178.531C648.01 181.052 644.531 182.312 640.156 182.312C637.719 182.312 635.333 181.792 633 180.75C630.667 179.708 628.885 178.281 627.656 176.469L630.656 173C633.135 176.062 636.167 177.594 639.75 177.594C642.562 177.594 644.75 176.802 646.312 175.219C647.896 173.635 648.688 171.406 648.688 168.531V165.625C646.375 168.292 643.219 169.625 639.219 169.625C635.26 169.625 632.052 168.031 629.594 164.844C627.156 161.656 625.938 157.312 625.938 151.812ZM631.75 152.469C631.75 156.281 632.531 159.281 634.094 161.469C635.656 163.635 637.844 164.719 640.656 164.719C644.302 164.719 646.979 163.062 648.688 159.75V144.312C646.917 141.083 644.26 139.469 640.719 139.469C637.906 139.469 635.708 140.562 634.125 142.75C632.542 144.938 631.75 148.177 631.75 152.469ZM682.938 160.031C682.938 158.469 682.344 157.26 681.156 156.406C679.99 155.531 677.938 154.781 675 154.156C672.083 153.531 669.76 152.781 668.031 151.906C666.323 151.031 665.052 149.99 664.219 148.781C663.406 147.573 663 146.135 663 144.469C663 141.698 664.167 139.354 666.5 137.438C668.854 135.521 671.854 134.562 675.5 134.562C679.333 134.562 682.438 135.552 684.812 137.531C687.208 139.51 688.406 142.042 688.406 145.125H682.594C682.594 143.542 681.917 142.177 680.562 141.031C679.229 139.885 677.542 139.312 675.5 139.312C673.396 139.312 671.75 139.771 670.562 140.688C669.375 141.604 668.781 142.802 668.781 144.281C668.781 145.677 669.333 146.729 670.438 147.438C671.542 148.146 673.531 148.823 676.406 149.469C679.302 150.115 681.646 150.885 683.438 151.781C685.229 152.677 686.552 153.76 687.406 155.031C688.281 156.281 688.719 157.812 688.719 159.625C688.719 162.646 687.51 165.073 685.094 166.906C682.677 168.719 679.542 169.625 675.688 169.625C672.979 169.625 670.583 169.146 668.5 168.188C666.417 167.229 664.781 165.896 663.594 164.188C662.427 162.458 661.844 160.594 661.844 158.594H667.625C667.729 160.531 668.5 162.073 669.938 163.219C671.396 164.344 673.312 164.906 675.688 164.906C677.875 164.906 679.625 164.469 680.938 163.594C682.271 162.698 682.938 161.51 682.938 160.031Z" fill="black"/>
<path d="M170.988 213.406V230.809C170.977 233.223 170.215 235.197 168.703 236.732C167.203 238.268 165.164 239.129 162.586 239.316L161.689 239.352C158.889 239.352 156.656 238.596 154.992 237.084C153.328 235.572 152.484 233.492 152.461 230.844V213.406H155.801V230.738C155.801 232.59 156.311 234.031 157.33 235.062C158.35 236.082 159.803 236.592 161.689 236.592C163.6 236.592 165.059 236.082 166.066 235.062C167.086 234.043 167.596 232.607 167.596 230.756V213.406H170.988ZM186.879 233.955C186.879 233.076 186.545 232.396 185.877 231.916C185.221 231.424 184.066 231.002 182.414 230.65C180.773 230.299 179.467 229.877 178.494 229.385C177.533 228.893 176.818 228.307 176.35 227.627C175.893 226.947 175.664 226.139 175.664 225.201C175.664 223.643 176.32 222.324 177.633 221.246C178.957 220.168 180.645 219.629 182.695 219.629C184.852 219.629 186.598 220.186 187.934 221.299C189.281 222.412 189.955 223.836 189.955 225.57H186.686C186.686 224.68 186.305 223.912 185.543 223.268C184.793 222.623 183.844 222.301 182.695 222.301C181.512 222.301 180.586 222.559 179.918 223.074C179.25 223.59 178.916 224.264 178.916 225.096C178.916 225.881 179.227 226.473 179.848 226.871C180.469 227.27 181.588 227.65 183.205 228.014C184.834 228.377 186.152 228.811 187.16 229.314C188.168 229.818 188.912 230.428 189.393 231.143C189.885 231.846 190.131 232.707 190.131 233.727C190.131 235.426 189.451 236.791 188.092 237.822C186.732 238.842 184.969 239.352 182.801 239.352C181.277 239.352 179.93 239.082 178.758 238.543C177.586 238.004 176.666 237.254 175.998 236.293C175.342 235.32 175.014 234.271 175.014 233.146H178.266C178.324 234.236 178.758 235.104 179.566 235.748C180.387 236.381 181.465 236.697 182.801 236.697C184.031 236.697 185.016 236.451 185.754 235.959C186.504 235.455 186.879 234.787 186.879 233.955ZM202.26 239.352C199.682 239.352 197.584 238.508 195.967 236.82C194.35 235.121 193.541 232.854 193.541 230.018V229.42C193.541 227.533 193.898 225.852 194.613 224.375C195.34 222.887 196.348 221.727 197.637 220.895C198.938 220.051 200.344 219.629 201.855 219.629C204.328 219.629 206.25 220.443 207.621 222.072C208.992 223.701 209.678 226.033 209.678 229.068V230.422H196.793C196.84 232.297 197.385 233.814 198.428 234.975C199.482 236.123 200.818 236.697 202.436 236.697C203.584 236.697 204.557 236.463 205.354 235.994C206.15 235.525 206.848 234.904 207.445 234.131L209.432 235.678C207.838 238.127 205.447 239.352 202.26 239.352ZM201.855 222.301C200.543 222.301 199.441 222.781 198.551 223.742C197.66 224.691 197.109 226.027 196.898 227.75H206.426V227.504C206.332 225.852 205.887 224.574 205.09 223.672C204.293 222.758 203.215 222.301 201.855 222.301ZM222.65 222.898C222.158 222.816 221.625 222.775 221.051 222.775C218.918 222.775 217.471 223.684 216.709 225.5V239H213.457V219.98H216.621L216.674 222.178C217.74 220.479 219.252 219.629 221.209 219.629C221.842 219.629 222.322 219.711 222.65 219.875V222.898ZM242.215 236.697C243.375 236.697 244.389 236.346 245.256 235.643C246.123 234.939 246.604 234.061 246.697 233.006H249.773C249.715 234.096 249.34 235.133 248.648 236.117C247.957 237.102 247.031 237.887 245.871 238.473C244.723 239.059 243.504 239.352 242.215 239.352C239.625 239.352 237.562 238.49 236.027 236.768C234.504 235.033 233.742 232.666 233.742 229.666V229.121C233.742 227.27 234.082 225.623 234.762 224.182C235.441 222.74 236.414 221.621 237.68 220.824C238.957 220.027 240.463 219.629 242.197 219.629C244.33 219.629 246.1 220.268 247.506 221.545C248.924 222.822 249.68 224.48 249.773 226.52H246.697C246.604 225.289 246.135 224.281 245.291 223.496C244.459 222.699 243.428 222.301 242.197 222.301C240.545 222.301 239.262 222.898 238.348 224.094C237.445 225.277 236.994 226.994 236.994 229.244V229.859C236.994 232.051 237.445 233.738 238.348 234.922C239.25 236.105 240.539 236.697 242.215 236.697ZM265.172 239C264.984 238.625 264.832 237.957 264.715 236.996C263.203 238.566 261.398 239.352 259.301 239.352C257.426 239.352 255.885 238.824 254.678 237.77C253.482 236.703 252.885 235.355 252.885 233.727C252.885 231.746 253.635 230.211 255.135 229.121C256.646 228.02 258.768 227.469 261.498 227.469H264.662V225.975C264.662 224.838 264.322 223.936 263.643 223.268C262.963 222.588 261.961 222.248 260.637 222.248C259.477 222.248 258.504 222.541 257.719 223.127C256.934 223.713 256.541 224.422 256.541 225.254H253.271C253.271 224.305 253.605 223.391 254.273 222.512C254.953 221.621 255.867 220.918 257.016 220.402C258.176 219.887 259.447 219.629 260.83 219.629C263.021 219.629 264.738 220.18 265.98 221.281C267.223 222.371 267.867 223.877 267.914 225.799V234.553C267.914 236.299 268.137 237.688 268.582 238.719V239H265.172ZM259.775 236.521C260.795 236.521 261.762 236.258 262.676 235.73C263.59 235.203 264.252 234.518 264.662 233.674V229.771H262.113C258.129 229.771 256.137 230.938 256.137 233.27C256.137 234.289 256.477 235.086 257.156 235.66C257.836 236.234 258.709 236.521 259.775 236.521ZM284.086 233.955C284.086 233.076 283.752 232.396 283.084 231.916C282.428 231.424 281.273 231.002 279.621 230.65C277.98 230.299 276.674 229.877 275.701 229.385C274.74 228.893 274.025 228.307 273.557 227.627C273.1 226.947 272.871 226.139 272.871 225.201C272.871 223.643 273.527 222.324 274.84 221.246C276.164 220.168 277.852 219.629 279.902 219.629C282.059 219.629 283.805 220.186 285.141 221.299C286.488 222.412 287.162 223.836 287.162 225.57H283.893C283.893 224.68 283.512 223.912 282.75 223.268C282 222.623 281.051 222.301 279.902 222.301C278.719 222.301 277.793 222.559 277.125 223.074C276.457 223.59 276.123 224.264 276.123 225.096C276.123 225.881 276.434 226.473 277.055 226.871C277.676 227.27 278.795 227.65 280.412 228.014C282.041 228.377 283.359 228.811 284.367 229.314C285.375 229.818 286.119 230.428 286.6 231.143C287.092 231.846 287.338 232.707 287.338 233.727C287.338 235.426 286.658 236.791 285.299 237.822C283.939 238.842 282.176 239.352 280.008 239.352C278.484 239.352 277.137 239.082 275.965 238.543C274.793 238.004 273.873 237.254 273.205 236.293C272.549 235.32 272.221 234.271 272.221 233.146H275.473C275.531 234.236 275.965 235.104 276.773 235.748C277.594 236.381 278.672 236.697 280.008 236.697C281.238 236.697 282.223 236.451 282.961 235.959C283.711 235.455 284.086 234.787 284.086 233.955ZM299.467 239.352C296.889 239.352 294.791 238.508 293.174 236.82C291.557 235.121 290.748 232.854 290.748 230.018V229.42C290.748 227.533 291.105 225.852 291.82 224.375C292.547 222.887 293.555 221.727 294.844 220.895C296.145 220.051 297.551 219.629 299.062 219.629C301.535 219.629 303.457 220.443 304.828 222.072C306.199 223.701 306.885 226.033 306.885 229.068V230.422H294C294.047 232.297 294.592 233.814 295.635 234.975C296.689 236.123 298.025 236.697 299.643 236.697C300.791 236.697 301.764 236.463 302.561 235.994C303.357 235.525 304.055 234.904 304.652 234.131L306.639 235.678C305.045 238.127 302.654 239.352 299.467 239.352ZM299.062 222.301C297.75 222.301 296.648 222.781 295.758 223.742C294.867 224.691 294.316 226.027 294.105 227.75H303.633V227.504C303.539 225.852 303.094 224.574 302.297 223.672C301.5 222.758 300.422 222.301 299.062 222.301ZM319.488 237.295C319.488 236.732 319.652 236.264 319.98 235.889C320.32 235.514 320.824 235.326 321.492 235.326C322.16 235.326 322.664 235.514 323.004 235.889C323.355 236.264 323.531 236.732 323.531 237.295C323.531 237.834 323.355 238.285 323.004 238.648C322.664 239.012 322.16 239.193 321.492 239.193C320.824 239.193 320.32 239.012 319.98 238.648C319.652 238.285 319.488 237.834 319.488 237.295ZM319.506 221.773C319.506 221.211 319.67 220.742 319.998 220.367C320.338 219.992 320.842 219.805 321.51 219.805C322.178 219.805 322.682 219.992 323.021 220.367C323.373 220.742 323.549 221.211 323.549 221.773C323.549 222.312 323.373 222.764 323.021 223.127C322.682 223.49 322.178 223.672 321.51 223.672C320.842 223.672 320.338 223.49 319.998 223.127C319.67 222.764 319.506 222.312 319.506 221.773ZM341.373 239H337.998V213.406H341.373V239ZM372.82 234.518L376.477 219.98H379.729L374.191 239H371.555L366.932 224.586L362.432 239H359.795L354.275 219.98H357.51L361.254 234.219L365.684 219.98H368.303L372.82 234.518ZM394.793 239C394.605 238.625 394.453 237.957 394.336 236.996C392.824 238.566 391.02 239.352 388.922 239.352C387.047 239.352 385.506 238.824 384.299 237.77C383.104 236.703 382.506 235.355 382.506 233.727C382.506 231.746 383.256 230.211 384.756 229.121C386.268 228.02 388.389 227.469 391.119 227.469H394.283V225.975C394.283 224.838 393.943 223.936 393.264 223.268C392.584 222.588 391.582 222.248 390.258 222.248C389.098 222.248 388.125 222.541 387.34 223.127C386.555 223.713 386.162 224.422 386.162 225.254H382.893C382.893 224.305 383.227 223.391 383.895 222.512C384.574 221.621 385.488 220.918 386.637 220.402C387.797 219.887 389.068 219.629 390.451 219.629C392.643 219.629 394.359 220.18 395.602 221.281C396.844 222.371 397.488 223.877 397.535 225.799V234.553C397.535 236.299 397.758 237.688 398.203 238.719V239H394.793ZM389.396 236.521C390.416 236.521 391.383 236.258 392.297 235.73C393.211 235.203 393.873 234.518 394.283 233.674V229.771H391.734C387.75 229.771 385.758 230.938 385.758 233.27C385.758 234.289 386.098 235.086 386.777 235.66C387.457 236.234 388.33 236.521 389.396 236.521ZM405.709 219.98L405.814 222.371C407.268 220.543 409.166 219.629 411.51 219.629C415.529 219.629 417.557 221.896 417.592 226.432V239H414.34V226.414C414.328 225.043 414.012 224.029 413.391 223.373C412.781 222.717 411.826 222.389 410.525 222.389C409.471 222.389 408.545 222.67 407.748 223.232C406.951 223.795 406.33 224.533 405.885 225.447V239H402.633V219.98H405.709ZM426.908 215.375V219.98H430.459V222.494H426.908V234.289C426.908 235.051 427.066 235.625 427.383 236.012C427.699 236.387 428.238 236.574 429 236.574C429.375 236.574 429.891 236.504 430.547 236.363V239C429.691 239.234 428.859 239.352 428.051 239.352C426.598 239.352 425.502 238.912 424.764 238.033C424.025 237.154 423.656 235.906 423.656 234.289V222.494H420.193V219.98H423.656V215.375H426.908ZM447.615 215.375V219.98H451.166V222.494H447.615V234.289C447.615 235.051 447.773 235.625 448.09 236.012C448.406 236.387 448.945 236.574 449.707 236.574C450.082 236.574 450.598 236.504 451.254 236.363V239C450.398 239.234 449.566 239.352 448.758 239.352C447.305 239.352 446.209 238.912 445.471 238.033C444.732 237.154 444.363 235.906 444.363 234.289V222.494H440.9V219.98H444.363V215.375H447.615ZM453.768 229.314C453.768 227.451 454.131 225.775 454.857 224.287C455.596 222.799 456.615 221.65 457.916 220.842C459.229 220.033 460.723 219.629 462.398 219.629C464.988 219.629 467.08 220.525 468.674 222.318C470.279 224.111 471.082 226.496 471.082 229.473V229.701C471.082 231.553 470.725 233.217 470.01 234.693C469.307 236.158 468.293 237.301 466.969 238.121C465.656 238.941 464.145 239.352 462.434 239.352C459.855 239.352 457.764 238.455 456.158 236.662C454.564 234.869 453.768 232.496 453.768 229.543V229.314ZM457.037 229.701C457.037 231.811 457.523 233.504 458.496 234.781C459.48 236.059 460.793 236.697 462.434 236.697C464.086 236.697 465.398 236.053 466.371 234.764C467.344 233.463 467.83 231.646 467.83 229.314C467.83 227.229 467.332 225.541 466.336 224.252C465.352 222.951 464.039 222.301 462.398 222.301C460.793 222.301 459.498 222.939 458.514 224.217C457.529 225.494 457.037 227.322 457.037 229.701ZM491.719 236.697C492.879 236.697 493.893 236.346 494.76 235.643C495.627 234.939 496.107 234.061 496.201 233.006H499.277C499.219 234.096 498.844 235.133 498.152 236.117C497.461 237.102 496.535 237.887 495.375 238.473C494.227 239.059 493.008 239.352 491.719 239.352C489.129 239.352 487.066 238.49 485.531 236.768C484.008 235.033 483.246 232.666 483.246 229.666V229.121C483.246 227.27 483.586 225.623 484.266 224.182C484.945 222.74 485.918 221.621 487.184 220.824C488.461 220.027 489.967 219.629 491.701 219.629C493.834 219.629 495.604 220.268 497.01 221.545C498.428 222.822 499.184 224.48 499.277 226.52H496.201C496.107 225.289 495.639 224.281 494.795 223.496C493.963 222.699 492.932 222.301 491.701 222.301C490.049 222.301 488.766 222.898 487.852 224.094C486.949 225.277 486.498 226.994 486.498 229.244V229.859C486.498 232.051 486.949 233.738 487.852 234.922C488.754 236.105 490.043 236.697 491.719 236.697ZM506.186 222.283C507.627 220.514 509.502 219.629 511.811 219.629C515.83 219.629 517.857 221.896 517.893 226.432V239H514.641V226.414C514.629 225.043 514.312 224.029 513.691 223.373C513.082 222.717 512.127 222.389 510.826 222.389C509.771 222.389 508.846 222.67 508.049 223.232C507.252 223.795 506.631 224.533 506.186 225.447V239H502.934V212H506.186V222.283ZM534.504 239C534.316 238.625 534.164 237.957 534.047 236.996C532.535 238.566 530.73 239.352 528.633 239.352C526.758 239.352 525.217 238.824 524.01 237.77C522.814 236.703 522.217 235.355 522.217 233.727C522.217 231.746 522.967 230.211 524.467 229.121C525.979 228.02 528.1 227.469 530.83 227.469H533.994V225.975C533.994 224.838 533.654 223.936 532.975 223.268C532.295 222.588 531.293 222.248 529.969 222.248C528.809 222.248 527.836 222.541 527.051 223.127C526.266 223.713 525.873 224.422 525.873 225.254H522.604C522.604 224.305 522.938 223.391 523.605 222.512C524.285 221.621 525.199 220.918 526.348 220.402C527.508 219.887 528.779 219.629 530.162 219.629C532.354 219.629 534.07 220.18 535.312 221.281C536.555 222.371 537.199 223.877 537.246 225.799V234.553C537.246 236.299 537.469 237.688 537.914 238.719V239H534.504ZM529.107 236.521C530.127 236.521 531.094 236.258 532.008 235.73C532.922 235.203 533.584 234.518 533.994 233.674V229.771H531.445C527.461 229.771 525.469 230.938 525.469 233.27C525.469 234.289 525.809 235.086 526.488 235.66C527.168 236.234 528.041 236.521 529.107 236.521ZM545.42 219.98L545.525 222.371C546.979 220.543 548.877 219.629 551.221 219.629C555.24 219.629 557.268 221.896 557.303 226.432V239H554.051V226.414C554.039 225.043 553.723 224.029 553.102 223.373C552.492 222.717 551.537 222.389 550.236 222.389C549.182 222.389 548.256 222.67 547.459 223.232C546.662 223.795 546.041 224.533 545.596 225.447V239H542.344V219.98H545.42ZM561.434 229.332C561.434 226.367 562.119 224.012 563.49 222.266C564.861 220.508 566.678 219.629 568.939 219.629C571.26 219.629 573.07 220.449 574.371 222.09L574.529 219.98H577.5V238.543C577.5 241.004 576.768 242.943 575.303 244.361C573.85 245.779 571.893 246.488 569.432 246.488C568.061 246.488 566.719 246.195 565.406 245.609C564.094 245.023 563.092 244.221 562.4 243.201L564.088 241.25C565.482 242.973 567.188 243.834 569.203 243.834C570.785 243.834 572.016 243.389 572.895 242.498C573.785 241.607 574.23 240.354 574.23 238.736V237.102C572.93 238.602 571.154 239.352 568.904 239.352C566.678 239.352 564.873 238.455 563.49 236.662C562.119 234.869 561.434 232.426 561.434 229.332ZM564.703 229.701C564.703 231.846 565.143 233.533 566.021 234.764C566.9 235.982 568.131 236.592 569.713 236.592C571.764 236.592 573.27 235.66 574.23 233.797V225.113C573.234 223.297 571.74 222.389 569.748 222.389C568.166 222.389 566.93 223.004 566.039 224.234C565.148 225.465 564.703 227.287 564.703 229.701ZM590.314 239.352C587.736 239.352 585.639 238.508 584.021 236.82C582.404 235.121 581.596 232.854 581.596 230.018V229.42C581.596 227.533 581.953 225.852 582.668 224.375C583.395 222.887 584.402 221.727 585.691 220.895C586.992 220.051 588.398 219.629 589.91 219.629C592.383 219.629 594.305 220.443 595.676 222.072C597.047 223.701 597.732 226.033 597.732 229.068V230.422H584.848C584.895 232.297 585.439 233.814 586.482 234.975C587.537 236.123 588.873 236.697 590.49 236.697C591.639 236.697 592.611 236.463 593.408 235.994C594.205 235.525 594.902 234.904 595.5 234.131L597.486 235.678C595.893 238.127 593.502 239.352 590.314 239.352ZM589.91 222.301C588.598 222.301 587.496 222.781 586.605 223.742C585.715 224.691 585.164 226.027 584.953 227.75H594.48V227.504C594.387 225.852 593.941 224.574 593.145 223.672C592.348 222.758 591.27 222.301 589.91 222.301ZM614.854 215.375V219.98H618.404V222.494H614.854V234.289C614.854 235.051 615.012 235.625 615.328 236.012C615.645 236.387 616.184 236.574 616.945 236.574C617.32 236.574 617.836 236.504 618.492 236.363V239C617.637 239.234 616.805 239.352 615.996 239.352C614.543 239.352 613.447 238.912 612.709 238.033C611.971 237.154 611.602 235.906 611.602 234.289V222.494H608.139V219.98H611.602V215.375H614.854ZM625.471 222.283C626.912 220.514 628.787 219.629 631.096 219.629C635.115 219.629 637.143 221.896 637.178 226.432V239H633.926V226.414C633.914 225.043 633.598 224.029 632.977 223.373C632.367 222.717 631.412 222.389 630.111 222.389C629.057 222.389 628.131 222.67 627.334 223.232C626.537 223.795 625.916 224.533 625.471 225.447V239H622.219V212H625.471V222.283ZM649.939 239.352C647.361 239.352 645.264 238.508 643.646 236.82C642.029 235.121 641.221 232.854 641.221 230.018V229.42C641.221 227.533 641.578 225.852 642.293 224.375C643.02 222.887 644.027 221.727 645.316 220.895C646.617 220.051 648.023 219.629 649.535 219.629C652.008 219.629 653.93 220.443 655.301 222.072C656.672 223.701 657.357 226.033 657.357 229.068V230.422H644.473C644.52 232.297 645.064 233.814 646.107 234.975C647.162 236.123 648.498 236.697 650.115 236.697C651.264 236.697 652.236 236.463 653.033 235.994C653.83 235.525 654.527 234.904 655.125 234.131L657.111 235.678C655.518 238.127 653.127 239.352 649.939 239.352ZM649.535 222.301C648.223 222.301 647.121 222.781 646.23 223.742C645.34 224.691 644.789 226.027 644.578 227.75H654.105V227.504C654.012 225.852 653.566 224.574 652.77 223.672C651.973 222.758 650.895 222.301 649.535 222.301ZM673.6 239H670.348V212H673.6V239ZM690.562 239C690.375 238.625 690.223 237.957 690.105 236.996C688.594 238.566 686.789 239.352 684.691 239.352C682.816 239.352 681.275 238.824 680.068 237.77C678.873 236.703 678.275 235.355 678.275 233.727C678.275 231.746 679.025 230.211 680.525 229.121C682.037 228.02 684.158 227.469 686.889 227.469H690.053V225.975C690.053 224.838 689.713 223.936 689.033 223.268C688.354 222.588 687.352 222.248 686.027 222.248C684.867 222.248 683.895 222.541 683.109 223.127C682.324 223.713 681.932 224.422 681.932 225.254H678.662C678.662 224.305 678.996 223.391 679.664 222.512C680.344 221.621 681.258 220.918 682.406 220.402C683.566 219.887 684.838 219.629 686.221 219.629C688.412 219.629 690.129 220.18 691.371 221.281C692.613 222.371 693.258 223.877 693.305 225.799V234.553C693.305 236.299 693.527 237.688 693.973 238.719V239H690.562ZM685.166 236.521C686.186 236.521 687.152 236.258 688.066 235.73C688.98 235.203 689.643 234.518 690.053 233.674V229.771H687.504C683.52 229.771 681.527 230.938 681.527 233.27C681.527 234.289 681.867 235.086 682.547 235.66C683.227 236.234 684.1 236.521 685.166 236.521ZM701.479 219.98L701.584 222.371C703.037 220.543 704.936 219.629 707.279 219.629C711.299 219.629 713.326 221.896 713.361 226.432V239H710.109V226.414C710.098 225.043 709.781 224.029 709.16 223.373C708.551 222.717 707.596 222.389 706.295 222.389C705.24 222.389 704.314 222.67 703.518 223.232C702.721 223.795 702.1 224.533 701.654 225.447V239H698.402V219.98H701.479ZM717.492 229.332C717.492 226.367 718.178 224.012 719.549 222.266C720.92 220.508 722.736 219.629 724.998 219.629C727.318 219.629 729.129 220.449 730.43 222.09L730.588 219.98H733.559V238.543C733.559 241.004 732.826 242.943 731.361 244.361C729.908 245.779 727.951 246.488 725.49 246.488C724.119 246.488 722.777 246.195 721.465 245.609C720.152 245.023 719.15 244.221 718.459 243.201L720.146 241.25C721.541 242.973 723.246 243.834 725.262 243.834C726.844 243.834 728.074 243.389 728.953 242.498C729.844 241.607 730.289 240.354 730.289 238.736V237.102C728.988 238.602 727.213 239.352 724.963 239.352C722.736 239.352 720.932 238.455 719.549 236.662C718.178 234.869 717.492 232.426 717.492 229.332ZM720.762 229.701C720.762 231.846 721.201 233.533 722.08 234.764C722.959 235.982 724.189 236.592 725.771 236.592C727.822 236.592 729.328 235.66 730.289 233.797V225.113C729.293 223.297 727.799 222.389 725.807 222.389C724.225 222.389 722.988 223.004 722.098 224.234C721.207 225.465 720.762 227.287 720.762 229.701ZM750.223 237.119C748.957 238.607 747.1 239.352 744.65 239.352C742.623 239.352 741.076 238.766 740.01 237.594C738.955 236.41 738.422 234.664 738.41 232.355V219.98H741.662V232.268C741.662 235.15 742.834 236.592 745.178 236.592C747.662 236.592 749.314 235.666 750.135 233.814V219.98H753.387V239H750.293L750.223 237.119ZM770.086 239C769.898 238.625 769.746 237.957 769.629 236.996C768.117 238.566 766.312 239.352 764.215 239.352C762.34 239.352 760.799 238.824 759.592 237.77C758.396 236.703 757.799 235.355 757.799 233.727C757.799 231.746 758.549 230.211 760.049 229.121C761.561 228.02 763.682 227.469 766.412 227.469H769.576V225.975C769.576 224.838 769.236 223.936 768.557 223.268C767.877 222.588 766.875 222.248 765.551 222.248C764.391 222.248 763.418 222.541 762.633 223.127C761.848 223.713 761.455 224.422 761.455 225.254H758.186C758.186 224.305 758.52 223.391 759.188 222.512C759.867 221.621 760.781 220.918 761.93 220.402C763.09 219.887 764.361 219.629 765.744 219.629C767.936 219.629 769.652 220.18 770.895 221.281C772.137 222.371 772.781 223.877 772.828 225.799V234.553C772.828 236.299 773.051 237.688 773.496 238.719V239H770.086ZM764.689 236.521C765.709 236.521 766.676 236.258 767.59 235.73C768.504 235.203 769.166 234.518 769.576 233.674V229.771H767.027C763.043 229.771 761.051 230.938 761.051 233.27C761.051 234.289 761.391 235.086 762.07 235.66C762.75 236.234 763.623 236.521 764.689 236.521ZM777.152 229.332C777.152 226.367 777.838 224.012 779.209 222.266C780.58 220.508 782.396 219.629 784.658 219.629C786.979 219.629 788.789 220.449 790.09 222.09L790.248 219.98H793.219V238.543C793.219 241.004 792.486 242.943 791.021 244.361C789.568 245.779 787.611 246.488 785.15 246.488C783.779 246.488 782.438 246.195 781.125 245.609C779.812 245.023 778.811 244.221 778.119 243.201L779.807 241.25C781.201 242.973 782.906 243.834 784.922 243.834C786.504 243.834 787.734 243.389 788.613 242.498C789.504 241.607 789.949 240.354 789.949 238.736V237.102C788.648 238.602 786.873 239.352 784.623 239.352C782.396 239.352 780.592 238.455 779.209 236.662C777.838 234.869 777.152 232.426 777.152 229.332ZM780.422 229.701C780.422 231.846 780.861 233.533 781.74 234.764C782.619 235.982 783.85 236.592 785.432 236.592C787.482 236.592 788.988 235.66 789.949 233.797V225.113C788.953 223.297 787.459 222.389 785.467 222.389C783.885 222.389 782.648 223.004 781.758 224.234C780.867 225.465 780.422 227.287 780.422 229.701ZM806.033 239.352C803.455 239.352 801.357 238.508 799.74 236.82C798.123 235.121 797.314 232.854 797.314 230.018V229.42C797.314 227.533 797.672 225.852 798.387 224.375C799.113 222.887 800.121 221.727 801.41 220.895C802.711 220.051 804.117 219.629 805.629 219.629C808.102 219.629 810.023 220.443 811.395 222.072C812.766 223.701 813.451 226.033 813.451 229.068V230.422H800.566C800.613 232.297 801.158 233.814 802.201 234.975C803.256 236.123 804.592 236.697 806.209 236.697C807.357 236.697 808.33 236.463 809.127 235.994C809.924 235.525 810.621 234.904 811.219 234.131L813.205 235.678C811.611 238.127 809.221 239.352 806.033 239.352ZM805.629 222.301C804.316 222.301 803.215 222.781 802.324 223.742C801.434 224.691 800.883 226.027 800.672 227.75H810.199V227.504C810.105 225.852 809.66 224.574 808.863 223.672C808.066 222.758 806.988 222.301 805.629 222.301ZM817.301 237.295C817.301 236.732 817.465 236.264 817.793 235.889C818.133 235.514 818.637 235.326 819.305 235.326C819.973 235.326 820.477 235.514 820.816 235.889C821.168 236.264 821.344 236.732 821.344 237.295C821.344 237.834 821.168 238.285 820.816 238.648C820.477 239.012 819.973 239.193 819.305 239.193C818.637 239.193 818.133 239.012 817.793 238.648C817.465 238.285 817.301 237.834 817.301 237.295Z" fill="black"/>
<path d="M156.363 343.24H168.492V346H152.971V320.406H156.363V343.24ZM175.365 346H172.113V326.98H175.365V346ZM171.85 321.936C171.85 321.408 172.008 320.963 172.324 320.6C172.652 320.236 173.133 320.055 173.766 320.055C174.398 320.055 174.879 320.236 175.207 320.6C175.535 320.963 175.699 321.408 175.699 321.936C175.699 322.463 175.535 322.902 175.207 323.254C174.879 323.605 174.398 323.781 173.766 323.781C173.133 323.781 172.652 323.605 172.324 323.254C172.008 322.902 171.85 322.463 171.85 321.936ZM183.662 326.98L183.768 329.371C185.221 327.543 187.119 326.629 189.463 326.629C193.482 326.629 195.51 328.896 195.545 333.432V346H192.293V333.414C192.281 332.043 191.965 331.029 191.344 330.373C190.734 329.717 189.779 329.389 188.479 329.389C187.424 329.389 186.498 329.67 185.701 330.232C184.904 330.795 184.283 331.533 183.838 332.447V346H180.586V326.98H183.662ZM205.758 337.193L203.719 339.32V346H200.467V319H203.719V335.33L205.459 333.238L211.383 326.98H215.338L207.938 334.926L216.199 346H212.385L205.758 337.193ZM232.037 322.375V326.98H235.588V329.494H232.037V341.289C232.037 342.051 232.195 342.625 232.512 343.012C232.828 343.387 233.367 343.574 234.129 343.574C234.504 343.574 235.02 343.504 235.676 343.363V346C234.82 346.234 233.988 346.352 233.18 346.352C231.727 346.352 230.631 345.912 229.893 345.033C229.154 344.154 228.785 342.906 228.785 341.289V329.494H225.322V326.98H228.785V322.375H232.037ZM238.189 336.314C238.189 334.451 238.553 332.775 239.279 331.287C240.018 329.799 241.037 328.65 242.338 327.842C243.65 327.033 245.145 326.629 246.82 326.629C249.41 326.629 251.502 327.525 253.096 329.318C254.701 331.111 255.504 333.496 255.504 336.473V336.701C255.504 338.553 255.146 340.217 254.432 341.693C253.729 343.158 252.715 344.301 251.391 345.121C250.078 345.941 248.566 346.352 246.855 346.352C244.277 346.352 242.186 345.455 240.58 343.662C238.986 341.869 238.189 339.496 238.189 336.543V336.314ZM241.459 336.701C241.459 338.811 241.945 340.504 242.918 341.781C243.902 343.059 245.215 343.697 246.855 343.697C248.508 343.697 249.82 343.053 250.793 341.764C251.766 340.463 252.252 338.646 252.252 336.314C252.252 334.229 251.754 332.541 250.758 331.252C249.773 329.951 248.461 329.301 246.82 329.301C245.215 329.301 243.92 329.939 242.936 331.217C241.951 332.494 241.459 334.322 241.459 336.701Z" fill="black"/>
<path d="M272.643 346H269.268V320.406H272.643V346ZM281.396 326.98L281.502 329.371C282.955 327.543 284.854 326.629 287.197 326.629C291.217 326.629 293.244 328.896 293.279 333.432V346H290.027V333.414C290.016 332.043 289.699 331.029 289.078 330.373C288.469 329.717 287.514 329.389 286.213 329.389C285.158 329.389 284.232 329.67 283.436 330.232C282.639 330.795 282.018 331.533 281.572 332.447V346H278.32V326.98H281.396ZM299.783 346V329.494H296.777V326.98H299.783V325.029C299.783 322.99 300.328 321.414 301.418 320.301C302.508 319.188 304.049 318.631 306.041 318.631C306.791 318.631 307.535 318.73 308.273 318.93L308.098 321.566C307.547 321.461 306.961 321.408 306.34 321.408C305.285 321.408 304.471 321.719 303.896 322.34C303.322 322.949 303.035 323.828 303.035 324.977V326.98H307.096V329.494H303.035V346H299.783ZM309.838 336.314C309.838 334.451 310.201 332.775 310.928 331.287C311.666 329.799 312.686 328.65 313.986 327.842C315.299 327.033 316.793 326.629 318.469 326.629C321.059 326.629 323.15 327.525 324.744 329.318C326.35 331.111 327.152 333.496 327.152 336.473V336.701C327.152 338.553 326.795 340.217 326.08 341.693C325.377 343.158 324.363 344.301 323.039 345.121C321.727 345.941 320.215 346.352 318.504 346.352C315.926 346.352 313.834 345.455 312.229 343.662C310.635 341.869 309.838 339.496 309.838 336.543V336.314ZM313.107 336.701C313.107 338.811 313.594 340.504 314.566 341.781C315.551 343.059 316.863 343.697 318.504 343.697C320.156 343.697 321.469 343.053 322.441 341.764C323.414 340.463 323.9 338.646 323.9 336.314C323.9 334.229 323.402 332.541 322.406 331.252C321.422 329.951 320.109 329.301 318.469 329.301C316.863 329.301 315.568 329.939 314.584 331.217C313.6 332.494 313.107 334.322 313.107 336.701ZM340.424 329.898C339.932 329.816 339.398 329.775 338.824 329.775C336.691 329.775 335.244 330.684 334.482 332.5V346H331.23V326.98H334.395L334.447 329.178C335.514 327.479 337.025 326.629 338.982 326.629C339.615 326.629 340.096 326.711 340.424 326.875V329.898ZM346.488 326.98L346.576 329.09C347.971 327.449 349.852 326.629 352.219 326.629C354.879 326.629 356.689 327.648 357.65 329.688C358.283 328.773 359.104 328.035 360.111 327.473C361.131 326.91 362.332 326.629 363.715 326.629C367.887 326.629 370.008 328.838 370.078 333.256V346H366.826V333.449C366.826 332.09 366.516 331.076 365.895 330.408C365.273 329.729 364.23 329.389 362.766 329.389C361.559 329.389 360.557 329.752 359.76 330.479C358.963 331.193 358.5 332.16 358.371 333.379V346H355.102V333.537C355.102 330.771 353.748 329.389 351.041 329.389C348.908 329.389 347.449 330.297 346.664 332.113V346H343.412V326.98H346.488ZM386.742 346C386.555 345.625 386.402 344.957 386.285 343.996C384.773 345.566 382.969 346.352 380.871 346.352C378.996 346.352 377.455 345.824 376.248 344.77C375.053 343.703 374.455 342.355 374.455 340.727C374.455 338.746 375.205 337.211 376.705 336.121C378.217 335.02 380.338 334.469 383.068 334.469H386.232V332.975C386.232 331.838 385.893 330.936 385.213 330.268C384.533 329.588 383.531 329.248 382.207 329.248C381.047 329.248 380.074 329.541 379.289 330.127C378.504 330.713 378.111 331.422 378.111 332.254H374.842C374.842 331.305 375.176 330.391 375.844 329.512C376.523 328.621 377.438 327.918 378.586 327.402C379.746 326.887 381.018 326.629 382.4 326.629C384.592 326.629 386.309 327.18 387.551 328.281C388.793 329.371 389.438 330.877 389.484 332.799V341.553C389.484 343.299 389.707 344.688 390.152 345.719V346H386.742ZM381.346 343.521C382.365 343.521 383.332 343.258 384.246 342.73C385.16 342.203 385.822 341.518 386.232 340.674V336.771H383.684C379.699 336.771 377.707 337.938 377.707 340.27C377.707 341.289 378.047 342.086 378.727 342.66C379.406 343.234 380.279 343.521 381.346 343.521ZM398.994 322.375V326.98H402.545V329.494H398.994V341.289C398.994 342.051 399.152 342.625 399.469 343.012C399.785 343.387 400.324 343.574 401.086 343.574C401.461 343.574 401.977 343.504 402.633 343.363V346C401.777 346.234 400.945 346.352 400.137 346.352C398.684 346.352 397.588 345.912 396.85 345.033C396.111 344.154 395.742 342.906 395.742 341.289V329.494H392.279V326.98H395.742V322.375H398.994ZM409.893 346H406.641V326.98H409.893V346ZM406.377 321.936C406.377 321.408 406.535 320.963 406.852 320.6C407.18 320.236 407.66 320.055 408.293 320.055C408.926 320.055 409.406 320.236 409.734 320.6C410.062 320.963 410.227 321.408 410.227 321.936C410.227 322.463 410.062 322.902 409.734 323.254C409.406 323.605 408.926 323.781 408.293 323.781C407.66 323.781 407.18 323.605 406.852 323.254C406.535 322.902 406.377 322.463 406.377 321.936ZM414.252 336.314C414.252 334.451 414.615 332.775 415.342 331.287C416.08 329.799 417.1 328.65 418.4 327.842C419.713 327.033 421.207 326.629 422.883 326.629C425.473 326.629 427.564 327.525 429.158 329.318C430.764 331.111 431.566 333.496 431.566 336.473V336.701C431.566 338.553 431.209 340.217 430.494 341.693C429.791 343.158 428.777 344.301 427.453 345.121C426.141 345.941 424.629 346.352 422.918 346.352C420.34 346.352 418.248 345.455 416.643 343.662C415.049 341.869 414.252 339.496 414.252 336.543V336.314ZM417.521 336.701C417.521 338.811 418.008 340.504 418.98 341.781C419.965 343.059 421.277 343.697 422.918 343.697C424.57 343.697 425.883 343.053 426.855 341.764C427.828 340.463 428.314 338.646 428.314 336.314C428.314 334.229 427.816 332.541 426.82 331.252C425.836 329.951 424.523 329.301 422.883 329.301C421.277 329.301 419.982 329.939 418.998 331.217C418.014 332.494 417.521 334.322 417.521 336.701ZM438.721 326.98L438.826 329.371C440.279 327.543 442.178 326.629 444.521 326.629C448.541 326.629 450.568 328.896 450.604 333.432V346H447.352V333.414C447.34 332.043 447.023 331.029 446.402 330.373C445.793 329.717 444.838 329.389 443.537 329.389C442.482 329.389 441.557 329.67 440.76 330.232C439.963 330.795 439.342 331.533 438.896 332.447V346H435.645V326.98H438.721ZM479.08 339.32H468.357L465.949 346H462.469L472.242 320.406H475.195L484.986 346H481.523L479.08 339.32ZM469.377 336.543H478.078L473.719 324.572L469.377 336.543ZM497.115 329.898C496.623 329.816 496.09 329.775 495.516 329.775C493.383 329.775 491.936 330.684 491.174 332.5V346H487.922V326.98H491.086L491.139 329.178C492.205 327.479 493.717 326.629 495.674 326.629C496.307 326.629 496.787 326.711 497.115 326.875V329.898ZM507.398 343.697C508.559 343.697 509.572 343.346 510.439 342.643C511.307 341.939 511.787 341.061 511.881 340.006H514.957C514.898 341.096 514.523 342.133 513.832 343.117C513.141 344.102 512.215 344.887 511.055 345.473C509.906 346.059 508.688 346.352 507.398 346.352C504.809 346.352 502.746 345.49 501.211 343.768C499.688 342.033 498.926 339.666 498.926 336.666V336.121C498.926 334.27 499.266 332.623 499.945 331.182C500.625 329.74 501.598 328.621 502.863 327.824C504.141 327.027 505.646 326.629 507.381 326.629C509.514 326.629 511.283 327.268 512.689 328.545C514.107 329.822 514.863 331.48 514.957 333.52H511.881C511.787 332.289 511.318 331.281 510.475 330.496C509.643 329.699 508.611 329.301 507.381 329.301C505.729 329.301 504.445 329.898 503.531 331.094C502.629 332.277 502.178 333.994 502.178 336.244V336.859C502.178 339.051 502.629 340.738 503.531 341.922C504.434 343.105 505.723 343.697 507.398 343.697ZM521.865 329.283C523.307 327.514 525.182 326.629 527.49 326.629C531.51 326.629 533.537 328.896 533.572 333.432V346H530.32V333.414C530.309 332.043 529.992 331.029 529.371 330.373C528.762 329.717 527.807 329.389 526.506 329.389C525.451 329.389 524.525 329.67 523.729 330.232C522.932 330.795 522.311 331.533 521.865 332.447V346H518.613V319H521.865V329.283ZM541.975 346H538.723V326.98H541.975V346ZM538.459 321.936C538.459 321.408 538.617 320.963 538.934 320.6C539.262 320.236 539.742 320.055 540.375 320.055C541.008 320.055 541.488 320.236 541.816 320.6C542.145 320.963 542.309 321.408 542.309 321.936C542.309 322.463 542.145 322.902 541.816 323.254C541.488 323.605 541.008 323.781 540.375 323.781C539.742 323.781 539.262 323.605 538.934 323.254C538.617 322.902 538.459 322.463 538.459 321.936ZM551.607 322.375V326.98H555.158V329.494H551.607V341.289C551.607 342.051 551.766 342.625 552.082 343.012C552.398 343.387 552.938 343.574 553.699 343.574C554.074 343.574 554.59 343.504 555.246 343.363V346C554.391 346.234 553.559 346.352 552.75 346.352C551.297 346.352 550.201 345.912 549.463 345.033C548.725 344.154 548.355 342.906 548.355 341.289V329.494H544.893V326.98H548.355V322.375H551.607ZM566.865 346.352C564.287 346.352 562.189 345.508 560.572 343.82C558.955 342.121 558.146 339.854 558.146 337.018V336.42C558.146 334.533 558.504 332.852 559.219 331.375C559.945 329.887 560.953 328.727 562.242 327.895C563.543 327.051 564.949 326.629 566.461 326.629C568.934 326.629 570.855 327.443 572.227 329.072C573.598 330.701 574.283 333.033 574.283 336.068V337.422H561.398C561.445 339.297 561.99 340.814 563.033 341.975C564.088 343.123 565.424 343.697 567.041 343.697C568.189 343.697 569.162 343.463 569.959 342.994C570.756 342.525 571.453 341.904 572.051 341.131L574.037 342.678C572.443 345.127 570.053 346.352 566.865 346.352ZM566.461 329.301C565.148 329.301 564.047 329.781 563.156 330.742C562.266 331.691 561.715 333.027 561.504 334.75H571.031V334.504C570.938 332.852 570.492 331.574 569.695 330.672C568.898 329.758 567.82 329.301 566.461 329.301ZM585.691 343.697C586.852 343.697 587.865 343.346 588.732 342.643C589.6 341.939 590.08 341.061 590.174 340.006H593.25C593.191 341.096 592.816 342.133 592.125 343.117C591.434 344.102 590.508 344.887 589.348 345.473C588.199 346.059 586.98 346.352 585.691 346.352C583.102 346.352 581.039 345.49 579.504 343.768C577.98 342.033 577.219 339.666 577.219 336.666V336.121C577.219 334.27 577.559 332.623 578.238 331.182C578.918 329.74 579.891 328.621 581.156 327.824C582.434 327.027 583.939 326.629 585.674 326.629C587.807 326.629 589.576 327.268 590.982 328.545C592.4 329.822 593.156 331.48 593.25 333.52H590.174C590.08 332.289 589.611 331.281 588.768 330.496C587.936 329.699 586.904 329.301 585.674 329.301C584.021 329.301 582.738 329.898 581.824 331.094C580.922 332.277 580.471 333.994 580.471 336.244V336.859C580.471 339.051 580.922 340.738 581.824 341.922C582.727 343.105 584.016 343.697 585.691 343.697ZM601.318 322.375V326.98H604.869V329.494H601.318V341.289C601.318 342.051 601.477 342.625 601.793 343.012C602.109 343.387 602.648 343.574 603.41 343.574C603.785 343.574 604.301 343.504 604.957 343.363V346C604.102 346.234 603.27 346.352 602.461 346.352C601.008 346.352 599.912 345.912 599.174 345.033C598.436 344.154 598.066 342.906 598.066 341.289V329.494H594.604V326.98H598.066V322.375H601.318ZM620.426 344.119C619.16 345.607 617.303 346.352 614.854 346.352C612.826 346.352 611.279 345.766 610.213 344.594C609.158 343.41 608.625 341.664 608.613 339.355V326.98H611.865V339.268C611.865 342.15 613.037 343.592 615.381 343.592C617.865 343.592 619.518 342.666 620.338 340.814V326.98H623.59V346H620.496L620.426 344.119ZM637.74 329.898C637.248 329.816 636.715 329.775 636.141 329.775C634.008 329.775 632.561 330.684 631.799 332.5V346H628.547V326.98H631.711L631.764 329.178C632.83 327.479 634.342 326.629 636.299 326.629C636.932 326.629 637.412 326.711 637.74 326.875V329.898ZM648.287 346.352C645.709 346.352 643.611 345.508 641.994 343.82C640.377 342.121 639.568 339.854 639.568 337.018V336.42C639.568 334.533 639.926 332.852 640.641 331.375C641.367 329.887 642.375 328.727 643.664 327.895C644.965 327.051 646.371 326.629 647.883 326.629C650.355 326.629 652.277 327.443 653.648 329.072C655.02 330.701 655.705 333.033 655.705 336.068V337.422H642.82C642.867 339.297 643.412 340.814 644.455 341.975C645.51 343.123 646.846 343.697 648.463 343.697C649.611 343.697 650.584 343.463 651.381 342.994C652.178 342.525 652.875 341.904 653.473 341.131L655.459 342.678C653.865 345.127 651.475 346.352 648.287 346.352ZM647.883 329.301C646.57 329.301 645.469 329.781 644.578 330.742C643.688 331.691 643.137 333.027 642.926 334.75H652.453V334.504C652.359 332.852 651.914 331.574 651.117 330.672C650.32 329.758 649.242 329.301 647.883 329.301Z" fill="#5452F6"/>
<path d="M266.051 349.516H657.006V351.273H266.051V349.516Z" fill="#5452F6"/>
<g filter="url(#filter0_d)">
<rect x="464" y="562" width="197" height="60" rx="30" fill="#EEEEFF"/>
<rect x="464.5" y="562.5" width="196" height="59" rx="29.5" stroke="#5452F6"/>
</g>
<path d="M518.241 594.445C518.069 596.266 517.397 597.688 516.225 598.711C515.054 599.727 513.495 600.234 511.55 600.234C510.19 600.234 508.991 599.914 507.952 599.273C506.921 598.625 506.124 597.707 505.561 596.52C504.999 595.332 504.706 593.953 504.683 592.383V590.789C504.683 589.18 504.968 587.762 505.538 586.535C506.108 585.309 506.925 584.363 507.987 583.699C509.058 583.035 510.292 582.703 511.69 582.703C513.573 582.703 515.089 583.215 516.237 584.238C517.386 585.262 518.054 586.707 518.241 588.574H515.288C515.147 587.348 514.788 586.465 514.21 585.926C513.64 585.379 512.8 585.105 511.69 585.105C510.401 585.105 509.409 585.578 508.714 586.523C508.026 587.461 507.675 588.84 507.659 590.66V592.172C507.659 594.016 507.987 595.422 508.643 596.391C509.308 597.359 510.276 597.844 511.55 597.844C512.714 597.844 513.589 597.582 514.175 597.059C514.761 596.535 515.132 595.664 515.288 594.445H518.241ZM528.202 600C528.077 599.758 527.968 599.363 527.874 598.816C526.968 599.762 525.858 600.234 524.546 600.234C523.272 600.234 522.233 599.871 521.429 599.145C520.624 598.418 520.222 597.52 520.222 596.449C520.222 595.098 520.722 594.062 521.722 593.344C522.729 592.617 524.167 592.254 526.034 592.254H527.78V591.422C527.78 590.766 527.597 590.242 527.229 589.852C526.862 589.453 526.304 589.254 525.554 589.254C524.905 589.254 524.374 589.418 523.96 589.746C523.546 590.066 523.339 590.477 523.339 590.977H520.491C520.491 590.281 520.722 589.633 521.183 589.031C521.643 588.422 522.268 587.945 523.058 587.602C523.854 587.258 524.741 587.086 525.718 587.086C527.202 587.086 528.386 587.461 529.268 588.211C530.151 588.953 530.604 590 530.628 591.352V597.07C530.628 598.211 530.788 599.121 531.108 599.801V600H528.202ZM525.073 597.949C525.636 597.949 526.163 597.812 526.655 597.539C527.155 597.266 527.53 596.898 527.78 596.438V594.047H526.245C525.19 594.047 524.397 594.23 523.866 594.598C523.335 594.965 523.069 595.484 523.069 596.156C523.069 596.703 523.249 597.141 523.608 597.469C523.975 597.789 524.464 597.949 525.073 597.949ZM537.179 584.238V587.32H539.417V589.43H537.179V596.508C537.179 596.992 537.272 597.344 537.46 597.562C537.655 597.773 537.999 597.879 538.491 597.879C538.819 597.879 539.151 597.84 539.487 597.762V599.965C538.839 600.145 538.214 600.234 537.612 600.234C535.425 600.234 534.331 599.027 534.331 596.613V589.43H532.245V587.32H534.331V584.238H537.179ZM547.186 600.234C545.382 600.234 543.917 599.668 542.792 598.535C541.675 597.395 541.116 595.879 541.116 593.988V593.637C541.116 592.371 541.358 591.242 541.843 590.25C542.335 589.25 543.022 588.473 543.905 587.918C544.788 587.363 545.772 587.086 546.858 587.086C548.585 587.086 549.917 587.637 550.854 588.738C551.8 589.84 552.272 591.398 552.272 593.414V594.562H543.987C544.073 595.609 544.421 596.438 545.03 597.047C545.647 597.656 546.421 597.961 547.35 597.961C548.655 597.961 549.718 597.434 550.538 596.379L552.073 597.844C551.565 598.602 550.886 599.191 550.034 599.613C549.19 600.027 548.241 600.234 547.186 600.234ZM546.847 589.371C546.065 589.371 545.433 589.645 544.948 590.191C544.472 590.738 544.167 591.5 544.034 592.477H549.46V592.266C549.397 591.312 549.143 590.594 548.698 590.109C548.253 589.617 547.636 589.371 546.847 589.371ZM553.995 593.566C553.995 591.598 554.456 590.027 555.378 588.855C556.308 587.676 557.538 587.086 559.069 587.086C560.515 587.086 561.651 587.59 562.479 588.598L562.608 587.32H565.175V599.613C565.175 601.277 564.655 602.59 563.616 603.551C562.585 604.512 561.19 604.992 559.433 604.992C558.503 604.992 557.593 604.797 556.702 604.406C555.819 604.023 555.147 603.52 554.686 602.895L556.034 601.184C556.909 602.223 557.987 602.742 559.268 602.742C560.214 602.742 560.96 602.484 561.507 601.969C562.054 601.461 562.327 600.711 562.327 599.719V598.863C561.507 599.777 560.413 600.234 559.046 600.234C557.561 600.234 556.347 599.645 555.401 598.465C554.464 597.285 553.995 595.652 553.995 593.566ZM556.831 593.812C556.831 595.086 557.089 596.09 557.604 596.824C558.128 597.551 558.85 597.914 559.772 597.914C560.921 597.914 561.772 597.422 562.327 596.438V590.859C561.788 589.898 560.944 589.418 559.796 589.418C558.858 589.418 558.128 589.789 557.604 590.531C557.089 591.273 556.831 592.367 556.831 593.812ZM567.577 593.543C567.577 592.301 567.823 591.184 568.315 590.191C568.808 589.191 569.499 588.426 570.39 587.895C571.28 587.355 572.304 587.086 573.46 587.086C575.171 587.086 576.558 587.637 577.62 588.738C578.69 589.84 579.268 591.301 579.354 593.121L579.366 593.789C579.366 595.039 579.124 596.156 578.64 597.141C578.163 598.125 577.475 598.887 576.577 599.426C575.686 599.965 574.655 600.234 573.483 600.234C571.694 600.234 570.261 599.641 569.183 598.453C568.112 597.258 567.577 595.668 567.577 593.684V593.543ZM570.425 593.789C570.425 595.094 570.694 596.117 571.233 596.859C571.772 597.594 572.522 597.961 573.483 597.961C574.444 597.961 575.19 597.586 575.722 596.836C576.261 596.086 576.53 594.988 576.53 593.543C576.53 592.262 576.253 591.246 575.698 590.496C575.151 589.746 574.405 589.371 573.46 589.371C572.53 589.371 571.792 589.742 571.245 590.484C570.698 591.219 570.425 592.32 570.425 593.789ZM588.413 589.922C588.038 589.859 587.651 589.828 587.253 589.828C585.948 589.828 585.069 590.328 584.616 591.328V600H581.768V587.32H584.487L584.558 588.738C585.245 587.637 586.198 587.086 587.417 587.086C587.823 587.086 588.159 587.141 588.425 587.25L588.413 589.922ZM593.241 600H590.393V587.32H593.241V600ZM590.218 584.027C590.218 583.59 590.354 583.227 590.628 582.938C590.909 582.648 591.308 582.504 591.823 582.504C592.339 582.504 592.737 582.648 593.018 582.938C593.3 583.227 593.44 583.59 593.44 584.027C593.44 584.457 593.3 584.816 593.018 585.105C592.737 585.387 592.339 585.527 591.823 585.527C591.308 585.527 590.909 585.387 590.628 585.105C590.354 584.816 590.218 584.457 590.218 584.027ZM601.936 600.234C600.132 600.234 598.667 599.668 597.542 598.535C596.425 597.395 595.866 595.879 595.866 593.988V593.637C595.866 592.371 596.108 591.242 596.593 590.25C597.085 589.25 597.772 588.473 598.655 587.918C599.538 587.363 600.522 587.086 601.608 587.086C603.335 587.086 604.667 587.637 605.604 588.738C606.55 589.84 607.022 591.398 607.022 593.414V594.562H598.737C598.823 595.609 599.171 596.438 599.78 597.047C600.397 597.656 601.171 597.961 602.1 597.961C603.405 597.961 604.468 597.434 605.288 596.379L606.823 597.844C606.315 598.602 605.636 599.191 604.784 599.613C603.94 600.027 602.991 600.234 601.936 600.234ZM601.597 589.371C600.815 589.371 600.183 589.645 599.698 590.191C599.222 590.738 598.917 591.5 598.784 592.477H604.21V592.266C604.147 591.312 603.893 590.594 603.448 590.109C603.003 589.617 602.386 589.371 601.597 589.371ZM616.35 596.555C616.35 596.047 616.14 595.66 615.718 595.395C615.304 595.129 614.612 594.895 613.643 594.691C612.675 594.488 611.866 594.23 611.218 593.918C609.796 593.23 609.085 592.234 609.085 590.93C609.085 589.836 609.546 588.922 610.468 588.188C611.39 587.453 612.561 587.086 613.983 587.086C615.499 587.086 616.722 587.461 617.651 588.211C618.589 588.961 619.058 589.934 619.058 591.129H616.21C616.21 590.582 616.007 590.129 615.6 589.77C615.194 589.402 614.655 589.219 613.983 589.219C613.358 589.219 612.847 589.363 612.448 589.652C612.058 589.941 611.862 590.328 611.862 590.812C611.862 591.25 612.046 591.59 612.413 591.832C612.78 592.074 613.522 592.32 614.64 592.57C615.757 592.812 616.632 593.105 617.265 593.449C617.905 593.785 618.378 594.191 618.683 594.668C618.995 595.145 619.151 595.723 619.151 596.402C619.151 597.543 618.679 598.469 617.733 599.18C616.788 599.883 615.55 600.234 614.018 600.234C612.979 600.234 612.054 600.047 611.241 599.672C610.429 599.297 609.796 598.781 609.343 598.125C608.89 597.469 608.663 596.762 608.663 596.004H611.429C611.468 596.676 611.722 597.195 612.19 597.562C612.659 597.922 613.28 598.102 614.054 598.102C614.804 598.102 615.374 597.961 615.765 597.68C616.155 597.391 616.35 597.016 616.35 596.555Z" fill="#5452F6"/>
<g filter="url(#filter1_d)">
<rect x="1259" y="564" width="197" height="60" rx="30" fill="#EEEEFF"/>
<rect x="1259.5" y="564.5" width="196" height="59" rx="29.5" stroke="#5452F6"/>
</g>
<path d="M1333.91 602V584.938H1338.95C1340.46 584.938 1341.79 585.273 1342.96 585.945C1344.13 586.617 1345.04 587.57 1345.68 588.805C1346.32 590.039 1346.64 591.453 1346.64 593.047V593.902C1346.64 595.52 1346.31 596.941 1345.66 598.168C1345.02 599.395 1344.11 600.34 1342.91 601.004C1341.72 601.668 1340.36 602 1338.82 602H1333.91ZM1336.88 587.328V599.633H1338.81C1340.36 599.633 1341.55 599.148 1342.38 598.18C1343.22 597.203 1343.64 595.805 1343.66 593.984V593.035C1343.66 591.184 1343.26 589.77 1342.45 588.793C1341.65 587.816 1340.48 587.328 1338.95 587.328H1336.88ZM1348.78 595.543C1348.78 594.301 1349.03 593.184 1349.52 592.191C1350.01 591.191 1350.7 590.426 1351.59 589.895C1352.48 589.355 1353.51 589.086 1354.66 589.086C1356.38 589.086 1357.76 589.637 1358.82 590.738C1359.89 591.84 1360.47 593.301 1360.56 595.121L1360.57 595.789C1360.57 597.039 1360.33 598.156 1359.84 599.141C1359.37 600.125 1358.68 600.887 1357.78 601.426C1356.89 601.965 1355.86 602.234 1354.69 602.234C1352.9 602.234 1351.47 601.641 1350.39 600.453C1349.32 599.258 1348.78 597.668 1348.78 595.684V595.543ZM1351.63 595.789C1351.63 597.094 1351.9 598.117 1352.44 598.859C1352.98 599.594 1353.73 599.961 1354.69 599.961C1355.65 599.961 1356.39 599.586 1356.93 598.836C1357.47 598.086 1357.73 596.988 1357.73 595.543C1357.73 594.262 1357.46 593.246 1356.9 592.496C1356.36 591.746 1355.61 591.371 1354.66 591.371C1353.73 591.371 1353 591.742 1352.45 592.484C1351.9 593.219 1351.63 594.32 1351.63 595.789ZM1365.62 589.32L1365.7 590.785C1366.64 589.652 1367.87 589.086 1369.39 589.086C1372.04 589.086 1373.38 590.598 1373.43 593.621V602H1370.58V593.785C1370.58 592.98 1370.4 592.387 1370.05 592.004C1369.71 591.613 1369.14 591.418 1368.35 591.418C1367.2 591.418 1366.35 591.938 1365.79 592.977V602H1362.94V589.32H1365.62ZM1381.92 602.234C1380.12 602.234 1378.65 601.668 1377.53 600.535C1376.41 599.395 1375.85 597.879 1375.85 595.988V595.637C1375.85 594.371 1376.09 593.242 1376.58 592.25C1377.07 591.25 1377.76 590.473 1378.64 589.918C1379.52 589.363 1380.51 589.086 1381.59 589.086C1383.32 589.086 1384.65 589.637 1385.59 590.738C1386.54 591.84 1387.01 593.398 1387.01 595.414V596.562H1378.72C1378.81 597.609 1379.16 598.438 1379.77 599.047C1380.38 599.656 1381.16 599.961 1382.09 599.961C1383.39 599.961 1384.45 599.434 1385.27 598.379L1386.81 599.844C1386.3 600.602 1385.62 601.191 1384.77 601.613C1383.93 602.027 1382.98 602.234 1381.92 602.234ZM1381.58 591.371C1380.8 591.371 1380.17 591.645 1379.68 592.191C1379.21 592.738 1378.9 593.5 1378.77 594.477H1384.2V594.266C1384.13 593.312 1383.88 592.594 1383.43 592.109C1382.99 591.617 1382.37 591.371 1381.58 591.371Z" fill="#5452F6"/>
<g filter="url(#filter2_d)">
<rect x="744" y="563" width="151" height="63" rx="8" fill="white"/>
<path d="M794.969 594.93C793.682 594.56 792.745 594.107 792.156 593.57C791.573 593.029 791.281 592.362 791.281 591.57C791.281 590.674 791.638 589.935 792.352 589.352C793.07 588.763 794.003 588.469 795.148 588.469C795.93 588.469 796.625 588.62 797.234 588.922C797.849 589.224 798.323 589.641 798.656 590.172C798.995 590.703 799.164 591.284 799.164 591.914H797.656C797.656 591.227 797.438 590.688 797 590.297C796.562 589.901 795.945 589.703 795.148 589.703C794.409 589.703 793.831 589.867 793.414 590.195C793.003 590.518 792.797 590.969 792.797 591.547C792.797 592.01 792.992 592.404 793.383 592.727C793.779 593.044 794.448 593.336 795.391 593.602C796.339 593.867 797.078 594.161 797.609 594.484C798.146 594.802 798.542 595.174 798.797 595.602C799.057 596.029 799.188 596.531 799.188 597.109C799.188 598.031 798.828 598.771 798.109 599.328C797.391 599.88 796.43 600.156 795.227 600.156C794.445 600.156 793.716 600.008 793.039 599.711C792.362 599.409 791.839 598.997 791.469 598.477C791.104 597.956 790.922 597.365 790.922 596.703H792.43C792.43 597.391 792.682 597.935 793.188 598.336C793.698 598.732 794.378 598.93 795.227 598.93C796.018 598.93 796.625 598.768 797.047 598.445C797.469 598.122 797.68 597.682 797.68 597.125C797.68 596.568 797.484 596.138 797.094 595.836C796.703 595.529 795.995 595.227 794.969 594.93ZM804.398 600.156C803.253 600.156 802.32 599.781 801.602 599.031C800.883 598.276 800.523 597.268 800.523 596.008V595.742C800.523 594.904 800.682 594.156 801 593.5C801.323 592.839 801.771 592.323 802.344 591.953C802.922 591.578 803.547 591.391 804.219 591.391C805.318 591.391 806.172 591.753 806.781 592.477C807.391 593.201 807.695 594.237 807.695 595.586V596.188H801.969C801.99 597.021 802.232 597.695 802.695 598.211C803.164 598.721 803.758 598.977 804.477 598.977C804.987 598.977 805.419 598.872 805.773 598.664C806.128 598.456 806.438 598.18 806.703 597.836L807.586 598.523C806.878 599.612 805.815 600.156 804.398 600.156ZM804.219 592.578C803.635 592.578 803.146 592.792 802.75 593.219C802.354 593.641 802.109 594.234 802.016 595H806.25V594.891C806.208 594.156 806.01 593.589 805.656 593.188C805.302 592.781 804.823 592.578 804.219 592.578ZM811.336 589.5V591.547H812.914V592.664H811.336V597.906C811.336 598.245 811.406 598.5 811.547 598.672C811.688 598.839 811.927 598.922 812.266 598.922C812.432 598.922 812.661 598.891 812.953 598.828V600C812.573 600.104 812.203 600.156 811.844 600.156C811.198 600.156 810.711 599.961 810.383 599.57C810.055 599.18 809.891 598.625 809.891 597.906V592.664H808.352V591.547H809.891V589.5H811.336ZM816.57 589.5V591.547H818.148V592.664H816.57V597.906C816.57 598.245 816.641 598.5 816.781 598.672C816.922 598.839 817.161 598.922 817.5 598.922C817.667 598.922 817.896 598.891 818.188 598.828V600C817.807 600.104 817.438 600.156 817.078 600.156C816.432 600.156 815.945 599.961 815.617 599.57C815.289 599.18 815.125 598.625 815.125 597.906V592.664H813.586V591.547H815.125V589.5H816.57ZM821.414 600H819.969V591.547H821.414V600ZM819.852 589.305C819.852 589.07 819.922 588.872 820.062 588.711C820.208 588.549 820.422 588.469 820.703 588.469C820.984 588.469 821.198 588.549 821.344 588.711C821.49 588.872 821.562 589.07 821.562 589.305C821.562 589.539 821.49 589.734 821.344 589.891C821.198 590.047 820.984 590.125 820.703 590.125C820.422 590.125 820.208 590.047 820.062 589.891C819.922 589.734 819.852 589.539 819.852 589.305ZM825.102 591.547L825.148 592.609C825.794 591.797 826.638 591.391 827.68 591.391C829.466 591.391 830.367 592.398 830.383 594.414V600H828.938V594.406C828.932 593.797 828.792 593.346 828.516 593.055C828.245 592.763 827.82 592.617 827.242 592.617C826.773 592.617 826.362 592.742 826.008 592.992C825.654 593.242 825.378 593.57 825.18 593.977V600H823.734V591.547H825.102ZM832.219 595.703C832.219 594.385 832.523 593.339 833.133 592.562C833.742 591.781 834.549 591.391 835.555 591.391C836.586 591.391 837.391 591.755 837.969 592.484L838.039 591.547H839.359V599.797C839.359 600.891 839.034 601.753 838.383 602.383C837.737 603.013 836.867 603.328 835.773 603.328C835.164 603.328 834.568 603.198 833.984 602.938C833.401 602.677 832.956 602.32 832.648 601.867L833.398 601C834.018 601.766 834.776 602.148 835.672 602.148C836.375 602.148 836.922 601.951 837.312 601.555C837.708 601.159 837.906 600.602 837.906 599.883V599.156C837.328 599.823 836.539 600.156 835.539 600.156C834.549 600.156 833.747 599.758 833.133 598.961C832.523 598.164 832.219 597.078 832.219 595.703ZM833.672 595.867C833.672 596.82 833.867 597.57 834.258 598.117C834.648 598.659 835.195 598.93 835.898 598.93C836.81 598.93 837.479 598.516 837.906 597.688V593.828C837.464 593.021 836.799 592.617 835.914 592.617C835.211 592.617 834.661 592.891 834.266 593.438C833.87 593.984 833.672 594.794 833.672 595.867ZM846.469 597.758C846.469 597.367 846.32 597.065 846.023 596.852C845.732 596.633 845.219 596.445 844.484 596.289C843.755 596.133 843.174 595.945 842.742 595.727C842.315 595.508 841.997 595.247 841.789 594.945C841.586 594.643 841.484 594.284 841.484 593.867C841.484 593.174 841.776 592.589 842.359 592.109C842.948 591.63 843.698 591.391 844.609 591.391C845.568 591.391 846.344 591.638 846.938 592.133C847.536 592.628 847.836 593.26 847.836 594.031H846.383C846.383 593.635 846.214 593.294 845.875 593.008C845.542 592.721 845.12 592.578 844.609 592.578C844.083 592.578 843.672 592.693 843.375 592.922C843.078 593.151 842.93 593.451 842.93 593.82C842.93 594.169 843.068 594.432 843.344 594.609C843.62 594.786 844.117 594.956 844.836 595.117C845.56 595.279 846.146 595.471 846.594 595.695C847.042 595.919 847.372 596.19 847.586 596.508C847.805 596.82 847.914 597.203 847.914 597.656C847.914 598.411 847.612 599.018 847.008 599.477C846.404 599.93 845.62 600.156 844.656 600.156C843.979 600.156 843.38 600.036 842.859 599.797C842.339 599.557 841.93 599.224 841.633 598.797C841.341 598.365 841.195 597.898 841.195 597.398H842.641C842.667 597.883 842.859 598.268 843.219 598.555C843.583 598.836 844.062 598.977 844.656 598.977C845.203 598.977 845.641 598.867 845.969 598.648C846.302 598.424 846.469 598.128 846.469 597.758Z" fill="#5452F6"/>
<path d="M790.297 601.562H848.703V602.344H790.297V601.562Z" fill="#5452F6"/>
<rect x="744.5" y="563.5" width="150" height="62" rx="7.5" stroke="#5452F6"/>
</g>
<g filter="url(#filter3_d)">
<rect x="973" y="563" width="206" height="63" rx="8" fill="white"/>
<path d="M1024 594.93C1022.71 594.56 1021.78 594.107 1021.19 593.57C1020.6 593.029 1020.31 592.362 1020.31 591.57C1020.31 590.674 1020.67 589.935 1021.38 589.352C1022.1 588.763 1023.03 588.469 1024.18 588.469C1024.96 588.469 1025.66 588.62 1026.27 588.922C1026.88 589.224 1027.35 589.641 1027.69 590.172C1028.03 590.703 1028.2 591.284 1028.2 591.914H1026.69C1026.69 591.227 1026.47 590.688 1026.03 590.297C1025.59 589.901 1024.98 589.703 1024.18 589.703C1023.44 589.703 1022.86 589.867 1022.45 590.195C1022.03 590.518 1021.83 590.969 1021.83 591.547C1021.83 592.01 1022.02 592.404 1022.41 592.727C1022.81 593.044 1023.48 593.336 1024.42 593.602C1025.37 593.867 1026.11 594.161 1026.64 594.484C1027.18 594.802 1027.57 595.174 1027.83 595.602C1028.09 596.029 1028.22 596.531 1028.22 597.109C1028.22 598.031 1027.86 598.771 1027.14 599.328C1026.42 599.88 1025.46 600.156 1024.26 600.156C1023.48 600.156 1022.75 600.008 1022.07 599.711C1021.39 599.409 1020.87 598.997 1020.5 598.477C1020.14 597.956 1019.95 597.365 1019.95 596.703H1021.46C1021.46 597.391 1021.71 597.935 1022.22 598.336C1022.73 598.732 1023.41 598.93 1024.26 598.93C1025.05 598.93 1025.66 598.768 1026.08 598.445C1026.5 598.122 1026.71 597.682 1026.71 597.125C1026.71 596.568 1026.52 596.138 1026.12 595.836C1025.73 595.529 1025.03 595.227 1024 594.93ZM1033.43 600.156C1032.28 600.156 1031.35 599.781 1030.63 599.031C1029.91 598.276 1029.55 597.268 1029.55 596.008V595.742C1029.55 594.904 1029.71 594.156 1030.03 593.5C1030.35 592.839 1030.8 592.323 1031.38 591.953C1031.95 591.578 1032.58 591.391 1033.25 591.391C1034.35 591.391 1035.2 591.753 1035.81 592.477C1036.42 593.201 1036.73 594.237 1036.73 595.586V596.188H1031C1031.02 597.021 1031.26 597.695 1031.73 598.211C1032.2 598.721 1032.79 598.977 1033.51 598.977C1034.02 598.977 1034.45 598.872 1034.8 598.664C1035.16 598.456 1035.47 598.18 1035.73 597.836L1036.62 598.523C1035.91 599.612 1034.85 600.156 1033.43 600.156ZM1033.25 592.578C1032.67 592.578 1032.18 592.792 1031.78 593.219C1031.39 593.641 1031.14 594.234 1031.05 595H1035.28V594.891C1035.24 594.156 1035.04 593.589 1034.69 593.188C1034.33 592.781 1033.85 592.578 1033.25 592.578ZM1039.98 600H1038.53V588H1039.98V600ZM1045.8 600.156C1044.66 600.156 1043.73 599.781 1043.01 599.031C1042.29 598.276 1041.93 597.268 1041.93 596.008V595.742C1041.93 594.904 1042.09 594.156 1042.41 593.5C1042.73 592.839 1043.18 592.323 1043.75 591.953C1044.33 591.578 1044.95 591.391 1045.62 591.391C1046.72 591.391 1047.58 591.753 1048.19 592.477C1048.8 593.201 1049.1 594.237 1049.1 595.586V596.188H1043.38C1043.4 597.021 1043.64 597.695 1044.1 598.211C1044.57 598.721 1045.16 598.977 1045.88 598.977C1046.39 598.977 1046.83 598.872 1047.18 598.664C1047.53 598.456 1047.84 598.18 1048.11 597.836L1048.99 598.523C1048.28 599.612 1047.22 600.156 1045.8 600.156ZM1045.62 592.578C1045.04 592.578 1044.55 592.792 1044.16 593.219C1043.76 593.641 1043.52 594.234 1043.42 595H1047.66V594.891C1047.61 594.156 1047.42 593.589 1047.06 593.188C1046.71 592.781 1046.23 592.578 1045.62 592.578ZM1054.17 598.977C1054.69 598.977 1055.14 598.82 1055.52 598.508C1055.91 598.195 1056.12 597.805 1056.16 597.336H1057.53C1057.51 597.82 1057.34 598.281 1057.03 598.719C1056.72 599.156 1056.31 599.505 1055.8 599.766C1055.29 600.026 1054.74 600.156 1054.17 600.156C1053.02 600.156 1052.1 599.773 1051.42 599.008C1050.74 598.237 1050.41 597.185 1050.41 595.852V595.609C1050.41 594.786 1050.56 594.055 1050.86 593.414C1051.16 592.773 1051.59 592.276 1052.16 591.922C1052.72 591.568 1053.39 591.391 1054.16 591.391C1055.11 591.391 1055.9 591.674 1056.52 592.242C1057.15 592.81 1057.49 593.547 1057.53 594.453H1056.16C1056.12 593.906 1055.91 593.458 1055.54 593.109C1055.17 592.755 1054.71 592.578 1054.16 592.578C1053.43 592.578 1052.86 592.844 1052.45 593.375C1052.05 593.901 1051.85 594.664 1051.85 595.664V595.938C1051.85 596.911 1052.05 597.661 1052.45 598.188C1052.85 598.714 1053.43 598.977 1054.17 598.977ZM1061.12 589.5V591.547H1062.7V592.664H1061.12V597.906C1061.12 598.245 1061.19 598.5 1061.33 598.672C1061.47 598.839 1061.71 598.922 1062.05 598.922C1062.21 598.922 1062.44 598.891 1062.73 598.828V600C1062.35 600.104 1061.98 600.156 1061.62 600.156C1060.98 600.156 1060.49 599.961 1060.16 599.57C1059.84 599.18 1059.67 598.625 1059.67 597.906V592.664H1058.13V591.547H1059.67V589.5H1061.12ZM1069.93 600H1068.48V588H1069.93V600ZM1077.47 600C1077.39 599.833 1077.32 599.536 1077.27 599.109C1076.59 599.807 1075.79 600.156 1074.86 600.156C1074.03 600.156 1073.34 599.922 1072.8 599.453C1072.27 598.979 1072.01 598.38 1072.01 597.656C1072.01 596.776 1072.34 596.094 1073.01 595.609C1073.68 595.12 1074.62 594.875 1075.84 594.875H1077.24V594.211C1077.24 593.706 1077.09 593.305 1076.79 593.008C1076.49 592.706 1076.04 592.555 1075.45 592.555C1074.94 592.555 1074.51 592.685 1074.16 592.945C1073.81 593.206 1073.63 593.521 1073.63 593.891H1072.18C1072.18 593.469 1072.33 593.062 1072.62 592.672C1072.93 592.276 1073.33 591.964 1073.84 591.734C1074.36 591.505 1074.92 591.391 1075.54 591.391C1076.51 591.391 1077.28 591.635 1077.83 592.125C1078.38 592.609 1078.67 593.279 1078.69 594.133V598.023C1078.69 598.799 1078.79 599.417 1078.98 599.875V600H1077.47ZM1075.07 598.898C1075.52 598.898 1075.95 598.781 1076.36 598.547C1076.77 598.312 1077.06 598.008 1077.24 597.633V595.898H1076.11C1074.34 595.898 1073.45 596.417 1073.45 597.453C1073.45 597.906 1073.6 598.26 1073.91 598.516C1074.21 598.771 1074.6 598.898 1075.07 598.898ZM1082.32 591.547L1082.37 592.609C1083.01 591.797 1083.86 591.391 1084.9 591.391C1086.68 591.391 1087.59 592.398 1087.6 594.414V600H1086.16V594.406C1086.15 593.797 1086.01 593.346 1085.73 593.055C1085.46 592.763 1085.04 592.617 1084.46 592.617C1083.99 592.617 1083.58 592.742 1083.23 592.992C1082.87 593.242 1082.6 593.57 1082.4 593.977V600H1080.95V591.547H1082.32ZM1089.44 595.703C1089.44 594.385 1089.74 593.339 1090.35 592.562C1090.96 591.781 1091.77 591.391 1092.77 591.391C1093.8 591.391 1094.61 591.755 1095.19 592.484L1095.26 591.547H1096.58V599.797C1096.58 600.891 1096.25 601.753 1095.6 602.383C1094.96 603.013 1094.09 603.328 1092.99 603.328C1092.38 603.328 1091.79 603.198 1091.2 602.938C1090.62 602.677 1090.17 602.32 1089.87 601.867L1090.62 601C1091.24 601.766 1091.99 602.148 1092.89 602.148C1093.59 602.148 1094.14 601.951 1094.53 601.555C1094.93 601.159 1095.12 600.602 1095.12 599.883V599.156C1094.55 599.823 1093.76 600.156 1092.76 600.156C1091.77 600.156 1090.97 599.758 1090.35 598.961C1089.74 598.164 1089.44 597.078 1089.44 595.703ZM1090.89 595.867C1090.89 596.82 1091.09 597.57 1091.48 598.117C1091.87 598.659 1092.41 598.93 1093.12 598.93C1094.03 598.93 1094.7 598.516 1095.12 597.688V593.828C1094.68 593.021 1094.02 592.617 1093.13 592.617C1092.43 592.617 1091.88 592.891 1091.48 593.438C1091.09 593.984 1090.89 594.794 1090.89 595.867ZM1103.98 599.164C1103.42 599.826 1102.6 600.156 1101.51 600.156C1100.61 600.156 1099.92 599.896 1099.45 599.375C1098.98 598.849 1098.74 598.073 1098.73 597.047V591.547H1100.18V597.008C1100.18 598.289 1100.7 598.93 1101.74 598.93C1102.85 598.93 1103.58 598.518 1103.95 597.695V591.547H1105.39V600H1104.02L1103.98 599.164ZM1112.81 600C1112.73 599.833 1112.66 599.536 1112.61 599.109C1111.94 599.807 1111.14 600.156 1110.2 600.156C1109.37 600.156 1108.68 599.922 1108.15 599.453C1107.62 598.979 1107.35 598.38 1107.35 597.656C1107.35 596.776 1107.68 596.094 1108.35 595.609C1109.02 595.12 1109.97 594.875 1111.18 594.875H1112.59V594.211C1112.59 593.706 1112.43 593.305 1112.13 593.008C1111.83 592.706 1111.39 592.555 1110.8 592.555C1110.28 592.555 1109.85 592.685 1109.5 592.945C1109.15 593.206 1108.98 593.521 1108.98 593.891H1107.52C1107.52 593.469 1107.67 593.062 1107.97 592.672C1108.27 592.276 1108.68 591.964 1109.19 591.734C1109.7 591.505 1110.27 591.391 1110.88 591.391C1111.86 591.391 1112.62 591.635 1113.17 592.125C1113.72 592.609 1114.01 593.279 1114.03 594.133V598.023C1114.03 598.799 1114.13 599.417 1114.33 599.875V600H1112.81ZM1110.41 598.898C1110.87 598.898 1111.3 598.781 1111.7 598.547C1112.11 598.312 1112.4 598.008 1112.59 597.633V595.898H1111.45C1109.68 595.898 1108.8 596.417 1108.8 597.453C1108.8 597.906 1108.95 598.26 1109.25 598.516C1109.55 598.771 1109.94 598.898 1110.41 598.898ZM1115.95 595.703C1115.95 594.385 1116.26 593.339 1116.87 592.562C1117.48 591.781 1118.28 591.391 1119.29 591.391C1120.32 591.391 1121.12 591.755 1121.7 592.484L1121.77 591.547H1123.09V599.797C1123.09 600.891 1122.77 601.753 1122.12 602.383C1121.47 603.013 1120.6 603.328 1119.51 603.328C1118.9 603.328 1118.3 603.198 1117.72 602.938C1117.14 602.677 1116.69 602.32 1116.38 601.867L1117.13 601C1117.75 601.766 1118.51 602.148 1119.41 602.148C1120.11 602.148 1120.66 601.951 1121.05 601.555C1121.44 601.159 1121.64 600.602 1121.64 599.883V599.156C1121.06 599.823 1120.27 600.156 1119.27 600.156C1118.28 600.156 1117.48 599.758 1116.87 598.961C1116.26 598.164 1115.95 597.078 1115.95 595.703ZM1117.41 595.867C1117.41 596.82 1117.6 597.57 1117.99 598.117C1118.38 598.659 1118.93 598.93 1119.63 598.93C1120.54 598.93 1121.21 598.516 1121.64 597.688V593.828C1121.2 593.021 1120.53 592.617 1119.65 592.617C1118.95 592.617 1118.4 592.891 1118 593.438C1117.6 593.984 1117.41 594.794 1117.41 595.867ZM1128.79 600.156C1127.64 600.156 1126.71 599.781 1125.99 599.031C1125.27 598.276 1124.91 597.268 1124.91 596.008V595.742C1124.91 594.904 1125.07 594.156 1125.39 593.5C1125.71 592.839 1126.16 592.323 1126.73 591.953C1127.31 591.578 1127.94 591.391 1128.61 591.391C1129.71 591.391 1130.56 591.753 1131.17 592.477C1131.78 593.201 1132.09 594.237 1132.09 595.586V596.188H1126.36C1126.38 597.021 1126.62 597.695 1127.09 598.211C1127.55 598.721 1128.15 598.977 1128.87 598.977C1129.38 598.977 1129.81 598.872 1130.16 598.664C1130.52 598.456 1130.83 598.18 1131.09 597.836L1131.98 598.523C1131.27 599.612 1130.21 600.156 1128.79 600.156ZM1128.61 592.578C1128.03 592.578 1127.54 592.792 1127.14 593.219C1126.74 593.641 1126.5 594.234 1126.41 595H1130.64V594.891C1130.6 594.156 1130.4 593.589 1130.05 593.188C1129.69 592.781 1129.21 592.578 1128.61 592.578Z" fill="#5452F6"/>
<rect x="973.5" y="563.5" width="205" height="62" rx="7.5" stroke="#5452F6"/>
</g>
<path d="M971.66 593.763L963.672 586.517C963.029 585.934 962 586.39 962 587.257V601.351C962 602.205 963.002 602.666 963.651 602.11L971.639 595.263C972.096 594.871 972.106 594.168 971.66 593.763Z" fill="#5452F6"/>
<line x1="897" y1="594.5" x2="962" y2="594.5" stroke="#5452F6" stroke-width="2"/>
<path d="M1255.66 593.763L1247.67 586.517C1247.03 585.934 1246 586.39 1246 587.257V601.351C1246 602.205 1247 602.666 1247.65 602.11L1255.64 595.263C1256.1 594.871 1256.11 594.168 1255.66 593.763Z" fill="#5452F6"/>
<line x1="1181" y1="594.5" x2="1246" y2="594.5" stroke="#5452F6" stroke-width="2"/>
<path d="M742.66 592.763L734.672 585.517C734.029 584.934 733 585.39 733 586.257V600.351C733 601.205 734.002 601.666 734.651 601.11L742.639 594.263C743.096 593.871 743.106 593.168 742.66 592.763Z" fill="#5452F6"/>
<line x1="661" y1="593.5" x2="733" y2="593.5" stroke="#5452F6" stroke-width="2"/>
<defs>
<filter id="filter0_d" x="464" y="562" width="201" height="64" filterUnits="userSpaceOnUse" color-interpolation-filters="sRGB">
<feFlood flood-opacity="0" result="BackgroundImageFix"/>
<feColorMatrix in="SourceAlpha" type="matrix" values="0 0 0 0 0 0 0 0 0 0 0 0 0 0 0 0 0 0 127 0"/>
<feOffset dx="4" dy="4"/>
<feColorMatrix type="matrix" values="0 0 0 0 0.674908 0 0 0 0 0.662083 0 0 0 0 0.945833 0 0 0 1 0"/>
<feBlend mode="normal" in2="BackgroundImageFix" result="effect1_dropShadow"/>
<feBlend mode="normal" in="SourceGraphic" in2="effect1_dropShadow" result="shape"/>
</filter>
<filter id="filter1_d" x="1259" y="564" width="201" height="64" filterUnits="userSpaceOnUse" color-interpolation-filters="sRGB">
<feFlood flood-opacity="0" result="BackgroundImageFix"/>
<feColorMatrix in="SourceAlpha" type="matrix" values="0 0 0 0 0 0 0 0 0 0 0 0 0 0 0 0 0 0 127 0"/>
<feOffset dx="4" dy="4"/>
<feColorMatrix type="matrix" values="0 0 0 0 0.674908 0 0 0 0 0.662083 0 0 0 0 0.945833 0 0 0 1 0"/>
<feBlend mode="normal" in2="BackgroundImageFix" result="effect1_dropShadow"/>
<feBlend mode="normal" in="SourceGraphic" in2="effect1_dropShadow" result="shape"/>
</filter>
<filter id="filter2_d" x="744" y="563" width="155" height="67" filterUnits="userSpaceOnUse" color-interpolation-filters="sRGB">
<feFlood flood-opacity="0" result="BackgroundImageFix"/>
<feColorMatrix in="SourceAlpha" type="matrix" values="0 0 0 0 0 0 0 0 0 0 0 0 0 0 0 0 0 0 127 0"/>
<feOffset dx="4" dy="4"/>
<feColorMatrix type="matrix" values="0 0 0 0 0.674908 0 0 0 0 0.662083 0 0 0 0 0.945833 0 0 0 1 0"/>
<feBlend mode="normal" in2="BackgroundImageFix" result="effect1_dropShadow"/>
<feBlend mode="normal" in="SourceGraphic" in2="effect1_dropShadow" result="shape"/>
</filter>
<filter id="filter3_d" x="973" y="563" width="210" height="67" filterUnits="userSpaceOnUse" color-interpolation-filters="sRGB">
<feFlood flood-opacity="0" result="BackgroundImageFix"/>
<feColorMatrix in="SourceAlpha" type="matrix" values="0 0 0 0 0 0 0 0 0 0 0 0 0 0 0 0 0 0 127 0"/>
<feOffset dx="4" dy="4"/>
<feColorMatrix type="matrix" values="0 0 0 0 0.674908 0 0 0 0 0.662083 0 0 0 0 0.945833 0 0 0 1 0"/>
<feBlend mode="normal" in2="BackgroundImageFix" result="effect1_dropShadow"/>
<feBlend mode="normal" in="SourceGraphic" in2="effect1_dropShadow" result="shape"/>
</filter>
</defs>
</svg>
