<svg width="1920" height="800" viewBox="0 0 1920 800" fill="none" xmlns="http://www.w3.org/2000/svg">
<rect width="1920" height="800" fill="#EEEEFF" fill-opacity="0.48"/>
<rect width="1920" height="441" fill="#EEEEFF"/>
<path d="M181.312 123.5V154.438C181.292 158.729 179.938 162.24 177.25 164.969C174.583 167.698 170.958 169.229 166.375 169.562L164.781 169.625C159.802 169.625 155.833 168.281 152.875 165.594C149.917 162.906 148.417 159.208 148.375 154.5V123.5H154.312V154.312C154.312 157.604 155.219 160.167 157.031 162C158.844 163.812 161.427 164.719 164.781 164.719C168.177 164.719 170.771 163.812 172.562 162C174.375 160.188 175.281 157.635 175.281 154.344V123.5H181.312ZM209.562 160.031C209.562 158.469 208.969 157.26 207.781 156.406C206.615 155.531 204.562 154.781 201.625 154.156C198.708 153.531 196.385 152.781 194.656 151.906C192.948 151.031 191.677 149.99 190.844 148.781C190.031 147.573 189.625 146.135 189.625 144.469C189.625 141.698 190.792 139.354 193.125 137.438C195.479 135.521 198.479 134.562 202.125 134.562C205.958 134.562 209.062 135.552 211.438 137.531C213.833 139.51 215.031 142.042 215.031 145.125H209.219C209.219 143.542 208.542 142.177 207.188 141.031C205.854 139.885 204.167 139.312 202.125 139.312C200.021 139.312 198.375 139.771 197.188 140.688C196 141.604 195.406 142.802 195.406 144.281C195.406 145.677 195.958 146.729 197.062 147.438C198.167 148.146 200.156 148.823 203.031 149.469C205.927 150.115 208.271 150.885 210.062 151.781C211.854 152.677 213.177 153.76 214.031 155.031C214.906 156.281 215.344 157.812 215.344 159.625C215.344 162.646 214.135 165.073 211.719 166.906C209.302 168.719 206.167 169.625 202.312 169.625C199.604 169.625 197.208 169.146 195.125 168.188C193.042 167.229 191.406 165.896 190.219 164.188C189.052 162.458 188.469 160.594 188.469 158.594H194.25C194.354 160.531 195.125 162.073 196.562 163.219C198.021 164.344 199.938 164.906 202.312 164.906C204.5 164.906 206.25 164.469 207.562 163.594C208.896 162.698 209.562 161.51 209.562 160.031ZM236.906 169.625C232.323 169.625 228.594 168.125 225.719 165.125C222.844 162.104 221.406 158.073 221.406 153.031V151.969C221.406 148.615 222.042 145.625 223.312 143C224.604 140.354 226.396 138.292 228.688 136.812C231 135.312 233.5 134.562 236.188 134.562C240.583 134.562 244 136.01 246.438 138.906C248.875 141.802 250.094 145.948 250.094 151.344V153.75H227.188C227.271 157.083 228.24 159.781 230.094 161.844C231.969 163.885 234.344 164.906 237.219 164.906C239.26 164.906 240.99 164.49 242.406 163.656C243.823 162.823 245.062 161.719 246.125 160.344L249.656 163.094C246.823 167.448 242.573 169.625 236.906 169.625ZM236.188 139.312C233.854 139.312 231.896 140.167 230.312 141.875C228.729 143.562 227.75 145.938 227.375 149H244.312V148.562C244.146 145.625 243.354 143.354 241.938 141.75C240.521 140.125 238.604 139.312 236.188 139.312ZM273.156 140.375C272.281 140.229 271.333 140.156 270.312 140.156C266.521 140.156 263.948 141.771 262.594 145V169H256.812V135.188H262.438L262.531 139.094C264.427 136.073 267.115 134.562 270.594 134.562C271.719 134.562 272.573 134.708 273.156 135V140.375ZM315.5 125.906C312.917 125.49 310.833 125.281 309.25 125.281C305.083 125.281 303 127.469 303 131.844V135.188H310.219V139.656H303V169H297.219V139.656H291.875V135.188H297.219V131.5C297.24 127.896 298.25 125.135 300.25 123.219C302.25 121.302 305.094 120.344 308.781 120.344C310.885 120.344 315.052 120.979 321.281 122.25V169H315.5V125.906ZM329.219 151.781C329.219 148.469 329.865 145.49 331.156 142.844C332.469 140.198 334.281 138.156 336.594 136.719C338.927 135.281 341.583 134.562 344.562 134.562C349.167 134.562 352.885 136.156 355.719 139.344C358.573 142.531 360 146.771 360 152.062V152.469C360 155.76 359.365 158.719 358.094 161.344C356.844 163.948 355.042 165.979 352.688 167.438C350.354 168.896 347.667 169.625 344.625 169.625C340.042 169.625 336.323 168.031 333.469 164.844C330.635 161.656 329.219 157.438 329.219 152.188V151.781ZM335.031 152.469C335.031 156.219 335.896 159.229 337.625 161.5C339.375 163.771 341.708 164.906 344.625 164.906C347.562 164.906 349.896 163.76 351.625 161.469C353.354 159.156 354.219 155.927 354.219 151.781C354.219 148.073 353.333 145.073 351.562 142.781C349.812 140.469 347.479 139.312 344.562 139.312C341.708 139.312 339.406 140.448 337.656 142.719C335.906 144.99 335.031 148.24 335.031 152.469ZM397.188 161.031L403.688 135.188H409.469L399.625 169H394.938L386.719 143.375L378.719 169H374.031L364.219 135.188H369.969L376.625 160.5L384.5 135.188H389.156L397.188 161.031ZM431.062 165.969C431.062 164.969 431.354 164.135 431.938 163.469C432.542 162.802 433.438 162.469 434.625 162.469C435.812 162.469 436.708 162.802 437.312 163.469C437.938 164.135 438.25 164.969 438.25 165.969C438.25 166.927 437.938 167.729 437.312 168.375C436.708 169.021 435.812 169.344 434.625 169.344C433.438 169.344 432.542 169.021 431.938 168.375C431.354 167.729 431.062 166.927 431.062 165.969ZM431.094 138.375C431.094 137.375 431.385 136.542 431.969 135.875C432.573 135.208 433.469 134.875 434.656 134.875C435.844 134.875 436.74 135.208 437.344 135.875C437.969 136.542 438.281 137.375 438.281 138.375C438.281 139.333 437.969 140.135 437.344 140.781C436.74 141.427 435.844 141.75 434.656 141.75C433.469 141.75 432.573 141.427 431.969 140.781C431.385 140.135 431.094 139.333 431.094 138.375ZM476.938 148.719C471.792 147.24 468.042 145.427 465.688 143.281C463.354 141.115 462.188 138.448 462.188 135.281C462.188 131.698 463.615 128.74 466.469 126.406C469.344 124.052 473.073 122.875 477.656 122.875C480.781 122.875 483.562 123.479 486 124.688C488.458 125.896 490.354 127.562 491.688 129.688C493.042 131.812 493.719 134.135 493.719 136.656H487.688C487.688 133.906 486.812 131.75 485.062 130.188C483.312 128.604 480.844 127.812 477.656 127.812C474.698 127.812 472.385 128.469 470.719 129.781C469.073 131.073 468.25 132.875 468.25 135.188C468.25 137.042 469.031 138.615 470.594 139.906C472.177 141.177 474.854 142.344 478.625 143.406C482.417 144.469 485.375 145.646 487.5 146.938C489.646 148.208 491.229 149.698 492.25 151.406C493.292 153.115 493.812 155.125 493.812 157.438C493.812 161.125 492.375 164.083 489.5 166.312C486.625 168.521 482.781 169.625 477.969 169.625C474.844 169.625 471.927 169.031 469.219 167.844C466.51 166.635 464.417 164.99 462.938 162.906C461.479 160.823 460.75 158.458 460.75 155.812H466.781C466.781 158.562 467.792 160.74 469.812 162.344C471.854 163.927 474.573 164.719 477.969 164.719C481.135 164.719 483.562 164.073 485.25 162.781C486.938 161.49 487.781 159.729 487.781 157.5C487.781 155.271 487 153.552 485.438 152.344C483.875 151.115 481.042 149.906 476.938 148.719ZM506.406 139.281C508.969 136.135 512.302 134.562 516.406 134.562C523.552 134.562 527.156 138.594 527.219 146.656V169H521.438V146.625C521.417 144.188 520.854 142.385 519.75 141.219C518.667 140.052 516.969 139.469 514.656 139.469C512.781 139.469 511.135 139.969 509.719 140.969C508.302 141.969 507.198 143.281 506.406 144.906V169H500.625V121H506.406V139.281ZM534.344 151.781C534.344 148.469 534.99 145.49 536.281 142.844C537.594 140.198 539.406 138.156 541.719 136.719C544.052 135.281 546.708 134.562 549.688 134.562C554.292 134.562 558.01 136.156 560.844 139.344C563.698 142.531 565.125 146.771 565.125 152.062V152.469C565.125 155.76 564.49 158.719 563.219 161.344C561.969 163.948 560.167 165.979 557.812 167.438C555.479 168.896 552.792 169.625 549.75 169.625C545.167 169.625 541.448 168.031 538.594 164.844C535.76 161.656 534.344 157.438 534.344 152.188V151.781ZM540.156 152.469C540.156 156.219 541.021 159.229 542.75 161.5C544.5 163.771 546.833 164.906 549.75 164.906C552.688 164.906 555.021 163.76 556.75 161.469C558.479 159.156 559.344 155.927 559.344 151.781C559.344 148.073 558.458 145.073 556.688 142.781C554.938 140.469 552.604 139.312 549.688 139.312C546.833 139.312 544.531 140.448 542.781 142.719C541.031 144.99 540.156 148.24 540.156 152.469ZM600.938 152.469C600.938 157.615 599.76 161.76 597.406 164.906C595.052 168.052 591.865 169.625 587.844 169.625C583.74 169.625 580.51 168.323 578.156 165.719V182H572.375V135.188H577.656L577.938 138.938C580.292 136.021 583.562 134.562 587.75 134.562C591.812 134.562 595.021 136.094 597.375 139.156C599.75 142.219 600.938 146.479 600.938 151.938V152.469ZM595.156 151.812C595.156 148 594.344 144.99 592.719 142.781C591.094 140.573 588.865 139.469 586.031 139.469C582.531 139.469 579.906 141.021 578.156 144.125V160.281C579.885 163.365 582.531 164.906 586.094 164.906C588.865 164.906 591.062 163.812 592.688 161.625C594.333 159.417 595.156 156.146 595.156 151.812Z" fill="black"/>
<path d="M170.988 213.406V230.809C170.977 233.223 170.215 235.197 168.703 236.732C167.203 238.268 165.164 239.129 162.586 239.316L161.689 239.352C158.889 239.352 156.656 238.596 154.992 237.084C153.328 235.572 152.484 233.492 152.461 230.844V213.406H155.801V230.738C155.801 232.59 156.311 234.031 157.33 235.062C158.35 236.082 159.803 236.592 161.689 236.592C163.6 236.592 165.059 236.082 166.066 235.062C167.086 234.043 167.596 232.607 167.596 230.756V213.406H170.988ZM186.879 233.955C186.879 233.076 186.545 232.396 185.877 231.916C185.221 231.424 184.066 231.002 182.414 230.65C180.773 230.299 179.467 229.877 178.494 229.385C177.533 228.893 176.818 228.307 176.35 227.627C175.893 226.947 175.664 226.139 175.664 225.201C175.664 223.643 176.32 222.324 177.633 221.246C178.957 220.168 180.645 219.629 182.695 219.629C184.852 219.629 186.598 220.186 187.934 221.299C189.281 222.412 189.955 223.836 189.955 225.57H186.686C186.686 224.68 186.305 223.912 185.543 223.268C184.793 222.623 183.844 222.301 182.695 222.301C181.512 222.301 180.586 222.559 179.918 223.074C179.25 223.59 178.916 224.264 178.916 225.096C178.916 225.881 179.227 226.473 179.848 226.871C180.469 227.27 181.588 227.65 183.205 228.014C184.834 228.377 186.152 228.811 187.16 229.314C188.168 229.818 188.912 230.428 189.393 231.143C189.885 231.846 190.131 232.707 190.131 233.727C190.131 235.426 189.451 236.791 188.092 237.822C186.732 238.842 184.969 239.352 182.801 239.352C181.277 239.352 179.93 239.082 178.758 238.543C177.586 238.004 176.666 237.254 175.998 236.293C175.342 235.32 175.014 234.271 175.014 233.146H178.266C178.324 234.236 178.758 235.104 179.566 235.748C180.387 236.381 181.465 236.697 182.801 236.697C184.031 236.697 185.016 236.451 185.754 235.959C186.504 235.455 186.879 234.787 186.879 233.955ZM202.26 239.352C199.682 239.352 197.584 238.508 195.967 236.82C194.35 235.121 193.541 232.854 193.541 230.018V229.42C193.541 227.533 193.898 225.852 194.613 224.375C195.34 222.887 196.348 221.727 197.637 220.895C198.938 220.051 200.344 219.629 201.855 219.629C204.328 219.629 206.25 220.443 207.621 222.072C208.992 223.701 209.678 226.033 209.678 229.068V230.422H196.793C196.84 232.297 197.385 233.814 198.428 234.975C199.482 236.123 200.818 236.697 202.436 236.697C203.584 236.697 204.557 236.463 205.354 235.994C206.15 235.525 206.848 234.904 207.445 234.131L209.432 235.678C207.838 238.127 205.447 239.352 202.26 239.352ZM201.855 222.301C200.543 222.301 199.441 222.781 198.551 223.742C197.66 224.691 197.109 226.027 196.898 227.75H206.426V227.504C206.332 225.852 205.887 224.574 205.09 223.672C204.293 222.758 203.215 222.301 201.855 222.301ZM222.65 222.898C222.158 222.816 221.625 222.775 221.051 222.775C218.918 222.775 217.471 223.684 216.709 225.5V239H213.457V219.98H216.621L216.674 222.178C217.74 220.479 219.252 219.629 221.209 219.629C221.842 219.629 222.322 219.711 222.65 219.875V222.898ZM242.215 236.697C243.375 236.697 244.389 236.346 245.256 235.643C246.123 234.939 246.604 234.061 246.697 233.006H249.773C249.715 234.096 249.34 235.133 248.648 236.117C247.957 237.102 247.031 237.887 245.871 238.473C244.723 239.059 243.504 239.352 242.215 239.352C239.625 239.352 237.562 238.49 236.027 236.768C234.504 235.033 233.742 232.666 233.742 229.666V229.121C233.742 227.27 234.082 225.623 234.762 224.182C235.441 222.74 236.414 221.621 237.68 220.824C238.957 220.027 240.463 219.629 242.197 219.629C244.33 219.629 246.1 220.268 247.506 221.545C248.924 222.822 249.68 224.48 249.773 226.52H246.697C246.604 225.289 246.135 224.281 245.291 223.496C244.459 222.699 243.428 222.301 242.197 222.301C240.545 222.301 239.262 222.898 238.348 224.094C237.445 225.277 236.994 226.994 236.994 229.244V229.859C236.994 232.051 237.445 233.738 238.348 234.922C239.25 236.105 240.539 236.697 242.215 236.697ZM265.172 239C264.984 238.625 264.832 237.957 264.715 236.996C263.203 238.566 261.398 239.352 259.301 239.352C257.426 239.352 255.885 238.824 254.678 237.77C253.482 236.703 252.885 235.355 252.885 233.727C252.885 231.746 253.635 230.211 255.135 229.121C256.646 228.02 258.768 227.469 261.498 227.469H264.662V225.975C264.662 224.838 264.322 223.936 263.643 223.268C262.963 222.588 261.961 222.248 260.637 222.248C259.477 222.248 258.504 222.541 257.719 223.127C256.934 223.713 256.541 224.422 256.541 225.254H253.271C253.271 224.305 253.605 223.391 254.273 222.512C254.953 221.621 255.867 220.918 257.016 220.402C258.176 219.887 259.447 219.629 260.83 219.629C263.021 219.629 264.738 220.18 265.98 221.281C267.223 222.371 267.867 223.877 267.914 225.799V234.553C267.914 236.299 268.137 237.688 268.582 238.719V239H265.172ZM259.775 236.521C260.795 236.521 261.762 236.258 262.676 235.73C263.59 235.203 264.252 234.518 264.662 233.674V229.771H262.113C258.129 229.771 256.137 230.938 256.137 233.27C256.137 234.289 256.477 235.086 257.156 235.66C257.836 236.234 258.709 236.521 259.775 236.521ZM284.086 233.955C284.086 233.076 283.752 232.396 283.084 231.916C282.428 231.424 281.273 231.002 279.621 230.65C277.98 230.299 276.674 229.877 275.701 229.385C274.74 228.893 274.025 228.307 273.557 227.627C273.1 226.947 272.871 226.139 272.871 225.201C272.871 223.643 273.527 222.324 274.84 221.246C276.164 220.168 277.852 219.629 279.902 219.629C282.059 219.629 283.805 220.186 285.141 221.299C286.488 222.412 287.162 223.836 287.162 225.57H283.893C283.893 224.68 283.512 223.912 282.75 223.268C282 222.623 281.051 222.301 279.902 222.301C278.719 222.301 277.793 222.559 277.125 223.074C276.457 223.59 276.123 224.264 276.123 225.096C276.123 225.881 276.434 226.473 277.055 226.871C277.676 227.27 278.795 227.65 280.412 228.014C282.041 228.377 283.359 228.811 284.367 229.314C285.375 229.818 286.119 230.428 286.6 231.143C287.092 231.846 287.338 232.707 287.338 233.727C287.338 235.426 286.658 236.791 285.299 237.822C283.939 238.842 282.176 239.352 280.008 239.352C278.484 239.352 277.137 239.082 275.965 238.543C274.793 238.004 273.873 237.254 273.205 236.293C272.549 235.32 272.221 234.271 272.221 233.146H275.473C275.531 234.236 275.965 235.104 276.773 235.748C277.594 236.381 278.672 236.697 280.008 236.697C281.238 236.697 282.223 236.451 282.961 235.959C283.711 235.455 284.086 234.787 284.086 233.955ZM299.467 239.352C296.889 239.352 294.791 238.508 293.174 236.82C291.557 235.121 290.748 232.854 290.748 230.018V229.42C290.748 227.533 291.105 225.852 291.82 224.375C292.547 222.887 293.555 221.727 294.844 220.895C296.145 220.051 297.551 219.629 299.062 219.629C301.535 219.629 303.457 220.443 304.828 222.072C306.199 223.701 306.885 226.033 306.885 229.068V230.422H294C294.047 232.297 294.592 233.814 295.635 234.975C296.689 236.123 298.025 236.697 299.643 236.697C300.791 236.697 301.764 236.463 302.561 235.994C303.357 235.525 304.055 234.904 304.652 234.131L306.639 235.678C305.045 238.127 302.654 239.352 299.467 239.352ZM299.062 222.301C297.75 222.301 296.648 222.781 295.758 223.742C294.867 224.691 294.316 226.027 294.105 227.75H303.633V227.504C303.539 225.852 303.094 224.574 302.297 223.672C301.5 222.758 300.422 222.301 299.062 222.301ZM319.488 237.295C319.488 236.732 319.652 236.264 319.98 235.889C320.32 235.514 320.824 235.326 321.492 235.326C322.16 235.326 322.664 235.514 323.004 235.889C323.355 236.264 323.531 236.732 323.531 237.295C323.531 237.834 323.355 238.285 323.004 238.648C322.664 239.012 322.16 239.193 321.492 239.193C320.824 239.193 320.32 239.012 319.98 238.648C319.652 238.285 319.488 237.834 319.488 237.295ZM319.506 221.773C319.506 221.211 319.67 220.742 319.998 220.367C320.338 219.992 320.842 219.805 321.51 219.805C322.178 219.805 322.682 219.992 323.021 220.367C323.373 220.742 323.549 221.211 323.549 221.773C323.549 222.312 323.373 222.764 323.021 223.127C322.682 223.49 322.178 223.672 321.51 223.672C320.842 223.672 320.338 223.49 319.998 223.127C319.67 222.764 319.506 222.312 319.506 221.773ZM341.373 239H337.998V213.406H341.373V239ZM372.82 234.518L376.477 219.98H379.729L374.191 239H371.555L366.932 224.586L362.432 239H359.795L354.275 219.98H357.51L361.254 234.219L365.684 219.98H368.303L372.82 234.518ZM394.793 239C394.605 238.625 394.453 237.957 394.336 236.996C392.824 238.566 391.02 239.352 388.922 239.352C387.047 239.352 385.506 238.824 384.299 237.77C383.104 236.703 382.506 235.355 382.506 233.727C382.506 231.746 383.256 230.211 384.756 229.121C386.268 228.02 388.389 227.469 391.119 227.469H394.283V225.975C394.283 224.838 393.943 223.936 393.264 223.268C392.584 222.588 391.582 222.248 390.258 222.248C389.098 222.248 388.125 222.541 387.34 223.127C386.555 223.713 386.162 224.422 386.162 225.254H382.893C382.893 224.305 383.227 223.391 383.895 222.512C384.574 221.621 385.488 220.918 386.637 220.402C387.797 219.887 389.068 219.629 390.451 219.629C392.643 219.629 394.359 220.18 395.602 221.281C396.844 222.371 397.488 223.877 397.535 225.799V234.553C397.535 236.299 397.758 237.688 398.203 238.719V239H394.793ZM389.396 236.521C390.416 236.521 391.383 236.258 392.297 235.73C393.211 235.203 393.873 234.518 394.283 233.674V229.771H391.734C387.75 229.771 385.758 230.938 385.758 233.27C385.758 234.289 386.098 235.086 386.777 235.66C387.457 236.234 388.33 236.521 389.396 236.521ZM405.709 219.98L405.814 222.371C407.268 220.543 409.166 219.629 411.51 219.629C415.529 219.629 417.557 221.896 417.592 226.432V239H414.34V226.414C414.328 225.043 414.012 224.029 413.391 223.373C412.781 222.717 411.826 222.389 410.525 222.389C409.471 222.389 408.545 222.67 407.748 223.232C406.951 223.795 406.33 224.533 405.885 225.447V239H402.633V219.98H405.709ZM426.908 215.375V219.98H430.459V222.494H426.908V234.289C426.908 235.051 427.066 235.625 427.383 236.012C427.699 236.387 428.238 236.574 429 236.574C429.375 236.574 429.891 236.504 430.547 236.363V239C429.691 239.234 428.859 239.352 428.051 239.352C426.598 239.352 425.502 238.912 424.764 238.033C424.025 237.154 423.656 235.906 423.656 234.289V222.494H420.193V219.98H423.656V215.375H426.908ZM447.615 215.375V219.98H451.166V222.494H447.615V234.289C447.615 235.051 447.773 235.625 448.09 236.012C448.406 236.387 448.945 236.574 449.707 236.574C450.082 236.574 450.598 236.504 451.254 236.363V239C450.398 239.234 449.566 239.352 448.758 239.352C447.305 239.352 446.209 238.912 445.471 238.033C444.732 237.154 444.363 235.906 444.363 234.289V222.494H440.9V219.98H444.363V215.375H447.615ZM453.768 229.314C453.768 227.451 454.131 225.775 454.857 224.287C455.596 222.799 456.615 221.65 457.916 220.842C459.229 220.033 460.723 219.629 462.398 219.629C464.988 219.629 467.08 220.525 468.674 222.318C470.279 224.111 471.082 226.496 471.082 229.473V229.701C471.082 231.553 470.725 233.217 470.01 234.693C469.307 236.158 468.293 237.301 466.969 238.121C465.656 238.941 464.145 239.352 462.434 239.352C459.855 239.352 457.764 238.455 456.158 236.662C454.564 234.869 453.768 232.496 453.768 229.543V229.314ZM457.037 229.701C457.037 231.811 457.523 233.504 458.496 234.781C459.48 236.059 460.793 236.697 462.434 236.697C464.086 236.697 465.398 236.053 466.371 234.764C467.344 233.463 467.83 231.646 467.83 229.314C467.83 227.229 467.332 225.541 466.336 224.252C465.352 222.951 464.039 222.301 462.398 222.301C460.793 222.301 459.498 222.939 458.514 224.217C457.529 225.494 457.037 227.322 457.037 229.701ZM500.191 229.701C500.191 232.607 499.523 234.945 498.188 236.715C496.852 238.473 495.059 239.352 492.809 239.352C490.406 239.352 488.549 238.502 487.236 236.803L487.078 239H484.09V212H487.342V222.072C488.654 220.443 490.465 219.629 492.773 219.629C495.082 219.629 496.893 220.502 498.205 222.248C499.529 223.994 500.191 226.385 500.191 229.42V229.701ZM496.939 229.332C496.939 227.117 496.512 225.406 495.656 224.199C494.801 222.992 493.57 222.389 491.965 222.389C489.82 222.389 488.279 223.385 487.342 225.377V233.604C488.338 235.596 489.891 236.592 492 236.592C493.559 236.592 494.771 235.988 495.639 234.781C496.506 233.574 496.939 231.758 496.939 229.332ZM516.047 237.119C514.781 238.607 512.924 239.352 510.475 239.352C508.447 239.352 506.9 238.766 505.834 237.594C504.779 236.41 504.246 234.664 504.234 232.355V219.98H507.486V232.268C507.486 235.15 508.658 236.592 511.002 236.592C513.486 236.592 515.139 235.666 515.959 233.814V219.98H519.211V239H516.117L516.047 237.119ZM530.391 234.236L534.82 219.98H538.301L530.654 241.936C529.471 245.1 527.59 246.682 525.012 246.682L524.396 246.629L523.184 246.4V243.764L524.062 243.834C525.164 243.834 526.02 243.611 526.629 243.166C527.25 242.721 527.76 241.906 528.158 240.723L528.879 238.789L522.094 219.98H525.645L530.391 234.236ZM557.777 236.697C558.938 236.697 559.951 236.346 560.818 235.643C561.686 234.939 562.166 234.061 562.26 233.006H565.336C565.277 234.096 564.902 235.133 564.211 236.117C563.52 237.102 562.594 237.887 561.434 238.473C560.285 239.059 559.066 239.352 557.777 239.352C555.188 239.352 553.125 238.49 551.59 236.768C550.066 235.033 549.305 232.666 549.305 229.666V229.121C549.305 227.27 549.645 225.623 550.324 224.182C551.004 222.74 551.977 221.621 553.242 220.824C554.52 220.027 556.025 219.629 557.76 219.629C559.893 219.629 561.662 220.268 563.068 221.545C564.486 222.822 565.242 224.48 565.336 226.52H562.26C562.166 225.289 561.697 224.281 560.854 223.496C560.021 222.699 558.99 222.301 557.76 222.301C556.107 222.301 554.824 222.898 553.91 224.094C553.008 225.277 552.557 226.994 552.557 229.244V229.859C552.557 232.051 553.008 233.738 553.91 234.922C554.812 236.105 556.102 236.697 557.777 236.697ZM568.131 229.314C568.131 227.451 568.494 225.775 569.221 224.287C569.959 222.799 570.979 221.65 572.279 220.842C573.592 220.033 575.086 219.629 576.762 219.629C579.352 219.629 581.443 220.525 583.037 222.318C584.643 224.111 585.445 226.496 585.445 229.473V229.701C585.445 231.553 585.088 233.217 584.373 234.693C583.67 236.158 582.656 237.301 581.332 238.121C580.02 238.941 578.508 239.352 576.797 239.352C574.219 239.352 572.127 238.455 570.521 236.662C568.928 234.869 568.131 232.496 568.131 229.543V229.314ZM571.4 229.701C571.4 231.811 571.887 233.504 572.859 234.781C573.844 236.059 575.156 236.697 576.797 236.697C578.449 236.697 579.762 236.053 580.734 234.764C581.707 233.463 582.193 231.646 582.193 229.314C582.193 227.229 581.695 225.541 580.699 224.252C579.715 222.951 578.402 222.301 576.762 222.301C575.156 222.301 573.861 222.939 572.877 224.217C571.893 225.494 571.4 227.322 571.4 229.701ZM593.057 239H589.805V219.98H593.057V239ZM589.541 214.936C589.541 214.408 589.699 213.963 590.016 213.6C590.344 213.236 590.824 213.055 591.457 213.055C592.09 213.055 592.57 213.236 592.898 213.6C593.227 213.963 593.391 214.408 593.391 214.936C593.391 215.463 593.227 215.902 592.898 216.254C592.57 216.605 592.09 216.781 591.457 216.781C590.824 216.781 590.344 216.605 590.016 216.254C589.699 215.902 589.541 215.463 589.541 214.936ZM601.354 219.98L601.459 222.371C602.912 220.543 604.811 219.629 607.154 219.629C611.174 219.629 613.201 221.896 613.236 226.432V239H609.984V226.414C609.973 225.043 609.656 224.029 609.035 223.373C608.426 222.717 607.471 222.389 606.17 222.389C605.115 222.389 604.189 222.67 603.393 223.232C602.596 223.795 601.975 224.533 601.529 225.447V239H598.277V219.98H601.354ZM629.215 233.955C629.215 233.076 628.881 232.396 628.213 231.916C627.557 231.424 626.402 231.002 624.75 230.65C623.109 230.299 621.803 229.877 620.83 229.385C619.869 228.893 619.154 228.307 618.686 227.627C618.229 226.947 618 226.139 618 225.201C618 223.643 618.656 222.324 619.969 221.246C621.293 220.168 622.98 219.629 625.031 219.629C627.188 219.629 628.934 220.186 630.27 221.299C631.617 222.412 632.291 223.836 632.291 225.57H629.021C629.021 224.68 628.641 223.912 627.879 223.268C627.129 222.623 626.18 222.301 625.031 222.301C623.848 222.301 622.922 222.559 622.254 223.074C621.586 223.59 621.252 224.264 621.252 225.096C621.252 225.881 621.562 226.473 622.184 226.871C622.805 227.27 623.924 227.65 625.541 228.014C627.17 228.377 628.488 228.811 629.496 229.314C630.504 229.818 631.248 230.428 631.729 231.143C632.221 231.846 632.467 232.707 632.467 233.727C632.467 235.426 631.787 236.791 630.428 237.822C629.068 238.842 627.305 239.352 625.137 239.352C623.613 239.352 622.266 239.082 621.094 238.543C619.922 238.004 619.002 237.254 618.334 236.293C617.678 235.32 617.35 234.271 617.35 233.146H620.602C620.66 234.236 621.094 235.104 621.902 235.748C622.723 236.381 623.801 236.697 625.137 236.697C626.367 236.697 627.352 236.451 628.09 235.959C628.84 235.455 629.215 234.787 629.215 233.955ZM650.045 215.375V219.98H653.596V222.494H650.045V234.289C650.045 235.051 650.203 235.625 650.52 236.012C650.836 236.387 651.375 236.574 652.137 236.574C652.512 236.574 653.027 236.504 653.684 236.363V239C652.828 239.234 651.996 239.352 651.188 239.352C649.734 239.352 648.639 238.912 647.9 238.033C647.162 237.154 646.793 235.906 646.793 234.289V222.494H643.33V219.98H646.793V215.375H650.045ZM656.197 229.314C656.197 227.451 656.561 225.775 657.287 224.287C658.025 222.799 659.045 221.65 660.346 220.842C661.658 220.033 663.152 219.629 664.828 219.629C667.418 219.629 669.51 220.525 671.104 222.318C672.709 224.111 673.512 226.496 673.512 229.473V229.701C673.512 231.553 673.154 233.217 672.439 234.693C671.736 236.158 670.723 237.301 669.398 238.121C668.086 238.941 666.574 239.352 664.863 239.352C662.285 239.352 660.193 238.455 658.588 236.662C656.994 234.869 656.197 232.496 656.197 229.543V229.314ZM659.467 229.701C659.467 231.811 659.953 233.504 660.926 234.781C661.91 236.059 663.223 236.697 664.863 236.697C666.516 236.697 667.828 236.053 668.801 234.764C669.773 233.463 670.26 231.646 670.26 229.314C670.26 227.229 669.762 225.541 668.766 224.252C667.781 222.951 666.469 222.301 664.828 222.301C663.223 222.301 661.928 222.939 660.943 224.217C659.959 225.494 659.467 227.322 659.467 229.701ZM685.658 229.314C685.658 227.451 686.021 225.775 686.748 224.287C687.486 222.799 688.506 221.65 689.807 220.842C691.119 220.033 692.613 219.629 694.289 219.629C696.879 219.629 698.971 220.525 700.564 222.318C702.17 224.111 702.973 226.496 702.973 229.473V229.701C702.973 231.553 702.615 233.217 701.9 234.693C701.197 236.158 700.184 237.301 698.859 238.121C697.547 238.941 696.035 239.352 694.324 239.352C691.746 239.352 689.654 238.455 688.049 236.662C686.455 234.869 685.658 232.496 685.658 229.543V229.314ZM688.928 229.701C688.928 231.811 689.414 233.504 690.387 234.781C691.371 236.059 692.684 236.697 694.324 236.697C695.977 236.697 697.289 236.053 698.262 234.764C699.234 233.463 699.721 231.646 699.721 229.314C699.721 227.229 699.223 225.541 698.227 224.252C697.242 222.951 695.93 222.301 694.289 222.301C692.684 222.301 691.389 222.939 690.404 224.217C689.42 225.494 688.928 227.322 688.928 229.701ZM723.117 229.701C723.117 232.596 722.455 234.928 721.131 236.697C719.807 238.467 718.014 239.352 715.752 239.352C713.443 239.352 711.627 238.619 710.303 237.154V246.312H707.051V219.98H710.021L710.18 222.09C711.504 220.449 713.344 219.629 715.699 219.629C717.984 219.629 719.789 220.49 721.113 222.213C722.449 223.936 723.117 226.332 723.117 229.402V229.701ZM719.865 229.332C719.865 227.188 719.408 225.494 718.494 224.252C717.58 223.01 716.326 222.389 714.732 222.389C712.764 222.389 711.287 223.262 710.303 225.008V234.096C711.275 235.83 712.764 236.697 714.768 236.697C716.326 236.697 717.562 236.082 718.477 234.852C719.402 233.609 719.865 231.77 719.865 229.332ZM735.158 239.352C732.58 239.352 730.482 238.508 728.865 236.82C727.248 235.121 726.439 232.854 726.439 230.018V229.42C726.439 227.533 726.797 225.852 727.512 224.375C728.238 222.887 729.246 221.727 730.535 220.895C731.836 220.051 733.242 219.629 734.754 219.629C737.227 219.629 739.148 220.443 740.52 222.072C741.891 223.701 742.576 226.033 742.576 229.068V230.422H729.691C729.738 232.297 730.283 233.814 731.326 234.975C732.381 236.123 733.717 236.697 735.334 236.697C736.482 236.697 737.455 236.463 738.252 235.994C739.049 235.525 739.746 234.904 740.344 234.131L742.33 235.678C740.736 238.127 738.346 239.352 735.158 239.352ZM734.754 222.301C733.441 222.301 732.34 222.781 731.449 223.742C730.559 224.691 730.008 226.027 729.797 227.75H739.324V227.504C739.23 225.852 738.785 224.574 737.988 223.672C737.191 222.758 736.113 222.301 734.754 222.301ZM749.432 219.98L749.537 222.371C750.99 220.543 752.889 219.629 755.232 219.629C759.252 219.629 761.279 221.896 761.314 226.432V239H758.062V226.414C758.051 225.043 757.734 224.029 757.113 223.373C756.504 222.717 755.549 222.389 754.248 222.389C753.193 222.389 752.268 222.67 751.471 223.232C750.674 223.795 750.053 224.533 749.607 225.447V239H746.355V219.98H749.432ZM774.287 229.314C774.287 227.451 774.65 225.775 775.377 224.287C776.115 222.799 777.135 221.65 778.436 220.842C779.748 220.033 781.242 219.629 782.918 219.629C785.508 219.629 787.6 220.525 789.193 222.318C790.799 224.111 791.602 226.496 791.602 229.473V229.701C791.602 231.553 791.244 233.217 790.529 234.693C789.826 236.158 788.812 237.301 787.488 238.121C786.176 238.941 784.664 239.352 782.953 239.352C780.375 239.352 778.283 238.455 776.678 236.662C775.084 234.869 774.287 232.496 774.287 229.543V229.314ZM777.557 229.701C777.557 231.811 778.043 233.504 779.016 234.781C780 236.059 781.312 236.697 782.953 236.697C784.605 236.697 785.918 236.053 786.891 234.764C787.863 233.463 788.35 231.646 788.35 229.314C788.35 227.229 787.852 225.541 786.855 224.252C785.871 222.951 784.559 222.301 782.918 222.301C781.312 222.301 780.018 222.939 779.033 224.217C778.049 225.494 777.557 227.322 777.557 229.701ZM800.092 215.375V219.98H803.643V222.494H800.092V234.289C800.092 235.051 800.25 235.625 800.566 236.012C800.883 236.387 801.422 236.574 802.184 236.574C802.559 236.574 803.074 236.504 803.73 236.363V239C802.875 239.234 802.043 239.352 801.234 239.352C799.781 239.352 798.686 238.912 797.947 238.033C797.209 237.154 796.84 235.906 796.84 234.289V222.494H793.377V219.98H796.84V215.375H800.092ZM810.709 222.283C812.15 220.514 814.025 219.629 816.334 219.629C820.354 219.629 822.381 221.896 822.416 226.432V239H819.164V226.414C819.152 225.043 818.836 224.029 818.215 223.373C817.605 222.717 816.65 222.389 815.35 222.389C814.295 222.389 813.369 222.67 812.572 223.232C811.775 223.795 811.154 224.533 810.709 225.447V239H807.457V212H810.709V222.283ZM835.178 239.352C832.6 239.352 830.502 238.508 828.885 236.82C827.268 235.121 826.459 232.854 826.459 230.018V229.42C826.459 227.533 826.816 225.852 827.531 224.375C828.258 222.887 829.266 221.727 830.555 220.895C831.855 220.051 833.262 219.629 834.773 219.629C837.246 219.629 839.168 220.443 840.539 222.072C841.91 223.701 842.596 226.033 842.596 229.068V230.422H829.711C829.758 232.297 830.303 233.814 831.346 234.975C832.4 236.123 833.736 236.697 835.354 236.697C836.502 236.697 837.475 236.463 838.271 235.994C839.068 235.525 839.766 234.904 840.363 234.131L842.35 235.678C840.756 238.127 838.365 239.352 835.178 239.352ZM834.773 222.301C833.461 222.301 832.359 222.781 831.469 223.742C830.578 224.691 830.027 226.027 829.816 227.75H839.344V227.504C839.25 225.852 838.805 224.574 838.008 223.672C837.211 222.758 836.133 222.301 834.773 222.301ZM855.568 222.898C855.076 222.816 854.543 222.775 853.969 222.775C851.836 222.775 850.389 223.684 849.627 225.5V239H846.375V219.98H849.539L849.592 222.178C850.658 220.479 852.17 219.629 854.127 219.629C854.76 219.629 855.24 219.711 855.568 219.875V222.898ZM871.037 239H867.785V212H871.037V239ZM884.15 239.352C881.572 239.352 879.475 238.508 877.857 236.82C876.24 235.121 875.432 232.854 875.432 230.018V229.42C875.432 227.533 875.789 225.852 876.504 224.375C877.23 222.887 878.238 221.727 879.527 220.895C880.828 220.051 882.234 219.629 883.746 219.629C886.219 219.629 888.141 220.443 889.512 222.072C890.883 223.701 891.568 226.033 891.568 229.068V230.422H878.684C878.73 232.297 879.275 233.814 880.318 234.975C881.373 236.123 882.709 236.697 884.326 236.697C885.475 236.697 886.447 236.463 887.244 235.994C888.041 235.525 888.738 234.904 889.336 234.131L891.322 235.678C889.729 238.127 887.338 239.352 884.15 239.352ZM883.746 222.301C882.434 222.301 881.332 222.781 880.441 223.742C879.551 224.691 879 226.027 878.789 227.75H888.316V227.504C888.223 225.852 887.777 224.574 886.98 223.672C886.184 222.758 885.105 222.301 883.746 222.301ZM901.377 234.588L906.088 219.98H909.41L902.59 239H900.111L893.221 219.98H896.543L901.377 234.588ZM920.186 239.352C917.607 239.352 915.51 238.508 913.893 236.82C912.275 235.121 911.467 232.854 911.467 230.018V229.42C911.467 227.533 911.824 225.852 912.539 224.375C913.266 222.887 914.273 221.727 915.562 220.895C916.863 220.051 918.27 219.629 919.781 219.629C922.254 219.629 924.176 220.443 925.547 222.072C926.918 223.701 927.604 226.033 927.604 229.068V230.422H914.719C914.766 232.297 915.311 233.814 916.354 234.975C917.408 236.123 918.744 236.697 920.361 236.697C921.51 236.697 922.482 236.463 923.279 235.994C924.076 235.525 924.773 234.904 925.371 234.131L927.357 235.678C925.764 238.127 923.373 239.352 920.186 239.352ZM919.781 222.301C918.469 222.301 917.367 222.781 916.477 223.742C915.586 224.691 915.035 226.027 914.824 227.75H924.352V227.504C924.258 225.852 923.812 224.574 923.016 223.672C922.219 222.758 921.141 222.301 919.781 222.301ZM934.916 239H931.664V212H934.916V239ZM951.211 233.955C951.211 233.076 950.877 232.396 950.209 231.916C949.553 231.424 948.398 231.002 946.746 230.65C945.105 230.299 943.799 229.877 942.826 229.385C941.865 228.893 941.15 228.307 940.682 227.627C940.225 226.947 939.996 226.139 939.996 225.201C939.996 223.643 940.652 222.324 941.965 221.246C943.289 220.168 944.977 219.629 947.027 219.629C949.184 219.629 950.93 220.186 952.266 221.299C953.613 222.412 954.287 223.836 954.287 225.57H951.018C951.018 224.68 950.637 223.912 949.875 223.268C949.125 222.623 948.176 222.301 947.027 222.301C945.844 222.301 944.918 222.559 944.25 223.074C943.582 223.59 943.248 224.264 943.248 225.096C943.248 225.881 943.559 226.473 944.18 226.871C944.801 227.27 945.92 227.65 947.537 228.014C949.166 228.377 950.484 228.811 951.492 229.314C952.5 229.818 953.244 230.428 953.725 231.143C954.217 231.846 954.463 232.707 954.463 233.727C954.463 235.426 953.783 236.791 952.424 237.822C951.064 238.842 949.301 239.352 947.133 239.352C945.609 239.352 944.262 239.082 943.09 238.543C941.918 238.004 940.998 237.254 940.33 236.293C939.674 235.32 939.346 234.271 939.346 233.146H942.598C942.656 234.236 943.09 235.104 943.898 235.748C944.719 236.381 945.797 236.697 947.133 236.697C948.363 236.697 949.348 236.451 950.086 235.959C950.836 235.455 951.211 234.787 951.211 233.955ZM966.768 229.314C966.768 227.451 967.131 225.775 967.857 224.287C968.596 222.799 969.615 221.65 970.916 220.842C972.229 220.033 973.723 219.629 975.398 219.629C977.988 219.629 980.08 220.525 981.674 222.318C983.279 224.111 984.082 226.496 984.082 229.473V229.701C984.082 231.553 983.725 233.217 983.01 234.693C982.307 236.158 981.293 237.301 979.969 238.121C978.656 238.941 977.145 239.352 975.434 239.352C972.855 239.352 970.764 238.455 969.158 236.662C967.564 234.869 966.768 232.496 966.768 229.543V229.314ZM970.037 229.701C970.037 231.811 970.523 233.504 971.496 234.781C972.48 236.059 973.793 236.697 975.434 236.697C977.086 236.697 978.398 236.053 979.371 234.764C980.344 233.463 980.83 231.646 980.83 229.314C980.83 227.229 980.332 225.541 979.336 224.252C978.352 222.951 977.039 222.301 975.398 222.301C973.793 222.301 972.498 222.939 971.514 224.217C970.529 225.494 970.037 227.322 970.037 229.701ZM989.76 239V222.494H986.754V219.98H989.76V218.029C989.76 215.99 990.305 214.414 991.395 213.301C992.484 212.188 994.025 211.631 996.018 211.631C996.768 211.631 997.512 211.73 998.25 211.93L998.074 214.566C997.523 214.461 996.938 214.408 996.316 214.408C995.262 214.408 994.447 214.719 993.873 215.34C993.299 215.949 993.012 216.828 993.012 217.977V219.98H997.072V222.494H993.012V239H989.76ZM1008.81 229.332C1008.81 226.344 1009.5 223.982 1010.87 222.248C1012.24 220.502 1014.08 219.629 1016.39 219.629C1018.64 219.629 1020.42 220.385 1021.72 221.896L1021.86 219.98H1024.85V246.312H1021.59V237.242C1020.28 238.648 1018.54 239.352 1016.36 239.352C1014.06 239.352 1012.22 238.461 1010.85 236.68C1009.49 234.887 1008.81 232.514 1008.81 229.561V229.332ZM1012.07 229.701C1012.07 231.881 1012.52 233.592 1013.44 234.834C1014.36 236.076 1015.61 236.697 1017.16 236.697C1019.1 236.697 1020.57 235.842 1021.59 234.131V224.814C1020.56 223.139 1019.1 222.301 1017.2 222.301C1015.63 222.301 1014.38 222.928 1013.46 224.182C1012.53 225.424 1012.07 227.264 1012.07 229.701ZM1041.81 237.119C1040.54 238.607 1038.69 239.352 1036.24 239.352C1034.21 239.352 1032.66 238.766 1031.6 237.594C1030.54 236.41 1030.01 234.664 1030 232.355V219.98H1033.25V232.268C1033.25 235.15 1034.42 236.592 1036.76 236.592C1039.25 236.592 1040.9 235.666 1041.72 233.814V219.98H1044.97V239H1041.88L1041.81 237.119ZM1057.82 239.352C1055.24 239.352 1053.15 238.508 1051.53 236.82C1049.91 235.121 1049.1 232.854 1049.1 230.018V229.42C1049.1 227.533 1049.46 225.852 1050.18 224.375C1050.9 222.887 1051.91 221.727 1053.2 220.895C1054.5 220.051 1055.91 219.629 1057.42 219.629C1059.89 219.629 1061.81 220.443 1063.18 222.072C1064.55 223.701 1065.24 226.033 1065.24 229.068V230.422H1052.36C1052.4 232.297 1052.95 233.814 1053.99 234.975C1055.04 236.123 1056.38 236.697 1058 236.697C1059.15 236.697 1060.12 236.463 1060.92 235.994C1061.71 235.525 1062.41 234.904 1063.01 234.131L1064.99 235.678C1063.4 238.127 1061.01 239.352 1057.82 239.352ZM1057.42 222.301C1056.11 222.301 1055 222.781 1054.11 223.742C1053.22 224.691 1052.67 226.027 1052.46 227.75H1061.99V227.504C1061.89 225.852 1061.45 224.574 1060.65 223.672C1059.86 222.758 1058.78 222.301 1057.42 222.301ZM1080.09 233.955C1080.09 233.076 1079.76 232.396 1079.09 231.916C1078.44 231.424 1077.28 231.002 1075.63 230.65C1073.99 230.299 1072.68 229.877 1071.71 229.385C1070.75 228.893 1070.03 228.307 1069.56 227.627C1069.11 226.947 1068.88 226.139 1068.88 225.201C1068.88 223.643 1069.54 222.324 1070.85 221.246C1072.17 220.168 1073.86 219.629 1075.91 219.629C1078.07 219.629 1079.81 220.186 1081.15 221.299C1082.5 222.412 1083.17 223.836 1083.17 225.57H1079.9C1079.9 224.68 1079.52 223.912 1078.76 223.268C1078.01 222.623 1077.06 222.301 1075.91 222.301C1074.73 222.301 1073.8 222.559 1073.13 223.074C1072.46 223.59 1072.13 224.264 1072.13 225.096C1072.13 225.881 1072.44 226.473 1073.06 226.871C1073.68 227.27 1074.8 227.65 1076.42 228.014C1078.05 228.377 1079.37 228.811 1080.38 229.314C1081.38 229.818 1082.13 230.428 1082.61 231.143C1083.1 231.846 1083.35 232.707 1083.35 233.727C1083.35 235.426 1082.67 236.791 1081.31 237.822C1079.95 238.842 1078.18 239.352 1076.02 239.352C1074.49 239.352 1073.14 239.082 1071.97 238.543C1070.8 238.004 1069.88 237.254 1069.21 236.293C1068.56 235.32 1068.23 234.271 1068.23 233.146H1071.48C1071.54 234.236 1071.97 235.104 1072.78 235.748C1073.6 236.381 1074.68 236.697 1076.02 236.697C1077.25 236.697 1078.23 236.451 1078.97 235.959C1079.72 235.455 1080.09 234.787 1080.09 233.955ZM1091.99 215.375V219.98H1095.54V222.494H1091.99V234.289C1091.99 235.051 1092.15 235.625 1092.47 236.012C1092.79 236.387 1093.32 236.574 1094.09 236.574C1094.46 236.574 1094.98 236.504 1095.63 236.363V239C1094.78 239.234 1093.95 239.352 1093.14 239.352C1091.68 239.352 1090.59 238.912 1089.85 238.033C1089.11 237.154 1088.74 235.906 1088.74 234.289V222.494H1085.28V219.98H1088.74V215.375H1091.99ZM1102.89 239H1099.64V219.98H1102.89V239ZM1099.38 214.936C1099.38 214.408 1099.54 213.963 1099.85 213.6C1100.18 213.236 1100.66 213.055 1101.29 213.055C1101.93 213.055 1102.41 213.236 1102.73 213.6C1103.06 213.963 1103.23 214.408 1103.23 214.936C1103.23 215.463 1103.06 215.902 1102.73 216.254C1102.41 216.605 1101.93 216.781 1101.29 216.781C1100.66 216.781 1100.18 216.605 1099.85 216.254C1099.54 215.902 1099.38 215.463 1099.38 214.936ZM1107.25 229.314C1107.25 227.451 1107.62 225.775 1108.34 224.287C1109.08 222.799 1110.1 221.65 1111.4 220.842C1112.71 220.033 1114.21 219.629 1115.88 219.629C1118.47 219.629 1120.56 220.525 1122.16 222.318C1123.76 224.111 1124.57 226.496 1124.57 229.473V229.701C1124.57 231.553 1124.21 233.217 1123.49 234.693C1122.79 236.158 1121.78 237.301 1120.45 238.121C1119.14 238.941 1117.63 239.352 1115.92 239.352C1113.34 239.352 1111.25 238.455 1109.64 236.662C1108.05 234.869 1107.25 232.496 1107.25 229.543V229.314ZM1110.52 229.701C1110.52 231.811 1111.01 233.504 1111.98 234.781C1112.96 236.059 1114.28 236.697 1115.92 236.697C1117.57 236.697 1118.88 236.053 1119.86 234.764C1120.83 233.463 1121.31 231.646 1121.31 229.314C1121.31 227.229 1120.82 225.541 1119.82 224.252C1118.84 222.951 1117.52 222.301 1115.88 222.301C1114.28 222.301 1112.98 222.939 1112 224.217C1111.01 225.494 1110.52 227.322 1110.52 229.701ZM1131.72 219.98L1131.83 222.371C1133.28 220.543 1135.18 219.629 1137.52 219.629C1141.54 219.629 1143.57 221.896 1143.6 226.432V239H1140.35V226.414C1140.34 225.043 1140.02 224.029 1139.4 223.373C1138.79 222.717 1137.84 222.389 1136.54 222.389C1135.48 222.389 1134.56 222.67 1133.76 223.232C1132.96 223.795 1132.34 224.533 1131.9 225.447V239H1128.64V219.98H1131.72ZM1165.07 236.697C1166.23 236.697 1167.24 236.346 1168.11 235.643C1168.97 234.939 1169.46 234.061 1169.55 233.006H1172.62C1172.57 234.096 1172.19 235.133 1171.5 236.117C1170.81 237.102 1169.88 237.887 1168.72 238.473C1167.57 239.059 1166.36 239.352 1165.07 239.352C1162.48 239.352 1160.41 238.49 1158.88 236.768C1157.36 235.033 1156.59 232.666 1156.59 229.666V229.121C1156.59 227.27 1156.93 225.623 1157.61 224.182C1158.29 222.74 1159.27 221.621 1160.53 220.824C1161.81 220.027 1163.31 219.629 1165.05 219.629C1167.18 219.629 1168.95 220.268 1170.36 221.545C1171.78 222.822 1172.53 224.48 1172.62 226.52H1169.55C1169.46 225.289 1168.99 224.281 1168.14 223.496C1167.31 222.699 1166.28 222.301 1165.05 222.301C1163.4 222.301 1162.11 222.898 1161.2 224.094C1160.3 225.277 1159.85 226.994 1159.85 229.244V229.859C1159.85 232.051 1160.3 233.738 1161.2 234.922C1162.1 236.105 1163.39 236.697 1165.07 236.697ZM1188.02 239C1187.84 238.625 1187.68 237.957 1187.57 236.996C1186.05 238.566 1184.25 239.352 1182.15 239.352C1180.28 239.352 1178.74 238.824 1177.53 237.77C1176.33 236.703 1175.74 235.355 1175.74 233.727C1175.74 231.746 1176.49 230.211 1177.99 229.121C1179.5 228.02 1181.62 227.469 1184.35 227.469H1187.51V225.975C1187.51 224.838 1187.17 223.936 1186.49 223.268C1185.81 222.588 1184.81 222.248 1183.49 222.248C1182.33 222.248 1181.36 222.541 1180.57 223.127C1179.79 223.713 1179.39 224.422 1179.39 225.254H1176.12C1176.12 224.305 1176.46 223.391 1177.12 222.512C1177.8 221.621 1178.72 220.918 1179.87 220.402C1181.03 219.887 1182.3 219.629 1183.68 219.629C1185.87 219.629 1187.59 220.18 1188.83 221.281C1190.07 222.371 1190.72 223.877 1190.77 225.799V234.553C1190.77 236.299 1190.99 237.688 1191.43 238.719V239H1188.02ZM1182.63 236.521C1183.65 236.521 1184.61 236.258 1185.53 235.73C1186.44 235.203 1187.1 234.518 1187.51 233.674V229.771H1184.96C1180.98 229.771 1178.99 230.938 1178.99 233.27C1178.99 234.289 1179.33 235.086 1180.01 235.66C1180.69 236.234 1181.56 236.521 1182.63 236.521ZM1205.06 222.898C1204.56 222.816 1204.03 222.775 1203.46 222.775C1201.32 222.775 1199.88 223.684 1199.12 225.5V239H1195.86V219.98H1199.03L1199.08 222.178C1200.15 220.479 1201.66 219.629 1203.62 219.629C1204.25 219.629 1204.73 219.711 1205.06 219.875V222.898ZM1206.92 229.332C1206.92 226.414 1207.61 224.07 1208.99 222.301C1210.38 220.52 1212.19 219.629 1214.43 219.629C1216.65 219.629 1218.42 220.391 1219.72 221.914V212H1222.97V239H1219.98L1219.82 236.961C1218.52 238.555 1216.71 239.352 1214.39 239.352C1212.19 239.352 1210.39 238.449 1208.99 236.645C1207.61 234.84 1206.92 232.484 1206.92 229.578V229.332ZM1210.17 229.701C1210.17 231.857 1210.62 233.545 1211.51 234.764C1212.4 235.982 1213.63 236.592 1215.2 236.592C1217.26 236.592 1218.77 235.666 1219.72 233.814V225.078C1218.74 223.285 1217.25 222.389 1215.23 222.389C1213.64 222.389 1212.4 223.004 1211.51 224.234C1210.62 225.465 1210.17 227.287 1210.17 229.701ZM1239.11 233.955C1239.11 233.076 1238.77 232.396 1238.1 231.916C1237.45 231.424 1236.29 231.002 1234.64 230.65C1233 230.299 1231.69 229.877 1230.72 229.385C1229.76 228.893 1229.04 228.307 1228.58 227.627C1228.12 226.947 1227.89 226.139 1227.89 225.201C1227.89 223.643 1228.55 222.324 1229.86 221.246C1231.18 220.168 1232.87 219.629 1234.92 219.629C1237.08 219.629 1238.82 220.186 1240.16 221.299C1241.51 222.412 1242.18 223.836 1242.18 225.57H1238.91C1238.91 224.68 1238.53 223.912 1237.77 223.268C1237.02 222.623 1236.07 222.301 1234.92 222.301C1233.74 222.301 1232.81 222.559 1232.14 223.074C1231.48 223.59 1231.14 224.264 1231.14 225.096C1231.14 225.881 1231.45 226.473 1232.07 226.871C1232.7 227.27 1233.81 227.65 1235.43 228.014C1237.06 228.377 1238.38 228.811 1239.39 229.314C1240.39 229.818 1241.14 230.428 1241.62 231.143C1242.11 231.846 1242.36 232.707 1242.36 233.727C1242.36 235.426 1241.68 236.791 1240.32 237.822C1238.96 238.842 1237.2 239.352 1235.03 239.352C1233.5 239.352 1232.16 239.082 1230.98 238.543C1229.81 238.004 1228.89 237.254 1228.22 236.293C1227.57 235.32 1227.24 234.271 1227.24 233.146H1230.49C1230.55 234.236 1230.98 235.104 1231.79 235.748C1232.61 236.381 1233.69 236.697 1235.03 236.697C1236.26 236.697 1237.24 236.451 1237.98 235.959C1238.73 235.455 1239.11 234.787 1239.11 233.955ZM1246.66 237.295C1246.66 236.732 1246.83 236.264 1247.16 235.889C1247.5 235.514 1248 235.326 1248.67 235.326C1249.34 235.326 1249.84 235.514 1250.18 235.889C1250.53 236.264 1250.71 236.732 1250.71 237.295C1250.71 237.834 1250.53 238.285 1250.18 238.648C1249.84 239.012 1249.34 239.193 1248.67 239.193C1248 239.193 1247.5 239.012 1247.16 238.648C1246.83 238.285 1246.66 237.834 1246.66 237.295Z" fill="black"/>
<path d="M156.363 343.24H168.492V346H152.971V320.406H156.363V343.24ZM175.365 346H172.113V326.98H175.365V346ZM171.85 321.936C171.85 321.408 172.008 320.963 172.324 320.6C172.652 320.236 173.133 320.055 173.766 320.055C174.398 320.055 174.879 320.236 175.207 320.6C175.535 320.963 175.699 321.408 175.699 321.936C175.699 322.463 175.535 322.902 175.207 323.254C174.879 323.605 174.398 323.781 173.766 323.781C173.133 323.781 172.652 323.605 172.324 323.254C172.008 322.902 171.85 322.463 171.85 321.936ZM183.662 326.98L183.768 329.371C185.221 327.543 187.119 326.629 189.463 326.629C193.482 326.629 195.51 328.896 195.545 333.432V346H192.293V333.414C192.281 332.043 191.965 331.029 191.344 330.373C190.734 329.717 189.779 329.389 188.479 329.389C187.424 329.389 186.498 329.67 185.701 330.232C184.904 330.795 184.283 331.533 183.838 332.447V346H180.586V326.98H183.662ZM205.758 337.193L203.719 339.32V346H200.467V319H203.719V335.33L205.459 333.238L211.383 326.98H215.338L207.938 334.926L216.199 346H212.385L205.758 337.193ZM232.037 322.375V326.98H235.588V329.494H232.037V341.289C232.037 342.051 232.195 342.625 232.512 343.012C232.828 343.387 233.367 343.574 234.129 343.574C234.504 343.574 235.02 343.504 235.676 343.363V346C234.82 346.234 233.988 346.352 233.18 346.352C231.727 346.352 230.631 345.912 229.893 345.033C229.154 344.154 228.785 342.906 228.785 341.289V329.494H225.322V326.98H228.785V322.375H232.037ZM238.189 336.314C238.189 334.451 238.553 332.775 239.279 331.287C240.018 329.799 241.037 328.65 242.338 327.842C243.65 327.033 245.145 326.629 246.82 326.629C249.41 326.629 251.502 327.525 253.096 329.318C254.701 331.111 255.504 333.496 255.504 336.473V336.701C255.504 338.553 255.146 340.217 254.432 341.693C253.729 343.158 252.715 344.301 251.391 345.121C250.078 345.941 248.566 346.352 246.855 346.352C244.277 346.352 242.186 345.455 240.58 343.662C238.986 341.869 238.189 339.496 238.189 336.543V336.314ZM241.459 336.701C241.459 338.811 241.945 340.504 242.918 341.781C243.902 343.059 245.215 343.697 246.855 343.697C248.508 343.697 249.82 343.053 250.793 341.764C251.766 340.463 252.252 338.646 252.252 336.314C252.252 334.229 251.754 332.541 250.758 331.252C249.773 329.951 248.461 329.301 246.82 329.301C245.215 329.301 243.92 329.939 242.936 331.217C241.951 332.494 241.459 334.322 241.459 336.701Z" fill="black"/>
<path d="M272.643 346H269.268V320.406H272.643V346ZM281.396 326.98L281.502 329.371C282.955 327.543 284.854 326.629 287.197 326.629C291.217 326.629 293.244 328.896 293.279 333.432V346H290.027V333.414C290.016 332.043 289.699 331.029 289.078 330.373C288.469 329.717 287.514 329.389 286.213 329.389C285.158 329.389 284.232 329.67 283.436 330.232C282.639 330.795 282.018 331.533 281.572 332.447V346H278.32V326.98H281.396ZM299.783 346V329.494H296.777V326.98H299.783V325.029C299.783 322.99 300.328 321.414 301.418 320.301C302.508 319.188 304.049 318.631 306.041 318.631C306.791 318.631 307.535 318.73 308.273 318.93L308.098 321.566C307.547 321.461 306.961 321.408 306.34 321.408C305.285 321.408 304.471 321.719 303.896 322.34C303.322 322.949 303.035 323.828 303.035 324.977V326.98H307.096V329.494H303.035V346H299.783ZM309.838 336.314C309.838 334.451 310.201 332.775 310.928 331.287C311.666 329.799 312.686 328.65 313.986 327.842C315.299 327.033 316.793 326.629 318.469 326.629C321.059 326.629 323.15 327.525 324.744 329.318C326.35 331.111 327.152 333.496 327.152 336.473V336.701C327.152 338.553 326.795 340.217 326.08 341.693C325.377 343.158 324.363 344.301 323.039 345.121C321.727 345.941 320.215 346.352 318.504 346.352C315.926 346.352 313.834 345.455 312.229 343.662C310.635 341.869 309.838 339.496 309.838 336.543V336.314ZM313.107 336.701C313.107 338.811 313.594 340.504 314.566 341.781C315.551 343.059 316.863 343.697 318.504 343.697C320.156 343.697 321.469 343.053 322.441 341.764C323.414 340.463 323.9 338.646 323.9 336.314C323.9 334.229 323.402 332.541 322.406 331.252C321.422 329.951 320.109 329.301 318.469 329.301C316.863 329.301 315.568 329.939 314.584 331.217C313.6 332.494 313.107 334.322 313.107 336.701ZM340.424 329.898C339.932 329.816 339.398 329.775 338.824 329.775C336.691 329.775 335.244 330.684 334.482 332.5V346H331.23V326.98H334.395L334.447 329.178C335.514 327.479 337.025 326.629 338.982 326.629C339.615 326.629 340.096 326.711 340.424 326.875V329.898ZM346.488 326.98L346.576 329.09C347.971 327.449 349.852 326.629 352.219 326.629C354.879 326.629 356.689 327.648 357.65 329.688C358.283 328.773 359.104 328.035 360.111 327.473C361.131 326.91 362.332 326.629 363.715 326.629C367.887 326.629 370.008 328.838 370.078 333.256V346H366.826V333.449C366.826 332.09 366.516 331.076 365.895 330.408C365.273 329.729 364.23 329.389 362.766 329.389C361.559 329.389 360.557 329.752 359.76 330.479C358.963 331.193 358.5 332.16 358.371 333.379V346H355.102V333.537C355.102 330.771 353.748 329.389 351.041 329.389C348.908 329.389 347.449 330.297 346.664 332.113V346H343.412V326.98H346.488ZM386.742 346C386.555 345.625 386.402 344.957 386.285 343.996C384.773 345.566 382.969 346.352 380.871 346.352C378.996 346.352 377.455 345.824 376.248 344.77C375.053 343.703 374.455 342.355 374.455 340.727C374.455 338.746 375.205 337.211 376.705 336.121C378.217 335.02 380.338 334.469 383.068 334.469H386.232V332.975C386.232 331.838 385.893 330.936 385.213 330.268C384.533 329.588 383.531 329.248 382.207 329.248C381.047 329.248 380.074 329.541 379.289 330.127C378.504 330.713 378.111 331.422 378.111 332.254H374.842C374.842 331.305 375.176 330.391 375.844 329.512C376.523 328.621 377.438 327.918 378.586 327.402C379.746 326.887 381.018 326.629 382.4 326.629C384.592 326.629 386.309 327.18 387.551 328.281C388.793 329.371 389.438 330.877 389.484 332.799V341.553C389.484 343.299 389.707 344.688 390.152 345.719V346H386.742ZM381.346 343.521C382.365 343.521 383.332 343.258 384.246 342.73C385.16 342.203 385.822 341.518 386.232 340.674V336.771H383.684C379.699 336.771 377.707 337.938 377.707 340.27C377.707 341.289 378.047 342.086 378.727 342.66C379.406 343.234 380.279 343.521 381.346 343.521ZM398.994 322.375V326.98H402.545V329.494H398.994V341.289C398.994 342.051 399.152 342.625 399.469 343.012C399.785 343.387 400.324 343.574 401.086 343.574C401.461 343.574 401.977 343.504 402.633 343.363V346C401.777 346.234 400.945 346.352 400.137 346.352C398.684 346.352 397.588 345.912 396.85 345.033C396.111 344.154 395.742 342.906 395.742 341.289V329.494H392.279V326.98H395.742V322.375H398.994ZM409.893 346H406.641V326.98H409.893V346ZM406.377 321.936C406.377 321.408 406.535 320.963 406.852 320.6C407.18 320.236 407.66 320.055 408.293 320.055C408.926 320.055 409.406 320.236 409.734 320.6C410.062 320.963 410.227 321.408 410.227 321.936C410.227 322.463 410.062 322.902 409.734 323.254C409.406 323.605 408.926 323.781 408.293 323.781C407.66 323.781 407.18 323.605 406.852 323.254C406.535 322.902 406.377 322.463 406.377 321.936ZM414.252 336.314C414.252 334.451 414.615 332.775 415.342 331.287C416.08 329.799 417.1 328.65 418.4 327.842C419.713 327.033 421.207 326.629 422.883 326.629C425.473 326.629 427.564 327.525 429.158 329.318C430.764 331.111 431.566 333.496 431.566 336.473V336.701C431.566 338.553 431.209 340.217 430.494 341.693C429.791 343.158 428.777 344.301 427.453 345.121C426.141 345.941 424.629 346.352 422.918 346.352C420.34 346.352 418.248 345.455 416.643 343.662C415.049 341.869 414.252 339.496 414.252 336.543V336.314ZM417.521 336.701C417.521 338.811 418.008 340.504 418.98 341.781C419.965 343.059 421.277 343.697 422.918 343.697C424.57 343.697 425.883 343.053 426.855 341.764C427.828 340.463 428.314 338.646 428.314 336.314C428.314 334.229 427.816 332.541 426.82 331.252C425.836 329.951 424.523 329.301 422.883 329.301C421.277 329.301 419.982 329.939 418.998 331.217C418.014 332.494 417.521 334.322 417.521 336.701ZM438.721 326.98L438.826 329.371C440.279 327.543 442.178 326.629 444.521 326.629C448.541 326.629 450.568 328.896 450.604 333.432V346H447.352V333.414C447.34 332.043 447.023 331.029 446.402 330.373C445.793 329.717 444.838 329.389 443.537 329.389C442.482 329.389 441.557 329.67 440.76 330.232C439.963 330.795 439.342 331.533 438.896 332.447V346H435.645V326.98H438.721ZM479.08 339.32H468.357L465.949 346H462.469L472.242 320.406H475.195L484.986 346H481.523L479.08 339.32ZM469.377 336.543H478.078L473.719 324.572L469.377 336.543ZM497.115 329.898C496.623 329.816 496.09 329.775 495.516 329.775C493.383 329.775 491.936 330.684 491.174 332.5V346H487.922V326.98H491.086L491.139 329.178C492.205 327.479 493.717 326.629 495.674 326.629C496.307 326.629 496.787 326.711 497.115 326.875V329.898ZM507.398 343.697C508.559 343.697 509.572 343.346 510.439 342.643C511.307 341.939 511.787 341.061 511.881 340.006H514.957C514.898 341.096 514.523 342.133 513.832 343.117C513.141 344.102 512.215 344.887 511.055 345.473C509.906 346.059 508.688 346.352 507.398 346.352C504.809 346.352 502.746 345.49 501.211 343.768C499.688 342.033 498.926 339.666 498.926 336.666V336.121C498.926 334.27 499.266 332.623 499.945 331.182C500.625 329.74 501.598 328.621 502.863 327.824C504.141 327.027 505.646 326.629 507.381 326.629C509.514 326.629 511.283 327.268 512.689 328.545C514.107 329.822 514.863 331.48 514.957 333.52H511.881C511.787 332.289 511.318 331.281 510.475 330.496C509.643 329.699 508.611 329.301 507.381 329.301C505.729 329.301 504.445 329.898 503.531 331.094C502.629 332.277 502.178 333.994 502.178 336.244V336.859C502.178 339.051 502.629 340.738 503.531 341.922C504.434 343.105 505.723 343.697 507.398 343.697ZM521.865 329.283C523.307 327.514 525.182 326.629 527.49 326.629C531.51 326.629 533.537 328.896 533.572 333.432V346H530.32V333.414C530.309 332.043 529.992 331.029 529.371 330.373C528.762 329.717 527.807 329.389 526.506 329.389C525.451 329.389 524.525 329.67 523.729 330.232C522.932 330.795 522.311 331.533 521.865 332.447V346H518.613V319H521.865V329.283ZM541.975 346H538.723V326.98H541.975V346ZM538.459 321.936C538.459 321.408 538.617 320.963 538.934 320.6C539.262 320.236 539.742 320.055 540.375 320.055C541.008 320.055 541.488 320.236 541.816 320.6C542.145 320.963 542.309 321.408 542.309 321.936C542.309 322.463 542.145 322.902 541.816 323.254C541.488 323.605 541.008 323.781 540.375 323.781C539.742 323.781 539.262 323.605 538.934 323.254C538.617 322.902 538.459 322.463 538.459 321.936ZM551.607 322.375V326.98H555.158V329.494H551.607V341.289C551.607 342.051 551.766 342.625 552.082 343.012C552.398 343.387 552.938 343.574 553.699 343.574C554.074 343.574 554.59 343.504 555.246 343.363V346C554.391 346.234 553.559 346.352 552.75 346.352C551.297 346.352 550.201 345.912 549.463 345.033C548.725 344.154 548.355 342.906 548.355 341.289V329.494H544.893V326.98H548.355V322.375H551.607ZM566.865 346.352C564.287 346.352 562.189 345.508 560.572 343.82C558.955 342.121 558.146 339.854 558.146 337.018V336.42C558.146 334.533 558.504 332.852 559.219 331.375C559.945 329.887 560.953 328.727 562.242 327.895C563.543 327.051 564.949 326.629 566.461 326.629C568.934 326.629 570.855 327.443 572.227 329.072C573.598 330.701 574.283 333.033 574.283 336.068V337.422H561.398C561.445 339.297 561.99 340.814 563.033 341.975C564.088 343.123 565.424 343.697 567.041 343.697C568.189 343.697 569.162 343.463 569.959 342.994C570.756 342.525 571.453 341.904 572.051 341.131L574.037 342.678C572.443 345.127 570.053 346.352 566.865 346.352ZM566.461 329.301C565.148 329.301 564.047 329.781 563.156 330.742C562.266 331.691 561.715 333.027 561.504 334.75H571.031V334.504C570.938 332.852 570.492 331.574 569.695 330.672C568.898 329.758 567.82 329.301 566.461 329.301ZM585.691 343.697C586.852 343.697 587.865 343.346 588.732 342.643C589.6 341.939 590.08 341.061 590.174 340.006H593.25C593.191 341.096 592.816 342.133 592.125 343.117C591.434 344.102 590.508 344.887 589.348 345.473C588.199 346.059 586.98 346.352 585.691 346.352C583.102 346.352 581.039 345.49 579.504 343.768C577.98 342.033 577.219 339.666 577.219 336.666V336.121C577.219 334.27 577.559 332.623 578.238 331.182C578.918 329.74 579.891 328.621 581.156 327.824C582.434 327.027 583.939 326.629 585.674 326.629C587.807 326.629 589.576 327.268 590.982 328.545C592.4 329.822 593.156 331.48 593.25 333.52H590.174C590.08 332.289 589.611 331.281 588.768 330.496C587.936 329.699 586.904 329.301 585.674 329.301C584.021 329.301 582.738 329.898 581.824 331.094C580.922 332.277 580.471 333.994 580.471 336.244V336.859C580.471 339.051 580.922 340.738 581.824 341.922C582.727 343.105 584.016 343.697 585.691 343.697ZM601.318 322.375V326.98H604.869V329.494H601.318V341.289C601.318 342.051 601.477 342.625 601.793 343.012C602.109 343.387 602.648 343.574 603.41 343.574C603.785 343.574 604.301 343.504 604.957 343.363V346C604.102 346.234 603.27 346.352 602.461 346.352C601.008 346.352 599.912 345.912 599.174 345.033C598.436 344.154 598.066 342.906 598.066 341.289V329.494H594.604V326.98H598.066V322.375H601.318ZM620.426 344.119C619.16 345.607 617.303 346.352 614.854 346.352C612.826 346.352 611.279 345.766 610.213 344.594C609.158 343.41 608.625 341.664 608.613 339.355V326.98H611.865V339.268C611.865 342.15 613.037 343.592 615.381 343.592C617.865 343.592 619.518 342.666 620.338 340.814V326.98H623.59V346H620.496L620.426 344.119ZM637.74 329.898C637.248 329.816 636.715 329.775 636.141 329.775C634.008 329.775 632.561 330.684 631.799 332.5V346H628.547V326.98H631.711L631.764 329.178C632.83 327.479 634.342 326.629 636.299 326.629C636.932 326.629 637.412 326.711 637.74 326.875V329.898ZM648.287 346.352C645.709 346.352 643.611 345.508 641.994 343.82C640.377 342.121 639.568 339.854 639.568 337.018V336.42C639.568 334.533 639.926 332.852 640.641 331.375C641.367 329.887 642.375 328.727 643.664 327.895C644.965 327.051 646.371 326.629 647.883 326.629C650.355 326.629 652.277 327.443 653.648 329.072C655.02 330.701 655.705 333.033 655.705 336.068V337.422H642.82C642.867 339.297 643.412 340.814 644.455 341.975C645.51 343.123 646.846 343.697 648.463 343.697C649.611 343.697 650.584 343.463 651.381 342.994C652.178 342.525 652.875 341.904 653.473 341.131L655.459 342.678C653.865 345.127 651.475 346.352 648.287 346.352ZM647.883 329.301C646.57 329.301 645.469 329.781 644.578 330.742C643.688 331.691 643.137 333.027 642.926 334.75H652.453V334.504C652.359 332.852 651.914 331.574 651.117 330.672C650.32 329.758 649.242 329.301 647.883 329.301Z" fill="#5452F6"/>
<path d="M266.051 349.516H657.006V351.273H266.051V349.516Z" fill="#5452F6"/>
<g filter="url(#filter0_d)">
<rect x="310" y="562" width="197" height="60" rx="30" fill="#EEEEFF"/>
<rect x="310.5" y="562.5" width="196" height="59" rx="29.5" stroke="#5452F6"/>
</g>
<path d="M364.241 594.445C364.069 596.266 363.397 597.688 362.225 598.711C361.054 599.727 359.495 600.234 357.55 600.234C356.19 600.234 354.991 599.914 353.952 599.273C352.921 598.625 352.124 597.707 351.561 596.52C350.999 595.332 350.706 593.953 350.683 592.383V590.789C350.683 589.18 350.968 587.762 351.538 586.535C352.108 585.309 352.925 584.363 353.987 583.699C355.058 583.035 356.292 582.703 357.69 582.703C359.573 582.703 361.089 583.215 362.237 584.238C363.386 585.262 364.054 586.707 364.241 588.574H361.288C361.147 587.348 360.788 586.465 360.21 585.926C359.64 585.379 358.8 585.105 357.69 585.105C356.401 585.105 355.409 585.578 354.714 586.523C354.026 587.461 353.675 588.84 353.659 590.66V592.172C353.659 594.016 353.987 595.422 354.643 596.391C355.308 597.359 356.276 597.844 357.55 597.844C358.714 597.844 359.589 597.582 360.175 597.059C360.761 596.535 361.132 595.664 361.288 594.445H364.241ZM374.202 600C374.077 599.758 373.968 599.363 373.874 598.816C372.968 599.762 371.858 600.234 370.546 600.234C369.272 600.234 368.233 599.871 367.429 599.145C366.624 598.418 366.222 597.52 366.222 596.449C366.222 595.098 366.722 594.062 367.722 593.344C368.729 592.617 370.167 592.254 372.034 592.254H373.78V591.422C373.78 590.766 373.597 590.242 373.229 589.852C372.862 589.453 372.304 589.254 371.554 589.254C370.905 589.254 370.374 589.418 369.96 589.746C369.546 590.066 369.339 590.477 369.339 590.977H366.491C366.491 590.281 366.722 589.633 367.183 589.031C367.643 588.422 368.268 587.945 369.058 587.602C369.854 587.258 370.741 587.086 371.718 587.086C373.202 587.086 374.386 587.461 375.268 588.211C376.151 588.953 376.604 590 376.628 591.352V597.07C376.628 598.211 376.788 599.121 377.108 599.801V600H374.202ZM371.073 597.949C371.636 597.949 372.163 597.812 372.655 597.539C373.155 597.266 373.53 596.898 373.78 596.438V594.047H372.245C371.19 594.047 370.397 594.23 369.866 594.598C369.335 594.965 369.069 595.484 369.069 596.156C369.069 596.703 369.249 597.141 369.608 597.469C369.975 597.789 370.464 597.949 371.073 597.949ZM383.179 584.238V587.32H385.417V589.43H383.179V596.508C383.179 596.992 383.272 597.344 383.46 597.562C383.655 597.773 383.999 597.879 384.491 597.879C384.819 597.879 385.151 597.84 385.487 597.762V599.965C384.839 600.145 384.214 600.234 383.612 600.234C381.425 600.234 380.331 599.027 380.331 596.613V589.43H378.245V587.32H380.331V584.238H383.179ZM393.186 600.234C391.382 600.234 389.917 599.668 388.792 598.535C387.675 597.395 387.116 595.879 387.116 593.988V593.637C387.116 592.371 387.358 591.242 387.843 590.25C388.335 589.25 389.022 588.473 389.905 587.918C390.788 587.363 391.772 587.086 392.858 587.086C394.585 587.086 395.917 587.637 396.854 588.738C397.8 589.84 398.272 591.398 398.272 593.414V594.562H389.987C390.073 595.609 390.421 596.438 391.03 597.047C391.647 597.656 392.421 597.961 393.35 597.961C394.655 597.961 395.718 597.434 396.538 596.379L398.073 597.844C397.565 598.602 396.886 599.191 396.034 599.613C395.19 600.027 394.241 600.234 393.186 600.234ZM392.847 589.371C392.065 589.371 391.433 589.645 390.948 590.191C390.472 590.738 390.167 591.5 390.034 592.477H395.46V592.266C395.397 591.312 395.143 590.594 394.698 590.109C394.253 589.617 393.636 589.371 392.847 589.371ZM399.995 593.566C399.995 591.598 400.456 590.027 401.378 588.855C402.308 587.676 403.538 587.086 405.069 587.086C406.515 587.086 407.651 587.59 408.479 588.598L408.608 587.32H411.175V599.613C411.175 601.277 410.655 602.59 409.616 603.551C408.585 604.512 407.19 604.992 405.433 604.992C404.503 604.992 403.593 604.797 402.702 604.406C401.819 604.023 401.147 603.52 400.686 602.895L402.034 601.184C402.909 602.223 403.987 602.742 405.268 602.742C406.214 602.742 406.96 602.484 407.507 601.969C408.054 601.461 408.327 600.711 408.327 599.719V598.863C407.507 599.777 406.413 600.234 405.046 600.234C403.561 600.234 402.347 599.645 401.401 598.465C400.464 597.285 399.995 595.652 399.995 593.566ZM402.831 593.812C402.831 595.086 403.089 596.09 403.604 596.824C404.128 597.551 404.85 597.914 405.772 597.914C406.921 597.914 407.772 597.422 408.327 596.438V590.859C407.788 589.898 406.944 589.418 405.796 589.418C404.858 589.418 404.128 589.789 403.604 590.531C403.089 591.273 402.831 592.367 402.831 593.812ZM413.577 593.543C413.577 592.301 413.823 591.184 414.315 590.191C414.808 589.191 415.499 588.426 416.39 587.895C417.28 587.355 418.304 587.086 419.46 587.086C421.171 587.086 422.558 587.637 423.62 588.738C424.69 589.84 425.268 591.301 425.354 593.121L425.366 593.789C425.366 595.039 425.124 596.156 424.64 597.141C424.163 598.125 423.475 598.887 422.577 599.426C421.686 599.965 420.655 600.234 419.483 600.234C417.694 600.234 416.261 599.641 415.183 598.453C414.112 597.258 413.577 595.668 413.577 593.684V593.543ZM416.425 593.789C416.425 595.094 416.694 596.117 417.233 596.859C417.772 597.594 418.522 597.961 419.483 597.961C420.444 597.961 421.19 597.586 421.722 596.836C422.261 596.086 422.53 594.988 422.53 593.543C422.53 592.262 422.253 591.246 421.698 590.496C421.151 589.746 420.405 589.371 419.46 589.371C418.53 589.371 417.792 589.742 417.245 590.484C416.698 591.219 416.425 592.32 416.425 593.789ZM434.413 589.922C434.038 589.859 433.651 589.828 433.253 589.828C431.948 589.828 431.069 590.328 430.616 591.328V600H427.768V587.32H430.487L430.558 588.738C431.245 587.637 432.198 587.086 433.417 587.086C433.823 587.086 434.159 587.141 434.425 587.25L434.413 589.922ZM439.241 600H436.393V587.32H439.241V600ZM436.218 584.027C436.218 583.59 436.354 583.227 436.628 582.938C436.909 582.648 437.308 582.504 437.823 582.504C438.339 582.504 438.737 582.648 439.018 582.938C439.3 583.227 439.44 583.59 439.44 584.027C439.44 584.457 439.3 584.816 439.018 585.105C438.737 585.387 438.339 585.527 437.823 585.527C437.308 585.527 436.909 585.387 436.628 585.105C436.354 584.816 436.218 584.457 436.218 584.027ZM447.936 600.234C446.132 600.234 444.667 599.668 443.542 598.535C442.425 597.395 441.866 595.879 441.866 593.988V593.637C441.866 592.371 442.108 591.242 442.593 590.25C443.085 589.25 443.772 588.473 444.655 587.918C445.538 587.363 446.522 587.086 447.608 587.086C449.335 587.086 450.667 587.637 451.604 588.738C452.55 589.84 453.022 591.398 453.022 593.414V594.562H444.737C444.823 595.609 445.171 596.438 445.78 597.047C446.397 597.656 447.171 597.961 448.1 597.961C449.405 597.961 450.468 597.434 451.288 596.379L452.823 597.844C452.315 598.602 451.636 599.191 450.784 599.613C449.94 600.027 448.991 600.234 447.936 600.234ZM447.597 589.371C446.815 589.371 446.183 589.645 445.698 590.191C445.222 590.738 444.917 591.5 444.784 592.477H450.21V592.266C450.147 591.312 449.893 590.594 449.448 590.109C449.003 589.617 448.386 589.371 447.597 589.371ZM462.35 596.555C462.35 596.047 462.14 595.66 461.718 595.395C461.304 595.129 460.612 594.895 459.643 594.691C458.675 594.488 457.866 594.23 457.218 593.918C455.796 593.23 455.085 592.234 455.085 590.93C455.085 589.836 455.546 588.922 456.468 588.188C457.39 587.453 458.561 587.086 459.983 587.086C461.499 587.086 462.722 587.461 463.651 588.211C464.589 588.961 465.058 589.934 465.058 591.129H462.21C462.21 590.582 462.007 590.129 461.6 589.77C461.194 589.402 460.655 589.219 459.983 589.219C459.358 589.219 458.847 589.363 458.448 589.652C458.058 589.941 457.862 590.328 457.862 590.812C457.862 591.25 458.046 591.59 458.413 591.832C458.78 592.074 459.522 592.32 460.64 592.57C461.757 592.812 462.632 593.105 463.265 593.449C463.905 593.785 464.378 594.191 464.683 594.668C464.995 595.145 465.151 595.723 465.151 596.402C465.151 597.543 464.679 598.469 463.733 599.18C462.788 599.883 461.55 600.234 460.018 600.234C458.979 600.234 458.054 600.047 457.241 599.672C456.429 599.297 455.796 598.781 455.343 598.125C454.89 597.469 454.663 596.762 454.663 596.004H457.429C457.468 596.676 457.722 597.195 458.19 597.562C458.659 597.922 459.28 598.102 460.054 598.102C460.804 598.102 461.374 597.961 461.765 597.68C462.155 597.391 462.35 597.016 462.35 596.555Z" fill="#5452F6"/>
<g filter="url(#filter1_d)">
<rect x="1413" y="564" width="197" height="60" rx="30" fill="#EEEEFF"/>
<rect x="1413.5" y="564.5" width="196" height="59" rx="29.5" stroke="#5452F6"/>
</g>
<path d="M1487.91 602V584.938H1492.95C1494.46 584.938 1495.79 585.273 1496.96 585.945C1498.13 586.617 1499.04 587.57 1499.68 588.805C1500.32 590.039 1500.64 591.453 1500.64 593.047V593.902C1500.64 595.52 1500.31 596.941 1499.66 598.168C1499.02 599.395 1498.11 600.34 1496.91 601.004C1495.72 601.668 1494.36 602 1492.82 602H1487.91ZM1490.88 587.328V599.633H1492.81C1494.36 599.633 1495.55 599.148 1496.38 598.18C1497.22 597.203 1497.64 595.805 1497.66 593.984V593.035C1497.66 591.184 1497.26 589.77 1496.45 588.793C1495.65 587.816 1494.48 587.328 1492.95 587.328H1490.88ZM1502.78 595.543C1502.78 594.301 1503.03 593.184 1503.52 592.191C1504.01 591.191 1504.7 590.426 1505.59 589.895C1506.48 589.355 1507.51 589.086 1508.66 589.086C1510.38 589.086 1511.76 589.637 1512.82 590.738C1513.89 591.84 1514.47 593.301 1514.56 595.121L1514.57 595.789C1514.57 597.039 1514.33 598.156 1513.84 599.141C1513.37 600.125 1512.68 600.887 1511.78 601.426C1510.89 601.965 1509.86 602.234 1508.69 602.234C1506.9 602.234 1505.47 601.641 1504.39 600.453C1503.32 599.258 1502.78 597.668 1502.78 595.684V595.543ZM1505.63 595.789C1505.63 597.094 1505.9 598.117 1506.44 598.859C1506.98 599.594 1507.73 599.961 1508.69 599.961C1509.65 599.961 1510.39 599.586 1510.93 598.836C1511.47 598.086 1511.73 596.988 1511.73 595.543C1511.73 594.262 1511.46 593.246 1510.9 592.496C1510.36 591.746 1509.61 591.371 1508.66 591.371C1507.73 591.371 1507 591.742 1506.45 592.484C1505.9 593.219 1505.63 594.32 1505.63 595.789ZM1519.62 589.32L1519.7 590.785C1520.64 589.652 1521.87 589.086 1523.39 589.086C1526.04 589.086 1527.38 590.598 1527.43 593.621V602H1524.58V593.785C1524.58 592.98 1524.4 592.387 1524.05 592.004C1523.71 591.613 1523.14 591.418 1522.35 591.418C1521.2 591.418 1520.35 591.938 1519.79 592.977V602H1516.94V589.32H1519.62ZM1535.92 602.234C1534.12 602.234 1532.65 601.668 1531.53 600.535C1530.41 599.395 1529.85 597.879 1529.85 595.988V595.637C1529.85 594.371 1530.09 593.242 1530.58 592.25C1531.07 591.25 1531.76 590.473 1532.64 589.918C1533.52 589.363 1534.51 589.086 1535.59 589.086C1537.32 589.086 1538.65 589.637 1539.59 590.738C1540.54 591.84 1541.01 593.398 1541.01 595.414V596.562H1532.72C1532.81 597.609 1533.16 598.438 1533.77 599.047C1534.38 599.656 1535.16 599.961 1536.09 599.961C1537.39 599.961 1538.45 599.434 1539.27 598.379L1540.81 599.844C1540.3 600.602 1539.62 601.191 1538.77 601.613C1537.93 602.027 1536.98 602.234 1535.92 602.234ZM1535.58 591.371C1534.8 591.371 1534.17 591.645 1533.68 592.191C1533.21 592.738 1532.9 593.5 1532.77 594.477H1538.2V594.266C1538.13 593.312 1537.88 592.594 1537.43 592.109C1536.99 591.617 1536.37 591.371 1535.58 591.371Z" fill="#5452F6"/>
<g filter="url(#filter2_d)">
<rect x="590" y="563" width="129" height="63" rx="8" fill="white"/>
<path d="M640.961 594.93C639.674 594.56 638.737 594.107 638.148 593.57C637.565 593.029 637.273 592.362 637.273 591.57C637.273 590.674 637.63 589.935 638.344 589.352C639.062 588.763 639.995 588.469 641.141 588.469C641.922 588.469 642.617 588.62 643.227 588.922C643.841 589.224 644.315 589.641 644.648 590.172C644.987 590.703 645.156 591.284 645.156 591.914H643.648C643.648 591.227 643.43 590.688 642.992 590.297C642.555 589.901 641.938 589.703 641.141 589.703C640.401 589.703 639.823 589.867 639.406 590.195C638.995 590.518 638.789 590.969 638.789 591.547C638.789 592.01 638.984 592.404 639.375 592.727C639.771 593.044 640.44 593.336 641.383 593.602C642.331 593.867 643.07 594.161 643.602 594.484C644.138 594.802 644.534 595.174 644.789 595.602C645.049 596.029 645.18 596.531 645.18 597.109C645.18 598.031 644.82 598.771 644.102 599.328C643.383 599.88 642.422 600.156 641.219 600.156C640.438 600.156 639.708 600.008 639.031 599.711C638.354 599.409 637.831 598.997 637.461 598.477C637.096 597.956 636.914 597.365 636.914 596.703H638.422C638.422 597.391 638.674 597.935 639.18 598.336C639.69 598.732 640.37 598.93 641.219 598.93C642.01 598.93 642.617 598.768 643.039 598.445C643.461 598.122 643.672 597.682 643.672 597.125C643.672 596.568 643.477 596.138 643.086 595.836C642.695 595.529 641.987 595.227 640.961 594.93ZM648.328 592.57C648.969 591.784 649.802 591.391 650.828 591.391C652.615 591.391 653.516 592.398 653.531 594.414V600H652.086V594.406C652.081 593.797 651.94 593.346 651.664 593.055C651.393 592.763 650.969 592.617 650.391 592.617C649.922 592.617 649.51 592.742 649.156 592.992C648.802 593.242 648.526 593.57 648.328 593.977V600H646.883V588H648.328V592.57ZM655.312 595.695C655.312 594.867 655.474 594.122 655.797 593.461C656.125 592.799 656.578 592.289 657.156 591.93C657.74 591.57 658.404 591.391 659.148 591.391C660.299 591.391 661.229 591.789 661.938 592.586C662.651 593.383 663.008 594.443 663.008 595.766V595.867C663.008 596.69 662.849 597.43 662.531 598.086C662.219 598.737 661.768 599.245 661.18 599.609C660.596 599.974 659.924 600.156 659.164 600.156C658.018 600.156 657.089 599.758 656.375 598.961C655.667 598.164 655.312 597.109 655.312 595.797V595.695ZM656.766 595.867C656.766 596.805 656.982 597.557 657.414 598.125C657.852 598.693 658.435 598.977 659.164 598.977C659.898 598.977 660.482 598.69 660.914 598.117C661.346 597.539 661.562 596.732 661.562 595.695C661.562 594.768 661.341 594.018 660.898 593.445C660.461 592.867 659.878 592.578 659.148 592.578C658.435 592.578 657.859 592.862 657.422 593.43C656.984 593.997 656.766 594.81 656.766 595.867ZM671.961 595.867C671.961 597.154 671.667 598.19 671.078 598.977C670.49 599.763 669.693 600.156 668.688 600.156C667.661 600.156 666.854 599.831 666.266 599.18V603.25H664.82V591.547H666.141L666.211 592.484C666.799 591.755 667.617 591.391 668.664 591.391C669.68 591.391 670.482 591.773 671.07 592.539C671.664 593.305 671.961 594.37 671.961 595.734V595.867ZM670.516 595.703C670.516 594.75 670.312 593.997 669.906 593.445C669.5 592.893 668.943 592.617 668.234 592.617C667.359 592.617 666.703 593.005 666.266 593.781V597.82C666.698 598.591 667.359 598.977 668.25 598.977C668.943 598.977 669.492 598.703 669.898 598.156C670.31 597.604 670.516 596.786 670.516 595.703Z" fill="#5452F6"/>
<path d="M636.289 601.562H672.703V602.344H636.289V601.562Z" fill="#5452F6"/>
<rect x="590.5" y="563.5" width="128" height="62" rx="7.5" stroke="#5452F6"/>
</g>
<g filter="url(#filter3_d)">
<rect x="797" y="563" width="235" height="63" rx="8" fill="white"/>
<path d="M852.273 589.859H848.617V600H847.125V589.859H843.477V588.625H852.273V589.859ZM858.062 600C857.979 599.833 857.911 599.536 857.859 599.109C857.188 599.807 856.385 600.156 855.453 600.156C854.62 600.156 853.935 599.922 853.398 599.453C852.867 598.979 852.602 598.38 852.602 597.656C852.602 596.776 852.935 596.094 853.602 595.609C854.273 595.12 855.216 594.875 856.43 594.875H857.836V594.211C857.836 593.706 857.685 593.305 857.383 593.008C857.081 592.706 856.635 592.555 856.047 592.555C855.531 592.555 855.099 592.685 854.75 592.945C854.401 593.206 854.227 593.521 854.227 593.891H852.773C852.773 593.469 852.922 593.062 853.219 592.672C853.521 592.276 853.927 591.964 854.438 591.734C854.953 591.505 855.518 591.391 856.133 591.391C857.107 591.391 857.87 591.635 858.422 592.125C858.974 592.609 859.26 593.279 859.281 594.133V598.023C859.281 598.799 859.38 599.417 859.578 599.875V600H858.062ZM855.664 598.898C856.117 598.898 856.547 598.781 856.953 598.547C857.359 598.312 857.654 598.008 857.836 597.633V595.898H856.703C854.932 595.898 854.047 596.417 854.047 597.453C854.047 597.906 854.198 598.26 854.5 598.516C854.802 598.771 855.19 598.898 855.664 598.898ZM868.688 595.867C868.688 597.154 868.393 598.19 867.805 598.977C867.216 599.763 866.419 600.156 865.414 600.156C864.388 600.156 863.581 599.831 862.992 599.18V603.25H861.547V591.547H862.867L862.938 592.484C863.526 591.755 864.344 591.391 865.391 591.391C866.406 591.391 867.208 591.773 867.797 592.539C868.391 593.305 868.688 594.37 868.688 595.734V595.867ZM867.242 595.703C867.242 594.75 867.039 593.997 866.633 593.445C866.227 592.893 865.669 592.617 864.961 592.617C864.086 592.617 863.43 593.005 862.992 593.781V597.82C863.424 598.591 864.086 598.977 864.977 598.977C865.669 598.977 866.219 598.703 866.625 598.156C867.036 597.604 867.242 596.786 867.242 595.703ZM876.461 589.5V591.547H878.039V592.664H876.461V597.906C876.461 598.245 876.531 598.5 876.672 598.672C876.812 598.839 877.052 598.922 877.391 598.922C877.557 598.922 877.786 598.891 878.078 598.828V600C877.698 600.104 877.328 600.156 876.969 600.156C876.323 600.156 875.836 599.961 875.508 599.57C875.18 599.18 875.016 598.625 875.016 597.906V592.664H873.477V591.547H875.016V589.5H876.461ZM881.18 592.57C881.82 591.784 882.654 591.391 883.68 591.391C885.466 591.391 886.367 592.398 886.383 594.414V600H884.938V594.406C884.932 593.797 884.792 593.346 884.516 593.055C884.245 592.763 883.82 592.617 883.242 592.617C882.773 592.617 882.362 592.742 882.008 592.992C881.654 593.242 881.378 593.57 881.18 593.977V600H879.734V588H881.18V592.57ZM892.055 600.156C890.909 600.156 889.977 599.781 889.258 599.031C888.539 598.276 888.18 597.268 888.18 596.008V595.742C888.18 594.904 888.339 594.156 888.656 593.5C888.979 592.839 889.427 592.323 890 591.953C890.578 591.578 891.203 591.391 891.875 591.391C892.974 591.391 893.828 591.753 894.438 592.477C895.047 593.201 895.352 594.237 895.352 595.586V596.188H889.625C889.646 597.021 889.888 597.695 890.352 598.211C890.82 598.721 891.414 598.977 892.133 598.977C892.643 598.977 893.076 598.872 893.43 598.664C893.784 598.456 894.094 598.18 894.359 597.836L895.242 598.523C894.534 599.612 893.471 600.156 892.055 600.156ZM891.875 592.578C891.292 592.578 890.802 592.792 890.406 593.219C890.01 593.641 889.766 594.234 889.672 595H893.906V594.891C893.865 594.156 893.667 593.589 893.312 593.188C892.958 592.781 892.479 592.578 891.875 592.578ZM904.391 598.977C904.906 598.977 905.357 598.82 905.742 598.508C906.128 598.195 906.341 597.805 906.383 597.336H907.75C907.724 597.82 907.557 598.281 907.25 598.719C906.943 599.156 906.531 599.505 906.016 599.766C905.505 600.026 904.964 600.156 904.391 600.156C903.24 600.156 902.323 599.773 901.641 599.008C900.964 598.237 900.625 597.185 900.625 595.852V595.609C900.625 594.786 900.776 594.055 901.078 593.414C901.38 592.773 901.812 592.276 902.375 591.922C902.943 591.568 903.612 591.391 904.383 591.391C905.331 591.391 906.117 591.674 906.742 592.242C907.372 592.81 907.708 593.547 907.75 594.453H906.383C906.341 593.906 906.133 593.458 905.758 593.109C905.388 592.755 904.93 592.578 904.383 592.578C903.648 592.578 903.078 592.844 902.672 593.375C902.271 593.901 902.07 594.664 902.07 595.664V595.938C902.07 596.911 902.271 597.661 902.672 598.188C903.073 598.714 903.646 598.977 904.391 598.977ZM908.992 595.695C908.992 594.867 909.154 594.122 909.477 593.461C909.805 592.799 910.258 592.289 910.836 591.93C911.419 591.57 912.083 591.391 912.828 591.391C913.979 591.391 914.909 591.789 915.617 592.586C916.331 593.383 916.688 594.443 916.688 595.766V595.867C916.688 596.69 916.529 597.43 916.211 598.086C915.898 598.737 915.448 599.245 914.859 599.609C914.276 599.974 913.604 600.156 912.844 600.156C911.698 600.156 910.768 599.758 910.055 598.961C909.346 598.164 908.992 597.109 908.992 595.797V595.695ZM910.445 595.867C910.445 596.805 910.661 597.557 911.094 598.125C911.531 598.693 912.115 598.977 912.844 598.977C913.578 598.977 914.161 598.69 914.594 598.117C915.026 597.539 915.242 596.732 915.242 595.695C915.242 594.768 915.021 594.018 914.578 593.445C914.141 592.867 913.557 592.578 912.828 592.578C912.115 592.578 911.539 592.862 911.102 593.43C910.664 593.997 910.445 594.81 910.445 595.867ZM920.07 600H918.625V591.547H920.07V600ZM918.508 589.305C918.508 589.07 918.578 588.872 918.719 588.711C918.865 588.549 919.078 588.469 919.359 588.469C919.641 588.469 919.854 588.549 920 588.711C920.146 588.872 920.219 589.07 920.219 589.305C920.219 589.539 920.146 589.734 920 589.891C919.854 590.047 919.641 590.125 919.359 590.125C919.078 590.125 918.865 590.047 918.719 589.891C918.578 589.734 918.508 589.539 918.508 589.305ZM923.758 591.547L923.805 592.609C924.451 591.797 925.294 591.391 926.336 591.391C928.122 591.391 929.023 592.398 929.039 594.414V600H927.594V594.406C927.589 593.797 927.448 593.346 927.172 593.055C926.901 592.763 926.477 592.617 925.898 592.617C925.43 592.617 925.018 592.742 924.664 592.992C924.31 593.242 924.034 593.57 923.836 593.977V600H922.391V591.547H923.758ZM936.141 597.758C936.141 597.367 935.992 597.065 935.695 596.852C935.404 596.633 934.891 596.445 934.156 596.289C933.427 596.133 932.846 595.945 932.414 595.727C931.987 595.508 931.669 595.247 931.461 594.945C931.258 594.643 931.156 594.284 931.156 593.867C931.156 593.174 931.448 592.589 932.031 592.109C932.62 591.63 933.37 591.391 934.281 591.391C935.24 591.391 936.016 591.638 936.609 592.133C937.208 592.628 937.508 593.26 937.508 594.031H936.055C936.055 593.635 935.885 593.294 935.547 593.008C935.214 592.721 934.792 592.578 934.281 592.578C933.755 592.578 933.344 592.693 933.047 592.922C932.75 593.151 932.602 593.451 932.602 593.82C932.602 594.169 932.74 594.432 933.016 594.609C933.292 594.786 933.789 594.956 934.508 595.117C935.232 595.279 935.818 595.471 936.266 595.695C936.714 595.919 937.044 596.19 937.258 596.508C937.477 596.82 937.586 597.203 937.586 597.656C937.586 598.411 937.284 599.018 936.68 599.477C936.076 599.93 935.292 600.156 934.328 600.156C933.651 600.156 933.052 600.036 932.531 599.797C932.01 599.557 931.602 599.224 931.305 598.797C931.013 598.365 930.867 597.898 930.867 597.398H932.312C932.339 597.883 932.531 598.268 932.891 598.555C933.255 598.836 933.734 598.977 934.328 598.977C934.875 598.977 935.312 598.867 935.641 598.648C935.974 598.424 936.141 598.128 936.141 597.758ZM945.398 589.5V591.547H946.977V592.664H945.398V597.906C945.398 598.245 945.469 598.5 945.609 598.672C945.75 598.839 945.99 598.922 946.328 598.922C946.495 598.922 946.724 598.891 947.016 598.828V600C946.635 600.104 946.266 600.156 945.906 600.156C945.26 600.156 944.773 599.961 944.445 599.57C944.117 599.18 943.953 598.625 943.953 597.906V592.664H942.414V591.547H943.953V589.5H945.398ZM948.133 595.695C948.133 594.867 948.294 594.122 948.617 593.461C948.945 592.799 949.398 592.289 949.977 591.93C950.56 591.57 951.224 591.391 951.969 591.391C953.12 591.391 954.049 591.789 954.758 592.586C955.471 593.383 955.828 594.443 955.828 595.766V595.867C955.828 596.69 955.669 597.43 955.352 598.086C955.039 598.737 954.589 599.245 954 599.609C953.417 599.974 952.745 600.156 951.984 600.156C950.839 600.156 949.909 599.758 949.195 598.961C948.487 598.164 948.133 597.109 948.133 595.797V595.695ZM949.586 595.867C949.586 596.805 949.802 597.557 950.234 598.125C950.672 598.693 951.255 598.977 951.984 598.977C952.719 598.977 953.302 598.69 953.734 598.117C954.167 597.539 954.383 596.732 954.383 595.695C954.383 594.768 954.161 594.018 953.719 593.445C953.281 592.867 952.698 592.578 951.969 592.578C951.255 592.578 950.68 592.862 950.242 593.43C949.805 593.997 949.586 594.81 949.586 595.867ZM968.766 595.867C968.766 597.159 968.469 598.198 967.875 598.984C967.281 599.766 966.484 600.156 965.484 600.156C964.417 600.156 963.591 599.779 963.008 599.023L962.938 600H961.609V588H963.055V592.477C963.638 591.753 964.443 591.391 965.469 591.391C966.495 591.391 967.299 591.779 967.883 592.555C968.471 593.331 968.766 594.393 968.766 595.742V595.867ZM967.32 595.703C967.32 594.719 967.13 593.958 966.75 593.422C966.37 592.885 965.823 592.617 965.109 592.617C964.156 592.617 963.471 593.06 963.055 593.945V597.602C963.497 598.487 964.188 598.93 965.125 598.93C965.818 598.93 966.357 598.661 966.742 598.125C967.128 597.589 967.32 596.781 967.32 595.703ZM975.812 599.164C975.25 599.826 974.424 600.156 973.336 600.156C972.435 600.156 971.747 599.896 971.273 599.375C970.805 598.849 970.568 598.073 970.562 597.047V591.547H972.008V597.008C972.008 598.289 972.529 598.93 973.57 598.93C974.674 598.93 975.409 598.518 975.773 597.695V591.547H977.219V600H975.844L975.812 599.164ZM982.188 597.883L984.156 591.547H985.703L982.305 601.305C981.779 602.711 980.943 603.414 979.797 603.414L979.523 603.391L978.984 603.289V602.117L979.375 602.148C979.865 602.148 980.245 602.049 980.516 601.852C980.792 601.654 981.018 601.292 981.195 600.766L981.516 599.906L978.5 591.547H980.078L982.188 597.883Z" fill="#5452F6"/>
<rect x="797.5" y="563.5" width="234" height="62" rx="7.5" stroke="#5452F6"/>
</g>
<path d="M795.66 593.763L787.672 586.517C787.029 585.934 786 586.39 786 587.257V601.351C786 602.205 787.002 602.666 787.651 602.11L795.639 595.263C796.096 594.871 796.106 594.168 795.66 593.763Z" fill="#5452F6"/>
<line x1="721" y1="594.5" x2="786" y2="594.5" stroke="#5452F6" stroke-width="2"/>
<path d="M1107.66 593.763L1099.67 586.517C1099.03 585.934 1098 586.39 1098 587.257V601.351C1098 602.205 1099 602.666 1099.65 602.11L1107.64 595.263C1108.1 594.871 1108.11 594.168 1107.66 593.763Z" fill="#5452F6"/>
<line x1="1033" y1="594.5" x2="1098" y2="594.5" stroke="#5452F6" stroke-width="2"/>
<path d="M1409.66 593.763L1401.67 586.517C1401.03 585.934 1400 586.39 1400 587.257V601.351C1400 602.205 1401 602.666 1401.65 602.11L1409.64 595.263C1410.1 594.871 1410.11 594.168 1409.66 593.763Z" fill="#5452F6"/>
<line x1="1335" y1="594.5" x2="1400" y2="594.5" stroke="#5452F6" stroke-width="2"/>
<g filter="url(#filter4_d)">
<rect x="1109" y="563" width="226" height="63" rx="8" fill="white"/>
<path d="M1162.67 597.031H1157.91L1156.84 600H1155.29L1159.63 588.625H1160.95L1165.3 600H1163.76L1162.67 597.031ZM1158.36 595.797H1162.23L1160.29 590.477L1158.36 595.797ZM1173.74 595.867C1173.74 597.154 1173.45 598.19 1172.86 598.977C1172.27 599.763 1171.47 600.156 1170.47 600.156C1169.44 600.156 1168.64 599.831 1168.05 599.18V603.25H1166.6V591.547H1167.92L1167.99 592.484C1168.58 591.755 1169.4 591.391 1170.45 591.391C1171.46 591.391 1172.26 591.773 1172.85 592.539C1173.45 593.305 1173.74 594.37 1173.74 595.734V595.867ZM1172.3 595.703C1172.3 594.75 1172.09 593.997 1171.69 593.445C1171.28 592.893 1170.72 592.617 1170.02 592.617C1169.14 592.617 1168.48 593.005 1168.05 593.781V597.82C1168.48 598.591 1169.14 598.977 1170.03 598.977C1170.72 598.977 1171.27 598.703 1171.68 598.156C1172.09 597.604 1172.3 596.786 1172.3 595.703ZM1182.73 595.867C1182.73 597.154 1182.43 598.19 1181.84 598.977C1181.26 599.763 1180.46 600.156 1179.45 600.156C1178.43 600.156 1177.62 599.831 1177.03 599.18V603.25H1175.59V591.547H1176.91L1176.98 592.484C1177.57 591.755 1178.38 591.391 1179.43 591.391C1180.45 591.391 1181.25 591.773 1181.84 592.539C1182.43 593.305 1182.73 594.37 1182.73 595.734V595.867ZM1181.28 595.703C1181.28 594.75 1181.08 593.997 1180.67 593.445C1180.27 592.893 1179.71 592.617 1179 592.617C1178.12 592.617 1177.47 593.005 1177.03 593.781V597.82C1177.46 598.591 1178.12 598.977 1179.02 598.977C1179.71 598.977 1180.26 598.703 1180.66 598.156C1181.08 597.604 1181.28 596.786 1181.28 595.703ZM1186.14 600H1184.7V588H1186.14V600ZM1191.97 600.156C1190.82 600.156 1189.89 599.781 1189.17 599.031C1188.45 598.276 1188.09 597.268 1188.09 596.008V595.742C1188.09 594.904 1188.25 594.156 1188.57 593.5C1188.89 592.839 1189.34 592.323 1189.91 591.953C1190.49 591.578 1191.12 591.391 1191.79 591.391C1192.89 591.391 1193.74 591.753 1194.35 592.477C1194.96 593.201 1195.27 594.237 1195.27 595.586V596.188H1189.54C1189.56 597.021 1189.8 597.695 1190.27 598.211C1190.73 598.721 1191.33 598.977 1192.05 598.977C1192.56 598.977 1192.99 598.872 1193.34 598.664C1193.7 598.456 1194.01 598.18 1194.27 597.836L1195.16 598.523C1194.45 599.612 1193.39 600.156 1191.97 600.156ZM1191.79 592.578C1191.21 592.578 1190.72 592.792 1190.32 593.219C1189.92 593.641 1189.68 594.234 1189.59 595H1193.82V594.891C1193.78 594.156 1193.58 593.589 1193.23 593.188C1192.87 592.781 1192.39 592.578 1191.79 592.578ZM1208.05 595.867C1208.05 597.154 1207.76 598.19 1207.17 598.977C1206.58 599.763 1205.79 600.156 1204.78 600.156C1203.76 600.156 1202.95 599.831 1202.36 599.18V603.25H1200.91V591.547H1202.23L1202.3 592.484C1202.89 591.755 1203.71 591.391 1204.76 591.391C1205.77 591.391 1206.58 591.773 1207.16 592.539C1207.76 593.305 1208.05 594.37 1208.05 595.734V595.867ZM1206.61 595.703C1206.61 594.75 1206.41 593.997 1206 593.445C1205.59 592.893 1205.04 592.617 1204.33 592.617C1203.45 592.617 1202.8 593.005 1202.36 593.781V597.82C1202.79 598.591 1203.45 598.977 1204.34 598.977C1205.04 598.977 1205.59 598.703 1205.99 598.156C1206.4 597.604 1206.61 596.786 1206.61 595.703ZM1215.12 600C1215.03 599.833 1214.97 599.536 1214.91 599.109C1214.24 599.807 1213.44 600.156 1212.51 600.156C1211.67 600.156 1210.99 599.922 1210.45 599.453C1209.92 598.979 1209.66 598.38 1209.66 597.656C1209.66 596.776 1209.99 596.094 1210.66 595.609C1211.33 595.12 1212.27 594.875 1213.48 594.875H1214.89V594.211C1214.89 593.706 1214.74 593.305 1214.44 593.008C1214.14 592.706 1213.69 592.555 1213.1 592.555C1212.59 592.555 1212.15 592.685 1211.8 592.945C1211.46 593.206 1211.28 593.521 1211.28 593.891H1209.83C1209.83 593.469 1209.98 593.062 1210.27 592.672C1210.58 592.276 1210.98 591.964 1211.49 591.734C1212.01 591.505 1212.57 591.391 1213.19 591.391C1214.16 591.391 1214.92 591.635 1215.48 592.125C1216.03 592.609 1216.32 593.279 1216.34 594.133V598.023C1216.34 598.799 1216.43 599.417 1216.63 599.875V600H1215.12ZM1212.72 598.898C1213.17 598.898 1213.6 598.781 1214.01 598.547C1214.41 598.312 1214.71 598.008 1214.89 597.633V595.898H1213.76C1211.99 595.898 1211.1 596.417 1211.1 597.453C1211.1 597.906 1211.25 598.26 1211.55 598.516C1211.86 598.771 1212.24 598.898 1212.72 598.898ZM1221.24 597.883L1223.21 591.547H1224.76L1221.36 601.305C1220.83 602.711 1220 603.414 1218.85 603.414L1218.58 603.391L1218.04 603.289V602.117L1218.43 602.148C1218.92 602.148 1219.3 602.049 1219.57 601.852C1219.85 601.654 1220.07 601.292 1220.25 600.766L1220.57 599.906L1217.55 591.547H1219.13L1221.24 597.883ZM1234.95 597.758C1234.95 597.367 1234.8 597.065 1234.5 596.852C1234.21 596.633 1233.7 596.445 1232.96 596.289C1232.23 596.133 1231.65 595.945 1231.22 595.727C1230.79 595.508 1230.47 595.247 1230.27 594.945C1230.06 594.643 1229.96 594.284 1229.96 593.867C1229.96 593.174 1230.25 592.589 1230.84 592.109C1231.42 591.63 1232.17 591.391 1233.09 591.391C1234.04 591.391 1234.82 591.638 1235.41 592.133C1236.01 592.628 1236.31 593.26 1236.31 594.031H1234.86C1234.86 593.635 1234.69 593.294 1234.35 593.008C1234.02 592.721 1233.6 592.578 1233.09 592.578C1232.56 592.578 1232.15 592.693 1231.85 592.922C1231.55 593.151 1231.41 593.451 1231.41 593.82C1231.41 594.169 1231.54 594.432 1231.82 594.609C1232.1 594.786 1232.59 594.956 1233.31 595.117C1234.04 595.279 1234.62 595.471 1235.07 595.695C1235.52 595.919 1235.85 596.19 1236.06 596.508C1236.28 596.82 1236.39 597.203 1236.39 597.656C1236.39 598.411 1236.09 599.018 1235.48 599.477C1234.88 599.93 1234.1 600.156 1233.13 600.156C1232.46 600.156 1231.86 600.036 1231.34 599.797C1230.82 599.557 1230.41 599.224 1230.11 598.797C1229.82 598.365 1229.67 597.898 1229.67 597.398H1231.12C1231.14 597.883 1231.34 598.268 1231.7 598.555C1232.06 598.836 1232.54 598.977 1233.13 598.977C1233.68 598.977 1234.12 598.867 1234.45 598.648C1234.78 598.424 1234.95 598.128 1234.95 597.758ZM1239.72 592.57C1240.36 591.784 1241.19 591.391 1242.22 591.391C1244.01 591.391 1244.91 592.398 1244.92 594.414V600H1243.48V594.406C1243.47 593.797 1243.33 593.346 1243.05 593.055C1242.78 592.763 1242.36 592.617 1241.78 592.617C1241.31 592.617 1240.9 592.742 1240.55 592.992C1240.19 593.242 1239.92 593.57 1239.72 593.977V600H1238.27V588H1239.72V592.57ZM1246.7 595.695C1246.7 594.867 1246.86 594.122 1247.19 593.461C1247.52 592.799 1247.97 592.289 1248.55 591.93C1249.13 591.57 1249.79 591.391 1250.54 591.391C1251.69 591.391 1252.62 591.789 1253.33 592.586C1254.04 593.383 1254.4 594.443 1254.4 595.766V595.867C1254.4 596.69 1254.24 597.43 1253.92 598.086C1253.61 598.737 1253.16 599.245 1252.57 599.609C1251.99 599.974 1251.32 600.156 1250.55 600.156C1249.41 600.156 1248.48 599.758 1247.77 598.961C1247.06 598.164 1246.7 597.109 1246.7 595.797V595.695ZM1248.16 595.867C1248.16 596.805 1248.37 597.557 1248.8 598.125C1249.24 598.693 1249.83 598.977 1250.55 598.977C1251.29 598.977 1251.87 598.69 1252.3 598.117C1252.74 597.539 1252.95 596.732 1252.95 595.695C1252.95 594.768 1252.73 594.018 1252.29 593.445C1251.85 592.867 1251.27 592.578 1250.54 592.578C1249.83 592.578 1249.25 592.862 1248.81 593.43C1248.38 593.997 1248.16 594.81 1248.16 595.867ZM1263.7 598.008L1265.32 591.547H1266.77L1264.3 600H1263.13L1261.08 593.594L1259.08 600H1257.91L1255.45 591.547H1256.89L1258.55 597.875L1260.52 591.547H1261.69L1263.7 598.008ZM1277.43 599.164C1276.87 599.826 1276.04 600.156 1274.95 600.156C1274.05 600.156 1273.36 599.896 1272.89 599.375C1272.42 598.849 1272.18 598.073 1272.18 597.047V591.547H1273.62V597.008C1273.62 598.289 1274.15 598.93 1275.19 598.93C1276.29 598.93 1277.03 598.518 1277.39 597.695V591.547H1278.84V600H1277.46L1277.43 599.164ZM1288.18 595.867C1288.18 597.154 1287.89 598.19 1287.3 598.977C1286.71 599.763 1285.91 600.156 1284.91 600.156C1283.88 600.156 1283.07 599.831 1282.48 599.18V603.25H1281.04V591.547H1282.36L1282.43 592.484C1283.02 591.755 1283.84 591.391 1284.88 591.391C1285.9 591.391 1286.7 591.773 1287.29 592.539C1287.88 593.305 1288.18 594.37 1288.18 595.734V595.867ZM1286.73 595.703C1286.73 594.75 1286.53 593.997 1286.12 593.445C1285.72 592.893 1285.16 592.617 1284.45 592.617C1283.58 592.617 1282.92 593.005 1282.48 593.781V597.82C1282.92 598.591 1283.58 598.977 1284.47 598.977C1285.16 598.977 1285.71 598.703 1286.12 598.156C1286.53 597.604 1286.73 596.786 1286.73 595.703Z" fill="#5452F6"/>
<rect x="1109.5" y="563.5" width="225" height="62" rx="7.5" stroke="#5452F6"/>
</g>
<path d="M588.66 592.763L580.672 585.517C580.029 584.934 579 585.39 579 586.257V600.351C579 601.205 580.002 601.666 580.651 601.11L588.639 594.263C589.096 593.871 589.106 593.168 588.66 592.763Z" fill="#5452F6"/>
<line x1="507" y1="593.5" x2="579" y2="593.5" stroke="#5452F6" stroke-width="2"/>
<defs>
<filter id="filter0_d" x="310" y="562" width="201" height="64" filterUnits="userSpaceOnUse" color-interpolation-filters="sRGB">
<feFlood flood-opacity="0" result="BackgroundImageFix"/>
<feColorMatrix in="SourceAlpha" type="matrix" values="0 0 0 0 0 0 0 0 0 0 0 0 0 0 0 0 0 0 127 0"/>
<feOffset dx="4" dy="4"/>
<feColorMatrix type="matrix" values="0 0 0 0 0.674908 0 0 0 0 0.662083 0 0 0 0 0.945833 0 0 0 1 0"/>
<feBlend mode="normal" in2="BackgroundImageFix" result="effect1_dropShadow"/>
<feBlend mode="normal" in="SourceGraphic" in2="effect1_dropShadow" result="shape"/>
</filter>
<filter id="filter1_d" x="1413" y="564" width="201" height="64" filterUnits="userSpaceOnUse" color-interpolation-filters="sRGB">
<feFlood flood-opacity="0" result="BackgroundImageFix"/>
<feColorMatrix in="SourceAlpha" type="matrix" values="0 0 0 0 0 0 0 0 0 0 0 0 0 0 0 0 0 0 127 0"/>
<feOffset dx="4" dy="4"/>
<feColorMatrix type="matrix" values="0 0 0 0 0.674908 0 0 0 0 0.662083 0 0 0 0 0.945833 0 0 0 1 0"/>
<feBlend mode="normal" in2="BackgroundImageFix" result="effect1_dropShadow"/>
<feBlend mode="normal" in="SourceGraphic" in2="effect1_dropShadow" result="shape"/>
</filter>
<filter id="filter2_d" x="590" y="563" width="133" height="67" filterUnits="userSpaceOnUse" color-interpolation-filters="sRGB">
<feFlood flood-opacity="0" result="BackgroundImageFix"/>
<feColorMatrix in="SourceAlpha" type="matrix" values="0 0 0 0 0 0 0 0 0 0 0 0 0 0 0 0 0 0 127 0"/>
<feOffset dx="4" dy="4"/>
<feColorMatrix type="matrix" values="0 0 0 0 0.674908 0 0 0 0 0.662083 0 0 0 0 0.945833 0 0 0 1 0"/>
<feBlend mode="normal" in2="BackgroundImageFix" result="effect1_dropShadow"/>
<feBlend mode="normal" in="SourceGraphic" in2="effect1_dropShadow" result="shape"/>
</filter>
<filter id="filter3_d" x="797" y="563" width="239" height="67" filterUnits="userSpaceOnUse" color-interpolation-filters="sRGB">
<feFlood flood-opacity="0" result="BackgroundImageFix"/>
<feColorMatrix in="SourceAlpha" type="matrix" values="0 0 0 0 0 0 0 0 0 0 0 0 0 0 0 0 0 0 127 0"/>
<feOffset dx="4" dy="4"/>
<feColorMatrix type="matrix" values="0 0 0 0 0.674908 0 0 0 0 0.662083 0 0 0 0 0.945833 0 0 0 1 0"/>
<feBlend mode="normal" in2="BackgroundImageFix" result="effect1_dropShadow"/>
<feBlend mode="normal" in="SourceGraphic" in2="effect1_dropShadow" result="shape"/>
</filter>
<filter id="filter4_d" x="1109" y="563" width="230" height="67" filterUnits="userSpaceOnUse" color-interpolation-filters="sRGB">
<feFlood flood-opacity="0" result="BackgroundImageFix"/>
<feColorMatrix in="SourceAlpha" type="matrix" values="0 0 0 0 0 0 0 0 0 0 0 0 0 0 0 0 0 0 127 0"/>
<feOffset dx="4" dy="4"/>
<feColorMatrix type="matrix" values="0 0 0 0 0.674908 0 0 0 0 0.662083 0 0 0 0 0.945833 0 0 0 1 0"/>
<feBlend mode="normal" in2="BackgroundImageFix" result="effect1_dropShadow"/>
<feBlend mode="normal" in="SourceGraphic" in2="effect1_dropShadow" result="shape"/>
</filter>
</defs>
</svg>
